<?xml version="1.0" standalone="no"?>
<!DOCTYPE svg PUBLIC "-//W3C//DTD SVG 1.1//EN" "http://www.w3.org/Graphics/SVG/1.1/DTD/svg11.dtd" >
<svg xmlns="http://www.w3.org/2000/svg">
<metadata>
This is a custom SVG webfont generated by Font Squirrel.
Copyright   : Criado por Mundo da Lua
Designer    : Mundo da Lua
</metadata>
<defs>
<font id="webfontVwroyzWo" horiz-adv-x="1024" >
<font-face units-per-em="2048" ascent="1638" descent="-410" />
<missing-glyph horiz-adv-x="512" />
<glyph unicode=" "  horiz-adv-x="512" />
<glyph unicode="&#x09;" horiz-adv-x="512" />
<glyph unicode="&#xa0;" horiz-adv-x="512" />
<glyph unicode="!" horiz-adv-x="681" d="M227 1247q0 55 29 96q31 43 86 43q113 0 113 -149q0 -18 -4 -68l-91 -811h-38l-89 811q-6 55 -6 78zM229 84q0 47 33 78t78 31t78 -31t33 -78t-33 -80t-78 -33t-78 33t-33 80z" />
<glyph unicode="&#x22;" horiz-adv-x="835" d="M133 1266q0 121 98 120q46 0 74 -30q29 -33 29 -76q0 -29 -27 -182l-53 -295h-43l-55 297q-23 123 -23 166zM498 1266q0 121 102 120q100 0 100 -106q0 -86 -18 -184l-57 -293h-50l-75 414q-2 16 -2 49z" />
<glyph unicode="#" d="M37 426v84h186l70 342h-256v80h274l92 454h82l-90 -454h336l98 454h82l-94 -454h170v-80h-184l-72 -342h256v-84h-272l-92 -455h-82l92 455h-340l-94 -455h-84l94 455h-172zM307 510h340l72 342h-340z" />
<glyph unicode="$" d="M109 334h43q20 -268 311 -297v584q-229 141 -301 245q-53 78 -53 187q0 139 108 229q96 78 246 96v92h63v-92q94 -8 138 -18q199 -92 192 -369h-39q-12 154 -76 226q-68 78 -215 94v-508q215 -151 258 -191q137 -131 138 -276q0 -157 -123 -258q-106 -90 -273 -107v-127 h-63v127q-311 1 -354 363zM264 1116q0 -139 199 -270v465q-199 -25 -199 -195zM526 37q74 12 115 37q121 74 121 213q0 92 -80 172q-39 39 -156 119v-541z" />
<glyph unicode="%" horiz-adv-x="1705" d="M72 1018q0 231 149 325q68 43 144 43q135 0 215 -118q68 -104 67.5 -250t-67.5 -248q-76 -117 -218 -117q-170 0 -249 174q-41 89 -41 191zM231 1020q0 -233 74 -297q23 -18 53 -18q131 0 131 309q0 317 -129 317t-129 -311zM315 -55l988 1441h90l-990 -1441h-88z M1061 307q0 231 147 324q68 43 138 43q84 0 149 -51q72 -55 102 -125q37 -86 37 -191q0 -147 -67 -248q-76 -115 -217 -114q-168 0 -250 174q-39 79 -39 188zM1219 301q0 -178 47 -250q33 -51 82 -51q129 0 129 305q0 315 -129 316q-49 0 -84 -56q-45 -69 -45 -264z" />
<glyph unicode="&#x26;" horiz-adv-x="1591" d="M76 266q0 268 413 492q-82 182 -81 299q0 170 127 260q96 70 223 69q111 0 186 -63q82 -70 82 -180q0 -125 -111 -223q-61 -55 -219 -138q117 -213 267 -413q141 154 178 293q37 141 12 208h41q31 -92 2 -262q-29 -172 -170 -317q143 -168 283 -168q144 0 184 147l39 -26 q-70 -274 -311 -275q-166 0 -351 195q-223 -195 -436 -195q-144 0 -246 74q-112 82 -112 223zM283 358q0 -113 71.5 -190.5t182.5 -77.5q119 0 280 131q-195 266 -295 469q-239 -138 -239 -332zM580 1135q0 -88 84 -287q246 117 245 301q0 68 -43 117t-110 49 q-72 0 -125 -53q-51 -51 -51 -127z" />
<glyph unicode="'" horiz-adv-x="368" d="M82 1266q0 121 96 120q49 0 76 -28q29 -33 29 -78q0 -29 -27 -182l-53 -295h-45l-54 297q-22 131 -22 166z" />
<glyph unicode="(" horiz-adv-x="681" d="M84 492q0 295 141 546q150 264 412 383v-41q-248 -137 -322 -485q-39 -176 -39 -379q0 -219 33 -389q45 -236 164 -381q59 -76 164 -147v-37q-151 77 -252 178q-301 301 -301 752z" />
<glyph unicode=")" horiz-adv-x="681" d="M45 -401q248 139 322 487q39 190 39 377q0 217 -33 389q-43 236 -162 381q-57 72 -166 147v41q334 -164 475 -518q78 -199 78 -409q0 -297 -141 -549q-150 -264 -412 -383v37z" />
<glyph unicode="*" d="M145 840q0 61 82 98q14 6 123 31q53 10 121 39q-55 27 -129 41q-119 25 -152 47q-45 33 -45 80q0 29 23 51q20 20 51 20q72 0 164 -104q57 -68 111 -99q-4 74 -27 138q-35 100 -35 135q0 104 84 104q78 0 78 -102q0 -35 -27 -131q-31 -109 -32 -144q63 43 100 84 q102 117 168 117q33 0 53 -20q25 -25 25 -56q0 -55 -76 -90q-14 -6 -123 -32q-78 -18 -127 -39q45 -25 127 -41q195 -37 195 -127q0 -31 -23 -54q-20 -20 -51 -20q-68 0 -166 115q-47 53 -102 92q4 -66 22 -125q37 -117 37 -162q0 -35 -21 -61q-23 -33 -55 -33q-88 0 -88 96 q0 45 21 107l32 102q2 6 11 76q-51 -33 -103 -88q-74 -83 -110 -105q-27 -14 -54 -14q-35 0 -57 20q-25 21 -25 54z" />
<glyph unicode="+" horiz-adv-x="1153" d="M37 639v84h498v496h79v-496h500v-84h-500v-498h-79v498h-498z" />
<glyph unicode="," horiz-adv-x="512" d="M111 82q0 51 39 84q41 35 90 35q74 0 125 -70q43 -61 43 -141q0 -233 -297 -332v45q92 31 149 94q66 72 66 162q0 41 -23 41q-16 0 -47 -18q-20 -10 -39 -11q-106 0 -106 111z" />
<glyph unicode="-" horiz-adv-x="681" d="M84 385v150h516v-150h-516z" />
<glyph unicode="." horiz-adv-x="512" d="M145 84q0 47 31 78q33 33 80 33t80 -33q31 -31 31 -78t-33 -80t-78 -33t-78 33t-33 80z" />
<glyph unicode="/" horiz-adv-x="567" d="M2 -29l492 1450h79l-489 -1450h-82z" />
<glyph unicode="0" d="M74 670q0 465 256 649q94 66 186 65q156 0 281 -159q154 -197 153 -535q0 -190 -49 -350q-66 -199 -190 -289q-111 -76 -205 -76q-195 0 -324 230q-108 195 -108 465zM270 645q0 -272 70 -457q57 -150 170 -149q143 0 199 211q47 176 47 485q0 233 -49 387 q-61 197 -193 197q-170 0 -217 -324q-27 -192 -27 -350z" />
<glyph unicode="1" d="M240 1223l329 161h33v-1384h-164v971q0 143 -10 190q-14 61 -70 62q-39 0 -102 -31z" />
<glyph unicode="2" d="M43 0v37q276 252 401 401q240 287 240 498q0 123 -72 207q-76 88 -194 88q-221 0 -297 -230h-37q20 170 117 273q104 111 268 110q154 0 270 -100q117 -104 117 -256q0 -106 -47 -207q-70 -154 -242 -342q-240 -262 -311 -327h354h289l-55 -152h-801z" />
<glyph unicode="3" d="M102 168l58 20q72 -102 149 -127q76 -25 162 -12.5t162 94.5q74 80 74 187q0 78 -35 153q-25 53 -58 84q-117 106 -272 107h-31v28q78 8 156 56q80 47 119 114q35 61 35 146q0 101 -62 166q-61 63 -164 63q-154 0 -258 -166l-33 17q121 287 367 286q162 0 250 -106 q66 -82 65 -168q0 -152 -186 -307q254 -98 254 -354q0 -174 -113 -306q-147 -168 -346 -166q-201 11 -293 191z" />
<glyph unicode="4" d="M33 358v127l629 899h108v-884h182v-142h-182v-358h-164v358h-573zM129 500h477v674z" />
<glyph unicode="5" d="M137 178l53 19q45 -63 72 -86q37 -31 74 -43q74 -23 153 -11q10 2 46 11q25 6 49 18q23 12 47 29q29 20 41 35q27 33 45 75.5t24 89.5q6 41 2 93q-2 43 -20 88q-18 57 -38.5 94t-51.5 72q-37 41 -68 59q-49 31 -96 51q-98 41 -281 51l246 529h463l-74 -172h-389l-84 -181 q248 -39 402 -198q46 -52 73 -105q29 -55 41 -116q16 -59 17 -123q0 -178 -107 -303q-33 -41 -78 -74q-49 -35 -88 -53q-45 -20 -96 -31q-55 -10 -94 -10q-197 6 -283 192z" />
<glyph unicode="6" d="M88 532q0 373 283 637q231 215 489 215h58v-36q-225 -20 -379 -174q-158 -154 -226 -416q144 98 289 98q154 0 252 -125q90 -119 90 -274q0 -172 -102 -312q-123 -170 -328 -170q-137 0 -235 93q-191 177 -191 464zM279 467q0 -150 59 -274q76 -160 205 -160 q113 0 174 106q51 88 51 209q0 154 -55 270q-70 150 -207 150q-78 0 -209 -84q-18 -135 -18 -217z" />
<glyph unicode="7" d="M141 1194l66 162h727v-37l-453 -1348h-112l405 1223h-373h-260z" />
<glyph unicode="8" d="M125 309q0 180 268 373q-121 100 -172 164q-82 102 -82 215q0 147 115 239q109 84 258 84q141 0 246 -73q119 -82 119 -219q0 -166 -279 -340q170 -131 231 -215q76 -102 76 -215q0 -156 -121 -254q-111 -92 -272 -93q-193 0 -301 121q-86 98 -86 213zM276 313 q0 -117 66 -198q66 -84 184 -84q100 0 166 53q74 61 74 156q0 68 -39 129q-66 98 -287 276q-164 -139 -164 -332zM285 1128q0 -53 26 -104q29 -59 74 -98l166 -135q95 86 129 135q53 74 53 176q0 104 -57.5 163.5t-161.5 59.5q-92 0 -158 -51q-71 -56 -71 -146z" />
<glyph unicode="9" d="M82 897q0 178 100 317q123 170 322 170q170 0 287 -139q145 -166 145 -422q0 -227 -115 -426q-113 -193 -305 -319q-162 -106 -350 -107h-57v37q270 2 458 266q106 150 146 322q-158 -102 -285 -102q-160 0 -258 124q-88 113 -88 279zM258 1001q0 -211 90 -329 q65 -86 160 -86q117 0 219 84q18 129 18 207q0 98 -30 202q-33 117 -97 181q-59 59 -137 59q-113 0 -174 -109q-49 -86 -49 -209z" />
<glyph unicode=":" horiz-adv-x="567" d="M176 84q0 45 33 78t78 33q47 0 79.5 -33t32.5 -78q0 -47 -32.5 -80t-79.5 -33q-45 0 -78 33t-33 80zM178 834q0 45 33 77.5t78 32.5t77.5 -32.5t32.5 -77.5q0 -47 -32 -80q-31 -31 -78 -31t-78 31q-33 33 -33 80z" />
<glyph unicode=";" horiz-adv-x="567" d="M141 82q0 51 39 84q41 35 90 35q76 0 127 -70q43 -61 43 -141q0 -233 -299 -332v45q94 31 152 94q66 72 65 162q0 41 -22 41q-18 0 -49 -18q-20 -10 -37 -11q-109 0 -109 111zM170 836q0 47 33 77q34 31 80 31q45 0 77.5 -30.5t32.5 -78t-33 -79.5q-31 -31 -77 -31 q-49 0 -80 31q-33 33 -33 80z" />
<glyph unicode="&#x3c;" horiz-adv-x="1153" d="M37 657v50l1075 464v-86l-926 -403l926 -406v-90z" />
<glyph unicode="=" horiz-adv-x="1153" d="M37 475v82h1079v-82h-1079zM37 801v82h1079v-82h-1079z" />
<glyph unicode="&#x3e;" horiz-adv-x="1153" d="M37 186v86l928 404l-928 405v90l1075 -469v-49z" />
<glyph unicode="?" horiz-adv-x="907" d="M92 1100q0 135 117 215q106 72 244 71q205 0 303 -118q72 -90 71 -197q0 -154 -155 -330q-131 -150 -156 -190q-51 -86 -61 -232h-41q6 132 37 228q25 78 96 211q94 180 94 297q0 115 -57 190q-63 86 -174 86q-68 0 -123 -31q-66 -37 -66 -100q0 -33 31 -90t31 -82 q0 -33 -22.5 -59.5t-57.5 -26.5q-53 0 -84 55q-27 50 -27 103zM330 84q0 46 30 80q31 33 80 33q47 0 80 -33t33 -80q0 -43 -35 -78q-33 -33 -78 -33t-77.5 33t-32.5 78z" />
<glyph unicode="@" horiz-adv-x="1884" d="M96 444q0 264 123 490q125 231 348 360q221 127 475 127q205 0 365 -80q170 -84 262 -254q88 -164 88 -350q0 -176 -74 -348q-83 -190 -215 -276q-125 -82 -264 -82q-152 0 -151 137q0 66 16 147q-236 -285 -393 -284q-84 0 -135 75q-45 66 -45 156q0 164 104 346 q98 170 240 273q115 84 207 84q141 0 172 -140l32 111l158 22l-119 -399q-92 -316 -92 -381q0 -76 76 -76q104 0 213 109q84 84 137 203q74 164 74 342q0 166 -82 313q-84 150 -233.5 225.5t-333.5 75.5q-244 0 -441 -129q-193 -127 -301 -344q-117 -230 -117 -479 q0 -225 97 -408q104 -195 291 -295q186 -96 397 -96q276 0 487 150q203 143 316 403h57q-94 -285 -330 -448q-240 -166 -536 -166q-240 0 -440.5 110.5t-317.5 321.5q-115 206 -115 454zM653 293q0 -57 29 -94q35 -47 86 -47q119 0 256 180q72 90 102 182q55 160 56 258 q0 59 -31 100q-35 45 -94 46q-74 0 -152 -80q-113 -115 -192 -314q-60 -147 -60 -231z" />
<glyph unicode="A" horiz-adv-x="1478" d="M115 0l602 1386h35l622 -1386h-254l-43 117q-6 20 -57 141l-82 197h-526l-197 -455h-100zM442 528h467l-229 547z" />
<glyph unicode="B" horiz-adv-x="1363" d="M227 0l2 1356h392q162 0 262 -25q141 -35 217 -114q92 -92 92 -224q0 -221 -246 -301q139 -31 211 -96q96 -90 96 -225q0 -109 -67 -201q-61 -86 -170 -127q-111 -43 -342 -43h-447zM422 98q113 -27 229 -26q152 0 252 63q119 76 119 219q0 186 -182 267q-98 43 -242 43 q-121 0 -176 -11v-555zM422 745q70 -14 188 -14q255 0 332 129q39 63 39 141q0 145 -123 224q-102 63 -256 63q-104 0 -180 -20v-523z" />
<glyph unicode="C" horiz-adv-x="1363" d="M74 686q0 201 86 367q90 172 256 270q164 94 348 94q150 0 266 -69q137 -84 238 -265l-31 -20q-119 168 -221 223q-106 59 -236 60q-295 0 -415 -287q-63 -147 -64 -375q0 -379 238 -524q121 -74 270 -74q152 0 264 78q88 63 191 205l30 -21q-195 -348 -561 -348 q-336 0 -520 250q-139 188 -139 436z" />
<glyph unicode="D" horiz-adv-x="1478" d="M229 0v1356h359q261 0 405 -49q203 -68 312 -250q96 -162 96 -373q0 -281 -172 -471q-190 -213 -588 -213h-412zM422 98q131 -29 213 -28q252 0 399 180q139 168 140 426q0 260 -140 428q-152 176 -407 176q-86 0 -205 -29v-1153z" />
<glyph unicode="E" horiz-adv-x="1249" d="M233 0l3 1356h851v-74h-659v-537h551v-71h-551v-449v-75q6 -47 37 -64q23 -12 76 -12h546v-74h-854z" />
<glyph unicode="F" horiz-adv-x="1249" d="M233 0l3 1356h851v-74h-659v-537h551v-71h-551v-674h-195z" />
<glyph unicode="G" horiz-adv-x="1478" d="M80 686q0 -250 137 -436q184 -250 522 -250q162 0 338 76l223 125v538h-374v-116q131 0 161 -66q6 -6 11 -8q6 -4 6 -45v-311q-190 -106 -291 -107q-147 0 -266 72q-123 76 -180 207q-59 137 -60 319q0 446 234 594q106 68 243 68q129 0 236 -60q102 -55 221 -223l33 20 q-100 178 -240 265q-117 70 -266 69q-193 0 -350.5 -94t-247.5 -264t-90 -373z" />
<glyph unicode="H" horiz-adv-x="1478" d="M227 1329l2 -1329h193v653h629v-653h190v57v1299h-190v-629h-629l-2 629h-193v-27z" />
<glyph unicode="I" horiz-adv-x="681" d="M246 0v1356h190v-1356h-190z" />
<glyph unicode="J" horiz-adv-x="796" d="M43 123l70 37q80 -107 178 -107h6q102 4 102 137v1166h193v-903q0 -301 -51 -390q-51 -86 -234 -90h-7q-172 0 -257 150z" />
<glyph unicode="K" horiz-adv-x="1478" d="M225 0h195v678l831 -678h228l-867 752l619 604h-144l-667 -656v656h-193zM420 700l667 656zM1087 1356z" />
<glyph unicode="L" horiz-adv-x="1249" d="M236 0l2 1354l190 2v-1114q0 -82 16 -115q18 -35 88 -41h105h481l-26 -86h-856z" />
<glyph unicode="M" horiz-adv-x="1820" d="M225 0v1356h193l491 -1061l486 1061h190v-1356h-190v1141l-525 -1141h-32l-525 1141v-1141h-88z" />
<glyph unicode="N" horiz-adv-x="1478" d="M240 0l2 1356h100l827 -1016l2 1016h86v-1379h-34l-895 1092v-1069h-88z" />
<glyph unicode="O" horiz-adv-x="1478" d="M72 682q0 326 221 528q188 176 457 176q279 0 469 -210q182 -205 182 -490q0 -297 -184 -502q-190 -215 -484 -215q-297 0 -483 211q-178 203 -178 502zM301 686q0 -332 141 -510q108 -135 289 -135q238 0 350 201q90 162 90 417q0 272 -86 439q-111 217 -356 217 q-180 0 -291 -135q-137 -168 -137 -494z" />
<glyph unicode="P" horiz-adv-x="1138" d="M227 1346l303 10q21 1 41 1q138 0 246 -38q117 -43 182 -131q68 -92 68 -207q0 -178 -121 -281q-117 -94 -299 -94q-94 0 -227 29v-635h-191zM420 692q102 -20 164 -20q115 0 186 90q70 86 70 199q0 197 -140 276q-68 39 -149 39q-43 0 -131 -21v-563z" />
<glyph unicode="Q" horiz-adv-x="1478" d="M72 682q0 293 188 498q193 207 485 206q287 0 476 -215q180 -205 180 -493q0 -244 -133 -432q-137 -193 -367 -260q190 -330 492 -355v-32q-307 12 -592 194q-139 88 -244 193q-147 58 -227 123q-258 202 -258 573zM301 682q0 -330 141 -508q111 -137 291 -137 q233 0 348 201q90 156 90 413q0 453 -225 598q-94 61 -213 62q-236 0 -346 -209q-86 -164 -86 -420z" />
<glyph unicode="R" horiz-adv-x="1363" d="M229 0v1346l299 10q28 1 54 1q160 0 266 -32q109 -35 176 -121q70 -88 70 -196q0 -274 -334 -349l477 -659h-215l-459 635q-35 -2 -84 -2q-37 0 -57 2v-635h-193zM422 696h27h28q160 0 266 66q125 78 125 231q0 129 -80 209q-78 78 -210 78q-57 0 -156 -18v-566z" />
<glyph unicode="S" horiz-adv-x="1138" d="M127 1030q0 156 123 260q111 96 274 96q188 -12 260 -71q78 -66 107 -133q41 -92 47 -203h-59q-41 215 -144 276q-95 56 -190 56h-19q-92 -2 -164 -60q-76 -61 -75 -151q0 -63 43 -115q66 -76 295 -199q166 -88 206 -116q113 -76 160 -168q37 -74 37 -156 q0 -170 -131 -276q-121 -100 -295 -101q-57 0 -106 6q-55 6 -138 43q-76 35 -145 138q-74 109 -74 282h62q0 -135 37 -202q45 -88 145 -142q86 -47 199 -47q108 0 184 55q86 61 86 166q0 111 -115 197q-72 55 -227 139q-166 90 -231 144q-152 116 -152 282z" />
<glyph unicode="T" horiz-adv-x="1249" d="M78 1266v90h1108v-86l-463 2v-1272h-193v1268z" />
<glyph unicode="U" horiz-adv-x="1478" d="M209 586v772l190 -2v-832q0 -238 68 -340q86 -131 285 -131q117 0 223 51q117 55 160 156q37 88 36 307v787h91v-797q0 -193 -29 -285q-43 -135 -170 -223q-123 -82 -324 -82q-395 0 -499 285q-31 88 -31 334z" />
<glyph unicode="V" horiz-adv-x="1478" d="M137 1356h205l471 -1080l438 1082h101l-574 -1389h-37z" />
<glyph unicode="W" horiz-adv-x="1931" d="M135 1356h207l350 -1043l318 1043l34 2l316 -1043l358 1043l90 -2l-481 -1387h-41l-307 867l-307 -867h-37z" />
<glyph unicode="X" horiz-adv-x="1478" d="M137 0l533 668l-471 688h235l352 -533l416 533h111l-477 -604l499 -752h-235l-387 596l-463 -596h-113z" />
<glyph unicode="Y" horiz-adv-x="1478" d="M113 1356h225l448 -692l435 688h104l-498 -777v-575h-190v555z" />
<glyph unicode="Z" horiz-adv-x="1249" d="M27 0v37l870 1239h-727l4 80h1004l-891 -1274h860l-17 -82h-1103z" />
<glyph unicode="[" horiz-adv-x="681" d="M168 -406v1792h440v-77h-291v-1637h291v-78h-440z" />
<glyph unicode="\" horiz-adv-x="567" d="M2 1421h82l489 -1450h-79z" />
<glyph unicode="]" horiz-adv-x="681" d="M76 -328h289v1637h-289v77h438v-1794h-438v80z" />
<glyph unicode="^" horiz-adv-x="960" d="M37 668l432 716h29l426 -716h-93l-350 585l-350 -585h-94z" />
<glyph unicode="_" d="M-16 -358h1058v-84h-1058v84z" />
<glyph unicode="`" horiz-adv-x="681" d="M119 1391h223l104 -347h-34z" />
<glyph unicode="a" horiz-adv-x="907" d="M74 217q0 143 172 244q92 55 338 145v37q0 109 -29 166q-39 72 -117 82q-19 2 -37 2q-56 0 -108 -23q-72 -31 -74 -168h-74q4 152 82 197q77 43 215 43q229 0 287 -137q18 -43 19 -176v-312l6 -333h-166l-4 147q-133 -104 -178 -125q-55 -25 -115 -24q-98 0 -160 67 q-57 64 -57 168zM242 264q0 -66 37 -114q41 -53 104 -54q80 0 201 101v350q-129 -51 -197 -86q-145 -82 -145 -197z" />
<glyph unicode="b" horiz-adv-x="944" d="M70 88v948l2 385h164v-663q133 184 286 184q170 0 266 -145q84 -123 84 -303q0 -244 -161 -394q-137 -129 -310 -129q-159 0 -331 117zM236 145q102 -100 217 -100q125 0 192 141q55 111 55 250q0 133 -59 240q-70 125 -199 125q-53 0 -104 -27q-49 -27 -102 -80v-549z " />
<glyph unicode="c" horiz-adv-x="907" d="M70 457q0 203 116 340q121 145 322 145q240 -10 307 -219l-67 -39q-80 193 -259 193h-16q-95 -3 -160 -74q-82 -100 -82 -260q0 -156 70 -275q84 -141 229 -141q96 0 177 68q53 43 106 167l29 -14q-31 -160 -125 -260q-108 -117 -258 -117q-186 0 -293 156 q-96 140 -96 330z" />
<glyph unicode="d" horiz-adv-x="974" d="M68 420q0 205 118 356q129 168 326 168q117 0 199 -78v170v385h166v-1059v-391h-166v131q-125 -131 -269 -131q-170 0 -276 144q-98 129 -98 305zM252 500q0 -158 63 -273q78 -145 220 -145q92 0 176 90v473q-12 150 -115 209q-51 29 -96 29q-90 0 -158 -80 q-90 -102 -90 -303z" />
<glyph unicode="e" horiz-adv-x="907" d="M76 446q0 211 104 347q115 152 320 151q164 0 258 -106q94 -102 94 -267h-635q0 -170 80 -292q92 -143 256 -144q182 0 266 219l33 -20q-20 -143 -125 -250q-109 -113 -252 -113q-188 0 -299 148q-100 132 -100 327zM217 629h424q-6 90 -20 125q-51 119 -179 118 q-94 0 -157 -75q-60 -72 -68 -168z" />
<glyph unicode="f" horiz-adv-x="681" d="M80 844v71h176v62q0 266 180 385q82 53 185 53h12q164 -6 237 -174l-71 -74q-74 181 -216 181h-14q-106 0 -133 -101q-14 -49 -14 -266v-66h235v-71h-235v-844l-166 -2v846h-176z" />
<glyph unicode="g" d="M61 -252q0 29 11 49q20 43 69 103q6 8 103 108q-52 31 -74 55q-20 23 -20 56q0 35 28 82q31 49 131 133q-82 39 -129 115q-45 72 -45 161q0 137 103 236q98 96 262 96q133 0 227 -63h195q45 0 49 -2q8 -4 10 -9q6 -8 6 -32.5t-6 -34.5q-2 -4 -10 -8.5t-49 -4.5h-119 q55 -72 55 -184q0 -127 -98 -219q-96 -90 -262 -90q-72 0 -140 20q-41 -35 -59 -67q-16 -29 -16 -47q0 -16 16 -33q18 -18 66 -25q27 -2 139 -6q213 -6 266 -14q92 -12 150 -70q55 -55 55 -137q0 -115 -107 -213q-154 -145 -405 -145q-193 0 -328 88q-74 49 -74 102z M205 -176q0 -47 57 -84q102 -61 289 -62q182 0 266 63.5t84 135.5q0 53 -49 74q-57 25 -207 26q-244 6 -346 23q-51 -57 -72 -94q-22 -39 -22 -82zM309 655q0 -160 68 -245q53 -66 133 -66q76 0 125 57q47 55 47 179q0 162 -68 249q-53 66 -131 66q-76 0 -125 -59 q-49 -58 -49 -181z" />
<glyph unicode="h" d="M168 0v1421h166v-669q83 92 135 129q84 61 170 61q166 0 217 -176q18 -66 18 -236l3 -530h-168v530q0 102 -4 144q-12 90 -62 125q-35 23 -82 22q-104 0 -227 -131l-2 -690h-164z" />
<glyph unicode="i" horiz-adv-x="567" d="M195 1321q0 43 30 72q33 29 72 28q43 0 71.5 -28.5t28.5 -71.5t-28 -72q-31 -31 -72 -30.5t-71.5 31t-30.5 71.5zM213 -2v948l123 -4h45v-942z" />
<glyph unicode="j" horiz-adv-x="567" d="M-158 -342l72 84q116 -100 192 -100q10 0 19 2q78 16 84 65q8 70 8 197v651v381l166 4v-922q3 -471 -272 -470q-25 0 -52 4q-100 2 -217 104zM195 1321q0 43 28 72q31 31 74 30q41 0 71.5 -30.5t30.5 -71.5q0 -43 -30 -74q-29 -29 -72 -28q-45 0 -73.5 28.5t-28.5 73.5z " />
<glyph unicode="k" d="M168 1419l168 2v-911l428 405h110l-376 -356l450 -561h-192l-420 512v-510h-166v201z" />
<glyph unicode="l" horiz-adv-x="567" d="M213 1421h166v-1421h-166v1421z" />
<glyph unicode="m" horiz-adv-x="1591" d="M172 0v942h164v-194q94 94 119 114q94 80 198 80q188 0 232 -194q78 94 139 135q84 59 180 59q158 0 219 -160q23 -61 23 -182l2 -600h-168v600q0 115 -27 160q-37 63 -125 63q-104 0 -235 -125l-2 -12l2 -43l-2 -643h-164v600q0 115 -33 162q-43 63 -123 63 q-49 0 -106 -28q-92 -51 -129 -99l2 -698h-166z" />
<glyph unicode="n" d="M166 0v547l2 395h164v-192q160 193 307 192q154 0 215 -160q20 -55 20 -184v-391l3 -207h-166v582q0 238 -144 237q-119 0 -235 -129l-2 -690h-164z" />
<glyph unicode="o" d="M70 449q0 129 59 245q63 127 166 189q98 59 217 59q207 0 334 -158q106 -133 106 -309q0 -131 -57 -248q-61 -129 -163.5 -192.5t-229.5 -63.5q-207 0 -330 166q-102 136 -102 312zM256 532q0 -176 59 -309q80 -180 230 -180q223 0 223 354q0 242 -106 385 q-72 96 -181 97q-133 0 -192 -144q-33 -78 -33 -203z" />
<glyph unicode="p" d="M152 -219v864v293h165v-213q129 217 293 217q139 0 232 -106q113 -131 112 -344q0 -238 -137 -394q-111 -127 -280 -127q-72 0 -129 23q-39 14 -91 59v-278v-207h-165v213zM317 324q0 -104 11 -146q20 -72 75.5 -108.5t128.5 -36.5q100 0 162 78q82 104 82 286 q0 209 -92 324q-66 78 -152 78q-49 0 -96 -25q-33 -16 -119 -108v-342z" />
<glyph unicode="q" d="M68 418q0 213 127 364q132 160 344 160q115 0 190 -63q70 33 113 63h32v-1384h-163v602q-158 -188 -301 -189q-158 0 -258 150q-84 131 -84 297zM236 489q0 -143 63 -251q76 -125 215 -125q111 0 197 108v430q0 139 -90 193q-45 29 -113 28q-139 0 -213 -127 q-59 -106 -59 -256z" />
<glyph unicode="r" horiz-adv-x="681" d="M168 207v354v373l164 2v-199q114 197 224 197h3q90 -2 137 -146l-73 -57q-33 61 -66 80q-21 12 -44 12q-13 0 -28 -4q-37 -8 -59 -31q-49 -47 -94 -135v-440l-2 -209h-162v203z" />
<glyph unicode="s" horiz-adv-x="796" d="M100 696q0 111 82 181q78 66 193 65q63 -2 106 -14q45 -12 72 -35q52 -40 74 -92q8 -18 22 -70q6 -23 10 -72h-41q-25 147 -100 193q-64 39 -133 39h-10q-61 -2 -113 -41q-53 -43 -53 -105q0 -43 31 -79q23 -25 71 -60q49 -33 131 -78l93 -51q47 -27 51 -31 q82 -57 110 -114q27 -57 27 -109q0 -113 -90 -190q-86 -70 -207 -70q-29 0 -74 4q-45 6 -96 31q-29 14 -49 35q-29 29 -49 59q-51 74 -52 197h44q0 -95 24 -142q29 -43 41 -55q16 -16 61 -41q63 -35 136 -35q35 0 69.5 10.5t59.5 28.5q57 39 57 115t-78 135q-29 23 -63 43 q-49 31 -95 55q-41 20 -94 54q-47 29 -65 45q-53 41 -78 90t-25 104z" />
<glyph unicode="t" horiz-adv-x="567" d="M20 846v69h144v302h166v-302h215v-69h-215v-594q0 -152 92 -152q76 0 110 82h39q-72 -197 -229 -196q-113 0 -156 98q-20 43 -20 145v617h-146z" />
<glyph unicode="u" d="M158 330v585h166v-612q0 -209 151 -209q96 0 227 131v690h164v-555v-389h-164v195q-82 -90 -137 -131q-86 -63 -174 -64q-164 0 -213 160q-20 68 -20 199z" />
<glyph unicode="v" d="M106 915h187l280 -696l275 696l82 3l-385 -947h-41z" />
<glyph unicode="w" horiz-adv-x="1478" d="M100 915h164l248 -704l264 704h33l246 -679l260 679h69l-358 -944h-41l-229 586l-267 -586h-36z" />
<glyph unicode="x" d="M111 915h196l209 -315l221 315h86l-260 -383l377 -532h-211l-254 403l-272 -403h-86l311 463z" />
<glyph unicode="y" d="M88 915h184l312 -673l274 673l94 -2l-555 -1353h-94l201 477z" />
<glyph unicode="z" horiz-adv-x="907" d="M41 0v37l608 809h-540v69h768v-36l-615 -811h594v-68h-815z" />
<glyph unicode="{" horiz-adv-x="980" d="M283 469v43q92 12 155 63q74 61 74 148q0 37 -25 156q-23 109 -22 159q0 150 115 260q104 100 262 123v-35q-227 -55 -228 -231q0 -49 22.5 -157.5t22.5 -161.5q0 -120 -92 -215q-82 -84 -202 -127q125 -47 202 -132q92 -98 92 -217q0 -53 -22.5 -161.5t-22.5 -157.5 q0 -178 228 -234v-34q-156 23 -262 125q-115 111 -115 260q0 51 22 159q25 119 25 156q0 86 -74 148q-63 51 -155 63z" />
<glyph unicode="|" horiz-adv-x="409" d="M162 -442v1863h82v-1863h-82z" />
<glyph unicode="}" horiz-adv-x="980" d="M176 -408q227 55 227 234q0 49 -22 158q-25 119 -25 159q0 123 93 217q82 84 204 127q-125 47 -202 131q-94 100 -95 218q0 43 25 161q23 109 22 158q0 176 -227 231v35q158 -23 262 -123q115 -111 115 -262q0 -49 -22.5 -157.5t-22.5 -155.5q0 -88 72 -148 q63 -51 155 -63v-43q-92 -12 -155 -63q-72 -59 -72 -148q0 -47 22.5 -155.5t22.5 -159.5q0 -150 -115 -260q-106 -102 -262 -125v34z" />
<glyph unicode="~" horiz-adv-x="1107" d="M20 399q6 117 62 193q65 86 172 86q45 0 90 -14q20 -6 264 -103q176 -72 248 -72q168 0 186 187h45q-2 -117 -65 -195q-68 -84 -180 -84q-66 0 -191 47q-33 12 -82 32l-100 42q-160 66 -219 66q-150 0 -187 -185h-43z" />
<glyph unicode="&#xa1;" horiz-adv-x="681" d="M227 -291q0 22 6 68l89 811h38l89 -811q6 -47 6 -78q0 -55 -29 -96q-31 -45 -84 -45q-115 -1 -115 151zM231 862q0 43 33 80q31 33 78 33t80 -33q31 -31 31 -80q0 -47 -33 -78q-35 -31 -78 -30q-47 0 -78 30q-33 33 -33 78z" />
<glyph unicode="&#xa2;" d="M129 453q0 250 158 389q119 104 272 104q8 0 62 -4l139 383h71l-145 -401q106 -49 139 -86q47 -53 47 -115q0 -86 -94 -86q-53 0 -86 39q-14 16 -24 82q-2 18 -19 63l-227 -631q61 -41 94 -51q31 -10 70 -10q131 0 200 86q27 33 84 147l29 -14q-45 -186 -162 -291 q-92 -82 -221 -82q-80 0 -162 35l-141 -389h-72l156 426q-78 76 -117 156q-51 109 -51 250zM289 535q0 -133 82 -285l223 614q-29 12 -62 13q-100 0 -161 -74q-82 -100 -82 -268z" />
<glyph unicode="&#xa3;" d="M61 104q0 70 48 113q46 43 116 43q49 0 84 -6q4 53 4 76q0 102 -20 329h-195v95h195q-14 176 -14 198q0 264 186 379q88 53 184 53q94 0 170 -53q82 -57 82 -151q0 -33 -22 -56q-27 -27 -56 -26q-35 0 -61 39q-10 16 -17 80q-6 61 -32 83q-33 29 -88 29q-182 0 -183 -280 q0 -66 13 -187q0 -6 2 -19.5t4 -39l4 -49.5h258v-95h-258q0 -16 1 -38.5t1 -28.5q0 -168 -64 -359q209 -66 226 -69q51 -12 100 -12q164 0 211 159l37 -8q-18 -135 -84 -221q-80 -106 -203 -107q-86 0 -176 54q-35 18 -149 106q-80 -160 -187 -160q-55 0 -86 37t-31 92z M119 113q0 -78 63 -78q84 0 117 137q-45 29 -86 29q-94 0 -94 -88z" />
<glyph unicode="&#xa4;" d="M27 254l143 143q-100 115 -100 283q0 158 100 283l-143 141l57 57l145 -141q115 100 285 100q166 0 281 -100l143 141l57 -57l-143 -141q102 -129 102 -281q0 -158 -102 -285l143 -143l-57 -55l-143 143q-135 -104 -271 -104q-72 0 -157 26q-90 27 -138 78l-145 -143z M150 677.5q0 -149.5 106 -253.5q111 -106 256 -107q150 0 256 106.5t106 256.5q0 90 -51 180q-49 86 -133 133q-88 47 -178 47q-150 0 -256 -106.5t-106 -256z" />
<glyph unicode="&#xa5;" d="M2 352v74h424v143l-14 35h-410v74h377l-213 496q-31 74 -60 102q-43 43 -104 43v37h442v-37q-121 -10 -120 -64q0 -16 18 -59l213 -518l213 504q20 47 20 75q0 20 -20 41q-12 12 -63 17q-2 0 -5.5 1t-9.5 2t-12 1v37h346v-37q-57 0 -88 -25q-43 -37 -86 -131l-213 -485 h387v-74h-420l-6 -14v-164h426v-74h-426v-108q0 -121 10 -143.5t33 -37.5q39 -23 86 -22h41v-41h-514v41h31q119 0 137 84q4 25 4 119v108h-424z" />
<glyph unicode="&#xa6;" horiz-adv-x="409" d="M162 299h82v-741h-82v741zM162 680v741h82v-741h-82z" />
<glyph unicode="&#xa7;" d="M156 504q0 209 221 340q-123 139 -123 258t82 200.5t201 81.5q98 0 174 -59q80 -63 80 -162q0 -90 -80 -90q-33 0 -55.5 22.5t-22.5 55.5q0 20 8 53q4 14 4 43q0 94 -108 94q-74 0 -123 -49q-51 -51 -52 -125q0 -66 27 -106q47 -74 152 -148q201 -145 274 -260 q53 -82 53 -172q0 -211 -221 -342q123 -135 123 -254q0 -117 -82 -202q-80 -82 -203 -82q-98 0 -172 61q-78 66 -77 164q0 33 20 59q23 29 57 29q74 0 74 -88q0 -31 -6 -55q-8 -33 -8 -54q0 -31 24 -49q37 -29 95 -28q66 0 121 49t55 114q0 61 -31 111q-49 78 -174 172 q-186 139 -256 246q-51 78 -51 172zM258 590q0 -71 37 -129q55 -84 197 -191q76 -55 122 -100q154 92 154 219q0 137 -225 313q-106 84 -133 109q-152 -92 -152 -221z" />
<glyph unicode="&#xa8;" horiz-adv-x="681" d="M57 1229q0 45 31 76q33 33 78 32q43 0 75.5 -32.5t32.5 -75.5q0 -45 -32 -78q-31 -31 -76 -31q-47 0 -78 31t-31 78zM410 1229q0 45 30 76q33 33 78 32q43 0 76 -32.5t33 -75.5q0 -45 -33 -78q-31 -31 -76 -31q-47 0 -77.5 31t-30.5 78z" />
<glyph unicode="&#xa9;" horiz-adv-x="1554" d="M70 678q0 195 96 360q98 169 264 258q166 90 348 90q193 0 357 -94q166 -95 258 -258q96 -174 96 -356q0 -188 -96 -356q-94 -166 -263 -259q-168 -94 -352 -94q-193 0 -356 94q-166 94 -258 263q-94 168 -94 352zM131 678q0 -172 88 -325.5t238 -235.5q154 -86 321 -86 q174 0 326 88q158 90 237 237q84 150 84 322q0 176 -88 327.5t-239 235.5q-156 84 -320 84q-172 0 -325 -86q-150 -84 -236 -235q-86 -157 -86 -326zM319 672q0 203 150 336q145 127 348 127q72 0 187 -37q23 -8 36 -8q31 0 50 45h38l21 -281h-39q-70 236 -303 236 q-164 0 -252 -125q-70 -96 -70 -265q0 -181 74 -288q86 -123 258 -123q195 0 311 162l37 -21q-137 -203 -383 -203q-190 0 -325 125q-138 127 -138 320z" />
<glyph unicode="&#xaa;" horiz-adv-x="563" d="M-6 911q0 92 129 170q45 29 217 99q0 88 -14 118q-20 57 -93 58q-94 0 -94 -88q0 -86 -57 -86q-55 0 -55 59q0 78 84 115q68 29 149 28q164 0 205 -96q12 -35 12 -108v-217q0 -55 2 -62q6 -27 25 -27q14 0 57 31v-49q-101 -74 -147 -74q-57 0 -74 97q-126 -92 -215 -93 q-51 0 -90 37q-41 37 -41 88zM133 958q0 -37 27 -61q29 -25 61 -25q45 0 119 43v228q-207 -68 -207 -185z" />
<glyph unicode="&#xab;" d="M63 465l388 469h57l-244 -469l244 -473h-57zM508 465l393 469h60l-244 -469l244 -473h-60z" />
<glyph unicode="&#xac;" horiz-adv-x="1153" d="M37 797v82h1079v-408h-80v326h-999z" />
<glyph unicode="&#xad;" horiz-adv-x="1153" d="M37 639v84h1077v-84h-1077z" />
<glyph unicode="&#x2212;" horiz-adv-x="1153" d="M37 639v84h1077v-84h-1077z" />
<glyph unicode="&#xae;" horiz-adv-x="1554" d="M70 678q0 195 96 360q98 169 264 258q166 90 348 90q193 0 357 -94q166 -95 258 -258q96 -174 96 -356q0 -188 -96 -356q-94 -166 -263 -259q-168 -94 -352 -94q-193 0 -356 94q-166 94 -258 263q-94 168 -94 352zM131 678q0 -172 88 -325.5t238 -235.5q154 -86 321 -86 q174 0 326 88q158 90 237 237q84 150 84 322q0 176 -88 327.5t-239 235.5q-156 84 -320 84q-172 0 -325 -86q-150 -84 -236 -235q-86 -157 -86 -326zM375 250v33q78 0 96 45q6 18 6 92v522q0 80 -2 88q-12 47 -90 47v37h387q123 0 201 -51q96 -61 96 -172q0 -166 -221 -223 l209 -297q37 -52 67 -74q16 -10 54 -14v-33h-185l-295 403h-75v-309q12 -61 118 -61v-33h-366zM623 696q195 0 256 88q29 41 28 95q0 84 -57 139q-57 51 -143 51q-41 0 -84 -14v-359z" />
<glyph unicode="&#xaf;" d="M-16 1462v84h1058v-84h-1058z" />
<glyph unicode="&#xb0;" horiz-adv-x="817" d="M98 1077q0 131 88 219q90 90 220 90q127 0 217 -90t90 -219q0 -127 -90.5 -217t-217 -90t-217 90t-90.5 217zM182 1079q0 -92 65.5 -157.5t158 -65.5t158 65.5t65.5 157.5t-65.5 158t-157.5 66q-94 0 -160 -66q-64 -64 -64 -158z" />
<glyph unicode="&#xb1;" horiz-adv-x="1122" d="M8 141v80h498v418h-498v84h498v496h80v-496h499v-84h-499v-418h501v-80h-1079z" />
<glyph unicode="&#xb2;" horiz-adv-x="612" d="M20 664v28q240 184 328 314q49 74 49 143q0 63 -41 102q-45 41 -104 41q-123 0 -166 -116h-43q31 209 242 208q89 0 159 -49q78 -53 78 -139q0 -70 -47 -141q-74 -117 -295 -295h187q72 0 92 6q49 12 71 49h45l-61 -151h-494z" />
<glyph unicode="&#xb3;" horiz-adv-x="612" d="M43 713q0 45 59 45q29 0 84.5 -24.5t87.5 -24.5q57 0 97 39q41 41 41 94q0 104 -97 141q-70 25 -106 25h-31v26q70 0 125 43q57 45 57 113q0 51 -34 82q-31 29 -86 28q-86 0 -148 -88l-37 17q74 156 230 155q72 0 131 -36q68 -40 67 -111q0 -70 -104 -156 q143 -51 143 -182q0 -125 -106 -192q-90 -57 -226 -58q-147 1 -147 64z" />
<glyph unicode="&#xb4;" horiz-adv-x="681" d="M236 1044l106 347h223l-295 -347h-34z" />
<glyph unicode="&#xb5;" horiz-adv-x="1179" d="M133 -334q0 37 31 166q16 70 20 105q12 108 13 178v-1v21v55v725h163v-532q0 -143 19 -199q31 -90 123 -90q119 0 235 135v686h166v-653q0 -106 8 -131q14 -51 60 -51q63 0 82 125h41q-18 -233 -197 -234q-141 0 -160 191q-163 -190 -313 -191q-53 0 -92 23 q-27 14 -64 63v-47q0 -82 33 -237q14 -72 14 -105q0 -45 -24 -76q-29 -35 -70 -34q-88 -1 -88 108z" />
<glyph unicode="&#xb6;" horiz-adv-x="927" d="M-14 981q0 109 43 180q121 195 407 195h496v-56h-133v-1742h-74v1742h-186v-1742h-72v1042q-147 6 -244 37q-129 43 -186 145q-51 93 -51 199z" />
<glyph unicode="&#xb7;" horiz-adv-x="681" d="M496 702q0 45 30.5 76t73.5 31t74 -30.5t31 -76.5q0 -43 -31 -73.5t-74 -30.5t-73.5 30.5t-30.5 73.5z" />
<glyph unicode="&#xb8;" horiz-adv-x="681" d="M186 -340q37 -4 50 -4q47 0 83.5 30.5t36.5 80.5q0 33 -24 53q-23 20 -56 20q-16 0 -26 -2l110 178h62l-51 -79q125 -31 125 -146q0 -82 -68 -133q-66 -47 -147 -47q-35 0 -95 6v43z" />
<glyph unicode="&#xb9;" horiz-adv-x="612" d="M135 1296l207 88h35v-591q0 -59 6 -74q12 -23 94 -23v-32h-325v32q88 0 98 23q4 8 4 74v372q0 102 -14 117q-10 6 -21 6q-29 0 -67 -18z" />
<glyph unicode="&#xba;" horiz-adv-x="634" d="M29 1075q0 135 80 221q82 88 215 88q123 0 206 -84q80 -80 80 -208q0 -127 -88 -215q-90 -90 -211 -91q-123 0 -202.5 84t-79.5 205zM170 1153q0 -154 70 -258q39 -57 102 -57q131 0 131 186q0 156 -72 256q-43 61 -104 61q-127 0 -127 -188z" />
<glyph unicode="&#xbb;" d="M63 -8l244 471l-244 471h60l393 -471l-393 -471h-60zM516 -8l244 471l-244 471h57l388 -471l-388 -471h-57z" />
<glyph unicode="&#xbc;" horiz-adv-x="1536" d="M133 1296l207 88h35v-591q0 -59 6 -74q12 -23 94 -23v-32h-325v32q88 0 98 23q4 8 4 74v372q0 102 -14 117q-8 6 -21 6q-29 0 -67 -18zM268 -53l934 1437h90l-934 -1437h-90zM934 143v72l375 467h84v-459h108v-80h-108v-184h-117v184h-342zM1016 223h260v318z" />
<glyph unicode="&#xbd;" horiz-adv-x="1536" d="M133 1296l207 88h35v-591q0 -59 6 -74q12 -23 94 -23v-32h-325v32q88 0 98 23q4 8 4 74v372q0 102 -14 117q-8 6 -21 6q-29 0 -67 -18zM244 -53l936 1437h88l-934 -1437h-90zM938 -10q244 188 330 313q49 74 49 143q0 63 -41 103q-45 41 -105 41q-123 0 -165 -119h-45 q31 211 241 211q89 0 160 -49q80 -55 80 -139q0 -72 -47 -144q-76 -117 -295 -293h186q78 0 92 4q47 12 72 52h43l-59 -154h-496v31z" />
<glyph unicode="&#xbe;" horiz-adv-x="1536" d="M43 713q0 45 57 45q29 0 84.5 -24.5t87.5 -24.5q57 0 97 39q41 41 41 94q0 88 -76 133q-66 35 -158 33v26q70 0 125 43q57 45 57 113q0 51 -34 82q-31 29 -86 28q-86 0 -148 -88l-37 17q74 156 230 155q74 0 131 -36q68 -40 67 -111q0 -70 -104 -156q143 -51 143 -182 q0 -125 -106 -192q-90 -57 -226 -58q-145 1 -145 64zM256 -53l936 1437h86l-932 -1437h-90zM934 143v72l375 467h84v-459h108v-80h-108v-184h-115v184h-344zM1018 223h260v318z" />
<glyph unicode="&#xbf;" horiz-adv-x="907" d="M88 -125q0 76 31 152q41 94 145 215q109 127 142 198q29 61 34 187h39q-6 -141 -35 -230q-27 -80 -90 -215q-84 -178 -84 -288q0 -121 58 -193q66 -84 180 -84q61 0 121 33q66 37 65 98q0 31 -30.5 86t-30.5 84q0 37 22.5 59.5t57.5 22.5q53 0 84 -51q27 -45 26 -101 q0 -139 -116 -219q-106 -72 -246 -71q-150 0 -256 82q-117 92 -117 235zM342 864q0 47 31 78q33 33 80 33q45 0 77.5 -33t32.5 -78t-32.5 -77.5t-77.5 -32.5q-47 0 -80 32q-31 31 -31 78z" />
<glyph unicode="&#xc0;" horiz-adv-x="1478" d="M115 0l602 1386h35l622 -1386h-254l-43 117q-6 20 -57 141l-82 197h-526l-197 -455h-100zM442 528h467l-229 547zM514 1799h223l104 -347h-34z" />
<glyph unicode="&#xc1;" horiz-adv-x="1478" d="M115 0l602 1386h35l622 -1386h-254l-43 117q-6 20 -57 141l-82 197h-526l-197 -455h-100zM442 528h467l-229 547zM629 1452l106 347h223l-295 -347h-34z" />
<glyph unicode="&#xc2;" horiz-adv-x="1478" d="M115 0l602 1386h35l622 -1386h-254l-43 117q-6 20 -57 141l-82 197h-526l-197 -455h-100zM442 528h467l-229 547zM452 1463l191 329h182l191 -329h-31l-273 213l-229 -213h-31z" />
<glyph unicode="&#xc3;" horiz-adv-x="1478" d="M115 0l602 1386h35l622 -1386h-254l-43 117q-6 20 -57 141l-82 197h-526l-197 -455h-100zM442 528h467l-229 547zM418 1467q10 258 188 258q40 0 74 -13q25 -9 129 -73q88 -53 121 -53q74 0 96 139h31q2 -166 -97 -232q-45 -31 -94 -30q-80 0 -197 80q-90 61 -127 61 q-41 0 -65 -37q-10 -14 -29 -100h-30z" />
<glyph unicode="&#xc4;" horiz-adv-x="1478" d="M115 0l602 1386h35l622 -1386h-254l-43 117q-6 20 -57 141l-82 197h-526l-197 -455h-100zM442 528h467l-229 547zM450 1600q0 45 31 76q33 33 78 32q43 0 75.5 -32.5t32.5 -75.5q0 -45 -32 -78q-31 -31 -76 -31q-47 0 -78 31t-31 78zM803 1600q0 45 30 76q33 33 78 32 q43 0 76 -32.5t33 -75.5q0 -45 -33 -78q-31 -31 -76 -31q-47 0 -77.5 31t-30.5 78z" />
<glyph unicode="&#xc5;" horiz-adv-x="1478" d="M115 0l602 1386h35l622 -1386h-254l-43 117q-6 20 -57 141l-82 197h-526l-197 -455h-100zM442 528h467l-229 547zM731 1699q80 0 135 -55t55 -135q0 -82 -55 -137.5t-135 -55.5t-137 58q-55 55 -55 135t55 135t137 55zM731 1632q-51 0 -88 -37q-35 -35 -35 -86t35 -86 q37 -37 88 -37q49 0 86 37q35 35 35 86t-35 86q-37 37 -86 37z" />
<glyph unicode="&#xc6;" horiz-adv-x="1820" d="M-25 0v37q82 4 146 84q37 49 92 153l414 770q76 143 75 193q0 74 -172 82v37h1110l17 -297h-35q-20 176 -129 213q-31 10 -135 10h-332v-537h258q113 0 162 43q45 41 55 154h35v-471h-35q-8 80 -22 115q-20 51 -78 76q-25 12 -117 12h-258v-451v-76q6 -43 37 -61 q22 -12 80 -12h180q104 0 154 14q66 16 129 74q74 68 120 180h37l-106 -342h-1018v37h49q86 0 123 49q25 31 25 154v284h-398l-123 -231q-70 -131 -69 -174q0 -70 155 -82v-37h-426zM477 598h359v684z" />
<glyph unicode="&#xc7;" horiz-adv-x="1363" d="M74 686q0 201 86 367q90 172 256 270q164 94 348 94q150 0 266 -69q137 -84 238 -265l-31 -20q-119 168 -221 223q-106 59 -236 60q-295 0 -415 -287q-63 -147 -64 -375q0 -379 238 -524q121 -74 270 -74q152 0 264 78q88 63 191 205l30 -21q-195 -348 -561 -348 q-336 0 -520 250q-139 188 -139 436zM524 -340q37 -4 50 -4q47 0 83.5 30.5t36.5 80.5q0 33 -24 53q-23 20 -56 20q-16 0 -26 -2l110 178h62l-51 -79q125 -31 125 -146q0 -82 -68 -133q-66 -47 -147 -47q-35 0 -95 6v43z" />
<glyph unicode="&#xc8;" horiz-adv-x="1249" d="M233 0l3 1356h851v-74h-659v-537h551v-71h-551v-449v-75q6 -47 37 -64q23 -12 76 -12h546v-74h-854zM408 1799h223l104 -347h-34z" />
<glyph unicode="&#xc9;" horiz-adv-x="1249" d="M233 0l3 1356h851v-74h-659v-537h551v-71h-551v-449v-75q6 -47 37 -64q23 -12 76 -12h546v-74h-854zM525 1452l106 347h223l-295 -347h-34z" />
<glyph unicode="&#xca;" horiz-adv-x="1249" d="M233 0l3 1356h851v-74h-659v-537h551v-71h-551v-449v-75q6 -47 37 -64q23 -12 76 -12h546v-74h-854zM348 1463l191 329h182l191 -329h-31l-273 213l-229 -213h-31z" />
<glyph unicode="&#xcb;" horiz-adv-x="1249" d="M233 0l3 1356h851v-74h-659v-537h551v-71h-551v-449v-75q6 -47 37 -64q23 -12 76 -12h546v-74h-854zM344 1600q0 45 31 76q33 33 78 32q43 0 75.5 -32.5t32.5 -75.5q0 -45 -32 -78q-31 -31 -76 -31q-47 0 -78 31t-31 78zM697 1600q0 45 30 76q33 33 78 32q43 0 76 -32.5 t33 -75.5q0 -45 -33 -78q-31 -31 -76 -31q-47 0 -77.5 31t-30.5 78z" />
<glyph unicode="&#xcc;" horiz-adv-x="681" d="M246 0v1356h190v-1356h-190zM119 1799h223l104 -347h-34z" />
<glyph unicode="&#xcd;" horiz-adv-x="681" d="M246 0v1356h190v-1356h-190zM236 1452l106 347h223l-295 -347h-34z" />
<glyph unicode="&#xce;" horiz-adv-x="681" d="M246 0v1356h190v-1356h-190zM59 1463l191 329h182l191 -329h-31l-273 213l-229 -213h-31z" />
<glyph unicode="&#xcf;" horiz-adv-x="681" d="M246 0v1356h190v-1356h-190zM57 1600q0 45 31 76q33 33 78 32q43 0 75.5 -32.5t32.5 -75.5q0 -45 -32 -78q-31 -31 -76 -31q-47 0 -78 31t-31 78zM410 1600q0 45 30 76q33 33 78 32q43 0 76 -32.5t33 -75.5q0 -45 -33 -78q-31 -31 -76 -31q-47 0 -77.5 31t-30.5 78z" />
<glyph unicode="&#xd0;" horiz-adv-x="1468" d="M59 678v74h160v364v240h359q264 0 405 -49q190 -63 309 -250q98 -156 99 -371q0 -334 -217 -516q-201 -170 -543 -170h-412v240v438h-160zM414 100q131 -29 213 -28q252 0 399 180q137 164 137 426q0 260 -139 428q-150 176 -406 176q-86 0 -204 -29v-501h291v-74h-291 v-578z" />
<glyph unicode="&#xd1;" horiz-adv-x="1478" d="M240 0l2 1356h100l827 -1016l2 1016h86v-1379h-34l-895 1092v-1069h-88zM416 1467q10 258 188 258q40 0 74 -13q25 -9 129 -73q88 -53 121 -53q74 0 96 139h31q2 -166 -97 -232q-45 -31 -94 -30q-80 0 -197 80q-90 61 -127 61q-41 0 -65 -37q-10 -14 -29 -100h-30z" />
<glyph unicode="&#xd2;" horiz-adv-x="1478" d="M72 682q0 326 221 528q188 176 457 176q279 0 469 -210q182 -205 182 -490q0 -297 -184 -502q-190 -215 -484 -215q-297 0 -483 211q-178 203 -178 502zM301 686q0 -332 141 -510q108 -135 289 -135q238 0 350 201q90 162 90 417q0 272 -86 439q-111 217 -356 217 q-180 0 -291 -135q-137 -168 -137 -494zM512 1799h223l104 -347h-34z" />
<glyph unicode="&#xd3;" horiz-adv-x="1478" d="M72 682q0 326 221 528q188 176 457 176q279 0 469 -210q182 -205 182 -490q0 -297 -184 -502q-190 -215 -484 -215q-297 0 -483 211q-178 203 -178 502zM301 686q0 -332 141 -510q108 -135 289 -135q238 0 350 201q90 162 90 417q0 272 -86 439q-111 217 -356 217 q-180 0 -291 -135q-137 -168 -137 -494zM627 1452l106 347h223l-295 -347h-34z" />
<glyph unicode="&#xd4;" horiz-adv-x="1478" d="M72 682q0 326 221 528q188 176 457 176q279 0 469 -210q182 -205 182 -490q0 -297 -184 -502q-190 -215 -484 -215q-297 0 -483 211q-178 203 -178 502zM301 686q0 -332 141 -510q108 -135 289 -135q238 0 350 201q90 162 90 417q0 272 -86 439q-111 217 -356 217 q-180 0 -291 -135q-137 -168 -137 -494zM450 1463l191 329h182l191 -329h-31l-273 213l-229 -213h-31z" />
<glyph unicode="&#xd5;" horiz-adv-x="1478" d="M72 682q0 326 221 528q188 176 457 176q279 0 469 -210q182 -205 182 -490q0 -297 -184 -502q-190 -215 -484 -215q-297 0 -483 211q-178 203 -178 502zM301 686q0 -332 141 -510q108 -135 289 -135q238 0 350 201q90 162 90 417q0 272 -86 439q-111 217 -356 217 q-180 0 -291 -135q-137 -168 -137 -494zM414 1467q10 258 188 258q40 0 74 -13q25 -9 129 -73q88 -53 121 -53q74 0 96 139h31q2 -166 -97 -232q-45 -31 -94 -30q-80 0 -197 80q-90 61 -127 61q-41 0 -65 -37q-10 -14 -29 -100h-30z" />
<glyph unicode="&#xd6;" horiz-adv-x="1478" d="M72 682q0 326 221 528q188 176 457 176q279 0 469 -210q182 -205 182 -490q0 -297 -184 -502q-190 -215 -484 -215q-297 0 -483 211q-178 203 -178 502zM301 686q0 -332 141 -510q108 -135 289 -135q238 0 350 201q90 162 90 417q0 272 -86 439q-111 217 -356 217 q-180 0 -291 -135q-137 -168 -137 -494zM448 1600q0 45 31 76q33 33 78 32q43 0 75.5 -32.5t32.5 -75.5q0 -45 -32 -78q-31 -31 -76 -31q-47 0 -78 31t-31 78zM801 1600q0 45 30 76q33 33 78 32q43 0 76 -32.5t33 -75.5q0 -45 -33 -78q-31 -31 -76 -31q-47 0 -77.5 31 t-30.5 78z" />
<glyph unicode="&#xd7;" horiz-adv-x="1153" d="M166 328l352 354l-352 350l57 60l352 -353l353 353l55 -58l-350 -352l352 -354l-55 -58l-355 355l-354 -355z" />
<glyph unicode="&#xd8;" horiz-adv-x="1478" d="M74 692q0 289 188 490q193 205 479 204q229 0 406 -149l131 164l57 -45l-133 -166q199 -217 199 -504q0 -342 -244 -555q-186 -162 -414 -162q-238 0 -413 144l-129 -160l-60 47l133 164q-200 206 -200 528zM301 696q0 -229 74 -407l688 846q-117 182 -328 182 q-88 0 -145 -23q-182 -74 -250 -311q-39 -133 -39 -287zM416 217q53 -82 116 -121q89 -55 197 -55q184 0 299 129q141 160 141 485q0 127 -18 230q-12 74 -49 178z" />
<glyph unicode="&#xd9;" horiz-adv-x="1478" d="M209 586v772l190 -2v-832q0 -238 68 -340q86 -131 285 -131q117 0 223 51q117 55 160 156q37 88 36 307v787h91v-797q0 -193 -29 -285q-43 -135 -170 -223q-123 -82 -324 -82q-395 0 -499 285q-31 88 -31 334zM563 1799h223l104 -347h-34z" />
<glyph unicode="&#xda;" horiz-adv-x="1478" d="M209 586v772l190 -2v-832q0 -238 68 -340q86 -131 285 -131q117 0 223 51q117 55 160 156q37 88 36 307v787h91v-797q0 -193 -29 -285q-43 -135 -170 -223q-123 -82 -324 -82q-395 0 -499 285q-31 88 -31 334zM631 1452l106 347h223l-295 -347h-34z" />
<glyph unicode="&#xdb;" horiz-adv-x="1478" d="M209 586v772l190 -2v-832q0 -238 68 -340q86 -131 285 -131q117 0 223 51q117 55 160 156q37 88 36 307v787h91v-797q0 -193 -29 -285q-43 -135 -170 -223q-123 -82 -324 -82q-395 0 -499 285q-31 88 -31 334zM501 1463l191 329h182l191 -329h-31l-273 213l-229 -213h-31 z" />
<glyph unicode="&#xdc;" horiz-adv-x="1478" d="M209 586v772l190 -2v-832q0 -238 68 -340q86 -131 285 -131q117 0 223 51q117 55 160 156q37 88 36 307v787h91v-797q0 -193 -29 -285q-43 -135 -170 -223q-123 -82 -324 -82q-395 0 -499 285q-31 88 -31 334zM499 1600q0 45 31 76q33 33 78 32q43 0 75.5 -32.5 t32.5 -75.5q0 -45 -32 -78q-31 -31 -76 -31q-47 0 -78 31t-31 78zM852 1600q0 45 30 76q33 33 78 32q43 0 76 -32.5t33 -75.5q0 -45 -33 -78q-31 -31 -76 -31q-47 0 -77.5 31t-30.5 78z" />
<glyph unicode="&#xdd;" horiz-adv-x="1478" d="M113 1356h225l448 -692l435 688h104l-498 -777v-575h-190v555zM666 1452l106 347h223l-295 -347h-34z" />
<glyph unicode="&#xde;" horiz-adv-x="1138" d="M37 0v37h37q94 0 133 55q20 27 20 148v868q0 86 -4 106q-8 53 -55 82q-39 23 -92 23h-39v37h577v-37h-41q-43 0 -94 -23q-59 -27 -59 -184v-63h74q154 0 225 -13q203 -33 297 -186q45 -76 45 -170q0 -150 -109 -254q-102 -96 -270 -117q-37 -6 -193 -6h-69v-59 q0 -111 22 -152q31 -55 131 -55h41v-37h-577zM420 375h45q119 0 188 28q176 74 176 275q0 156 -110 235q-59 39 -115 50q-35 8 -135 8h-49v-596z" />
<glyph unicode="&#xdf;" d="M35 0v37q102 10 123 65q10 31 10 123v742q0 455 356 454q154 0 250 -84q102 -90 103 -239q0 -106 -56 -180q-39 -53 -137 -97q274 -80 274 -399q0 -172 -81 -293q-94 -141 -254 -141q-78 0 -131 41q-61 45 -62 121q0 86 80 86q82 0 82 -78q0 -23 -4 -37q-6 -23 -6 -33 q0 -45 57 -45q150 0 149 268q0 442 -294 463v57q215 0 215 271q0 254 -193 254q-182 0 -182 -320v-1036h-299z" />
<glyph unicode="&#xe0;" horiz-adv-x="907" d="M74 217q0 143 172 244q92 55 338 145v37q0 109 -29 166q-39 72 -117 82q-19 2 -37 2q-56 0 -108 -23q-72 -31 -74 -168h-74q4 152 82 197q77 43 215 43q229 0 287 -137q18 -43 19 -176v-312l6 -333h-166l-4 147q-133 -104 -178 -125q-55 -25 -115 -24q-98 0 -160 67 q-57 64 -57 168zM242 264q0 -66 37 -114q41 -53 104 -54q80 0 201 101v350q-129 -51 -197 -86q-145 -82 -145 -197zM260 1391h223l104 -347h-34z" />
<glyph unicode="&#xe1;" horiz-adv-x="907" d="M74 217q0 143 172 244q92 55 338 145v37q0 109 -29 166q-39 72 -117 82q-19 2 -37 2q-56 0 -108 -23q-72 -31 -74 -168h-74q4 152 82 197q77 43 215 43q229 0 287 -137q18 -43 19 -176v-312l6 -333h-166l-4 147q-133 -104 -178 -125q-55 -25 -115 -24q-98 0 -160 67 q-57 64 -57 168zM242 264q0 -66 37 -114q41 -53 104 -54q80 0 201 101v350q-129 -51 -197 -86q-145 -82 -145 -197zM353 1044l106 347h223l-295 -347h-34z" />
<glyph unicode="&#xe2;" horiz-adv-x="907" d="M74 217q0 143 172 244q92 55 338 145v37q0 109 -29 166q-39 72 -117 82q-19 2 -37 2q-56 0 -108 -23q-72 -31 -74 -168h-74q4 152 82 197q77 43 215 43q229 0 287 -137q18 -43 19 -176v-312l6 -333h-166l-4 147q-133 -104 -178 -125q-55 -25 -115 -24q-98 0 -160 67 q-57 64 -57 168zM242 264q0 -66 37 -114q41 -53 104 -54q80 0 201 101v350q-129 -51 -197 -86q-145 -82 -145 -197zM176 1055l191 329h182l191 -329h-31l-273 213l-229 -213h-31z" />
<glyph unicode="&#xe3;" horiz-adv-x="907" d="M74 217q0 143 172 244q92 55 338 145v37q0 109 -29 166q-39 72 -117 82q-19 2 -37 2q-56 0 -108 -23q-72 -31 -74 -168h-74q4 152 82 197q77 43 215 43q229 0 287 -137q18 -43 19 -176v-312l6 -333h-166l-4 147q-133 -104 -178 -125q-55 -25 -115 -24q-98 0 -160 67 q-57 64 -57 168zM242 264q0 -66 37 -114q41 -53 104 -54q80 0 201 101v350q-129 -51 -197 -86q-145 -82 -145 -197zM140 1098q10 258 188 258q40 0 74 -13q25 -9 129 -73q88 -53 121 -53q74 0 96 139h31q2 -166 -97 -232q-45 -31 -94 -30q-80 0 -197 80q-90 61 -127 61 q-41 0 -65 -37q-10 -14 -29 -100h-30z" />
<glyph unicode="&#xe4;" horiz-adv-x="907" d="M74 217q0 143 172 244q92 55 338 145v37q0 109 -29 166q-39 72 -117 82q-19 2 -37 2q-56 0 -108 -23q-72 -31 -74 -168h-74q4 152 82 197q77 43 215 43q229 0 287 -137q18 -43 19 -176v-312l6 -333h-166l-4 147q-133 -104 -178 -125q-55 -25 -115 -24q-98 0 -160 67 q-57 64 -57 168zM242 264q0 -66 37 -114q41 -53 104 -54q80 0 201 101v350q-129 -51 -197 -86q-145 -82 -145 -197zM174 1229q0 45 31 76q33 33 78 32q43 0 75.5 -32.5t32.5 -75.5q0 -45 -32 -78q-31 -31 -76 -31q-47 0 -78 31t-31 78zM527 1229q0 45 30 76q33 33 78 32 q43 0 76 -32.5t33 -75.5q0 -45 -33 -78q-31 -31 -76 -31q-47 0 -77.5 31t-30.5 78z" />
<glyph unicode="&#xe5;" horiz-adv-x="907" d="M74 217q0 143 172 244q92 55 338 145v37q0 109 -29 166q-39 72 -117 82q-19 2 -37 2q-56 0 -108 -23q-72 -31 -74 -168h-74q4 152 82 197q77 43 215 43q229 0 287 -137q18 -43 19 -176v-312l6 -333h-166l-4 147q-133 -104 -178 -125q-55 -25 -115 -24q-98 0 -160 67 q-57 64 -57 168zM242 264q0 -66 37 -114q41 -53 104 -54q80 0 201 101v350q-129 -51 -197 -86q-145 -82 -145 -197zM459 1425q80 0 135 -55t55 -135q0 -82 -55 -137.5t-135 -55.5t-137 58q-55 55 -55 135t55 135t137 55zM459 1358q-51 0 -88 -37q-35 -35 -35 -86t35 -86 q37 -37 88 -37q49 0 86 37q35 35 35 86t-35 86q-37 37 -86 37z" />
<glyph unicode="&#xe6;" horiz-adv-x="1363" d="M74 201q0 104 59 170q46 49 154 104q157 80 276 123v90q0 199 -147 199q-51 0 -94 -27q-47 -31 -48 -80q0 -121 -34 -145q-23 -14 -45 -14q-37 0 -60 22q-31 31 -31 74q0 123 152 190q76 37 184 37q224 0 271 -123q98 123 268 123q162 0 248 -110q78 -102 78 -267h-572 v-73q0 -371 256 -371q98 0 176 59q47 39 107 160l33 -23q-37 -164 -156 -270q-88 -78 -215 -78q-106 0 -184 47q-35 23 -111 113l-55 -43q-45 -35 -78 -57q-106 -59 -209 -60q-95 0 -160 68q-63 66 -63 162zM242 258q0 -74 43 -127q43 -51 116.5 -51t208.5 104 q-47 104 -47 258v90q-139 -45 -248 -129q-73 -59 -73 -145zM733 633h379q-3 240 -184 239q-96 0 -148 -75q-43 -62 -47 -164z" />
<glyph unicode="&#xe7;" horiz-adv-x="907" d="M70 457q0 203 116 340q121 145 322 145q240 -10 307 -219l-67 -39q-80 193 -259 193h-16q-95 -3 -160 -74q-82 -100 -82 -260q0 -156 70 -275q84 -141 229 -141q96 0 177 68q53 43 106 167l29 -14q-31 -160 -125 -260q-108 -117 -258 -117q-186 0 -293 156 q-96 140 -96 330zM295 -340q37 -4 50 -4q47 0 83.5 30.5t36.5 80.5q0 33 -24 53q-23 20 -56 20q-16 0 -26 -2l110 178h62l-51 -79q125 -31 125 -146q0 -82 -68 -133q-66 -47 -147 -47q-35 0 -95 6v43z" />
<glyph unicode="&#xe8;" horiz-adv-x="907" d="M76 446q0 211 104 347q115 152 320 151q164 0 258 -106q94 -102 94 -267h-635q0 -170 80 -292q92 -143 256 -144q182 0 266 219l33 -20q-20 -143 -125 -250q-109 -113 -252 -113q-188 0 -299 148q-100 132 -100 327zM217 629h424q-6 90 -20 125q-51 119 -179 118 q-94 0 -157 -75q-60 -72 -68 -168zM287 1391h223l104 -347h-34z" />
<glyph unicode="&#xe9;" horiz-adv-x="907" d="M76 446q0 211 104 347q115 152 320 151q164 0 258 -106q94 -102 94 -267h-635q0 -170 80 -292q92 -143 256 -144q182 0 266 219l33 -20q-20 -143 -125 -250q-109 -113 -252 -113q-188 0 -299 148q-100 132 -100 327zM217 629h424q-6 90 -20 125q-51 119 -179 118 q-94 0 -157 -75q-60 -72 -68 -168zM365 1044l106 347h223l-295 -347h-34z" />
<glyph unicode="&#xea;" horiz-adv-x="907" d="M76 446q0 211 104 347q115 152 320 151q164 0 258 -106q94 -102 94 -267h-635q0 -170 80 -292q92 -143 256 -144q182 0 266 219l33 -20q-20 -143 -125 -250q-109 -113 -252 -113q-188 0 -299 148q-100 132 -100 327zM217 629h424q-6 90 -20 125q-51 119 -179 118 q-94 0 -157 -75q-60 -72 -68 -168zM213 1055l191 329h182l191 -329h-31l-273 213l-229 -213h-31z" />
<glyph unicode="&#xeb;" horiz-adv-x="907" d="M76 446q0 211 104 347q115 152 320 151q164 0 258 -106q94 -102 94 -267h-635q0 -170 80 -292q92 -143 256 -144q182 0 266 219l33 -20q-20 -143 -125 -250q-109 -113 -252 -113q-188 0 -299 148q-100 132 -100 327zM217 629h424q-6 90 -20 125q-51 119 -179 118 q-94 0 -157 -75q-60 -72 -68 -168zM211 1229q0 45 31 76q33 33 78 32q43 0 75.5 -32.5t32.5 -75.5q0 -45 -32 -78q-31 -31 -76 -31q-47 0 -78 31t-31 78zM564 1229q0 45 30 76q33 33 78 32q43 0 76 -32.5t33 -75.5q0 -45 -33 -78q-31 -31 -76 -31q-47 0 -77.5 31t-30.5 78z " />
<glyph unicode="&#xec;" horiz-adv-x="567" d="M379 942v-735q0 -131 51 -158q20 -12 88 -12v-37h-444v37q102 0 127 55q12 31 12 115v352q0 156 -8 195q-12 57 -64 57q-25 0 -67 -16l-15 36l277 111h43zM78 1391h223l104 -347h-34z" />
<glyph unicode="&#xed;" horiz-adv-x="567" d="M379 942v-735q0 -131 51 -158q20 -12 88 -12v-37h-444v37q102 0 127 55q12 31 12 115v352q0 156 -8 195q-12 57 -64 57q-25 0 -67 -16l-15 36l277 111h43zM170 1044l106 347h223l-295 -347h-34z" />
<glyph unicode="&#xee;" horiz-adv-x="567" d="M379 942v-735q0 -131 51 -158q20 -12 88 -12v-37h-444v37q102 0 127 55q12 31 12 115v352q0 156 -8 195q-12 57 -64 57q-25 0 -67 -16l-15 36l277 111h43zM14 1055l191 329h182l191 -329h-31l-273 213l-229 -213h-31z" />
<glyph unicode="&#xef;" horiz-adv-x="567" d="M379 942v-735q0 -131 51 -158q20 -12 88 -12v-37h-444v37q102 0 127 55q12 31 12 115v352q0 156 -8 195q-12 57 -64 57q-25 0 -67 -16l-15 36l277 111h43zM4 1229q0 45 31 76q33 33 78 32q43 0 75.5 -32.5t32.5 -75.5q0 -45 -32 -78q-31 -31 -76 -31q-47 0 -78 31t-31 78 zM357 1229q0 45 30 76q33 33 78 32q43 0 76 -32.5t33 -75.5q0 -45 -33 -78q-31 -31 -76 -31q-47 0 -77.5 31t-30.5 78z" />
<glyph unicode="&#xf0;" d="M68 440q0 211 139 367q117 129 280 129q41 0 88 -14q37 -10 82 -45q-76 158 -188 292l-248 -135l-28 56l233 131q-96 96 -188 157l26 43q139 -72 248 -153l248 139l35 -55l-230 -131q172 -147 273 -334q111 -207 110 -414q0 -297 -219 -436q-106 -66 -229 -66 q-190 0 -314 142q-118 137 -118 327zM254 518q0 -301 149 -420q68 -55 144 -55q121 0 176 115q41 82 41 219q0 178 -55 313q-74 184 -230 184q-225 0 -225 -356z" />
<glyph unicode="&#xf1;" d="M166 0v547l2 395h164v-192q160 193 307 192q154 0 215 -160q20 -55 20 -184v-391l3 -207h-166v582q0 238 -144 237q-119 0 -235 -129l-2 -690h-164zM193 1098q10 258 188 258q40 0 74 -13q25 -9 129 -73q88 -53 121 -53q74 0 96 139h31q2 -166 -97 -232q-45 -31 -94 -30 q-80 0 -197 80q-90 61 -127 61q-41 0 -65 -37q-10 -14 -29 -100h-30z" />
<glyph unicode="&#xf2;" d="M70 449q0 129 59 245q63 127 166 189q98 59 217 59q207 0 334 -158q106 -133 106 -309q0 -131 -57 -248q-61 -129 -163.5 -192.5t-229.5 -63.5q-207 0 -330 166q-102 136 -102 312zM256 532q0 -176 59 -309q80 -180 230 -180q223 0 223 354q0 242 -106 385 q-72 96 -181 97q-133 0 -192 -144q-33 -78 -33 -203zM301 1391h223l104 -347h-34z" />
<glyph unicode="&#xf3;" d="M70 449q0 129 59 245q63 127 166 189q98 59 217 59q207 0 334 -158q106 -133 106 -309q0 -131 -57 -248q-61 -129 -163.5 -192.5t-229.5 -63.5q-207 0 -330 166q-102 136 -102 312zM256 532q0 -176 59 -309q80 -180 230 -180q223 0 223 354q0 242 -106 385 q-72 96 -181 97q-133 0 -192 -144q-33 -78 -33 -203zM394 1044l106 347h223l-295 -347h-34z" />
<glyph unicode="&#xf4;" d="M70 449q0 129 59 245q63 127 166 189q98 59 217 59q207 0 334 -158q106 -133 106 -309q0 -131 -57 -248q-61 -129 -163.5 -192.5t-229.5 -63.5q-207 0 -330 166q-102 136 -102 312zM256 532q0 -176 59 -309q80 -180 230 -180q223 0 223 354q0 242 -106 385 q-72 96 -181 97q-133 0 -192 -144q-33 -78 -33 -203zM241 1055l191 329h182l191 -329h-31l-273 213l-229 -213h-31z" />
<glyph unicode="&#xf5;" d="M70 449q0 129 59 245q63 127 166 189q98 59 217 59q207 0 334 -158q106 -133 106 -309q0 -131 -57 -248q-61 -129 -163.5 -192.5t-229.5 -63.5q-207 0 -330 166q-102 136 -102 312zM256 532q0 -176 59 -309q80 -180 230 -180q223 0 223 354q0 242 -106 385 q-72 96 -181 97q-133 0 -192 -144q-33 -78 -33 -203zM193 1098q10 258 188 258q40 0 74 -13q25 -9 129 -73q88 -53 121 -53q74 0 96 139h31q2 -166 -97 -232q-45 -31 -94 -30q-80 0 -197 80q-90 61 -127 61q-41 0 -65 -37q-10 -14 -29 -100h-30z" />
<glyph unicode="&#xf6;" d="M70 449q0 129 59 245q63 127 166 189q98 59 217 59q207 0 334 -158q106 -133 106 -309q0 -131 -57 -248q-61 -129 -163.5 -192.5t-229.5 -63.5q-207 0 -330 166q-102 136 -102 312zM256 532q0 -176 59 -309q80 -180 230 -180q223 0 223 354q0 242 -106 385 q-72 96 -181 97q-133 0 -192 -144q-33 -78 -33 -203zM227 1229q0 45 31 76q33 33 78 32q43 0 75.5 -32.5t32.5 -75.5q0 -45 -32 -78q-31 -31 -76 -31q-47 0 -78 31t-31 78zM580 1229q0 45 30 76q33 33 78 32q43 0 76 -32.5t33 -75.5q0 -45 -33 -78q-31 -31 -76 -31 q-47 0 -77.5 31t-30.5 78z" />
<glyph unicode="&#xf7;" horiz-adv-x="1122" d="M23 639v84h1079v-84h-1079zM473 367q0 37 27 63q25 25 61 25q39 0 63.5 -24.5t24.5 -63.5q0 -37 -24 -62q-27 -27 -64 -26q-35 0 -61.5 26.5t-26.5 61.5zM473 987q0 37 27 64q25 25 61 24q35 0 61.5 -26.5t26.5 -61.5t-26 -61q-25 -25 -62 -25t-61 25q-27 26 -27 61z" />
<glyph unicode="&#xf8;" d="M39 -25l141 160q-106 131 -106 320q0 127 59 239q59 121 164 187q96 61 223 61q156 0 287 -111l131 148l47 -43l-135 -152q106 -133 106 -313q0 -121 -59 -244q-61 -129 -160 -190q-106 -66 -229 -66q-150 0 -287 115l-135 -154zM260 532q0 -127 39 -262l406 449 q-92 158 -218 158q-227 -1 -227 -345zM330 205q90 -162 217 -162q223 0 223 358q0 123 -39 252z" />
<glyph unicode="&#xf9;" d="M158 330v585h166v-612q0 -209 151 -209q96 0 227 131v690h164v-555v-389h-164v195q-82 -90 -137 -131q-86 -63 -174 -64q-164 0 -213 160q-20 68 -20 199zM307 1391h223l104 -347h-34z" />
<glyph unicode="&#xfa;" d="M158 330v585h166v-612q0 -209 151 -209q96 0 227 131v690h164v-555v-389h-164v195q-82 -90 -137 -131q-86 -63 -174 -64q-164 0 -213 160q-20 68 -20 199zM369 1044l106 347h223l-295 -347h-34z" />
<glyph unicode="&#xfb;" d="M158 330v585h166v-612q0 -209 151 -209q96 0 227 131v690h164v-555v-389h-164v195q-82 -90 -137 -131q-86 -63 -174 -64q-164 0 -213 160q-20 68 -20 199zM233 1055l191 329h182l191 -329h-31l-273 213l-229 -213h-31z" />
<glyph unicode="&#xfc;" d="M158 330v585h166v-612q0 -209 151 -209q96 0 227 131v690h164v-555v-389h-164v195q-82 -90 -137 -131q-86 -63 -174 -64q-164 0 -213 160q-20 68 -20 199zM227 1229q0 45 31 76q33 33 78 32q43 0 75.5 -32.5t32.5 -75.5q0 -45 -32 -78q-31 -31 -76 -31q-47 0 -78 31 t-31 78zM580 1229q0 45 30 76q33 33 78 32q43 0 76 -32.5t33 -75.5q0 -45 -33 -78q-31 -31 -76 -31q-47 0 -77.5 31t-30.5 78z" />
<glyph unicode="&#xfd;" d="M88 915h184l312 -673l274 673l94 -2l-555 -1353h-94l201 477zM404 1044l106 347h223l-295 -347h-34z" />
<glyph unicode="&#xfe;" d="M152 -219v1347v291h167l-2 -694q129 217 293 217q139 0 232 -106q113 -131 112 -344q0 -238 -137 -394q-111 -127 -280 -127q-72 0 -129 23q-39 14 -91 59v-278l2 -211h-167v217zM317 324q0 -104 11 -146q20 -72 75.5 -108.5t128.5 -36.5q100 0 162 78q82 104 82 286 q0 209 -92 324q-66 78 -152 78q-49 0 -96 -25q-33 -16 -119 -108v-342z" />
<glyph unicode="&#xff;" d="M88 915h184l312 -673l274 673l94 -2l-555 -1353h-94l201 477zM264 1229q0 45 31 76q33 33 78 32q43 0 75.5 -32.5t32.5 -75.5q0 -45 -32 -78q-31 -31 -76 -31q-47 0 -78 31t-31 78zM617 1229q0 45 30 76q33 33 78 32q43 0 76 -32.5t33 -75.5q0 -45 -33 -78 q-31 -31 -76 -31q-47 0 -77.5 31t-30.5 78z" />
<glyph unicode="&#x131;" horiz-adv-x="567" d="M379 942v-735q0 -131 51 -158q20 -12 88 -12v-37h-444v37q102 0 127 55q12 31 12 115v352q0 156 -8 195q-12 57 -64 57q-25 0 -67 -16l-15 36l277 111h43z" />
<glyph unicode="&#x152;" horiz-adv-x="1820" d="M76 676q0 260 139 454q170 238 494 238q12 0 194 -6q129 -6 266 -6h473l13 -297h-33q-25 115 -43 147q-27 43 -76 64q-31 12 -143 12h-256v-534h182q106 0 159.5 48t51.5 146h39v-471h-39q-9 120 -49 160q-43 43 -162 43h-182v-449q0 -117 43 -141q14 -8 78 -8h102 q111 0 143 8q70 12 123 63q72 66 129 193h41l-108 -340h-486h-170l-168 -10q-104 -6 -145 -6q-176 0 -313 88q-135 86 -215 247q-82 162 -82 357zM305 668q0 -373 178 -531q90 -82 226 -82q150 0 186 97q16 41 16 188v702q0 95 -6 129q-16 76 -65 105q-51 29 -127 29 q-268 0 -361 -297q-47 -143 -47 -340z" />
<glyph unicode="&#x153;" horiz-adv-x="1478" d="M68 442q0 207 106 346q117 154 315 154q205 0 314 -158q111 160 282 160q156 0 246 -108q86 -104 80 -263h-549q-2 -16 -2 -38q0 -92 33 -191q37 -111 100 -158q63 -49 146 -49q172 0 239 217l33 -16q-68 -367 -340 -367q-184 0 -268 162q-127 -162 -320 -162 q-190 0 -309 144q-106 130 -106 327zM254 539q0 -256 102 -406q61 -90 154 -90q205 0 205 336q0 188 -45 315q-66 195 -217 195q-109 0 -162 -119q-37 -86 -37 -231zM862 639h352q0 70 -24 133q-39 104 -152 105q-84 0 -133 -80q-37 -64 -43 -158z" />
<glyph unicode="&#x178;" horiz-adv-x="1478" d="M113 1356h225l448 -692l435 688h104l-498 -777v-575h-190v555zM475 1600q0 45 31 76q33 33 78 32q43 0 75.5 -32.5t32.5 -75.5q0 -45 -32 -78q-31 -31 -76 -31q-47 0 -78 31t-31 78zM828 1600q0 45 30 76q33 33 78 32q43 0 76 -32.5t33 -75.5q0 -45 -33 -78 q-31 -31 -76 -31q-47 0 -77.5 31t-30.5 78z" />
<glyph unicode="&#x2c6;" horiz-adv-x="681" d="M59 1055l191 329h182l191 -329h-31l-273 213l-229 -213h-31z" />
<glyph unicode="&#x2da;" horiz-adv-x="681" d="M342 1423q80 0 135 -55t55 -135q0 -82 -55 -137.5t-135 -55.5t-137 58q-55 55 -55 135t55 135t137 55zM342 1356q-51 0 -88 -37q-35 -35 -35 -86t35 -86q37 -37 88 -37q49 0 86 37q35 35 35 86t-35 86q-37 37 -86 37z" />
<glyph unicode="&#x2dc;" horiz-adv-x="681" d="M23 1098q10 258 188 258q40 0 74 -13q25 -9 129 -73q88 -53 121 -53q74 0 96 139h31q2 -166 -97 -232q-45 -31 -94 -30q-80 0 -197 80q-90 61 -127 61q-41 0 -65 -37q-10 -14 -29 -100h-30z" />
<glyph unicode="&#x2000;" horiz-adv-x="911" />
<glyph unicode="&#x2001;" horiz-adv-x="1824" />
<glyph unicode="&#x2002;" horiz-adv-x="911" />
<glyph unicode="&#x2003;" horiz-adv-x="1824" />
<glyph unicode="&#x2004;" horiz-adv-x="606" />
<glyph unicode="&#x2005;" horiz-adv-x="454" />
<glyph unicode="&#x2006;" horiz-adv-x="303" />
<glyph unicode="&#x2007;" horiz-adv-x="303" />
<glyph unicode="&#x2008;" horiz-adv-x="227" />
<glyph unicode="&#x2009;" horiz-adv-x="364" />
<glyph unicode="&#x200a;" horiz-adv-x="100" />
<glyph unicode="&#x2010;" horiz-adv-x="681" d="M84 385v150h516v-150h-516z" />
<glyph unicode="&#x2011;" horiz-adv-x="681" d="M84 385v150h516v-150h-516z" />
<glyph unicode="&#x2012;" horiz-adv-x="681" d="M84 385v150h516v-150h-516z" />
<glyph unicode="&#x2013;" d="M-18 453v73h1058v-73h-1058z" />
<glyph unicode="&#x2014;" horiz-adv-x="2048" d="M-18 453v73h2084v-73h-2084z" />
<glyph unicode="&#x2018;" horiz-adv-x="681" d="M184 1067q0 121 88 215q58 65 172 104v-43q-102 -61 -139 -114q-27 -39 -26 -92q0 -61 36 -62q8 0 29 6q27 10 43 11q43 0 74 -31q29 -29 28 -76q0 -51 -30 -78q-45 -39 -101 -39q-74 0 -125 64q-49 58 -49 135z" />
<glyph unicode="&#x2019;" horiz-adv-x="681" d="M193 1272q0 51 30 78q43 37 101 36q74 0 127 -61q47 -55 47 -135q0 -119 -88 -215q-55 -61 -172 -107v47q102 61 141 115q25 37 24 90q0 61 -36 62q-10 0 -29 -6q-27 -10 -43 -11q-41 0 -71.5 31t-30.5 76z" />
<glyph unicode="&#x201a;" horiz-adv-x="681" d="M203 82q0 51 39 84q41 35 90 35q74 0 125 -70q43 -61 43 -141q0 -233 -297 -332v45q92 31 149 94q66 72 66 162q0 41 -23 41q-16 0 -47 -18q-20 -10 -39 -11q-106 0 -106 111z" />
<glyph unicode="&#x201c;" horiz-adv-x="907" d="M68 1073q0 115 75 199q68 78 183 114v-40q-164 -86 -164 -205q0 -61 33 -62q4 0 36 8q25 6 37 7q43 0 74 -31q29 -29 29 -74q0 -51 -39 -84t-90 -33q-76 0 -127 64q-47 59 -47 137zM547 1069q0 115 74 201q68 80 182 114v-38q-84 -47 -117 -82q-47 -53 -47 -129 q0 -57 33 -58q14 0 36.5 8.5t41.5 8.5q43 0 71 -29q31 -31 31 -74q0 -51 -41 -86t-92 -35q-72 0 -125 66q-47 59 -47 133z" />
<glyph unicode="&#x201d;" horiz-adv-x="907" d="M68 1268q0 53 38 86q41 35 93 35q74 0 127 -66q47 -63 47 -135q0 -115 -74 -201q-68 -80 -184 -114v41q78 43 114 84q49 51 50 127q0 57 -33 57q-14 0 -37 -8.5t-39 -8.5q-45 0 -73.5 29t-28.5 74zM547 1270q0 49 39 84t90 35q74 0 125 -63.5t51 -139.5q0 -111 -78 -199 q-68 -78 -182 -114v41q164 86 164 204q0 63 -31 64q-14 0 -36.5 -8.5t-39.5 -8.5q-41 0 -71.5 31t-30.5 74z" />
<glyph unicode="&#x201e;" horiz-adv-x="907" d="M68 80q0 53 38 86q41 35 93 35q74 0 127 -66q47 -63 47 -135q0 -115 -74 -201q-68 -80 -184 -114v41q78 43 114 84q49 51 50 127q0 57 -33 57q-14 0 -37 -8.5t-39 -8.5q-45 0 -73.5 29t-28.5 74zM547 82q0 49 39 84t90 35q74 0 125 -63.5t51 -139.5q0 -111 -78 -199 q-68 -78 -182 -114v41q164 86 164 204q0 63 -31 64q-14 0 -36.5 -8.5t-39.5 -8.5q-41 0 -71.5 31t-30.5 74z" />
<glyph unicode="&#x2022;" horiz-adv-x="716" d="M113 678q0 104 71 176q74 74 178 74t178 -74t74 -176q0 -104 -73.5 -178t-178.5 -74q-104 0 -178 74q-71 72 -71 178z" />
<glyph unicode="&#x2026;" horiz-adv-x="2048" d="M229 84q0 45 33 78t80 33q45 0 78 -33t33 -78q0 -47 -33 -80t-78 -33q-47 0 -80 33t-33 80zM913 84q0 47 31 78q33 33 80 33q45 0 78 -33t33 -78q0 -47 -33 -80t-78 -33t-78 33t-33 80zM1595 84q0 45 33 78t78 33q47 0 80 -33t33 -78q0 -47 -33 -80t-80 -33q-45 0 -78 33 t-33 80z" />
<glyph unicode="&#x202f;" horiz-adv-x="364" />
<glyph unicode="&#x2039;" horiz-adv-x="681" d="M119 465l387 469h57l-244 -469l244 -473h-57z" />
<glyph unicode="&#x203a;" horiz-adv-x="681" d="M115 -8l243 471l-243 471h57l395 -471l-395 -471h-57z" />
<glyph unicode="&#x205f;" horiz-adv-x="454" />
<glyph unicode="&#x20ac;" d="M-23 575l23 78h74v17q0 43 2 67h-99l23 78h84q35 240 162 391q147 178 377 178q330 -14 340 -387h-39q-25 322 -301 322q-156 0 -250 -168q-74 -133 -94 -336h591l-22 -78h-576q-2 -29 -2 -84h551l-22 -78h-527q10 -215 84 -352q90 -164 240 -164q131 0 223 70 q55 43 137 156l31 -21q-86 -135 -156 -192q-115 -96 -276 -97q-227 0 -354 193q-104 158 -123 407h-101z" />
<glyph unicode="&#x2122;" horiz-adv-x="2004" d="M31 1155l20 201h727l23 -201h-33q-23 141 -195 141h-75v-579q0 -78 16 -101q18 -27 90 -30v-37h-375v37q68 6 86 32q14 20 15 99v579h-76q-90 0 -129 -26q-45 -31 -62 -115h-32zM870 549v37q86 0 105 41q8 18 8 90v465q0 104 -37 127q-25 10 -76 10v37h285l275 -572 l264 572h278v-37q-41 0 -59 -6q-29 -8 -41 -37q-10 -25 -10 -92v-467q0 -80 16 -103q23 -27 94 -28v-37h-397v37q45 0 63 6q35 10 48 37q8 18 8 86v491l-308 -657h-30l-309 649v-481q0 -98 36 -121q14 -10 58 -10h35v-37h-306z" />
<glyph unicode="&#xe000;" horiz-adv-x="915" d="M0 915h915v-915h-915v915z" />
<glyph unicode="&#xfb01;" horiz-adv-x="1249" d="M877 1321q0 43 30 72q33 29 72 28q43 0 71.5 -28.5t28.5 -71.5t-28 -72q-31 -31 -72 -30.5t-71.5 31t-30.5 71.5zM895 -2v948l123 -4h45v-942zM80 844v71h176v62q0 266 180 385q82 53 185 53h12q164 -6 237 -174l-71 -74q-74 181 -216 181h-14q-106 0 -133 -101 q-14 -49 -14 -266v-66h235v-71h-235v-844l-166 -2v846h-176z" />
<glyph unicode="&#xfb02;" horiz-adv-x="1249" d="M895 1421h166v-1421h-166v1421zM80 844v71h176v62q0 266 180 385q82 53 185 53h12q164 -6 237 -174l-71 -74q-74 181 -216 181h-14q-106 0 -133 -101q-14 -49 -14 -266v-66h235v-71h-235v-844l-166 -2v846h-176z" />
<glyph unicode="&#xfb03;" horiz-adv-x="1931" d="M1559 1321q0 43 30 72q33 29 72 28q43 0 71.5 -28.5t28.5 -71.5t-28 -72q-31 -31 -72 -30.5t-71.5 31t-30.5 71.5zM1577 -2v948l123 -4h45v-942zM762 844v71h176v62q0 266 180 385q82 53 185 53h12q164 -6 237 -174l-71 -74q-74 181 -216 181h-14q-106 0 -133 -101 q-14 -49 -14 -266v-66h235v-71h-235v-844l-166 -2v846h-176zM80 844v71h176v62q0 266 180 385q82 53 185 53h12q164 -6 237 -174l-71 -74q-74 181 -216 181h-14q-106 0 -133 -101q-14 -49 -14 -266v-66h235v-71h-235v-844l-166 -2v846h-176z" />
<glyph unicode="&#xfb04;" horiz-adv-x="1931" d="M1577 1421h166v-1421h-166v1421zM762 844v71h176v62q0 266 180 385q82 53 185 53h12q164 -6 237 -174l-71 -74q-74 181 -216 181h-14q-106 0 -133 -101q-14 -49 -14 -266v-66h235v-71h-235v-844l-166 -2v846h-176zM80 844v71h176v62q0 266 180 385q82 53 185 53h12 q164 -6 237 -174l-71 -74q-74 181 -216 181h-14q-106 0 -133 -101q-14 -49 -14 -266v-66h235v-71h-235v-844l-166 -2v846h-176z" />
</font>
</defs>
</svg>
