<?xml version="1.0" standalone="no"?>
<!DOCTYPE svg PUBLIC "-//W3C//DTD SVG 1.1//EN" "http://www.w3.org/Graphics/SVG/1.1/DTD/svg11.dtd" >
<svg xmlns="http://www.w3.org/2000/svg">
<metadata>
This is a custom SVG webfont generated by Font Squirrel.
Copyright   : Made with yourfontscom Copyright  2011 Dominic Giglio All rights reserved
</metadata>
<defs>
<font id="webfontxLUhbGHe" horiz-adv-x="1422" >
<font-face units-per-em="2048" ascent="1638" descent="-410" />
<missing-glyph horiz-adv-x="819" />
<glyph unicode=" "  horiz-adv-x="819" />
<glyph unicode="&#x09;" horiz-adv-x="819" />
<glyph unicode="&#xa0;" horiz-adv-x="819" />
<glyph unicode="!" horiz-adv-x="793" d="M643 1690h70v-93l-70 -175v-58q-27 0 -70 -163q-47 -102 -117 -408q-12 0 -58 -105h-12v-70q-27 0 -70 -163l-23 -35v-129q39 -23 47 -23v-47q-18 0 -47 -23h-46q-47 93 -70 93v70q23 27 46 175q18 15 93 233q14 0 59 129h11v70l24 34v59h23v70l23 35v58h24v70 q20 0 58 116h12v70q93 183 93 210zM363 758q0 -47 -23 -47v-47h23q0 47 23 47v47h-23zM177 -35q23 -4 23 -23v-47q0 -75 -23 -163h-94q0 23 -23 23v70q55 114 117 140z" />
<glyph unicode="&#x22;" horiz-adv-x="781" d="M631 1667h47q0 -19 23 -47v-47q-100 -29 -175 -244q-16 -66 -35 -94v-151q39 -24 47 -24v-70h-70q-29 0 -58 94h-12v163l23 35v82q27 0 35 69q16 24 35 24v70q15 37 140 140zM212 1573q24 -5 46 -58q-19 0 -58 -198q-12 0 -12 -12v-23l24 -35q-20 -27 -47 -152l12 -23 q-12 -23 -12 -35h-47q0 17 -46 47q0 46 -12 46q35 308 93 350q0 61 59 93z" />
<glyph unicode="#" horiz-adv-x="1702" d="M759 1095h70v-116q-26 0 -58 -140q-35 -93 -58 -93v-47h11l24 12q11 0 11 -12q88 23 164 23h35q25 21 116 35q58 67 58 105q26 0 82 70q52 47 128 47v-23q-27 0 -35 -70q-17 0 -81 -82v-35h93q0 -18 23 -47q-23 -26 -23 -70h-105q-95 -36 -128 -70q0 -34 -47 -104v-35 q48 0 93 11l70 -11q4 23 24 23h128q115 -23 128 -23h117q23 -4 23 -24q0 -23 -23 -23h-222q-11 0 -93 -23h-117l-35 -24h-104q-94 -32 -94 -116q-16 -79 -35 -105v-82q-13 0 -58 -35l-105 59q-26 0 -47 35q0 11 -23 11v35q70 0 70 -35h70q0 47 23 47v93l24 35v12h-152 q-33 -20 -151 -47q0 -23 -24 -23v-70l-58 -140h-12v-117h47q0 28 70 59q47 38 47 58h23v-23q-57 -89 -140 -129q0 -58 -82 -58l-58 47v186q23 34 47 163h23v12q0 17 -35 35h-12v-23h-81l-35 -24h-140q-70 32 -70 47v70l466 163v70l-268 -81q-24 0 -46 58h-12v58h12l81 -12 q0 21 117 59v11h81l82 35q0 14 140 292q46 75 46 116zM666 582v-46h12q87 46 151 46v24h-81q-27 -24 -82 -24zM853 536q-3 -33 -210 -93h-23v-47h174l35 23h70q0 35 47 105v12h-93z" />
<glyph unicode="$" horiz-adv-x="1049" d="M701 1305h47q119 -140 186 -175q27 -58 35 -58l-11 -58v-35h-24q-16 0 -35 70q-23 0 -70 46q-29 0 -35 -46h-23v70h-23q-27 -119 -47 -152v-81h-23v-117l-23 -35v-58h-24v-82q21 -52 222 -128q90 -70 105 -70v-47q-24 -28 -24 -46h-175q-25 -21 -116 -35l-23 11 q-94 -23 -94 -70l-58 -128v-58h-23v-93l-24 -35v-128q0 -24 -23 -24h-47q-23 0 -23 24v233l23 35v58h24v70l46 105v11h-140v24h-209l-12 58v12q58 0 58 23h70v-23h245q17 0 35 35v58h23v82q-70 69 -140 221v105l-23 35v47q103 155 245 198q82 20 82 46v59q16 0 46 46z M585 1072q0 -32 -94 -82q-70 -61 -70 -69v-24q42 -74 82 -198q12 0 12 -23h23v70h23v140q18 14 35 139q12 0 12 12v35h-23zM585 431v-58h163v23l-105 70h-23q-17 0 -35 -35z" />
<glyph unicode="%" horiz-adv-x="1434" d="M1307 1492l47 -35q0 -94 -198 -268q0 -35 -47 -70q0 -35 -46 -70q-58 -49 -82 -105l-175 -291q-34 -26 -70 -117q-134 -141 -210 -350q-18 0 -210 -303q0 -50 -69 -151q-21 -47 -47 -47v-70q-26 0 -35 -46h-12v-70h35l175 116q0 43 233 268q19 63 163 222q36 0 94 93h70 q23 -3 23 -23v-70q47 0 105 -70q35 0 81 -117v-139q-27 0 -35 -70q-122 -120 -279 -152q0 -12 -12 -12h-128q-107 0 -140 152q12 22 12 35h-47q0 -18 -163 -175q0 -23 -175 -163q-20 -12 -47 -12h-11q-19 0 -47 47v163l47 82v58q15 0 105 140h11v70q35 0 93 151l175 268 q0 29 82 140q26 46 82 117h11v23h-46q0 -26 -47 -35v-12h-117v-23h-116q0 27 -70 35q-117 113 -117 187v105l24 35v58q26 0 35 46l58 70q17 0 46 47l70 47q97 58 117 58v12h47q13 0 128 23h35q0 -19 70 -58q23 -72 23 -82h128v-23q-36 0 -81 -24v-139h11q55 36 82 116 q17 0 47 47q27 0 35 70q12 0 139 163q42 0 94 93zM270 933v-164q31 -49 105 -81h140l35 23h70q0 17 93 105q0 43 23 70v186q-93 73 -93 105h-82q-38 -38 -105 -58q0 -15 -70 -47q0 -15 -70 -46q0 -28 -46 -93zM946 1037q0 -46 -23 -46v-47h23q0 47 23 47v46h-23zM550 408 q0 -16 -35 -70h-12v-23h23q0 16 47 58v35h-23zM876 58q0 -19 -117 -128q-77 -115 -116 -210v-23q0 -16 58 -58h82q0 29 128 58l82 47q0 23 46 69v94l-35 81q-17 0 -116 70h-12z" />
<glyph unicode="&#x26;" horiz-adv-x="1516" d="M1039 1037h47v-23q0 -23 -47 -23v-70q-27 0 -35 -70q-16 -79 -35 -105v-58h443q24 -4 24 -24q-24 0 -24 -23h-35q-177 -47 -186 -47h-187q-105 0 -105 -116q0 -29 -23 -58v-129l-23 -35v-58h-24v-70q-23 -70 -46 -70v-128q0 -26 11 -47q-15 -81 -35 -81h-46 q-16 70 -47 70v81l-35 82q-87 78 -140 175q-14 0 -93 81q-164 106 -210 164q-17 0 -116 70h-12v69q23 0 23 24h94v23h104l35 23h117q35 0 35 -11l58 11h268q59 19 59 70q77 164 186 303zM200 618q0 -24 -23 -24v-23h23v23h116v24h-116zM713 560v-12h-268q-42 0 -105 12 q-15 -12 -82 -12h-11v-47q34 0 209 -151q94 -70 94 -105q15 0 128 -117h35q0 65 46 152v105l47 128v58h-12q-26 0 -46 -11h-35z" />
<glyph unicode="'" horiz-adv-x="385" d="M281 1364q24 -4 24 -24q-12 -22 -12 -35h-23l-12 47zM223 1282h24q23 -4 23 -23v-24q-93 -163 -105 -256q-12 0 -12 -12v-23q0 -26 12 -47q-12 -22 -12 -35h-46q-19 0 -47 47v116l23 35v59q20 0 94 140q18 0 46 23z" />
<glyph unicode="(" horiz-adv-x="839" d="M643 1457h70v-24q-257 -287 -257 -303q-163 -187 -163 -268q-20 0 -58 -151q-12 0 -12 -12v-58h-23v-70l-23 -35v-175h23v-82l23 -35v-70q26 0 35 -46q17 -71 257 -210q114 -70 198 -93v-24q-24 0 -24 -23h-93l-35 23h-58q0 29 -93 59l-94 70q0 15 -69 46 q-77 63 -152 280q-12 0 -12 12v105l-23 35v140l47 104v59h23v70q93 200 93 209q26 0 35 47q58 105 152 198q0 30 46 47q88 140 164 140q23 16 23 35zM748 1398h11v-34h-46q-24 0 -24 23zM153 722v-35h24q0 30 23 59v11h-12q-17 0 -35 -35z" />
<glyph unicode=")" horiz-adv-x="630" d="M107 1527h23q0 -26 70 -82q0 -35 70 -93q0 -25 81 -128l12 -24v-70q39 0 82 -140l58 -116v-105q17 -15 35 -140q12 0 12 -12v-116h-24v-70l-116 -210q0 -19 -117 -128q-70 -39 -70 -58q-9 -35 -81 -59q-20 12 -59 12v47q24 0 187 174q53 46 81 129q20 0 82 151v187 l-23 35v105q-114 268 -140 268v70q-32 0 -70 93q-37 0 -58 93q-59 140 -82 140v23q18 0 47 24z" />
<glyph unicode="*" horiz-adv-x="1003" d="M620 1235h23q23 -3 23 -23v-187h35l152 94h23q18 0 47 -47v-23q-24 0 -24 -24h-23l-35 24h-12q-29 -49 -93 -128q-81 -82 -93 -82v-23h256v-47q-46 0 -46 -23h-82l-35 -24h-70v-11q118 -233 210 -233q0 -12 23 -12v-47q0 -23 -23 -23h-23q-26 21 -117 35q-98 98 -128 175 q-18 0 -47 23h-11q0 -55 -24 -81v-59h-23v-70l-23 -35v-105q-24 0 -24 -23h-46q-24 0 -24 23v164h24v70h23v69h-23q0 -20 -140 -151q-114 -154 -152 -163q-19 11 -58 11v47l140 163q50 88 186 187v23h-116q0 26 -47 35q-20 35 -46 35v47q3 23 23 23h23l105 -47h105v70 q-23 0 -58 105q-12 0 -12 12v163q23 29 23 58h12q18 0 47 -46q-12 -23 -12 -35q19 0 70 -187h23q31 148 47 175q0 12 23 12v93q4 23 24 23z" />
<glyph unicode="+" horiz-adv-x="1049" d="M480 990q20 0 35 -58q-12 -63 -12 -105v-46h-23v-117l-24 -35v-105l-23 -35v-70l12 -23l58 12h82l35 23h104l129 47h116v-24q-93 -23 -140 -70h-70q0 -33 -104 -46q-37 0 -175 -47q-19 0 -94 -23v-70q-17 -15 -35 -140q-11 0 -11 -12v-105h-24v-81q-27 -198 -46 -198h-70 q0 18 -23 46v24l23 35v93l81 419l-23 12h-128q0 26 -47 35q0 35 -23 35v47q4 23 23 23h24q58 -27 58 -35l23 12h12l35 -24h81v94l24 35v104l23 35v105h23v70h24v117q58 0 58 46h12z" />
<glyph unicode="," horiz-adv-x="583" d="M410 396h46q0 -11 47 -93v-23l-23 -35v-105q-70 -143 -70 -163q-12 0 -117 -117q-140 -41 -140 -70h-46q0 23 -47 23v70q29 0 105 47q61 0 151 140q17 93 47 93v105q0 32 47 128z" />
<glyph unicode="-" horiz-adv-x="1073" d="M118 513l105 -35q39 0 58 11q64 -11 105 -11h152l35 23h420v-47q-24 0 -24 -23h-81l-35 -23h-175l-35 -24h-128l-35 -23l-35 23h-12v-23h-117v23h-139v24h-35l-59 -12q-23 43 -23 93z" />
<glyph unicode="." horiz-adv-x="373" d="M130 175h47q0 -27 70 -35l46 -82v-23q-27 0 -35 -70q-58 -23 -58 -47h-93q0 17 -47 117v47q27 0 35 70z" />
<glyph unicode="/" horiz-adv-x="1026" d="M899 1702h24q0 -23 23 -23v-47h-23v-70q-20 0 -94 -117q0 -26 -140 -244q0 -22 -139 -280q-59 -91 -59 -105q-88 -113 -151 -256q-24 0 -70 -94q-27 0 -35 -70q-14 0 -58 -81v-82q-11 0 -94 -12l-23 35v47q36 101 70 128q196 362 233 362q0 21 245 478q99 185 210 338 q81 70 81 93zM340 723q0 -70 -47 -70v-24h23q0 27 35 47h12v47h-23z" />
<glyph unicode="0" horiz-adv-x="1644" d="M1284 1305h70q70 -31 70 -46v-24h-70q-70 -96 -70 -128q-29 -35 -47 -35v-47h94q0 -26 46 -35q127 -108 152 -221h11v-58l24 -35v-163q-112 -302 -280 -373q-41 -91 -187 -140q-125 -70 -221 -82q0 -12 -12 -12h-105l-35 -23h-303q0 -41 -70 -105q-93 -105 -174 -291 q-12 0 -12 -12v-82h-47q-30 47 -46 47v70q112 229 209 385q-121 118 -128 151q-93 115 -93 245q0 12 12 12q0 12 -12 35q12 99 12 163v12q110 283 186 338q185 209 303 233v11h59l35 24h139q139 -50 140 -94q0 -16 47 -116v-23h-23v-24h46q4 70 47 70v70q86 59 105 117 q35 66 105 128zM678 1014v-12h-93q0 -31 -140 -93q0 -20 -94 -105q-163 -226 -163 -326q0 -19 -23 -47v-163q107 -257 186 -257v-11h47q0 25 47 93q0 20 93 105q0 14 47 81q0 20 116 140q0 26 47 94q46 30 46 58q31 34 82 151q39 47 58 47v23q-8 0 -46 24q0 26 11 46 q-38 117 -58 117l-82 46q-26 0 -46 -11h-35zM1191 979q0 -59 -233 -327q0 -46 -70 -104q0 -66 -187 -280q0 -35 -70 -94q-46 -126 -116 -151v-47h11q35 0 35 12l59 -12h46l35 24h105q27 16 175 46l175 105q81 82 116 82q24 56 82 105q93 110 105 256l-12 23l12 24 q-55 291 -163 291q0 14 -94 47h-11zM1097 956q0 -27 -34 -47h-12v-23h23q0 26 35 46h12v24h-24zM538 151v-11h47q0 46 23 46v23h-12q-15 0 -58 -58z" />
<glyph unicode="1" horiz-adv-x="769" d="M596 1095h47q18 0 46 -46q-19 -35 -46 -187q-27 0 -35 -70q-24 -53 -58 -81q0 -18 -140 -292q-10 -84 -140 -291v-58q-27 0 -35 -70q-29 -14 -70 -129q0 -58 58 -58v-46q-23 0 -23 -24h-93q0 26 -35 47h-12v93h23v93q24 0 82 164q0 20 58 116l128 280q27 88 82 163 q33 99 105 233h12v93q31 70 46 70zM247 209q0 -26 -35 -46h-12v-23h47q0 46 23 46v23h-23z" />
<glyph unicode="2" horiz-adv-x="1143" d="M713 944h46q99 -72 117 -93q70 -69 70 -129q0 -11 23 -11v-82q12 -109 12 -198h-12v-93l-46 -105v-59h-24v-104q47 -67 82 -175q12 0 82 -94v-23q0 -23 -24 -23h-23q0 17 -47 46q0 27 -93 94q-32 116 -58 116h-12q0 -49 -70 -105q0 -29 -47 -46q-60 -105 -139 -140 l-117 -93l-163 -82h-93q-87 49 -117 175v23q0 38 93 257q74 151 222 268q58 0 58 23h58l35 23h47q60 -40 140 -58q46 -9 46 -35h47q0 47 23 47v70h24v81q0 14 23 129v23q0 203 -210 315q-28 -82 -46 -82q-24 0 -24 23v24q0 11 47 35v35q43 0 70 23zM177 -210v-128h81 q131 49 198 116q20 0 105 93q97 86 163 187h12v93q-42 0 -93 35v12h-198q-133 -55 -222 -315q-23 -18 -23 -70q-23 -4 -23 -23z" />
<glyph unicode="3" horiz-adv-x="909" d="M433 1224h210q0 -19 70 -59q0 -35 46 -105v-81q0 -103 -93 -187q-69 -89 -116 -105q0 -20 -94 -105q-20 -34 -46 -34v-24q103 0 210 -116q69 -19 69 -70q114 -75 140 -140v-140q-58 -45 -58 -70l-128 -70h-70q-18 -70 -233 -70h-47q-93 33 -93 47q0 35 -23 35 q46 91 46 105h47v-59q0 -16 35 -35h93q27 24 175 47q0 26 47 35q93 57 93 70v105q-19 0 -152 140q-31 39 -140 93h-105v-23h-69q0 16 -47 46v47q233 189 233 210q38 0 187 198q0 18 23 47v128q-15 0 -82 46h-70l-198 -81q-23 -16 -23 -35h-70l-70 -105q0 -26 12 -47 q-12 -63 -12 -105v-35h-12q-35 0 -58 164v81q23 0 70 93q23 0 105 94q198 27 198 70z" />
<glyph unicode="4" horiz-adv-x="1166" d="M969 1235h70q0 -23 24 -23v-93h23v-47q-26 -32 -47 -128v-222l-46 -81v-82q-27 0 -35 -70l-129 -338v-58h-23v-35q-23 -113 -23 -128v-24q46 0 46 -23v-23q0 -24 -23 -24h-23q0 19 -70 59q0 29 -24 58v70q19 28 59 210q58 165 93 303q9 46 35 46v47h-105l-35 -23v11 l-23 -11h-175q-82 -24 -93 -24h-315q-20 0 -58 70h-12v117q35 35 93 152q21 0 59 81l23 12q31 0 46 -70q-8 -55 -58 -128q0 -27 -35 -47h-11v-70h58q12 0 12 -12l23 12h571q27 23 82 23v210l23 35v105l23 35v58h-23v47q4 23 23 23zM969 967v-81h24v104q-24 -3 -24 -23z" />
<glyph unicode="5" horiz-adv-x="1912" d="M1809 1212h23v-47q-268 -116 -560 -198q-116 -23 -116 -58h-70v-23h-70v-24h-70v-23h-163q-20 0 -35 58q7 31 58 59h105l105 46h70q0 23 70 47h70v23h70v23h70v24h58l35 23h70v23h58l35 24h187v23zM643 804q102 -12 128 -35h12v23h46v-23q-46 -23 -70 -23v-24h-81 q-128 -88 -128 -105q29 -58 221 -128q77 -23 292 -116q34 -85 34 -140q-59 -67 -128 -82q0 -22 -105 -46q0 -17 -35 -35h-93v-24h-23q-14 0 -128 -23h-164l-35 -23h-46q-89 42 -187 58q-70 82 -93 82v139q26 0 35 47q19 70 35 70h23v-47h-23v-116q26 0 35 -47q35 -20 35 -46 h70v-24h291q32 24 198 47q0 16 70 35v11h59l105 70v24l-129 46q-11 0 -11 24h-94v23h-70q0 26 -46 35q-70 0 -210 175v70q61 46 93 46q0 8 24 47h70q0 19 23 35z" />
<glyph unicode="6" horiz-adv-x="1166" d="M853 1527h46q29 -24 59 -24v-23q-84 -9 -315 -280q-137 -186 -163 -186q0 -16 -35 -70q-13 -2 -105 -163q-36 0 -82 -140q-55 -89 -81 -303q42 -164 104 -164q19 -23 70 -23q4 -23 24 -23h11v35l-23 35v210q34 50 58 140q166 184 268 198l140 58h117q102 -42 140 -140 v-12q-23 -112 -23 -128v-23h-24v-70q-100 -221 -186 -245q-99 -89 -257 -140l-23 -23l-117 12h-163q-44 20 -140 93q-30 46 -46 46v70h-24v24q0 81 -23 81q23 39 23 70v82l24 35v58q28 0 46 105q17 0 35 58q17 0 105 175q116 110 140 175h23v-47h24v47h-24v23 q164 175 164 187q0 28 69 58q0 44 70 70q94 67 94 82zM829 711q0 -27 -116 -59q-164 -111 -222 -209q-5 -59 -35 -59v-70l-23 -35v-23q37 -106 82 -128h23q234 93 256 140q28 0 59 46q34 0 116 175v175q-23 0 -23 23h-70l-35 24h-12z" />
<glyph unicode="7" d="M1074 1422h12q116 -44 116 -58q0 -35 24 -35v-163q-117 -194 -117 -233q-104 -131 -151 -234q-9 -46 -35 -46v-24h35q26 0 46 12q21 -12 47 -12h23l35 24h210q23 -4 23 -24q0 -18 -46 -46h-105l-105 -47h-128l-35 -23l-35 23h-12l-152 -256q-67 -103 -151 -292v-58 q-23 0 -23 -23h-24q-18 0 -46 46v47q20 20 35 140q19 0 93 140q86 163 105 163v47h-140q-12 0 -58 81q11 23 11 35h24q23 0 23 -46h12q31 23 198 46q140 225 140 245q39 23 81 151q42 51 128 222v82l-151 23q-38 -23 -70 -23h-210l-35 -24h-105l-35 -23h-128l-35 -23h-70 v-24h-70q0 -23 -46 -23v-47q51 0 70 -46v-24h-94q-43 94 -81 94h-12v46q68 50 291 117q35 0 117 23h105v24h163v23h117q42 0 105 11q20 -11 46 -11q38 23 70 23z" />
<glyph unicode="8" horiz-adv-x="1539" d="M853 1445q137 0 198 -81q49 0 70 -70h11v-93q-15 0 -58 -59h-11v35h23v24h-23v46h23v24h-23v-24h-24q0 31 -70 82v12h-186v-24h-70q0 -26 -35 -46q-82 -91 -82 -292q-23 -3 -23 -23v-175h12q19 1 151 117q27 0 117 70l70 46q217 117 338 152q0 11 11 11h94v24h93v-47 q-42 0 -93 -47h-70q0 -46 -187 -93q0 -30 -58 -35q-222 -131 -222 -151q-32 0 -151 -117q-35 0 -70 -47h-12v-81q0 -32 24 -70q-24 -38 -24 -58q24 -4 24 -24v-186h-24v-93h-23v-70q-26 0 -35 -47q-72 -86 -198 -140h-187q-91 71 -93 93v164q100 208 140 233l70 93 q0 23 210 210v23q0 65 -12 128q12 90 12 198v24l23 35v105q28 0 47 105q34 42 139 93q0 31 164 46zM153 140v-58h-23v-47q16 0 58 -47h93q129 47 129 70q50 70 81 163h12v292q0 23 -23 23q-86 -43 -164 -163q-27 -19 -163 -233z" />
<glyph unicode="9" horiz-adv-x="1014" d="M818 1714q116 -55 116 -70v-70q-23 -70 -46 -70v-70q-217 -440 -292 -560q-9 -46 -35 -46v-70q-31 0 -46 -70q0 -24 -24 -24v-11l12 -59q-35 0 -35 -34l-70 -187v-315h-23q-10 0 -70 94v279l23 35v59h23v69l117 269q0 36 117 209q43 129 70 129v23h-47q-25 -55 -245 -128 l-82 -35h-116q0 27 -70 35l-35 116q51 121 163 222q35 0 70 46q27 0 268 140q24 0 257 94zM678 1527h-70q0 -26 -47 -35q-320 -152 -349 -245l-24 -35v-35q24 0 24 -11l58 11h81q0 27 140 70q0 21 117 59q221 127 221 221q12 0 12 12v58h-58q-105 -47 -105 -70z" />
<glyph unicode=":" horiz-adv-x="478" d="M340 886h23q35 -69 35 -105q-58 -114 -163 -175h-58q-19 0 -47 46v47q101 137 210 187zM200 233h47q0 -16 46 -70v-70q-15 0 -105 -140q-29 0 -58 -23h-23q-19 0 -47 46v70z" />
<glyph unicode=";" horiz-adv-x="595" d="M386 758h94q35 -79 35 -94q-15 0 -105 -104l-24 -12h-70q0 18 -23 46v70q72 92 93 94zM363 268q64 -8 93 -93l-23 -35v-82q-20 0 -58 -116h-35v-70q-50 -3 -105 -140q-26 0 -82 -47h-70q0 18 -23 47v23q100 50 105 93q82 108 82 129q34 28 58 81h11v82q18 128 47 128z " />
<glyph unicode="&#x3c;" horiz-adv-x="1469" d="M946 1247h82l-12 -58v-35q-26 0 -35 -47q-136 -140 -175 -140q-12 -30 -117 -81q-83 -100 -163 -117q0 -30 -46 -47q-117 -58 -117 -81q-122 -70 -140 -70v-23h187l35 -24h81v-23h163v-23h140l35 -24h129v-23h93q97 -65 245 -93l58 -47l-23 -35q-138 0 -338 82h-129 l-128 46h-163q-126 24 -163 47h-198l-35 23h-59q0 35 -93 47v93q29 0 105 47q78 66 151 93q27 56 164 117q0 13 93 58q0 30 47 47l116 93q102 61 187 175q23 0 23 23z" />
<glyph unicode="=" horiz-adv-x="1562" d="M1319 839h163v-47q-18 0 -46 -23h-94v-23h-58q-37 -24 -256 -70h-105q0 -43 -362 -128q-102 -15 -128 -35h-70v-24h-58l-82 -35v-11h-93l-47 35q0 62 187 81q0 23 70 47h70v23h70v23h105l128 47h70v23h70v24q42 0 105 11q22 -11 35 -11v23h58q31 21 256 58q0 12 12 12z M83 233h59l11 -47h82l35 23h151q35 0 35 12l59 -12h291q39 0 163 -23v-46h-163q-83 0 -128 -24l-70 24q-59 -24 -82 -24q-11 0 -11 12l-82 -12h-175l-35 -23h-70q-80 47 -93 47v69q4 24 23 24z" />
<glyph unicode="&#x3e;" horiz-adv-x="1620" d="M107 1364q39 -34 221 -105v-12h70q15 -17 140 -35q0 -11 12 -11h58v-24h70q26 -23 233 -58q0 -12 12 -12h198l128 -46h128q12 0 12 -12l23 12h35q93 -43 93 -70q-1 -25 -70 -58q-32 -45 -116 -94q-233 -179 -233 -198q-56 0 -105 -70q-105 -56 -105 -93q-38 -41 -105 -58 q-90 -67 -198 -117v-12h-70q0 -26 -47 -35l-221 -116q-58 15 -58 35v23q30 58 139 105q94 32 94 58h58q48 31 128 59q19 35 187 128q20 0 105 93q31 0 221 163q147 95 187 152v12h-164l-35 23h-58v23h-151q-16 0 -129 23h-70v24h-93q-80 44 -256 70h-47q0 27 -163 70 q0 11 -105 128q0 17 47 35zM118 1317v-23q24 0 24 -23h46v23q-46 0 -46 23h-24z" />
<glyph unicode="?" horiz-adv-x="956" d="M363 1608h70q240 0 338 -116q35 0 47 -70q8 -47 35 -47v-70h23v-186l-58 -140h-12v-70q-77 -124 -210 -245q0 -32 -116 -210q-26 -105 -47 -105q-47 19 -47 82v12h24v70h23v69q43 90 187 245l93 152q0 30 70 198v47q-18 14 -35 140q-41 64 -105 116v12h-210l-35 23h-58 v-23h-70q0 -26 -47 -35q-46 -59 -70 -59v-104q0 -27 12 -47l-12 -23q12 -23 12 -35h-35q0 28 -47 105q0 29 -23 58q64 160 163 198q47 9 47 35h58zM328 -35q58 0 70 -187q12 0 12 -11q-28 -133 -70 -210h-70q-43 69 -70 151q16 0 58 175q19 0 47 70z" />
<glyph unicode="@" horiz-adv-x="1550" d="M759 1154h47v-24h93q0 -26 47 -35q112 -96 175 -361l-12 -58v-175q-46 -129 -46 -140h-70q-42 17 -47 117h-23q-19 -70 -70 -70q0 -60 -70 -82q0 -37 -70 -70v-12h-70q-70 44 -93 129q23 38 23 70v35q27 0 35 70q103 134 175 198q58 27 140 105q46 0 46 35l-35 81 q-76 70 -93 70h-117q-225 -111 -326 -303q-19 -2 -70 -117q-62 -139 -81 -139v-70q-27 0 -35 -70q-17 -80 -35 -105v-175l-24 -35q20 -25 35 -163q72 -127 128 -140q0 -31 187 -70q0 -12 12 -12h105q39 0 58 -11l70 11h140l35 24h81q408 50 408 93h58v-23q-17 0 -209 -94 q-119 -20 -152 -46h-128q0 -21 -268 -47h-233l-35 23h-59q0 27 -70 35q-146 65 -221 198h-12v70h-23v303l23 35v82q27 0 35 70q12 0 12 12v58q27 0 35 70q58 163 151 303q55 121 234 245v11h46v-23h24v23h-24v24q16 0 70 35v11h58zM899 711q0 -34 -116 -105q0 -30 -70 -93 q0 -19 -47 -94v-58h12q75 31 163 140h12v93q46 0 46 35v58h24v24h-24zM969 687v-35q0 -15 59 -58h11v58q0 17 -35 35h-35z" />
<glyph unicode="A" horiz-adv-x="1469" d="M1284 1562q37 -4 82 -105v-105l23 -35l-23 -93q23 -4 23 -24v-256h-23v-163l-24 -35v-152l-23 -35v-175l-23 -35v-396q46 -235 46 -256v-129q0 -23 -23 -23h-47q-23 0 -23 23v117h-23v128l-24 35v245l-23 35v210h-23q0 -43 -152 -82q0 -8 -58 -35h-140l-12 58q0 24 82 59 h70v23h70v23h58q26 21 117 35l11 24v58h24v93q23 198 23 222v81l23 35v432h-46q-72 -102 -82 -140q-51 -68 -105 -187q-20 0 -58 -116q-54 -35 -198 -327q-120 -204 -303 -583l-117 -210q-9 -26 -70 -116q0 -20 -46 -58q0 -35 -24 -35v-70l-23 -35v-59q-26 0 -47 -35v-11 h-70q-23 0 -23 23v47q23 0 82 140q16 0 35 35v58q25 0 46 93q24 0 82 117q45 103 81 128q0 37 94 186l140 269q0 14 139 256q132 207 245 443q30 16 105 187q26 0 128 186q27 0 47 12z" />
<glyph unicode="B" d="M853 1760h23q0 -23 12 -23l23 11q180 -55 221 -175q0 -48 12 -93q0 -32 -58 -175q-77 -108 -187 -210q0 -29 -46 -46q0 -34 -94 -117q0 -18 -23 -46v-59q14 0 152 -140q27 0 163 -128q151 -104 151 -128q85 -49 140 -163v-163q-61 -124 -116 -152q-60 -72 -233 -152h-70 q0 -29 -59 -34l-81 -35h-105l-35 -24h-23l-35 24h-129q-128 46 -140 46q0 26 -81 93l-35 -23q0 12 -12 12q-11 -23 -11 -35h-47q-47 101 -47 151v164l-23 34v164l23 35v105h24v116h23v35q74 431 117 431v70q204 441 373 490q0 47 116 82zM223 676v-59h-23v-69l-23 -35v-129 h23v94h23v93h24v93q23 0 23 23h23l35 -23l-12 -116v-117h-23q0 -12 12 -35l-24 -163q12 -21 12 -47q-23 -3 -23 -23v-152h-23v-23q43 0 81 -93q22 -24 152 -59q0 -11 11 -11h210q15 17 140 35q24 27 152 70q169 83 233 210v116q-31 62 -94 117l-303 233q-121 89 -186 163 q0 64 -12 163q0 54 105 117q0 34 93 116q64 95 117 140q0 41 70 82v70h23v81q-29 80 -93 94v11h-152l-105 -70q-99 -50 -104 -93q-122 -101 -175 -221q-70 -92 -117 -292q-46 -245 -70 -291z" />
<glyph unicode="C" horiz-adv-x="1702" d="M1109 1550h163q148 -91 164 -140q0 -23 23 -23v-82l23 -35q-46 -128 -46 -140q-24 0 -59 -93l-81 -70q-17 0 -35 35v12q40 0 70 93q8 47 35 47v175q-51 73 -129 104h-198v-23h-58q-176 -86 -292 -175q-22 -36 -93 -70q0 -35 -35 -35q-24 -56 -81 -105q-70 -97 -70 -116 q-44 -32 -129 -222h-11v-70q-23 -69 -47 -69v-70q-27 0 -35 -70q-11 0 -11 -12v-210q17 -14 35 -140q48 -124 128 -210q134 -81 233 -93q0 -11 12 -11h128q13 0 128 23h93q28 19 210 58q0 12 12 12h70v23h58l82 35v12h70q0 23 104 58q35 14 35 35h47v-23q-131 -94 -233 -129 q-44 -50 -326 -139v-12h-82l-35 -23h-128l-35 -24h-59q-294 0 -419 94q-30 0 -47 46q-68 57 -116 152l-59 151v105l-23 35v163h23v70q24 36 82 233q16 24 35 24v70q26 0 47 93q16 0 81 116q141 188 198 245q21 0 163 129q140 100 304 163h116v23zM247 781q0 -24 -24 -24v-46 h24q0 46 23 46v24h-23z" />
<glyph unicode="D" horiz-adv-x="1539" d="M200 1806h93v-23h70q0 -23 117 -81q34 -66 198 -245q0 -25 151 -187q0 -19 187 -233q0 -28 116 -151q0 -35 47 -70q0 -27 70 -105q117 -158 117 -198q77 -96 93 -234q-14 0 -58 -128q-171 -198 -280 -198q-20 -35 -128 -35q-19 0 -47 -23h-70v-24h-58l-35 -23h-152 l-35 -23h-256q-70 31 -70 46v70q46 55 46 70h24v-93h245q31 21 256 58q63 30 245 59q175 105 221 163q9 0 35 58v93q-41 124 -233 397q-30 61 -93 116q0 42 -35 59q-280 321 -280 338q-128 128 -128 163q-55 27 -117 151q-31 0 -116 117h-70v-105l23 -35v-175l23 -35v-140 q24 -114 24 -128v-420q-24 -83 -24 -93v-105q-116 -270 -116 -349v-47q-17 0 -47 -47h-46q0 16 -47 70v257l47 105v128q23 27 46 175q17 0 35 58q35 140 70 140h12v128q0 26 -12 47q12 22 12 35q-23 0 -23 23v128l-47 210v128h-23v140q3 23 23 23zM223 641v-93h24v93h-24z M200 524v-70h-23v-70h-24v-93h24q0 23 23 23v117h23v93h-23zM550 -105v-24h93v24h-93z" />
<glyph unicode="E" horiz-adv-x="1772" d="M1657 1620h23l12 -47q-93 -81 -187 -81q-15 -16 -151 -82h-70v-23h-70q0 -30 -58 -35q0 -28 -93 -47q-39 -29 -117 -46q0 -18 -105 -70q0 -17 -93 -59h-70q0 -38 -23 -93h-24v47h-23q0 -29 -23 -59v-81q-24 0 -24 -12l12 -23q-12 -51 -58 -70q0 -42 -82 -198h-12v-70h12 q116 74 396 198q131 58 210 70l82 35h105v-23q-42 0 -117 -47q-105 -23 -361 -163q0 -16 -163 -70q0 -35 -140 -93h-24l-35 23h-35q0 -74 -116 -303q0 -24 -23 -24v-69h-24v-70l-23 -35v-117q23 -27 23 -82q82 0 93 -11q80 11 129 11h70q48 32 128 59v11h58q165 70 198 70 q0 30 117 82q22 36 93 70q0 31 117 140l46 116h24v-81q-31 -105 -198 -280q-35 0 -70 -47q-25 -32 -129 -81q-65 -35 -279 -117v-11h-59l-105 -47h-209q0 27 -70 35l-70 81v70q0 48 -12 94q12 114 58 221q70 175 94 175v70q26 0 35 47q8 46 34 46v70q35 3 117 233 q47 56 58 117q35 20 70 116q24 47 35 47h70q5 82 70 82q24 42 245 163l175 70q116 38 116 58h59l221 93h70q0 24 70 47z" />
<glyph unicode="F" horiz-adv-x="1772" d="M1657 1853h23l12 -58v-12q-26 0 -175 -105q-16 0 -93 -58q-24 0 -280 -117q-1 -12 -140 -81v-12h-58q-36 -36 -210 -105q-67 -17 -233 -116q-23 11 -35 11l-93 -140h-24q-23 0 -23 24v70h-23v46q112 70 163 70q0 30 117 82v12h70q0 26 116 58q61 35 210 93v12h70 q0 39 140 81q0 23 105 47q158 80 163 105q63 0 198 93zM515 1014h46v-93q-46 -68 -81 -234q-12 0 -12 -11v-12h47q0 26 46 35q115 55 303 105q82 -12 82 -35v-12q-186 -57 -210 -116h-105q0 -26 -35 -47q-27 0 -81 -35v-11h-70q0 -38 -70 -70v-70h-24v-94q-23 0 -70 -128 v-58q-26 0 -34 -70q-12 0 -12 -12v-128h-23v-93h-24v-70q-27 0 -35 -70l-46 -23q-39 46 -47 46l12 117v70l23 35v58h23v70h24v70q40 60 58 140q9 46 35 46v70h23v47h-11l-35 -23q-59 26 -59 116q157 0 175 140q27 0 35 70l82 175q43 20 70 105z" />
<glyph unicode="G" horiz-adv-x="1609" d="M993 1387q29 -47 46 -47v-23q-46 -66 -46 -93h-24v70h-58q-142 -131 -198 -210q-12 0 -117 -117q-35 0 -163 -198q-47 -35 -198 -338l-58 -128v-59h-24v-151q71 -163 163 -163q0 -12 12 -12h23l35 23h94q0 27 46 35q0 12 35 24q23 -12 35 -12v-23q-153 -107 -186 -117 h-187q0 23 -93 70q0 26 -35 47h-12v58l-23 35v186q17 15 35 140q82 129 82 164q123 232 174 279q32 79 175 222q0 8 47 58q27 0 116 117q19 0 59 70q117 23 163 93h82zM1109 967h233q144 -58 187 -186v-187q-26 0 -35 -46q-75 -112 -93 -164q-49 0 -59 -70q-23 0 -233 -221 q0 -44 -70 -70q0 -49 -46 -93v-35q35 0 35 -35q-12 -47 -70 -47h-12q0 28 -47 58v94q24 0 59 93q35 65 128 151q0 38 70 70q2 19 210 234q43 128 70 128v163q-14 0 -82 70q-43 0 -70 23h-12q-233 -33 -233 -70h-70q0 -26 -46 -35q-50 0 -70 -81h-24q0 16 -46 46v24l140 105z " />
<glyph unicode="H" horiz-adv-x="1795" d="M806 1585q16 0 35 -70h12v-46q-70 -117 -140 -350q-93 -171 -152 -350q-8 -46 -35 -46v-70q70 -4 70 -47h47v23h105q83 -23 93 -23h47l35 23h279q0 45 82 210h12v70q73 103 140 268q38 23 93 152q18 0 93 47h23q0 -27 70 -35v-12q-186 -157 -186 -233q-28 0 -93 -175 q-13 0 -70 -152h-24v-70h-23v-70q-27 0 -70 -163q-47 -74 -128 -349q-12 0 -12 -12v-58h-23v-70q-23 -70 -47 -70v-70l-23 -35v-58h-23v-70q-27 0 -35 -47q-19 -70 -35 -70h-47q-18 0 -47 47v221h24v-81q23 0 23 -47h23v70h24v70l23 35v81q35 0 47 129q0 18 46 93v58 q27 0 58 140q9 47 35 47v70l24 35v58h-24v-23h-58l-35 -24h-128l-35 -23h-117l-35 23l-46 -23q0 23 -23 23h-12v-23h-70q-70 42 -70 93h-23q-70 -163 -94 -163q0 -42 -35 -93q-58 -96 -81 -210q-34 0 -58 -70h-12v-70h-23v-117h58q128 74 128 94h23v-24q-62 -60 -163 -128 q-23 -16 -23 -35h-70q-47 23 -47 35q0 67 -23 140q20 19 105 221q32 57 58 140q27 0 35 70q112 209 163 350l140 280h12v70q20 0 58 116h12v70q26 0 35 47h11v70q27 0 35 46q19 70 82 140z" />
<glyph unicode="I" horiz-adv-x="2343" d="M2205 1376h58v-12q0 -55 -280 -117q0 -11 -11 -11h-70v-24h-58l-35 -23h-222l-35 -23h-233q0 -39 -12 -59q24 -3 24 -23v-12q-47 0 -47 -70q-82 -120 -82 -139q-26 0 -35 -47q-8 -47 -35 -47v-70l-23 -35v-58h-23v-70q-8 0 -47 -23v-93h-23v-70l-23 -35v-82 q-27 0 -35 -47q-12 0 -12 -23h-47q-23 0 -23 23v117h-23v23q85 129 151 327q25 140 59 140v70q26 0 34 46l152 222v11h-338q-26 0 -47 -11q-20 11 -46 11l-35 -23l-35 23q-26 0 -47 -11q-22 11 -35 11q-76 -23 -105 -23t-93 12q-43 -12 -105 -12q0 21 -58 82l11 58h24 l35 -23l35 23h23v-23h734q24 0 24 23q11 0 11 -12l59 12h291q14 0 128 23h140q26 21 117 35q22 -11 35 -11q0 21 105 35q102 14 128 35zM993 117h268q113 -24 128 -24h35v-23h-70q-27 -20 -187 -47h-163l-35 -23h-93q-314 -47 -560 -140h-69q0 -26 -47 -35v-12h-58l-47 -34 q-17 0 -35 34v47q35 43 163 82v11h70v24h58l129 46h70v24h128l128 46h187v24z" />
<glyph unicode="J" horiz-adv-x="1760" d="M1039 1247h641v-11q0 -22 -105 -59h-116q-113 -23 -128 -23h-187l-35 -23h-151q-24 -4 -24 -24q4 -38 59 -58q31 -48 58 -128q55 -57 198 -490q0 -107 23 -140h-11l11 -23v-70q-58 -163 -81 -163q-50 -73 -105 -82q-96 -53 -210 -93v-12h-58q-27 -23 -187 -46h-163 l-35 -23h-58q-315 64 -315 139v245h23v-93l59 -128q46 0 139 -47h234l35 23h174q26 21 117 35q171 38 268 164q17 0 35 58h12v151q0 27 -12 47q12 20 12 47v35q-28 0 -82 198q-186 389 -186 408q-35 20 -35 46h-175l-35 -23h-47v23h-23v-23h-152l-35 -23h-151 q-58 -20 -58 -59l-35 -23q-23 12 -35 12v116q171 29 256 70h152l35 24h244l35 23h175z" />
<glyph unicode="K" horiz-adv-x="1539" d="M363 1608h70q0 -43 23 -70v-116l-23 -35v-198h-23v-94l-24 -35v-104h-23v-117q-23 -14 -47 -245q-23 -3 -23 -23v-128h-23v-94q-19 -27 -58 -209q-32 -59 -47 -187q-19 -70 -35 -70h-47q-23 0 -23 23v70l23 35v105q117 308 117 501v12h23v117l47 128v105l23 35v151 q19 28 47 199v81h23v163zM853 1305h23q0 -27 70 -35l23 -35v-23l-128 -93q-90 -78 -105 -140q-18 0 -116 -128q-29 -13 -117 -164v-93q26 -63 70 -70q0 -43 93 -70q2 -25 117 -70v-11h93q0 -34 187 -82q1 -19 116 -70q0 -35 70 -70q30 -62 93 -116q55 -82 70 -82 q30 -47 47 -47v-23h-93q0 12 -117 117q-75 105 -245 209q-105 14 -105 47h-93q0 20 -117 58q-102 22 -198 129q-70 0 -116 221q0 60 151 268q27 0 94 93q26 0 35 47l58 70q11 0 81 93q59 34 59 70z" />
<glyph unicode="L" horiz-adv-x="1212" d="M678 1375h58q0 -46 12 -46q-20 -187 -59 -187v-70l-23 -35v-58q-23 0 -46 -58v-82h-24v-70l-46 -82v-58q-21 0 -59 -116h-11v-70h-24v-70q-23 0 -81 -164q-128 -282 -128 -303h-24v-70l-46 -128v-81h128l35 23h70q0 23 151 82q447 186 513 186q0 12 12 12h46v-24 q-71 -46 -186 -81q-120 -97 -257 -128q-83 -64 -256 -117q0 -34 -105 -47q-29 0 -58 -23h-117q0 19 -70 58l-23 35v164q20 46 47 46v93q142 319 209 432v58q27 0 35 47l117 303h12v70q20 33 46 151q24 0 24 23v59q26 0 58 140q20 66 58 105z" />
<glyph unicode="M" horiz-adv-x="2332" d="M1272 1445h94q15 -116 46 -116v-35q0 -12 -81 -292q-35 -42 -70 -210l-35 -81v-59h-24v-70l-23 -34v-82h-23v-70h-24v-70l-93 -245v-105h24l186 257q0 13 140 151q12 70 93 140q0 22 105 163q35 45 35 59h23v-24h24v24h-24v23l94 117q0 26 35 46q12 0 139 163 q101 108 152 129q29 70 140 70h23q24 -83 24 -94q-21 0 -47 -140q-14 0 -58 -128q-40 -93 -59 -93v-70l-70 -175v-58h-23v-105q-23 -83 -23 -93v-175q26 0 35 -47q23 0 23 -46q-117 72 -117 163h-11v233l23 35v81h23v94q140 371 140 408q29 35 47 35v23h-47q0 -19 -116 -117 q0 -14 -117 -128q0 -29 -116 -140l-164 -244q-172 -266 -233 -315q-16 -82 -58 -82q-89 -132 -198 -245q0 -74 -58 -93q-105 24 -105 117v175q23 27 46 174q20 0 59 152q8 47 35 47v70q23 28 69 268q17 0 35 58h12v70l117 315v128h-24q-32 -52 -233 -280q-70 -96 -70 -128 q-37 -13 -151 -222q-175 -263 -175 -291q-47 -38 -82 -128q-105 -154 -105 -175q0 -28 -116 -140q0 -42 -35 -58q-61 -85 -128 -233h-70q-29 23 -47 23v12q0 13 23 128v70l24 35l-24 35v23h24v93l70 175v82h23v70h23v70q24 40 117 408q0 16 46 116v82l70 35l24 -35v-47 l-24 -35q24 -28 24 -47q-47 -112 -70 -244h-24v-35q-19 -137 -46 -163v-59h-24v-93h-23v-70q-70 -186 -93 -373h23q0 32 47 93q70 76 70 117q81 46 81 93q27 11 94 163q54 43 105 163q26 0 35 47l116 187q15 0 47 70q53 65 198 303q17 0 47 46q23 0 81 117q28 0 58 46 q16 0 70 47zM1039 326q0 -47 -23 -47v-11q0 -17 35 -35h12v93h-24z" />
<glyph unicode="N" horiz-adv-x="2110" d="M1972 1725h46v-152q0 -35 12 -35l-12 -58v-175q-23 -25 -58 -233q-164 -468 -396 -653q-119 -128 -175 -128v-12h-140q-198 163 -198 245q-9 58 -35 58v234h-23v186l23 35v222h23v46h-23l-163 -268q-86 -120 -175 -315q-12 0 -152 -256q-26 0 -140 -233l-70 -93 q-33 -89 -104 -199q-43 -151 -82 -151h-23q-19 0 -47 46v47l23 35v58q21 0 59 117h11v70q21 26 35 116q32 117 59 117v58q35 175 69 175v70l24 35v58h23v70q23 27 23 70h35v-11l-11 -59q46 0 46 -23v-12q-23 -159 -46 -186v-59h-24v-69h-23v-94h-23v-46h23q0 29 140 233 q93 143 93 186q19 0 59 70l34 59q47 76 47 104q37 0 82 117q128 187 140 187l35 58q0 35 46 70v11h47q0 -23 23 -23v-105l23 -35v-116l-23 -35v-490l23 -35v-70q37 0 59 -93q58 -47 58 -70h140q0 26 47 35q75 43 163 163q93 101 186 315q59 136 59 163q8 47 34 47v70h24v70 q17 14 35 139q11 0 11 12v152l24 35v128zM316 559q0 -23 -23 -23v-47h23q0 47 24 47v23h-24zM1109 513v-47q26 0 47 -35v-12h23v24q-26 0 -35 46q-12 0 -12 24h-23z" />
<glyph unicode="O" horiz-adv-x="1457" d="M864 1329h187q165 -59 186 -117q37 -12 82 -117h12v-70h23v-93q23 0 23 -11q0 -36 -11 -82q11 -61 11 -117l-23 -35v-128h-23v-93q-31 -93 -164 -292q-39 -110 -291 -314q-105 -47 -105 -70h-82l-34 -23h-70q-49 0 -94 -12q-349 71 -349 198q-82 97 -82 233q12 77 12 152 v58q36 95 93 175q0 39 47 105q133 320 443 489h69v24h210q0 -13 70 -94v-35h-11l-47 35h-58v24h-82q-233 -108 -233 -117q-28 0 -58 -46q-17 0 -94 -117q-44 0 -116 -198q-18 -3 -128 -245h-12v-140l-23 -35v-47q98 -249 174 -268q105 -13 105 -46h245q253 119 268 186 q40 7 187 233q46 57 70 140h23v70h23v117l24 35v186q0 42 11 105q-8 70 -35 70v70q-26 0 -81 105q-105 55 -105 82h-35q-51 0 -93 23l-24 -12q-20 12 -46 12q-32 -20 -129 -47q0 12 -11 12q0 51 140 70q0 12 11 12z" />
<glyph unicode="P" horiz-adv-x="1306" d="M969 1772h47q116 -50 151 -164q0 -23 35 -23v-93h24v-117q0 -11 -12 -11l12 -24v-58h-24v-70q-27 0 -35 -70q-102 -185 -244 -291q-25 0 -175 -105q-35 0 -35 -24h-58l-35 -23h-105l-82 -35q0 -42 -70 -186v-59h-23v-70h-24v-70l-93 -174v-59h-23v-93q0 -18 -47 -47h-46 q0 9 -35 129q11 22 11 35h-23v70h23v163l24 35v128q20 26 35 116q58 179 151 304q23 0 23 23h94q93 163 140 326q25 0 46 94q32 0 47 69q165 313 221 315q35 14 35 35h70v24zM526 1002v-70q-23 -70 -46 -70v-70h116v24h70q0 26 47 35q180 98 245 174q128 162 128 257l23 35 v210q-50 139 -81 151q-27 0 -47 12q-116 0 -280 -361l-128 -234q-16 -93 -47 -93zM316 792q-39 -163 -69 -163v-93q-33 0 -47 -140v-93h23v70q35 0 47 128q0 10 70 163v128h-24z" />
<glyph unicode="Q" horiz-adv-x="1889" d="M1226 1457h163q0 -26 93 -47q0 -26 35 -46q15 -4 105 -140q47 -44 140 -268q0 -12 23 -12v-58q24 -83 24 -94v-35q0 -11 -12 -11l12 -24v-58l-24 -35v-151q-72 -155 -116 -199q0 -71 -164 -151q0 -28 -163 -117q-23 0 -70 -23v-23q94 -17 94 -47h70q11 0 11 -12l23 12h35 v-58l-58 11l-35 -23h-81l-187 58l-23 12h-47l-35 -23h-105l-35 -24h-466v24h-93q-73 32 -105 70q-54 0 -117 116q-12 0 -58 93v117q131 362 280 443q0 26 35 47l58 70q17 0 47 46q24 0 244 187q35 0 70 46q79 13 129 82q70 70 70 105q26 0 46 35q23 44 187 105zM1016 1270 v-23h105q23 0 23 23q149 0 175 -93q-23 -70 -47 -70q-26 0 -35 -47q-28 -35 -58 -35v59l70 46v47q-26 0 -47 12q0 -12 -11 -12q0 23 -24 23h-11q0 -30 -59 -35q-18 -19 -174 -70q-24 -27 -117 -70q0 -14 -70 -46q-20 -32 -256 -222q-13 -39 -129 -140q-121 -136 -128 -221 q-33 -6 -58 -152q-12 0 -12 -11v-35q26 0 35 -47q67 -93 82 -93q116 -50 116 -70h70l35 -23h373l35 23h94v47q-55 0 -70 81q0 26 -70 105q0 70 -24 93v70h-23v187q47 30 47 46h46v-174l140 -327q70 -61 70 -81h47v23h70q0 26 46 35q70 40 94 58q102 29 209 152q37 12 70 128 h24v70l23 35v70q0 13 23 128v58q0 27 -11 47v35q-56 146 -82 175q-47 58 -47 105q-27 0 -58 70l-35 58q0 14 -128 82h-163zM1739 641v-70h-24v-47h24q0 47 23 47v70h-23z" />
<glyph unicode="R" horiz-adv-x="1597" d="M888 1737q108 0 268 -105q173 -192 175 -245q7 -67 35 -105v-93q23 -113 23 -128q-23 -113 -23 -128v-117q-57 -158 -105 -210q-60 -84 -152 -116q-58 -46 -58 -70q-35 0 -70 -47q-33 0 -128 -70q-17 0 -47 -47q-21 0 -210 -116v-12q36 -70 140 -70q0 -11 12 -11h256 q12 0 12 -12l23 12h47v-24h105q290 -46 326 -70v-23h-291l-35 23h-478q-15 18 -140 35q-82 74 -82 140q0 71 164 175q57 53 128 82q1 19 116 70q233 174 245 174q82 108 82 129q0 11 23 11v117h23v140q0 55 12 116q-12 126 -58 210v70q-24 0 -105 105q-120 102 -245 117 q0 11 -12 11q-151 -93 -151 -116q-117 -151 -117 -233q-27 0 -35 -70q-58 -143 -70 -257q-16 -79 -35 -105v-93q-23 -83 -23 -93v-35h-23v-140q-18 -15 -35 -140q-12 0 -12 -12v-81h-23v-140h-24v-117q-23 -27 -46 -175q-23 -3 -23 -23v-58h-24v-93q-15 0 -70 -47l-46 70 q0 11 -47 140l23 35v198q47 77 82 210l128 198v58h23v117h24v93l23 35v105l23 35v58h24v93q42 90 58 187q32 54 93 233q87 117 94 117q34 58 128 105v11h58q26 0 47 12zM1296 886v-93h23v93h-23zM806 373q0 -23 -23 -23v-24h46q0 24 24 24v23h-47zM177 0v-93h23v93h-23z" />
<glyph unicode="S" horiz-adv-x="1399" d="M1028 1166q0 -24 128 -35q68 -34 70 -59q38 -23 46 -23v-70q27 0 47 -46v-94h-23v-81h-24v46q0 12 12 12q-61 210 -152 210v23h-35q-13 0 -128 23q0 -46 -245 -46h-35q0 -24 -186 -105q0 -43 -23 -70v-82q29 0 81 -93q97 -108 455 -431q109 -110 198 -245h12v-58l46 -82 v-47q-59 -143 -140 -174q-93 -35 -93 -59h-58l-35 -23h-117q-13 0 -128 -23h-12q-34 0 -34 11l-59 -11h-466q-55 46 -70 46v117q23 0 23 47h82v-12q0 -35 -35 -35v-47q29 0 58 -23h350l35 23h140l35 -23h11v23h152q221 82 221 140q0 23 24 23v94q-18 0 -59 93 q-87 87 -151 210q-40 0 -315 256q-30 0 -46 47q-108 90 -175 175q0 29 -24 58v128q0 154 338 257q0 11 12 11h82q26 0 46 12q12 0 12 -12q93 24 152 24zM363 -396v-24h93v24h-93zM526 -396v-24h117v24h-117z" />
<glyph unicode="T" horiz-adv-x="1842" d="M60 1212h12q128 -26 128 -46h-47v-24h47v24h93v-24h93q39 -20 315 -70h82v-23h804l35 23l35 -23h35v23h70v-23q-12 0 -93 -47h-70v-23h-117v-23h-268q-26 0 -47 -12q-20 12 -46 12h-12v-23h-140q0 23 -11 23q-12 0 -12 -12l-58 12h-152v-140h-23v-70l-93 -198v-58h-24 v-70q-70 -148 -81 -234q-40 0 -82 -233l-23 -35v-105q0 -18 -47 -46h-47q0 18 -23 46v70l23 35v82h24v35q0 11 -24 93v70h24v-81h23q0 46 23 46v70q24 0 82 140q14 102 35 128v59h23v69q27 0 59 140l81 175q0 43 -245 58q0 24 -23 24h-128v23h-93v23h-70q0 17 -47 47v93z " />
<glyph unicode="U" horiz-adv-x="1585" d="M1249 1410h93q87 -130 140 -280v-105l23 -35v-442l-23 -35q0 -12 12 -12q-12 -102 -35 -128v-59q-27 0 -58 -140q-30 -14 -129 -233q-20 0 -93 -116q-21 0 -105 -117q-42 -36 -81 -46q0 -27 -35 -47q-24 0 -70 -35q-93 -19 -175 -58h-93v23h-187q0 26 -47 35q0 15 -70 47 q-69 70 -104 151q-20 2 -70 117h-12v58l-23 35v105l-24 35v93q0 23 -23 117l23 58q0 26 -11 47q11 99 11 163v151h24v140q23 34 46 163h24v70q46 100 46 117h47q46 -19 46 -82v-35q-38 -23 -46 -23v-70q-18 -14 -35 -140q-12 0 -12 -11v-82h-23v-140q-23 0 -23 -12 q0 -11 11 -11l-11 -59v-361h23v-105q23 -83 23 -93v-58q34 0 47 -105q80 -105 93 -105q44 -64 93 -82v-11h70v-24h198q88 35 117 59q31 0 128 81q19 0 59 70q48 0 58 70q23 0 70 70h23v-47h47v12q0 29 -47 35v47q8 0 47 23v70q38 0 58 70q78 120 117 373q11 0 11 11 q0 35 -11 35l11 59v198q0 13 -23 128v128h-23v59l-70 151h-82v35q0 17 35 35zM783 -362v-23h-70v-12l11 -23q47 12 82 12v46h-23z" />
<glyph unicode="V" horiz-adv-x="1644" d="M1494 1154h46q24 -4 24 -24v-23q-41 -93 -70 -93v-70q-24 0 -93 -163q-34 0 -59 -70q-35 -21 -70 -117q-13 -1 -105 -163l-46 -70q-47 -61 -47 -93q-93 -121 -93 -163q-26 0 -47 -35q0 -35 -46 -70q0 -35 -47 -70q-34 -59 -47 -59q-26 0 -35 -46q-19 -39 -58 -58 q0 -50 -70 -70v-12h-46q-78 93 -94 93q0 47 -116 222q-70 180 -117 209q-93 255 -93 315q-23 0 -23 24v69q-39 0 -59 175q-11 0 -11 12v70q0 42 -12 105q12 22 12 35l-12 58q12 20 12 47h35q93 -62 93 -129h-35v-11l23 -35v-140h24v-93q33 0 46 -105q0 -29 23 -58v-70 q30 0 35 -59l94 -245q107 -194 140 -209q5 -47 35 -47v-70h35q28 6 69 93q14 2 94 117q126 108 151 221q66 68 245 385q82 121 82 140q16 0 81 117q31 16 105 186q26 0 47 35v12zM1377 897q0 -23 -23 -23v-47h23q0 47 24 47v23h-24zM1284 757q0 -26 -35 -46h-12v-47h24 q0 16 35 70h35v23h-47zM934 174q0 -46 -23 -46v-23h23q0 23 24 23v46h-24z" />
<glyph unicode="W" horiz-adv-x="2262" d="M1937 1270h35q81 -33 105 -93q27 -24 70 -152q14 -102 35 -128v-221q-24 -160 -47 -187v-105h-23v-70q-24 -27 -47 -174q-69 -116 -128 -175q-104 -83 -198 -129v-11h-303q-117 43 -117 58t-70 47q-108 99 -152 186q-43 58 -58 58v70q-29 0 -70 94v70h-23v70h-47 q0 -122 -221 -420q-201 -210 -245 -210q-23 0 -23 -23h-140v23h-70q-140 202 -140 385q23 105 23 151v187q24 34 47 163h23v117q21 20 35 139l35 24h47q26 0 35 -128l-35 -70v-129q0 -23 -23 -23v23h-24v-70h-23v-139l-23 -35v-222q0 -115 93 -280h140q0 21 198 175 q135 185 151 257q44 25 152 268h58q17 -2 117 -280q92 -230 291 -396q17 0 117 -47h116q15 18 140 35q210 160 210 245q50 233 82 233v117l46 116l-11 58v47l11 58q-23 0 -23 24v151q-20 33 -47 152q-44 70 -81 70v46zM2112 664v-116h23v116h-23z" />
<glyph unicode="X" horiz-adv-x="1865" d="M456 1433h47q121 -217 152 -408q81 -244 198 -454q23 0 23 -47h23l105 152q128 139 128 175q27 0 47 35q0 29 47 46q0 46 303 315q13 0 58 35q23 -12 35 -12v-70l-23 -35v-58q-32 0 -47 -70h-23q0 47 -35 47h-12q-46 -67 -140 -175q-110 -101 -175 -198 q-116 -156 -116 -163q-85 -94 -105 -94v-23q26 0 47 -35q0 -28 46 -58q76 -116 280 -257q47 -81 93 -81l93 -70q117 -32 117 -59h93q0 -26 47 -35q0 -11 23 -11v-24q-18 0 -46 -23h-117v23h-70v24h-70q0 26 -46 35l-140 105q-47 26 -117 81q-40 57 -186 152l-94 128v12h-46 q0 -21 -70 -82q-27 -105 -94 -105q0 -48 -93 -128q0 -30 -303 -326l-58 -82h-35v-70l-82 -35q-45 35 -58 35v47q34 0 58 70q29 5 70 93l70 93q83 16 152 117h23v-24h23v24h-23v46q34 3 233 257q33 0 93 116q8 0 47 24v70q-88 17 -256 559q-74 284 -117 350v23q4 23 23 23z M1505 1037h24v-58h-47v35q23 0 23 23zM783 361q-26 -46 -82 -117h-12v-23h12q29 23 58 23v70q24 0 70 24v23h-46zM340 -152q0 -23 -47 -23v-24h47q0 24 23 24v23h-23z" />
<glyph unicode="Y" horiz-adv-x="1434" d="M1272 1480h82v-23h-35v-24h23v-46q-98 -59 -175 -210q-128 -163 -268 -443q-108 -221 -163 -303q0 -18 -128 -303h-12v-70q-27 0 -70 -163l-116 -292v-58h-24v-70q-24 -83 -233 -315h-23v35q82 109 128 210h12v70h23v93h23v94h24v70h23v69q26 0 35 47h12v70q23 70 46 70 v70h24v70q26 0 35 46q35 56 70 187q11 0 11 12v58h-11l-105 -47h-12q-123 0 -245 175q0 26 -46 82q0 60 -35 93h-12v93h-23v59l-24 35v104l-23 35v210h47q0 -20 70 -163v-105q20 -26 35 -116q35 -129 58 -129v-70q26 0 35 -46q0 -56 128 -140q23 0 23 -23l59 11 q22 -11 35 -11q0 16 70 35q0 31 69 46q100 184 117 245q26 0 47 93q26 0 35 47q25 65 128 198q163 236 163 245q0 23 93 81v12zM456 -82q0 -47 -23 -47v-46h23q0 46 24 46v47h-24z" />
<glyph unicode="Z" horiz-adv-x="1352" d="M1051 1352h81q0 -20 47 -58q0 -35 23 -35v-35q0 -27 12 -47q-12 -20 -12 -47v-35q-23 0 -81 -116q0 -16 -105 -163q0 -19 -117 -105q0 -18 -23 -47v-12h35l35 24h186v23h24v-47q-19 0 -93 -46h-70v-24h-117v-23h-70q0 -28 -70 -58q-11 -32 -151 -140q0 -15 -82 -93 q-47 -59 -93 -59q0 -61 -163 -174q0 -28 -47 -94v-105q93 -16 93 -46h292q10 0 93 23h419l35 23h140v-23q0 -16 -70 -35v-11h-70v-24h-151l-35 -23h-257v-23h-186q-16 0 -187 -24l-35 24h-58q0 23 -93 58l-47 81v117q59 128 198 280q95 60 292 268v12h-23q0 -24 -12 -24 q-67 0 -82 12q-99 -12 -163 -12h-186q0 26 -35 47h-12v46q19 0 35 24q38 -24 70 -24h186l35 24h199l35 23h93l35 70q48 0 58 70q111 54 233 291q58 99 58 129q12 0 12 11v35h-70l-35 24h-11v-24h-59l-151 -58q-207 -71 -280 -152h-47q-23 0 -23 24v23q28 0 210 140 q34 0 105 47q29 0 58 23h70q0 31 175 70zM666 536q0 -23 -46 -23v-47h23q0 47 70 47v23h-47zM410 279q0 -23 -47 -23v-23h47q0 23 23 23v23h-23z" />
<glyph unicode="[" horiz-adv-x="898" d="M375 1433q107 -23 210 -93q38 -23 46 -23v-70h163v-47q0 -23 -23 -23h-70q0 27 -70 35q0 28 -198 105h-82v-35q-23 -83 -23 -93v-59h-23v-291q-28 -182 -47 -210v-198h-23v-93l-47 -129v-104h128l210 46h94l35 23h23l35 -23h105v-46h-163v-24h-59l-128 -46h-70v-24h-82 l-35 -23h-139q-59 23 -82 70l12 58v35h23v117q23 23 70 303v105q0 11 23 93v268q18 15 35 140q12 0 12 12v151q9 63 128 93h12z" />
<glyph unicode="\" horiz-adv-x="1282" d="M95 1177q128 -42 128 -81v-70q36 0 93 -140q191 -229 234 -257q81 -54 221 -233q128 -62 128 -105q82 -70 105 -128l105 -140v-23h93v-47q0 -23 -23 -23h-93q-86 25 -257 291q0 22 -163 117q-62 101 -233 256q-57 26 -82 82q-207 210 -233 350q-24 70 -58 70v46 q0 17 35 35z" />
<glyph unicode="]" horiz-adv-x="851" d="M608 1492h47q30 -88 58 -94q37 0 58 -256v-47l-23 -35v-279q-24 -113 -24 -129v-174l24 -35v-24l-24 -35v-221h24v-70q-24 0 -24 -23h-46q0 26 -47 35q-26 26 -128 46l-23 -11h-303l-70 -35q-47 11 -47 69q0 19 82 59h70q13 0 128 23h105q33 -20 163 -47l23 35v607 q0 10 24 93v361h-24v70h-303q-136 -20 -163 -46l-35 23l-23 -12q-23 12 -35 12v23q0 16 58 58q23 -11 35 -11q0 14 93 46h315z" />
<glyph unicode="^" horiz-adv-x="12385" d="M5504 1853h23q18 0 46 -46q-23 -27 -23 -70h-70v-46h-69q-4 -38 -198 -151q0 -31 -150 -93q-50 -61 -117 -81q-148 -116 -208 -128q-15 -20 -233 -128q0 -26 -46 -35q-70 -39 -70 -58h-69q-47 -81 -93 -81q-54 -23 -81 -58h-35v-23h104q26 0 47 12q20 -12 46 -12l35 23 h128q26 0 46 12h35v11h81q277 24 418 47h174v23h197q26 0 47 12h35v11h127q26 0 47 12q22 -12 34 -12q4 23 24 23h151l34 24h151l35 23h197l35 23h198q26 0 46 12h35v11h336l35 23h58q67 0 82 -11q62 11 104 11h279q112 -23 127 -23h139l35 -23h128v-23h70q136 -50 232 -186 v-46q-51 -123 -116 -174q-111 -115 -256 -163q-23 -27 -162 -70q-102 -55 -209 -81v-23h70v-23h-70l-35 23h-35v-23q29 0 58 -23h82v-24h116v24h116q17 -21 151 -35v-12h-58v-23h34q116 -23 116 -35l24 12h11l35 -23h128l104 -47h105v-23h34l140 11l-12 -23v-11h12l23 11 q85 -31 197 -46l24 -23l23 11h46q0 -27 70 -35q0 -11 11 -11l24 11l46 -34q12 0 12 11q43 0 267 -58h23l23 12q20 -12 46 -12h35v-23h93l35 -23h104l128 -47h58q0 -23 12 -23q11 0 11 12q209 -38 244 -58l23 -24q12 0 12 12q101 -12 151 -35l23 12q9 0 128 -47q22 12 34 12 q4 -23 24 -23h58v-23h69q32 -24 209 -58q339 -105 662 -175q0 -19 81 -34q23 11 35 11q0 -27 209 -69q78 -50 278 -70q0 -23 128 -46q0 -24 -23 -24h-139v24h-93v23h-70v23h-70l-34 23h-82v23h-69q0 27 -70 35q0 12 -11 12h-59v23h-69q-27 23 -174 46q0 21 -105 35 q0 12 -11 12h-105q0 39 -244 70q0 16 -58 34v12h-116v23h-92q-28 19 -209 58q0 12 -12 12h-58v23h-93l-35 23h-104q-80 42 -209 58l-81 35h-128v23h-93v24h-93q-14 17 -139 34q0 12 -12 12h-92q-371 81 -383 81q-102 15 -128 35h-81v23h-163v23h-116v24h-70l-34 23h-82v23 h-139l-35 23h-127v24h-93l-35 23h-105q-30 20 -255 58q0 11 -12 11h-185q-33 -20 -151 -46q0 -23 -23 -23h-93v-23h-70v-24h-58q-27 -23 -174 -46q0 -23 -23 -23h-116v-24h-58l-128 -46h-93v-23h-104q-113 -44 -302 -70h-58v-23h-70v-23h-81l-35 -23h-104q-29 -24 -35 -24 h-105q-27 -19 -185 -46h-290q0 17 -47 46v70l93 70q16 0 70 34l278 209q191 158 232 174v24h-11q-70 -47 -198 -70q-3 -15 -510 -209q0 -16 -70 -35l-58 -35l-244 -104v-12h-58q-127 -46 -127 -69h-70q0 -23 -70 -47h-69q0 -26 -47 -35v-11h-69v-23h-70v-24h-58 q-149 -69 -279 -104q-24 -29 -139 -46q0 -12 -12 -12h-92v-23h-70v-23h-93v-24h-93v-23h-69v-23h-93v-23h-35l-279 -58q0 -12 -11 -12h-186q-86 31 -209 186v69q17 49 93 105q0 42 46 58q0 -35 24 -35q23 0 23 23v35h-23q0 20 58 35h35v12l34 -24h12q0 70 128 105 q0 12 104 93v34q51 0 174 82q0 26 81 46q21 34 244 163l279 151q11 0 11 23h47v-23q-186 -117 -232 -117q0 -41 -163 -116q-85 -71 -162 -104l-128 -105q-136 -80 -186 -139q-46 0 -162 -104q-128 -89 -128 -105q-23 -58 -70 -81q0 -12 -23 -12v-34l93 -93v-12h197l35 23 h128l128 47h69v23h81l128 46h70v24h81q27 23 174 46v23h70v23h69v24h70v23h70v23h69v23h70q0 31 151 70h58q0 26 46 35v11h70q0 26 46 35q49 32 151 47q29 24 105 46q46 9 46 35h70q3 29 244 116q15 20 313 139l325 128v12h70q0 23 46 23v23h-139v23q-13 0 -35 -11 q-393 58 -406 58h-186v23h-151q-13 0 -128 23v-23h-23v23h-302l-34 23h-407v-23h-46v23h-81l-174 -116h-24v23h24v24h-47q0 -43 -139 -82q-21 -30 -186 -93l-267 -139l-186 -81q-22 -27 -313 -139q0 -30 -128 -58q-165 -93 -243 -116v-12h-70q0 -29 -232 -105 q-146 -69 -163 -69q-185 -76 -185 -93l-24 -12h-69v-23h-70q0 -43 -139 -69q0 -27 -46 -35v-12h-70v-23h-70q0 -23 -104 -58q0 -12 -12 -12h-69v-23h-59q-27 -19 -208 -58q0 -12 -12 -12h-139q-95 37 -128 70v23q0 87 58 128q0 30 46 46q0 50 233 232q50 63 185 163 q128 148 209 174q76 116 140 116q0 42 46 58q0 30 46 47q0 29 47 46q69 81 93 81v24h-325q-48 0 -93 -12q-45 12 -93 12h-186q-69 31 -69 46v46q0 26 104 47h12l34 -23q27 0 47 11q63 -11 104 -11l140 23q11 0 11 -12l58 12h174l35 23h23v-23h12l35 23h104l35 23h70 q0 35 81 58h35v12h46v-47h116v24h82q10 0 92 23h198v23h104q23 0 23 23q12 0 12 -11l81 11h430q114 23 127 23h383l35 -23q12 0 12 12l58 -12h58q42 0 104 12q15 -12 82 -12q0 21 104 35l255 139q15 30 221 128l453 279q112 69 127 69q0 23 105 58q93 93 162 93l163 93 l127 70q93 34 93 58h58zM4482 1180q0 -26 -35 -47h-11v-23h23q0 26 35 47h11v23h-23zM4320 1087q0 -26 -47 -35q-20 -35 -46 -35v-23h23q23 39 23 47h70v46h-23zM6223 1041v-24q23 0 23 -23q74 23 93 23v24h-116zM6920 994h-302q-42 0 -105 -11l-23 11l-23 -11 q-23 11 -35 11q0 -23 -23 -23h-151l-35 -23h-104q-82 -23 -93 -23h-139q-11 0 -93 -24h-93l-35 -23h-186q-98 0 -243 -23q0 23 -24 23h-58q0 -23 -69 -46q-112 23 -163 23q0 -23 -23 -23h-139v-24h-151q-197 -23 -221 -23v-23q24 0 24 -23h34l35 23l35 -23h174l35 -23 q12 0 12 11l58 -11h116q112 -24 127 -24h12q26 0 46 12q91 -14 116 -35h128l35 -23h151v-23h151q231 -47 301 -47h82q5 0 35 -23h127l35 -23h128v-23h-47v-23h47v23h104q23 -4 23 -23h-104v-24h93q13 0 127 24l12 -24h-46v-23q46 0 46 -23h46q5 46 82 46v-23h-35v-23 q23 0 23 -23h35q50 11 81 11q23 -16 23 -35h24v47h34q12 0 233 -70h11q0 14 93 47h70v23h58l243 104v12h70q0 26 46 35q132 45 209 104q110 75 163 174v12q-70 18 -70 70q-41 0 -104 46h-81v23h-117l-34 23h-790zM5387 948v-23q24 0 24 -24h23q0 24 23 24v23h-70zM3995 901 q0 -46 -70 -46v-23h70q0 29 58 35q-12 22 -12 34h-46zM2509 762v-23q46 0 46 -23h24q0 12 11 34l-23 12h-58zM4134 739v-23h70v-24h46v47h-116zM4320 739v-70h46v23q-23 0 -23 47h-23zM1894 692q3 -23 23 -23q17 0 35 35v12h-35q-23 -4 -23 -24zM4529 716v-24q46 0 46 -23 h46v23q-23 0 -23 24h-69zM1697 692q0 -23 -24 -23v-23h24v23h46v-23h23q0 23 47 23v23h-116zM1534 646h-70v-23h105q26 0 46 11q23 -11 35 -11v46h-81zM3182 669v-23h-81q-26 0 -46 -12q-23 12 -35 12q0 -12 -47 -35l-58 12h-35v-23h-232v-24h-185q-14 0 -128 -23h-128 l-510 -46h-267q-27 0 -47 -12h-35q-42 -50 -139 -116q-166 -178 -232 -209q0 -42 -93 -93q0 -29 -46 -46l-116 -93q-119 -128 -186 -163q0 -29 -47 -46q0 -30 -46 -46q-46 -58 -93 -58q0 -42 -46 -58q-86 -128 -116 -128v-47h197q35 20 174 59v11h58l151 58l186 70v11h69 q0 24 105 58q49 30 220 93q0 26 128 47q0 8 58 35h70q0 26 46 34q95 53 209 93v12h70q0 26 46 35l395 174q209 87 209 104l23 12h70q0 26 46 35q18 25 93 46l151 81q23 0 336 163v23q-54 0 -81 23h-35zM3670 646h23v-23q-18 0 -47 -23h-23v23q18 0 47 23zM5341 623v-23h116 v23h-116zM1000 600v-12q0 -17 35 -35q35 23 81 23v24h-35q-26 0 -46 -12q-23 12 -35 12zM1673 565v-12h70q0 23 23 23v24h-23v-24h-23v24h-12q-17 0 -35 -35zM2068 600v-24h93v24h-93zM5596 600v-12q0 -17 35 -35q17 0 35 35v12h-70zM3600 600h23v-24q-116 -40 -116 -69h-46 v23q98 58 127 58q0 12 12 12zM629 576v-23q23 0 23 -23h23v23h70v23h-116zM5643 507v-93q-145 -175 -232 -221q0 -45 -232 -174q0 -26 -47 -35q-136 -104 -162 -104v-23h81l35 23h162v23h93q182 28 209 47h93v23h58l35 23h93v23h104l35 23h93v24h104q33 20 302 81 q162 39 197 58h70v23h93v23h69v24h93v46h-35q-13 0 -127 23h-47v23h-162l-35 24h-104l-35 23h-151l-35 23h-128l-34 23h-128v24h-163l-34 23h-128zM6246 507v-23q47 0 47 -24h23v47h-70zM7593 298h93v-23h-93v23zM6293 89v-23q46 0 46 -24h23v24q-23 0 -23 23h-46z M5573 -108v-12h93q0 23 23 23v23h-23v-23h-23l-35 23q-17 0 -35 -34zM5132 -143v-47h58q17 0 35 35v12h-93zM2463 -584v-24h34q17 0 35 35v12h-11q-29 -23 -58 -23z" />
<glyph unicode="_" horiz-adv-x="956" d="M713 23h116q30 -46 47 -46v-47q0 -23 -128 -35q0 -12 -12 -12h-105q-14 -17 -140 -35q-73 -32 -303 -69q0 -12 -11 -12h-94q-23 0 -23 23v47q23 0 23 23h70v23h59l128 47h70q0 33 93 70h210v23z" />
<glyph unicode="`" horiz-adv-x="601" d="M521 1079h-69l-330 202q-31 20 -46.5 40t-15.5 42q0 31 20.5 51t53.5 20q20 0 40.5 -12t55.5 -47z" />
<glyph unicode="a" d="M759 967h47q73 -32 105 -70q45 -30 82 -116h-12l35 -70q0 -17 -35 -35h-12q0 21 -46 93l-94 70v12h-128q-137 -79 -315 -245q-186 -357 -186 -373v-59h-23v-244q26 -76 104 -105l35 23h105l175 93q328 294 338 373h12v70h23v70l70 152v11h-23q0 17 70 70h23q18 0 47 -46 v-93h-24v-94q-56 -58 -81 -210q-12 0 -12 -11v-117l35 -81h12v-59q77 -145 140 -163v-12h35q26 0 46 12q23 -12 35 -12v-23q0 -16 -70 -35v-11h-46q0 20 -117 58q-39 19 -58 58q-40 70 -58 93q0 63 -82 164h-12q0 -18 -175 -187q-35 0 -35 -35q-204 -163 -396 -163 q-132 0 -175 105q-12 0 -58 93v233l23 35v82q27 0 35 46q60 218 350 513q28 0 128 94q47 0 47 23h116v23z" />
<glyph unicode="b" horiz-adv-x="1143" d="M410 1189h46v-47h-23v-23q47 0 47 -24q-21 -25 -59 -256l12 -23v-24h-23v-93l-24 -35v-58h24q13 61 163 116h23l105 -46h58q0 -14 164 -152q140 -248 140 -268v-163l-24 -35v-58q-26 0 -35 -47q-23 -58 -105 -128q0 -35 -105 -70q-64 -58 -116 -58q-12 0 -12 -24h-81 l-129 -46h-140q-33 20 -151 46q0 16 -58 94v104l-47 82v175q0 13 23 128v117q24 25 59 233q33 206 174 338q24 0 24 23l-24 35v23q27 0 35 47q9 0 35 58q-11 23 -11 35zM247 606q-24 -96 -47 -128v-175l-23 -35v-82h23v70h23v93l24 35v152h23v70h-23zM270 81v-105 q-37 -41 -58 -93h-12v-82q0 -18 81 -58h187q19 24 198 47q257 173 257 280l23 35v151h-23v70q-19 0 -59 93q-131 150 -233 187h-70q-198 -161 -198 -315q-14 0 -82 -198q-11 0 -11 -12z" />
<glyph unicode="c" horiz-adv-x="1294" d="M689 816h140q82 -34 105 -94l12 -23v-58l-23 -140h-24v105l24 35v11h-24v-23h-23q0 82 -70 82v11h-117q0 -39 -116 -93q0 -26 -47 -47q-27 0 -116 -116q-27 0 -35 -47q-164 -175 -187 -303q-11 0 -11 -11v-140q67 -164 186 -164l175 -34q105 23 151 23h59l35 23h105 l35 23h93v24h81q59 23 59 46h58v-11q-7 -38 -82 -70q-18 -26 -93 -47v-11h-70v-24h-58l-35 -23h-117v-23h-93v-24h-303v24h-70q0 25 -93 46q0 26 -47 35q-41 39 -58 105h-12v82l-23 35v93q23 34 47 163q23 0 23 12v35q21 0 117 140q26 0 46 35q0 32 70 104q0 28 70 59 q3 15 140 105q0 15 116 70z" />
<glyph unicode="d" horiz-adv-x="1143" d="M853 1095h70q21 -93 46 -93v-12q24 -206 24 -256v-350l-70 -326v-163q55 -126 116 -140q0 -12 24 -12v-23h-117q0 19 -70 58l-23 58h-47q0 -87 -163 -256q-34 -28 -210 -117h-163q-110 44 -175 175q-15 0 -35 140v152q23 27 47 175q13 0 46 93q131 163 163 163 q150 82 164 82h46v-24h94l35 -23h58v-23h46v186l24 35q0 35 -12 35l12 58v129h23v93l23 35v128q4 23 24 23zM876 676v-163q0 -12 -12 -12l12 -23v-12h-23l11 -58q-11 -23 -11 -35h46v303h-23zM153 -129v-70q61 -221 128 -221q0 -12 47 -35l58 12h47q0 26 140 70 q65 89 116 151l105 198h12q0 14 -23 129v93q-70 103 -70 128h-70l-35 23h-117l-81 -35q-33 -44 -117 -93q-116 -170 -128 -338q-12 0 -12 -12z" />
<glyph unicode="e" horiz-adv-x="1632" d="M1226 1177h23l35 -23h105q0 -27 70 -35q62 -58 93 -152v-93h-23v-70q-31 -77 -93 -128q0 -30 -47 -47q0 -30 -47 -47q-4 -52 -140 -116q-81 -89 -303 -175q-43 0 -70 -23h-11q-163 31 -163 151q-12 0 -12 12v23q23 0 23 24h23q50 -70 105 -94h47l35 24h70q0 26 47 35 q86 63 279 174q19 67 117 140q26 0 35 47h12v70h23v58q-44 128 -117 128l-35 24h-93q-31 -24 -198 -47q0 -23 -23 -23h-70q0 -18 -94 -58v-12h-70q0 -27 -46 -47q-175 -99 -420 -373q0 -32 -46 -93q-44 -140 -70 -140v-70l-24 -35v-35h24v-140q51 0 70 -70q20 0 81 -70 q29 -27 210 -93h501v23h175l35 24h93v23h70v-23q-23 0 -23 -24h-70v-23h-93q0 -33 -105 -46q-148 -31 -175 -47h-466q-59 43 -164 58q-114 64 -198 198h-11v70q-27 0 -35 47h-12v186q23 34 47 164q23 0 81 116q15 0 47 70q24 56 81 105q0 42 140 128q0 43 47 59 q163 99 163 116q61 12 117 58q46 0 46 24h70v23h59l128 47h140v23z" />
<glyph unicode="f" horiz-adv-x="1352" d="M853 1480h70l35 -23h58q0 -27 70 -35q39 -20 58 -58q50 0 93 -129q9 0 35 -58v-93h-46q-16 70 -47 70v70q-26 0 -35 46q-85 70 -128 70v24h-70l-35 23l-35 -23h-70q0 -14 -93 -140q0 -16 -35 -70h-12v-70l-46 -82v-93q0 -14 -24 -128v-117h-23v-12q0 -26 12 -46l-12 -24 q23 -42 23 -104h140q14 0 128 23h70l82 47h23v-47q-20 0 -116 -70q-47 0 -47 -23h-93v-24h-105q-29 -23 -58 -23v-233h23v-35q23 -82 23 -93v-35q-23 -29 -23 -47h-70q-73 117 -93 117v70h23v-47h47v35l-24 35v70q0 59 -23 140q12 0 12 11l-24 12h-361q0 26 -47 35 q0 35 -23 35v23q4 24 23 24h94l35 -24h93l35 24h35q69 -12 105 -12q0 12 23 12v11l-23 35v233l23 35v82q23 0 23 12q0 11 -11 11q18 223 186 490q54 50 152 93z" />
<glyph unicode="g" horiz-adv-x="1096" d="M713 1387h116q94 -24 129 -152q8 0 35 -58v-23q-24 0 -24 -47h-46q-47 153 -94 175v12h-93q0 -34 -105 -47q-142 -124 -163 -257l12 -69v-82l46 -105h140q0 20 117 70q0 29 93 93h47q0 -15 46 -70v-70h24v-58l23 -35q-23 -23 -58 -256q-12 0 -12 -12v-128l-23 -35v-105 h-24v-117h-23v-116q-133 -287 -210 -292q0 -35 -116 -81h-129q-26 0 -46 -12q-198 80 -198 93q0 15 -70 47q0 27 -35 82h-12v46h70q0 -73 117 -105q46 -8 46 -35h245q127 78 151 140l35 93q41 94 59 94v116l23 35v105h23v117q21 31 59 279q11 0 11 12v105q-23 0 -23 23h-12 q-105 -56 -105 -93h-70q0 -27 -46 -47h-93q-94 38 -94 82q-42 31 -93 175v105q32 190 163 303q54 23 82 58q35 0 35 24h70v23z" />
<glyph unicode="h" horiz-adv-x="1189" d="M410 1306h46q0 -24 24 -24v-210h-24v-70q-116 -302 -163 -582q-23 -70 -46 -70v-94h23q1 44 210 245q2 48 209 210q0 17 94 58h70q63 0 140 -244q0 -51 -24 -94q0 -11 12 -11l-12 -59v-93q45 -128 94 -128q38 -23 46 -23l-23 -35q-175 11 -175 81h-12v58l-23 35v373 q-16 0 -58 47q-158 -75 -315 -303q-35 0 -198 -210q-61 -31 -128 -245l-24 -11h-46q0 26 -35 46h-12v140q67 161 82 257q11 0 11 11v59h24v70l46 128v58h24v70l58 140h11v93h24v70h23v70l47 128v59zM293 699q0 -23 -23 -23v-47h23q0 47 23 47v23h-23zM153 233q0 -23 -23 -23 v-70h23q0 46 24 46v47h-24z" />
<glyph unicode="i" horiz-adv-x="653" d="M456 1131h70q0 -12 47 -94v-93h-47l-93 117v46q4 24 23 24zM433 711h47v-58l23 -35v-24q-34 -50 -58 -139q-72 -123 -94 -210q-16 -24 -35 -24v-69l-69 -152v-58h-24v-70h12l70 81h11q0 -26 12 -46l-151 -198h-70q0 23 -47 23v93q32 0 70 187q27 0 35 70q12 0 12 11v59 h23v69q26 0 35 47l93 210q79 143 105 233z" />
<glyph unicode="j" horiz-adv-x="851" d="M375 874h23q143 -70 163 -70v-46h-58l-105 -47q-10 0 -70 93v47q18 0 47 23zM631 571h47q0 -46 11 -46l-11 -59v-81h23v-152l23 -35v-128l47 -105v-117q-26 0 -35 -46q-39 -47 -151 -82v-11h-105q-91 0 -268 116l-70 35q0 28 -47 58q0 24 -23 24v35q0 26 -12 46 q12 23 12 35h46q0 -81 163 -163q21 0 94 -47q32 -26 128 -46l152 70v128l-24 35v93h-23v163h-23v234q46 29 46 46z" />
<glyph unicode="k" horiz-adv-x="1399" d="M538 1317h12q0 -29 23 -58v-117q-23 -40 -117 -408q0 -43 -23 -70v-58q-37 0 -70 -210l-47 -82v-35h24q0 40 116 94q22 57 257 140q47 63 268 116q4 -23 23 -23h24l35 23h23v-47l-70 -46l-187 -82q-21 -30 -186 -93q-187 -121 -187 -140v-23q76 -74 187 -117l256 -93v-12 h70q0 -20 117 -58l93 -70q93 -73 93 -105q0 -23 24 -23v-58l23 -35v-47q-23 -28 -23 -47h-35q-49 210 -117 210q-5 20 -128 105v12h-70v23h-70v23h-70l-35 24h-58v23h-93q0 20 -117 58q-75 45 -175 152q-35 0 -35 70h-23q0 -55 -23 -82v-81h11q23 11 35 11v-35 q-17 0 -46 -46q-27 0 -35 -47q-12 0 -12 -12l12 -23q-10 -70 -70 -70q-73 24 -82 58v47q43 59 58 163q9 47 35 47v70q27 0 35 70q35 16 35 70l105 279h12v70l23 35v105h23v94h24v93q70 167 70 198q46 9 46 23q-11 23 -11 35z" />
<glyph unicode="l" horiz-adv-x="676" d="M433 1247h93v-58l59 -152h11v-70q-23 -61 -93 -93v-93h-23v-70l-24 -35v-82h-23v-70q-23 -70 -47 -70v-35q-37 -198 -70 -198v-70l-46 -105v-58h-23v-93q-27 0 -35 -70q-12 0 -12 -12v-58h-23v-82q0 -15 58 -58q46 23 81 23v-46q-11 0 -93 -47h-93q-50 74 -58 128 q-12 0 -12 12v93q23 70 47 70v70l46 105v58h24v70h23v70h23v117h24v70l69 151v58h24v94q27 0 35 70q16 79 35 105v151l23 35v175zM247 233v-35h23q0 23 23 23v47h-12q-16 0 -34 -35z" />
<glyph unicode="m" horiz-adv-x="1562" d="M1436 699l46 -105v-116q-23 -27 -46 -175q-24 0 -59 -175h-35v128q28 182 47 210v82h-47q0 -15 -175 -187q-19 -39 -58 -58l-35 -59q-55 0 -175 -186q-16 0 -46 -47q-19 0 -47 -23h-47q0 23 -23 23v35q0 10 -23 94v186l11 23l-23 12h-12q0 -47 -69 -105q0 -70 -47 -70 q0 -22 -70 -128q0 -19 -117 -128q-127 -206 -244 -280q-82 35 -82 93q15 0 82 268q58 137 93 350q81 152 81 175h59l23 -12l-12 -58v-58h-23v-70h-23v-117q-43 -59 -59 -163q-11 0 -11 -12v-58q-26 0 -35 -47h-12v-23h24q0 23 93 93q0 36 140 175q75 134 140 198 q0 47 69 105q0 28 70 140v12h47q32 0 47 -222q-24 -3 -24 -23v-222h12q133 126 245 257q17 0 93 93q15 0 82 93q41 0 58 35q38 47 117 47z" />
<glyph unicode="n" horiz-adv-x="1317" d="M1039 1410h93l47 -70q0 -23 23 -23v-222q0 -50 -23 -93q0 -12 12 -12q-12 -128 -35 -151v-58h-24v-70q-23 -70 -46 -70q0 -13 11 -35q-11 -143 -34 -163v-47q27 -187 69 -187v-11h105v-12q-7 -31 -58 -58h-93q-27 7 -105 140h-12v233l47 128v105q21 40 58 233q12 0 12 12 v128l23 35v175h-46q0 -18 -94 -58q-116 -120 -116 -152q-37 0 -117 -140q-26 0 -35 -46l-70 -94q-19 -39 -58 -58q0 -35 -47 -70q0 -33 -35 -58q-23 -54 -58 -82q-70 -107 -70 -116q-47 0 -58 -82q-45 -29 -105 -233q-47 -30 -47 -47h-46q-30 47 -47 47v46q50 142 128 304 q59 112 140 349q70 94 82 94h46q24 -4 24 -24v-70h-24v-23h24l140 186q209 244 209 257q20 0 129 117l81 34v12z" />
<glyph unicode="o" horiz-adv-x="1259" d="M806 1189h93q47 -24 70 -70v-70q128 -24 128 -70q27 -10 47 -82q14 -102 35 -128v-47q-17 -14 -35 -140q-9 -46 -35 -46v-70q-112 -171 -245 -303q-52 0 -81 -70h-70q0 -18 -93 -58q0 -12 -47 -35h-70v-24h-233l-140 82l-70 82v116q4 23 23 23l-11 47q0 25 81 187 q0 17 70 116l140 187h23v-24h24v24h-24v23q66 44 152 163q41 0 58 35q69 78 175 128q35 0 35 24zM153 221l35 -81q27 0 82 -35v-12h233q0 23 70 47h70q0 26 46 34l94 70q136 116 233 280q0 50 47 117v210q-40 105 -59 105q-11 0 -11 23h-47q0 -26 -35 -47q-28 -7 -47 -93 q-26 0 -105 -70h-35v23q62 0 152 152v58h-23v70q-47 0 -47 23h-12q-84 -116 -116 -116q-222 -214 -222 -233q0 -14 -93 -105q0 -24 -93 -117q0 -24 -70 -140q-20 -56 -35 -151q-12 0 -12 -12zM107 186v-46q23 0 23 -24h23v24q-23 0 -23 46h-23z" />
<glyph unicode="p" horiz-adv-x="1096" d="M829 1538h94q0 -16 46 -46q0 -24 47 -70v-187l-23 -35v-58q-27 0 -35 -70q-117 -155 -117 -163q-39 -47 -82 -47q0 -42 -46 -58q0 -15 -70 -47q-89 -98 -233 -163l-35 -58h-12v-140q-26 0 -35 -47q-9 -46 -35 -46v-70q-26 0 -35 -47q-9 -46 -35 -46v-70q-26 0 -35 -47 l-58 -47h-23q0 15 -47 82q23 38 23 70v35q27 0 59 140q11 0 11 11v59h24v93q46 50 70 151q29 29 81 175q69 222 222 455q0 33 116 140q0 30 47 46q33 45 116 94v11zM433 804v-58h12q66 31 140 116q39 0 139 117q95 69 175 245v163q0 17 -35 35q-60 -26 -163 -140 q-113 -125 -268 -478zM643 1329q0 -24 -23 -24v-46h23q0 46 23 46v24h-23zM620 839q0 -23 -24 -23v-24h24q0 24 46 24v23h-46z" />
<glyph unicode="q" horiz-adv-x="956" d="M608 1270q20 -11 47 -11h34q0 -17 47 -47q0 -18 23 -47v-186q-110 -175 -186 -233q-198 -120 -198 -210q-95 -103 -140 -257q-40 -93 -58 -93v-163l-24 -35v-12h24v-58q77 -175 128 -175q76 -23 105 -23h303v23h11l140 12l12 -23q-163 -28 -163 -59h-58l-129 -46h-210 q0 27 -69 35q-91 29 -164 198v70h-23v186q23 27 47 175q38 46 81 175q16 23 35 23v70h24v47q-82 0 -82 46q-58 6 -58 129v35l23 35v58q26 0 35 47q144 205 291 268q68 35 152 46zM550 1142v-23h-94q0 -35 -140 -129q0 -29 -46 -46l-70 -163v-12q23 0 47 -70h58q74 30 93 93 q76 120 163 187l105 105q-23 38 -23 58h-93z" />
<glyph unicode="r" horiz-adv-x="1655" d="M794 1131q91 -12 187 -12q4 -23 23 -23h59q0 -27 139 -59q47 -8 47 -35h70l105 -46h70l81 -12v-35q0 -23 -23 -23h-70l-128 47h-105v23h-70l-82 46h-104l-35 24h-234q-64 -53 -128 -82q-93 -82 -186 -221q-24 0 -70 -129v-34h23v-24q-49 0 -105 -210q-11 0 -11 -11v-105 q-24 -27 -47 -187v-93q0 -18 -47 -47h-70q0 44 -23 70v70l47 129v104h23v94h23v70q27 0 35 70q128 215 128 256q27 0 35 70q14 0 129 163l128 93q58 47 186 59z" />
<glyph unicode="s" horiz-adv-x="1119" d="M783 1212h210q0 -16 46 -46v-94q-33 -81 -93 -104l-23 -12h-35v23q63 0 70 93q11 0 11 12v35h-81q-27 -23 -187 -47h-35q0 -33 -163 -104q0 -30 -47 -47l-35 -58h-11v-35q63 -172 186 -222q0 -26 47 -35q88 -63 221 -105l152 -140q0 -23 23 -23v-47q-42 -74 -151 -104 q-59 -9 -59 -35h-35q-127 -35 -186 -35l-82 11q0 -23 -23 -23h-233q-29 0 -105 -23q-68 42 -105 81q0 19 47 47v11h70v-23h70q13 0 128 23h280q30 24 174 47q0 23 70 47v11q-20 66 -256 152q0 23 -93 58q0 12 -140 93q0 27 -94 152v163q27 0 35 47q40 80 140 128 q29 25 105 47q0 26 128 46q59 9 59 35z" />
<glyph unicode="t" horiz-adv-x="1492" d="M783 933h46q24 -4 24 -24v-46q-27 0 -35 -47h-12v-23h152l35 23h93q54 -47 70 -47v-70q0 -23 -24 -23h-23l-35 23h-81q-338 -58 -338 -139q-18 0 -70 -140q-9 -47 -35 -47v-70q-18 -15 -35 -140l11 -23v-163q21 0 82 -70q43 0 70 -24h315v24h70v23h81q27 23 175 47 q23 81 93 81v-58q-19 0 -58 -70q-21 0 -93 -47q-105 -18 -105 -46h-59q-26 -24 -174 -47v-23h-280q-187 72 -187 163q-15 0 -46 70v280q46 81 105 256q11 0 11 12v12h-70q0 -24 -70 -47q-34 11 -46 93q-76 -23 -105 -23h-82q-46 -75 -70 -93h-23v116l93 70q26 0 47 35v12 h105l140 -24l23 12q23 -12 35 -12q140 0 233 187q26 0 47 35v12zM550 560v-70h-24v-24h24q0 24 23 24v70h-23z" />
<glyph unicode="u" horiz-adv-x="1084" d="M247 1037h34l-11 -58v-152q-23 -70 -47 -70v-70h-23v-23q0 -16 -23 -186v-327q26 0 35 -46q54 -135 151 -187l35 -23h105q0 26 47 35q146 89 256 279q0 82 47 82v93q17 15 35 140q11 0 11 12v163q-29 82 -93 82v23q4 23 23 23h70q0 -26 47 -35l35 -58h12v-23 q0 -67 11 -82q-11 -63 -11 -105v-70q-18 -14 -35 -140q-12 0 -12 -11v-59q-23 0 -82 -163l-70 -93q-125 -145 -291 -210h-23l-35 23q-27 0 -47 -11q-147 35 -221 116q0 38 -70 105v70q-24 0 -47 70v408q0 14 23 128v24q27 0 70 163q37 0 70 58q0 26 -11 47q14 58 35 58z M153 757q0 -46 -23 -46v-24h47q0 47 23 47v23h-47zM247 -82v-23q46 0 46 -24h23v24q-23 0 -23 23h-46z" />
<glyph unicode="v" horiz-adv-x="1306" d="M1191 1072q22 -12 35 -12v-23q-140 -97 -198 -280q-56 -107 -105 -233q-28 0 -82 -163q-28 -12 -82 -140q-26 0 -35 -47q-14 0 -46 -69q-184 -248 -268 -269l-82 -23q-96 40 -128 163l-47 105v93h-23v70h-23v82l-24 35v105l-23 35v47q23 0 23 23h47q16 0 35 -70 q12 0 35 -47v-116h23v-59l47 -81v-93q27 0 70 -140h70q0 16 140 163q0 21 116 186q40 45 105 187q28 12 82 140q26 0 35 46h11v70q8 0 47 24v70q23 0 93 128q74 31 140 93h12z" />
<glyph unicode="w" horiz-adv-x="1516" d="M1342 932h24q0 -46 23 -46v-94q23 0 47 -70v-233l-24 -35v-58q-26 0 -35 -47h-11v-70q-16 0 -82 -81q-31 -19 -47 -58l-209 -140q-35 0 -35 -24h-59l-35 -23h-46q-159 57 -198 117q-30 0 -47 46q-58 47 -58 70h-47q0 -27 -47 -116q-49 -56 -128 -234q-93 -69 -105 -69 h-23q-17 0 -70 69v70q-23 0 -47 70v105q0 10 -23 93v502q19 46 82 46q35 -51 46 -303h-11v-35l23 -35v-46q0 -35 -12 -35l12 -59v-198q23 -29 23 -58h12q55 30 140 187l116 244q0 12 12 12h23q25 -1 59 -70q62 -97 128 -152q0 -48 70 -58l35 -23h116q149 54 233 163 q55 0 117 140h12v70q20 27 46 151v47l-23 35v210q4 23 23 23zM1249 303q0 -47 -23 -47v-23h46v70h-23z" />
<glyph unicode="x" horiz-adv-x="1632" d="M433 862h23q37 0 164 -256q29 0 81 -117q40 -44 82 -140h35q55 24 186 164q105 39 105 58q140 151 327 256q0 12 58 24q31 -8 58 -59q-23 -26 -23 -70h-24v24h-46q0 -34 -70 -59l-373 -326q0 -16 -93 -70q0 -12 -12 -35q0 -25 58 -70q0 -24 163 -140q0 -26 35 -46 q34 -72 70 -94q47 -96 47 -116l-12 -70h-46q0 47 -70 116q-130 187 -187 187q0 14 -175 163h-11q0 -28 -140 -140q-23 0 -128 -116q-55 0 -140 -94q-26 0 -105 -69q-35 0 -117 -117h-46q-19 0 -47 47v46q23 0 82 117q35 0 35 35q116 175 186 373v81q35 0 58 187q12 0 24 70 q-12 0 -12 11h23q0 -26 12 -46q-16 -66 -35 -93v-82q-23 0 -23 -12l11 -58q-11 -82 -58 -175v-58h-23v-70q-24 0 -47 -58v-35h12q172 108 408 338v35q-44 0 -82 93l-105 163q0 26 -70 82l-46 186v12q3 23 23 23zM526 676v-47q24 0 24 -23h23v23q-23 0 -23 47h-24zM573 559 v-23q40 -3 70 -70h23v23q-37 0 -70 70h-23zM1016 466v-23h23q0 26 35 46h12v24h-12q-42 -47 -58 -47z" />
<glyph unicode="y" horiz-adv-x="1108" d="M946 1154h47q16 0 35 -35q0 -49 -82 -117q0 -26 -117 -233q0 -12 -23 -12v-70q-28 0 -93 -174v-59q-21 0 -58 -116q-31 -70 -59 -70v-70q-33 -3 -140 -268q0 -21 -70 -129q-45 -110 -105 -116q-29 0 -58 -23h-23q0 23 -23 23v47q99 49 104 93q28 0 70 163l82 186h23v70 h-11q-59 -23 -59 -46h-46q-91 52 -210 326v70q-33 0 -58 152q-12 0 -12 11v24q28 81 70 81q47 -40 58 -140q79 -160 93 -256q43 -133 94 -152h23q152 79 152 129q34 27 58 81h12v70h23v70q20 0 58 117q97 190 175 303q23 46 70 70z" />
<glyph unicode="z" horiz-adv-x="1131" d="M410 1060h210q139 -50 139 -93q39 -23 47 -23v-35q0 -26 12 -47q-12 -102 -82 -198q0 -39 -93 -128q-21 -35 -47 -35v-47h12q35 0 35 12l58 -12h105v-46q-11 0 -93 -47h-210q0 -26 -47 -35q0 -27 -93 -117q0 -30 -116 -139q0 -25 -70 -140q23 -59 81 -82h175v23h58l35 24 h94v23h104q174 62 269 117h46l12 -47q-93 -70 -140 -70q-89 -82 -187 -82q0 -11 -11 -11h-70v-24h-70v-23h-105l-105 -46l-35 23q-48 -23 -70 -23q0 20 -105 35q-93 120 -93 128v46q27 0 58 140l210 245l12 23v12h-93q-94 33 -94 47q0 13 -35 58q12 23 12 35h93v-23h70v-24 h163q24 45 24 82q60 12 186 221q0 29 23 59v105q-37 0 -58 23q-41 0 -198 23q0 -16 -70 -35q0 -11 -58 -23q-47 12 -47 70v11q47 0 128 47q24 0 24 23z" />
<glyph unicode="{" horiz-adv-x="769" d="M573 1562h70v-24q-27 0 -117 -116q-20 0 -105 -93q-15 -1 -81 -117h-24v-70q82 0 175 -117q43 0 59 -93q0 -15 46 -70v-70q0 -23 -93 -81q0 -12 -23 -12v-12q67 -128 81 -128q28 -58 105 -140q0 -18 23 -46v-117q-129 -116 -139 -116q-124 -31 -152 -59q0 -27 -151 -81 q-62 -58 -94 -152q51 -140 82 -151q28 0 93 -47h58v-23h94l35 -24h116l58 12v-58h-58l-35 -24h-151q-153 0 -315 129q-47 40 -58 139q-12 0 -12 12v93q122 210 233 210q0 33 128 82q29 25 105 46q21 35 47 35v59l-82 151q-35 0 -46 70q-129 128 -129 140v23l129 94h11v93 q-23 0 -93 93l-93 35q0 26 -47 82q0 23 -23 23v23q26 0 47 94q26 0 34 46q234 245 292 257z" />
<glyph unicode="|" horiz-adv-x="327" d="M130 1224q47 -23 70 -70q-47 -52 -47 -58v-12h12l23 12q23 -12 35 -12v-268q-35 -214 -35 -291h12v-234q-23 -28 -23 -46q23 -76 23 -105v-35q47 0 47 -23v-24q-16 0 -70 -46q0 27 -70 35q-27 118 -47 151v47h23v291q0 26 -11 47q11 20 11 46v175l24 35v280l-24 35v23 q27 0 47 35v12z" />
<glyph unicode="}" horiz-adv-x="781" d="M165 1573h116q69 -54 140 -81l117 -128v-94q-117 -129 -117 -163q-19 0 -116 -151q0 -44 -24 -70v-105q24 0 24 -24h58q26 0 47 12q20 -12 46 -12h59q0 -23 23 -23v-70q-46 -23 -70 -23v-93q187 -74 187 -210q23 0 46 -70v-24l-23 -35v-58q-26 0 -35 -46 q-105 -164 -198 -164v-23h-164q0 26 -46 35q0 12 -23 12v70q23 0 23 35h23l23 -59h117q0 27 47 35q72 0 140 187v70q-24 55 -164 186q-20 35 -46 35v105q0 28 -94 47q-8 11 -116 58v47l23 35v81q35 0 47 128q159 269 186 269v35q-51 81 -70 81q-116 74 -116 93h-105l-35 -23 h-35v12q0 31 70 46h35v35z" />
<glyph unicode="~" horiz-adv-x="1481" d="M456 699h24q81 -33 105 -93q0 -29 81 -198q31 -49 105 -82h70q18 0 187 93q121 87 244 210q19 0 47 23h82v-11q0 -24 -59 -47q-137 -189 -303 -291q-96 -59 -116 -59q0 -11 -47 -35h-117q-169 73 -198 164q-14 0 -58 116v70h-58q-51 -11 -257 -233q-27 0 -58 -47h-47 q-23 0 -23 24q90 148 187 221l151 128q58 24 58 47z" />
<glyph unicode="&#xa2;" horiz-adv-x="1725" d="M853 1177h46q24 -3 24 -23v-47q-20 -46 -47 -46v-70h-23v-47h186q77 -30 128 -93q35 0 35 -23v-24q0 -23 -23 -23q-55 38 -70 93h-35q-26 0 -46 -11q-21 11 -47 11l-35 -23v12l-23 -12h-117q0 -67 -47 -70v-70q-93 -186 -104 -280q-12 0 -12 -11v-59h-23v-70h-24v-70 q-20 -17 -35 -151l24 -12h256l35 24h105q27 23 175 46v24h70v23h70v23h58l128 70h70q0 27 58 58q17 0 35 -35q-16 0 -46 -46q-94 -24 -129 -70l-268 -117h-70v-23h-58q-155 -68 -524 -93h-24v-140q27 0 35 -47h12v-46q-23 0 -23 -24h-24q-15 0 -93 140v140q-23 0 -23 23h-70 q-70 24 -70 47h-70q0 21 -70 82q-41 38 -58 104h-12v210q83 173 175 233q189 193 373 234q44 30 70 35q78 49 151 198q0 46 24 46zM596 804q0 -23 -105 -58l-175 -140q-108 -94 -128 -175l-35 -81l24 -35v-94q18 0 81 -69q23 -24 105 -59v-11h93v70l24 34v82q27 0 35 70 q11 0 11 12v58h24v93h23v70l70 152v58h23v23h-70z" />
<glyph unicode="&#xa3;" horiz-adv-x="1166" d="M783 991q86 0 93 -58q47 0 47 -47l-24 -12h-11q-68 56 -129 59q-139 -102 -139 -117q0 -29 -24 -58v-152h-23v-105q43 -70 116 -70q0 -11 12 -11h58v-47h-186q0 -29 -23 -58v-82h70v-47h-59q-43 -18 -93 -116q-35 -54 -105 -128v-35h117q50 -41 256 -82q0 -12 12 -12 q11 0 11 12l59 -12q8 0 70 12l23 -12l23 12q23 -12 35 -12q4 24 24 24h93v-35q-133 -35 -163 -58h-257l-35 23h-81v23h-70l-35 23q-35 0 -35 -11l-59 11h-46l-35 -23h-93q0 -30 -59 -35q-45 35 -58 35v47q8 31 140 93q169 187 186 187v69q-26 0 -46 47v23q19 47 70 47v93 h-24q0 -18 -93 -58v-12h-23v47q26 0 46 35q0 30 47 47v11h117v187l23 35v93q0 32 47 105q47 105 198 105h35z" />
<glyph unicode="&#xa4;" horiz-adv-x="1131" d="M969 1247h70l12 -58q-55 -82 -82 -105q-73 0 -140 -128v-152h-23v-93h-23v-47q26 0 116 -221l94 -105v-70q-19 0 -47 -24h-23q0 27 -35 47l-59 35q0 29 -70 117v35h-70v23h-93l-35 23h-58v24h-12q-53 -74 -105 -82q-128 -119 -128 -152q-26 0 -46 -11q-20 11 -59 11v70 q99 164 163 164v116q0 26 12 47q-12 20 -12 46h24v117q-26 0 -35 47q-35 0 -35 23h-70l-117 58l-23 35v47q23 0 23 23h47q0 -31 70 -47q163 -70 163 -93h257q0 40 139 70q4 41 117 93q0 38 93 94v23zM480 874q0 -70 -47 -70v-70l-23 -35v-12q93 -31 93 -70h163v24h-23v46 q20 47 46 47v140h-23q-50 0 -93 -23q-43 23 -93 23z" />
<glyph unicode="&#xa7;" horiz-adv-x="1317" d="M153 1422h47q57 -140 81 -140h24q196 105 303 105q58 -15 58 -35v-23q-12 0 -35 -12h-35q-153 -82 -186 -82v-35q70 -68 70 -81h70l81 -47h58q0 -26 94 -47q0 -18 23 -46v-163q-44 -117 -58 -117l-59 -35q-69 -28 -69 -47v-23l69 -105l82 -186h12v-117h116l35 -23h105 l35 -23q12 0 12 11q151 -11 151 -46v-35h-35l-35 23h-93l-35 -23h-210v23h-93v23h-23q0 -26 -35 -46q0 -68 -175 -129q-70 -20 -70 -58h-58l-35 -23h-257q-23 0 -23 23v93q23 29 23 47h94q23 -46 23 -70h58l35 23h70q0 19 93 59q71 55 117 81v12q0 26 -117 58q0 19 -70 58 q-25 63 -70 70q0 42 -35 59h-11v46q93 168 128 187h12v35q-179 205 -198 280q0 36 -59 151v12q24 0 24 23v58h23v70q-26 0 -35 47q-12 0 -35 47v46q23 29 23 47zM293 1119l-23 -70q12 0 81 -140q90 -84 129 -187q16 0 58 -46q64 52 128 81q19 82 47 82v93q-119 58 -140 58 q-47 9 -47 35h-70l-151 94h-12zM456 536q0 -26 -35 -47h-11v-93q26 0 35 -47q142 -140 198 -140v94h-23v70q-19 0 -59 93q-35 16 -35 70h-70z" />
<glyph unicode="&#xa8;" horiz-adv-x="721" d="M74 1289l71 72q13 12 25 12q11 0 27 -14l69 -73q10 -14 10 -25q0 -13 -12 -27l-69 -75q-17 -17 -25 -17q-14 0 -25 12l-76 86q-9 12 -9 23q0 13 14 26zM439 1289l71 72q13 12 25 12q11 0 27 -13l69 -74q10 -14 10 -25q0 -13 -12 -26l-69 -76q-17 -17 -25 -17 q-14 0 -25 12l-76 87q-9 11 -9 22q0 13 14 26z" />
<glyph unicode="&#xa9;" horiz-adv-x="1842" d="M1319 1317l58 -12h82q166 -73 198 -163q62 -140 82 -140v-58l23 -35v-327q-50 -136 -128 -233q-53 -82 -152 -175q0 -20 -186 -163l-94 -70q-206 -151 -279 -151q0 -16 -70 -35v-12h-59l-35 -23h-139v-23h-94l-35 23h-105q-160 67 -233 186q-33 0 -58 70h-12v59l-23 35 v303l23 35v58q24 0 70 151q117 164 117 199q30 0 116 128q22 0 187 151q163 105 245 105q70 35 279 70q0 12 12 12h117q151 -59 151 -105q100 -73 128 -128v-93q-23 0 -23 -24h-23v70q-37 0 -58 93l-164 94h-93l-35 -24h-116v-23h-105q-282 -109 -397 -256q-45 0 -128 -140 q-27 0 -93 -164q-27 0 -70 -163q-27 -26 -47 -163v-140h24v-93q29 0 35 -58q43 -59 58 -59q42 -38 175 -93h291v23h58l234 94q27 34 81 58q180 122 292 245q187 173 268 384v304q-64 174 -82 174q-8 41 -82 105q0 19 -104 59q0 23 -24 23h-58v35zM946 827q73 0 117 -81v-24 l-24 -35v-81h-46q0 18 -24 46v94h-93q-47 -82 -93 -82q-70 -97 -70 -116q-21 -35 -47 -35v-70h-23v-82q26 -70 93 -70q82 -12 82 -23l58 11h117q0 27 46 47h47v-47q-17 0 -47 -46q-138 -47 -256 -59q-198 15 -198 105q-16 24 -35 24v140l23 35v58q26 0 35 46q41 91 81 105 q0 30 47 47q47 39 47 58h70v24q48 0 93 11z" />
<glyph unicode="&#xaa;" d="M759 967h47q73 -32 105 -70q45 -30 82 -116h-12l35 -70q0 -17 -35 -35h-12q0 21 -46 93l-94 70v12h-128q-137 -79 -315 -245q-186 -357 -186 -373v-59h-23v-244q26 -76 104 -105l35 23h105l175 93q328 294 338 373h12v70h23v70l70 152v11h-23q0 17 70 70h23q18 0 47 -46 v-93h-24v-94q-56 -58 -81 -210q-12 0 -12 -11v-117l35 -81h12v-59q77 -145 140 -163v-12h35q26 0 46 12q23 -12 35 -12v-23q0 -16 -70 -35v-11h-46q0 20 -117 58q-39 19 -58 58q-40 70 -58 93q0 63 -82 164h-12q0 -18 -175 -187q-35 0 -35 -35q-204 -163 -396 -163 q-132 0 -175 105q-12 0 -58 93v233l23 35v82q27 0 35 46q60 218 350 513q28 0 128 94q47 0 47 23h116v23z" />
<glyph unicode="&#xad;" horiz-adv-x="1073" d="M118 513l105 -35q39 0 58 11q64 -11 105 -11h152l35 23h420v-47q-24 0 -24 -23h-81l-35 -23h-175l-35 -24h-128l-35 -23l-35 23h-12v-23h-117v23h-139v24h-35l-59 -12q-23 43 -23 93z" />
<glyph unicode="&#xae;" horiz-adv-x="1690" d="M713 1503h303q23 -23 163 -35q222 -128 233 -186q73 -62 175 -233q-12 -21 -12 -47q12 -22 12 -35q-17 0 -35 -35v-11h23v-59l24 -35v-81q0 -80 11 -140q-11 -61 -11 -140v-82q-24 -26 -47 -163q-23 0 -70 -93q-30 0 -105 -117q-63 -25 -70 -70q-28 0 -116 -70 q-19 0 -128 -70h-70q0 -26 -47 -46h-105l-35 -23h-12q-107 0 -384 116q0 23 -94 70q0 21 -163 175q-70 166 -81 280q-12 0 -12 11v373l23 35v82q27 0 59 140q12 0 139 210q38 0 82 70q20 0 105 93q143 79 245 116zM783 1410h-94q0 -26 -46 -46q-149 -56 -257 -175 q-46 -38 -151 -222h-12v-70h-23v-70q-18 -14 -35 -140q-12 0 -12 -11v-128q24 -113 24 -129v-93q63 -175 81 -175q0 -32 163 -186q105 -35 105 -70h70q0 -39 198 -59q142 12 222 59h70q0 31 93 70q41 80 140 116q0 61 93 128q47 75 47 117q14 0 46 93v455q-30 0 -69 163 q-19 0 -59 93q-151 164 -175 164v23h47v23q-27 0 -117 47q-147 30 -174 46h-140zM853 1154h70q59 0 140 -187v-116q-27 0 -35 -70q-14 -2 -94 -117h-11v-47q31 0 70 -93q26 0 46 -35q0 -15 70 -46q90 -38 105 -70q-12 -23 -12 -35h-70q0 23 -151 93q-118 109 -140 163h-12 v117q27 0 35 46q20 39 59 59q35 91 35 116q-18 117 -59 117q-57 -33 -105 -152q-18 0 -58 -105v-23q0 -26 12 -47l-35 -70v-104h-24v-304q-23 -28 -23 -46h-23q-55 46 -70 46v257h23v93q24 38 59 163q58 27 58 35q-24 39 -24 70q30 35 47 35v117q27 0 35 70q82 51 82 70z M107 664q0 -47 -24 -47v-46h24q0 46 23 46v47h-23zM1296 35q0 -27 -35 -47h-12v-23h23q0 26 35 46h12v24h-23z" />
<glyph unicode="&#xb0;" horiz-adv-x="921" d="M480 874h163q0 -26 46 -35q0 -43 35 -82q8 0 59 -46q0 -24 23 -24v-58q28 -37 35 -105q-12 -151 -82 -175q-99 -110 -209 -151q0 -16 -70 -35v-12h-117v-23h-116q-80 36 -140 116q0 12 -47 94v116h23v70q38 73 152 210zM550 804q0 -12 -140 -82q-119 -83 -129 -128 q-49 -34 -104 -151v-117q0 -15 93 -93v-12h58l35 23h70q0 27 47 35q157 59 256 187v175q-32 0 -81 93h-35v70h-12l-23 -12q-23 12 -35 12z" />
<glyph unicode="&#xb1;" horiz-adv-x="1026" d="M643 1154h23l35 -82q-12 -20 -12 -47v-11h24v-47l-24 -35v-23q0 -17 35 -35h152v35h23q0 -35 35 -35h12v-47q-18 0 -47 -23h-70v-23h-105q-27 -24 -81 -24v-116l-23 -35v-222h326v-23q0 -27 -326 -82l-70 12v-23h-140l-35 23h-268q0 17 -47 47v23q0 35 152 58q0 12 11 12 h24v-23h69v-24h234v12l-47 82v209q8 0 47 24v23q-94 23 -117 23v-23h-70q-58 26 -58 93l35 24h11q83 -24 94 -24h23l35 24h70v35q23 120 70 186l-23 35v23q3 24 23 24z" />
<glyph unicode="&#xb2;" horiz-adv-x="1143" d="M713 944h46q99 -72 117 -93q70 -69 70 -129q0 -11 23 -11v-82q12 -109 12 -198h-12v-93l-46 -105v-59h-24v-104q47 -67 82 -175q12 0 82 -94v-23q0 -23 -24 -23h-23q0 17 -47 46q0 27 -93 94q-32 116 -58 116h-12q0 -49 -70 -105q0 -29 -47 -46q-60 -105 -139 -140 l-117 -93l-163 -82h-93q-87 49 -117 175v23q0 38 93 257q74 151 222 268q58 0 58 23h58l35 23h47q60 -40 140 -58q46 -9 46 -35h47q0 47 23 47v70h24v81q0 14 23 129v23q0 203 -210 315q-28 -82 -46 -82q-24 0 -24 23v24q0 11 47 35v35q43 0 70 23zM177 -210v-128h81 q131 49 198 116q20 0 105 93q97 86 163 187h12v93q-42 0 -93 35v12h-198q-133 -55 -222 -315q-23 -18 -23 -70q-23 -4 -23 -23z" />
<glyph unicode="&#xb3;" horiz-adv-x="909" d="M433 1224h210q0 -19 70 -59q0 -35 46 -105v-81q0 -103 -93 -187q-69 -89 -116 -105q0 -20 -94 -105q-20 -34 -46 -34v-24q103 0 210 -116q69 -19 69 -70q114 -75 140 -140v-140q-58 -45 -58 -70l-128 -70h-70q-18 -70 -233 -70h-47q-93 33 -93 47q0 35 -23 35 q46 91 46 105h47v-59q0 -16 35 -35h93q27 24 175 47q0 26 47 35q93 57 93 70v105q-19 0 -152 140q-31 39 -140 93h-105v-23h-69q0 16 -47 46v47q233 189 233 210q38 0 187 198q0 18 23 47v128q-15 0 -82 46h-70l-198 -81q-23 -16 -23 -35h-70l-70 -105q0 -26 12 -47 q-12 -63 -12 -105v-35h-12q-35 0 -58 164v81q23 0 70 93q23 0 105 94q198 27 198 70z" />
<glyph unicode="&#xb4;" horiz-adv-x="601" d="M351 1375q35 35 55.5 47t40.5 12q33 0 53.5 -20t20.5 -51q0 -22 -15.5 -42t-46.5 -40l-330 -203h-69z" />
<glyph unicode="&#xb6;" horiz-adv-x="828" d="M433 1107h47l11 -58l-11 -24q0 -11 11 -11l-11 -58v-105h-24v-24h24q0 24 23 24v70q18 0 47 23q28 -23 46 -23v-94h24q0 29 23 59v104q23 0 23 12l-11 82l23 11h35q35 -127 35 -151q-12 -77 -12 -152v-11h-23v-105q0 -18 -24 -280v-256q0 -32 -23 -70q12 -23 12 -35 l-12 -70h-70v23h-46q0 -23 -47 -23v-70h-23v-70l-24 -35v-70h-35q-58 0 -70 58h-11v58q0 11 -24 94v559l12 24q-216 89 -245 186q0 55 -23 82v93q23 58 70 82q37 49 117 69q46 9 46 35h117q0 47 23 47zM153 851v-94q26 0 35 -46l140 -94h12q0 55 23 82v187q0 13 23 128h-11 l-105 -58q0 -35 -35 -35q-24 -45 -70 -70h-12zM573 314v-140h23v140h-23zM410 -35v-12q23 -29 23 -58h23q0 29 24 58v12h-70z" />
<glyph unicode="&#xb7;" horiz-adv-x="746" d="M386 956h94q73 -93 105 -93q70 0 70 -164q11 0 11 -11q-23 -4 -23 -24v-81q-43 -2 -93 -187q-68 -46 -187 -93h-93q-114 54 -210 187v139q45 119 163 222q0 31 163 105z" />
<glyph unicode="&#x2219;" horiz-adv-x="746" d="M386 956h94q73 -93 105 -93q70 0 70 -164q11 0 11 -11q-23 -4 -23 -24v-81q-43 -2 -93 -187q-68 -46 -187 -93h-93q-114 54 -210 187v139q45 119 163 222q0 31 163 105z" />
<glyph unicode="&#x2022;" horiz-adv-x="746" d="M386 956h94q73 -93 105 -93q70 0 70 -164q11 0 11 -11q-23 -4 -23 -24v-81q-43 -2 -93 -187q-68 -46 -187 -93h-93q-114 54 -210 187v139q45 119 163 222q0 31 163 105z" />
<glyph unicode="&#xb8;" horiz-adv-x="548" d="M60 -290q85 -52 152 -52q66 0 94.5 21.5t28.5 66.5t-49 64q-40 16 -102 16q-16 0 -34 -2l48 176h63l-37 -104q32 4 62 5q86 0 134 -40.5t48 -113.5q0 -76 -58.5 -120.5t-160.5 -44.5q-109 0 -189 32v96z" />
<glyph unicode="&#xb9;" horiz-adv-x="769" d="M596 1095h47q18 0 46 -46q-19 -35 -46 -187q-27 0 -35 -70q-24 -53 -58 -81q0 -18 -140 -292q-10 -84 -140 -291v-58q-27 0 -35 -70q-29 -14 -70 -129q0 -58 58 -58v-46q-23 0 -23 -24h-93q0 26 -35 47h-12v93h23v93q24 0 82 164q0 20 58 116l128 280q27 88 82 163 q33 99 105 233h12v93q31 70 46 70zM247 209q0 -26 -35 -46h-12v-23h47q0 46 23 46v23h-23z" />
<glyph unicode="&#xba;" horiz-adv-x="1259" d="M806 1189h93q47 -24 70 -70v-70q128 -24 128 -70q27 -10 47 -82q14 -102 35 -128v-47q-17 -14 -35 -140q-9 -46 -35 -46v-70q-112 -171 -245 -303q-52 0 -81 -70h-70q0 -18 -93 -58q0 -12 -47 -35h-70v-24h-233l-140 82l-70 82v116q4 23 23 23l-11 47q0 25 81 187 q0 17 70 116l140 187h23v-24h24v24h-24v23q66 44 152 163q41 0 58 35q69 78 175 128q35 0 35 24zM153 221l35 -81q27 0 82 -35v-12h233q0 23 70 47h70q0 26 46 34l94 70q136 116 233 280q0 50 47 117v210q-40 105 -59 105q-11 0 -11 23h-47q0 -26 -35 -47q-28 -7 -47 -93 q-26 0 -105 -70h-35v23q62 0 152 152v58h-23v70q-47 0 -47 23h-12q-84 -116 -116 -116q-222 -214 -222 -233q0 -14 -93 -105q0 -24 -93 -117q0 -24 -70 -140q-20 -56 -35 -151q-12 0 -12 -12zM107 186v-46q23 0 23 -24h23v24q-23 0 -23 46h-23z" />
<glyph unicode="&#xc0;" horiz-adv-x="1469" d="M1367 1684h-69l-330 202q-31 20 -46.5 40t-15.5 42q0 31 20.5 51t53.5 20q20 0 40.5 -12t55.5 -47zM1284 1562q37 -4 82 -105v-105l23 -35l-23 -93q23 -4 23 -24v-256h-23v-163l-24 -35v-152l-23 -35v-175l-23 -35v-396q46 -235 46 -256v-129q0 -23 -23 -23h-47 q-23 0 -23 23v117h-23v128l-24 35v245l-23 35v210h-23q0 -43 -152 -82q0 -8 -58 -35h-140l-12 58q0 24 82 59h70v23h70v23h58q26 21 117 35l11 24v58h24v93q23 198 23 222v81l23 35v432h-46q-72 -102 -82 -140q-51 -68 -105 -187q-20 0 -58 -116q-54 -35 -198 -327 q-120 -204 -303 -583l-117 -210q-9 -26 -70 -116q0 -20 -46 -58q0 -35 -24 -35v-70l-23 -35v-59q-26 0 -47 -35v-11h-70q-23 0 -23 23v47q23 0 82 140q16 0 35 35v58q25 0 46 93q24 0 82 117q45 103 81 128q0 37 94 186l140 269q0 14 139 256q132 207 245 443q30 16 105 187 q26 0 128 186q27 0 47 12z" />
<glyph unicode="&#xc1;" horiz-adv-x="1469" d="M1589 1981q35 35 55.5 47t40.5 12q33 0 53.5 -20t20.5 -51q0 -22 -15.5 -42t-46.5 -40l-330 -203h-69zM1284 1562q37 -4 82 -105v-105l23 -35l-23 -93q23 -4 23 -24v-256h-23v-163l-24 -35v-152l-23 -35v-175l-23 -35v-396q46 -235 46 -256v-129q0 -23 -23 -23h-47 q-23 0 -23 23v117h-23v128l-24 35v245l-23 35v210h-23q0 -43 -152 -82q0 -8 -58 -35h-140l-12 58q0 24 82 59h70v23h70v23h58q26 21 117 35l11 24v58h24v93q23 198 23 222v81l23 35v432h-46q-72 -102 -82 -140q-51 -68 -105 -187q-20 0 -58 -116q-54 -35 -198 -327 q-120 -204 -303 -583l-117 -210q-9 -26 -70 -116q0 -20 -46 -58q0 -35 -24 -35v-70l-23 -35v-59q-26 0 -47 -35v-11h-70q-23 0 -23 23v47q23 0 82 140q16 0 35 35v58q25 0 46 93q24 0 82 117q45 103 81 128q0 37 94 186l140 269q0 14 139 256q132 207 245 443q30 16 105 187 q26 0 128 186q27 0 47 12z" />
<glyph unicode="&#xc2;" horiz-adv-x="1469" d="M1042 1684l232 355h118l232 -355h-58l-233 216l-233 -216h-58zM1284 1562q37 -4 82 -105v-105l23 -35l-23 -93q23 -4 23 -24v-256h-23v-163l-24 -35v-152l-23 -35v-175l-23 -35v-396q46 -235 46 -256v-129q0 -23 -23 -23h-47q-23 0 -23 23v117h-23v128l-24 35v245l-23 35 v210h-23q0 -43 -152 -82q0 -8 -58 -35h-140l-12 58q0 24 82 59h70v23h70v23h58q26 21 117 35l11 24v58h24v93q23 198 23 222v81l23 35v432h-46q-72 -102 -82 -140q-51 -68 -105 -187q-20 0 -58 -116q-54 -35 -198 -327q-120 -204 -303 -583l-117 -210q-9 -26 -70 -116 q0 -20 -46 -58q0 -35 -24 -35v-70l-23 -35v-59q-26 0 -47 -35v-11h-70q-23 0 -23 23v47q23 0 82 140q16 0 35 35v58q25 0 46 93q24 0 82 117q45 103 81 128q0 37 94 186l140 269q0 14 139 256q132 207 245 443q30 16 105 187q26 0 128 186q27 0 47 12z" />
<glyph unicode="&#xc3;" horiz-adv-x="1469" d="M1669 1934q-20 -103 -68.5 -154t-126.5 -51h-4q-50 0 -113 23q-66 24 -114 24q-39 0 -60.5 -20.5t-33.5 -71.5h-54q19 106 68 158.5t129 52.5q46 -1 113 -24q64 -23 112 -23h4q36 0 58 20t36 66h54zM1284 1562q37 -4 82 -105v-105l23 -35l-23 -93q23 -4 23 -24v-256h-23 v-163l-24 -35v-152l-23 -35v-175l-23 -35v-396q46 -235 46 -256v-129q0 -23 -23 -23h-47q-23 0 -23 23v117h-23v128l-24 35v245l-23 35v210h-23q0 -43 -152 -82q0 -8 -58 -35h-140l-12 58q0 24 82 59h70v23h70v23h58q26 21 117 35l11 24v58h24v93q23 198 23 222v81l23 35 v432h-46q-72 -102 -82 -140q-51 -68 -105 -187q-20 0 -58 -116q-54 -35 -198 -327q-120 -204 -303 -583l-117 -210q-9 -26 -70 -116q0 -20 -46 -58q0 -35 -24 -35v-70l-23 -35v-59q-26 0 -47 -35v-11h-70q-23 0 -23 23v47q23 0 82 140q16 0 35 35v58q25 0 46 93q24 0 82 117 q45 103 81 128q0 37 94 186l140 269q0 14 139 256q132 207 245 443q30 16 105 187q26 0 128 186q27 0 47 12z" />
<glyph unicode="&#xc4;" horiz-adv-x="1469" d="M1103 1831l71 72q13 12 25 12q11 0 27 -14l69 -73q10 -14 10 -25q0 -13 -12 -27l-69 -75q-17 -17 -25 -17q-14 0 -25 12l-76 86q-9 12 -9 23q0 13 14 26zM1468 1831l71 72q13 12 25 12q11 0 27 -13l69 -74q10 -14 10 -25q0 -13 -12 -26l-69 -76q-17 -17 -25 -17 q-14 0 -25 12l-76 87q-9 11 -9 22q0 13 14 26zM1284 1562q37 -4 82 -105v-105l23 -35l-23 -93q23 -4 23 -24v-256h-23v-163l-24 -35v-152l-23 -35v-175l-23 -35v-396q46 -235 46 -256v-129q0 -23 -23 -23h-47q-23 0 -23 23v117h-23v128l-24 35v245l-23 35v210h-23 q0 -43 -152 -82q0 -8 -58 -35h-140l-12 58q0 24 82 59h70v23h70v23h58q26 21 117 35l11 24v58h24v93q23 198 23 222v81l23 35v432h-46q-72 -102 -82 -140q-51 -68 -105 -187q-20 0 -58 -116q-54 -35 -198 -327q-120 -204 -303 -583l-117 -210q-9 -26 -70 -116q0 -20 -46 -58 q0 -35 -24 -35v-70l-23 -35v-59q-26 0 -47 -35v-11h-70q-23 0 -23 23v47q23 0 82 140q16 0 35 35v58q25 0 46 93q24 0 82 117q45 103 81 128q0 37 94 186l140 269q0 14 139 256q132 207 245 443q30 16 105 187q26 0 128 186q27 0 47 12z" />
<glyph unicode="&#xc5;" horiz-adv-x="1469" d="M1253 1728q0 -42 29 -71t71 -29t71 29t29 71q0 40 -29.5 69.5t-70.5 29.5t-70.5 -29.5t-29.5 -69.5zM1177 1728q0 75 51 126t125 51q76 0 127.5 -51.5t51.5 -125.5q0 -75 -51.5 -126.5t-127.5 -51.5q-74 0 -125 51.5t-51 126.5zM1284 1562q37 -4 82 -105v-105l23 -35 l-23 -93q23 -4 23 -24v-256h-23v-163l-24 -35v-152l-23 -35v-175l-23 -35v-396q46 -235 46 -256v-129q0 -23 -23 -23h-47q-23 0 -23 23v117h-23v128l-24 35v245l-23 35v210h-23q0 -43 -152 -82q0 -8 -58 -35h-140l-12 58q0 24 82 59h70v23h70v23h58q26 21 117 35l11 24v58 h24v93q23 198 23 222v81l23 35v432h-46q-72 -102 -82 -140q-51 -68 -105 -187q-20 0 -58 -116q-54 -35 -198 -327q-120 -204 -303 -583l-117 -210q-9 -26 -70 -116q0 -20 -46 -58q0 -35 -24 -35v-70l-23 -35v-59q-26 0 -47 -35v-11h-70q-23 0 -23 23v47q23 0 82 140 q16 0 35 35v58q25 0 46 93q24 0 82 117q45 103 81 128q0 37 94 186l140 269q0 14 139 256q132 207 245 443q30 16 105 187q26 0 128 186q27 0 47 12z" />
<glyph unicode="&#xc7;" horiz-adv-x="1702" d="M432 -638q85 -52 152 -52q66 0 94.5 21.5t28.5 66.5t-49 64q-40 16 -102 16q-16 0 -34 -2l48 176h63l-37 -104q32 4 62 5q86 0 134 -40.5t48 -113.5q0 -76 -58.5 -120.5t-160.5 -44.5q-109 0 -189 32v96zM1109 1550h163q148 -91 164 -140q0 -23 23 -23v-82l23 -35 q-46 -128 -46 -140q-24 0 -59 -93l-81 -70q-17 0 -35 35v12q40 0 70 93q8 47 35 47v175q-51 73 -129 104h-198v-23h-58q-176 -86 -292 -175q-22 -36 -93 -70q0 -35 -35 -35q-24 -56 -81 -105q-70 -97 -70 -116q-44 -32 -129 -222h-11v-70q-23 -69 -47 -69v-70q-27 0 -35 -70 q-11 0 -11 -12v-210q17 -14 35 -140q48 -124 128 -210q134 -81 233 -93q0 -11 12 -11h128q13 0 128 23h93q28 19 210 58q0 12 12 12h70v23h58l82 35v12h70q0 23 104 58q35 14 35 35h47v-23q-131 -94 -233 -129q-44 -50 -326 -139v-12h-82l-35 -23h-128l-35 -24h-59 q-294 0 -419 94q-30 0 -47 46q-68 57 -116 152l-59 151v105l-23 35v163h23v70q24 36 82 233q16 24 35 24v70q26 0 47 93q16 0 81 116q141 188 198 245q21 0 163 129q140 100 304 163h116v23zM247 781q0 -24 -24 -24v-46h24q0 46 23 46v24h-23z" />
<glyph unicode="&#xc8;" horiz-adv-x="1772" d="M1752 1742h-69l-330 202q-31 20 -46.5 40t-15.5 42q0 31 20.5 51t53.5 20q20 0 40.5 -12t55.5 -47zM1657 1620h23l12 -47q-93 -81 -187 -81q-15 -16 -151 -82h-70v-23h-70q0 -30 -58 -35q0 -28 -93 -47q-39 -29 -117 -46q0 -18 -105 -70q0 -17 -93 -59h-70q0 -38 -23 -93 h-24v47h-23q0 -29 -23 -59v-81q-24 0 -24 -12l12 -23q-12 -51 -58 -70q0 -42 -82 -198h-12v-70h12q116 74 396 198q131 58 210 70l82 35h105v-23q-42 0 -117 -47q-105 -23 -361 -163q0 -16 -163 -70q0 -35 -140 -93h-24l-35 23h-35q0 -74 -116 -303q0 -24 -23 -24v-69h-24 v-70l-23 -35v-117q23 -27 23 -82q82 0 93 -11q80 11 129 11h70q48 32 128 59v11h58q165 70 198 70q0 30 117 82q22 36 93 70q0 31 117 140l46 116h24v-81q-31 -105 -198 -280q-35 0 -70 -47q-25 -32 -129 -81q-65 -35 -279 -117v-11h-59l-105 -47h-209q0 27 -70 35l-70 81 v70q0 48 -12 94q12 114 58 221q70 175 94 175v70q26 0 35 47q8 46 34 46v70q35 3 117 233q47 56 58 117q35 20 70 116q24 47 35 47h70q5 82 70 82q24 42 245 163l175 70q116 38 116 58h59l221 93h70q0 24 70 47z" />
<glyph unicode="&#xc9;" horiz-adv-x="1772" d="M1974 2039q35 35 55.5 47t40.5 12q33 0 53.5 -20t20.5 -51q0 -22 -15.5 -42t-46.5 -40l-330 -203h-69zM1657 1620h23l12 -47q-93 -81 -187 -81q-15 -16 -151 -82h-70v-23h-70q0 -30 -58 -35q0 -28 -93 -47q-39 -29 -117 -46q0 -18 -105 -70q0 -17 -93 -59h-70 q0 -38 -23 -93h-24v47h-23q0 -29 -23 -59v-81q-24 0 -24 -12l12 -23q-12 -51 -58 -70q0 -42 -82 -198h-12v-70h12q116 74 396 198q131 58 210 70l82 35h105v-23q-42 0 -117 -47q-105 -23 -361 -163q0 -16 -163 -70q0 -35 -140 -93h-24l-35 23h-35q0 -74 -116 -303 q0 -24 -23 -24v-69h-24v-70l-23 -35v-117q23 -27 23 -82q82 0 93 -11q80 11 129 11h70q48 32 128 59v11h58q165 70 198 70q0 30 117 82q22 36 93 70q0 31 117 140l46 116h24v-81q-31 -105 -198 -280q-35 0 -70 -47q-25 -32 -129 -81q-65 -35 -279 -117v-11h-59l-105 -47 h-209q0 27 -70 35l-70 81v70q0 48 -12 94q12 114 58 221q70 175 94 175v70q26 0 35 47q8 46 34 46v70q35 3 117 233q47 56 58 117q35 20 70 116q24 47 35 47h70q5 82 70 82q24 42 245 163l175 70q116 38 116 58h59l221 93h70q0 24 70 47z" />
<glyph unicode="&#xca;" horiz-adv-x="1772" d="M1426 1742l232 355h118l232 -355h-58l-233 216l-233 -216h-58zM1657 1620h23l12 -47q-93 -81 -187 -81q-15 -16 -151 -82h-70v-23h-70q0 -30 -58 -35q0 -28 -93 -47q-39 -29 -117 -46q0 -18 -105 -70q0 -17 -93 -59h-70q0 -38 -23 -93h-24v47h-23q0 -29 -23 -59v-81 q-24 0 -24 -12l12 -23q-12 -51 -58 -70q0 -42 -82 -198h-12v-70h12q116 74 396 198q131 58 210 70l82 35h105v-23q-42 0 -117 -47q-105 -23 -361 -163q0 -16 -163 -70q0 -35 -140 -93h-24l-35 23h-35q0 -74 -116 -303q0 -24 -23 -24v-69h-24v-70l-23 -35v-117q23 -27 23 -82 q82 0 93 -11q80 11 129 11h70q48 32 128 59v11h58q165 70 198 70q0 30 117 82q22 36 93 70q0 31 117 140l46 116h24v-81q-31 -105 -198 -280q-35 0 -70 -47q-25 -32 -129 -81q-65 -35 -279 -117v-11h-59l-105 -47h-209q0 27 -70 35l-70 81v70q0 48 -12 94q12 114 58 221 q70 175 94 175v70q26 0 35 47q8 46 34 46v70q35 3 117 233q47 56 58 117q35 20 70 116q24 47 35 47h70q5 82 70 82q24 42 245 163l175 70q116 38 116 58h59l221 93h70q0 24 70 47z" />
<glyph unicode="&#xcb;" horiz-adv-x="1772" d="M1488 1889l71 72q13 12 25 12q11 0 27 -14l69 -73q10 -14 10 -25q0 -13 -12 -27l-69 -75q-17 -17 -25 -17q-14 0 -25 12l-76 86q-9 12 -9 23q0 13 14 26zM1853 1889l71 72q13 12 25 12q11 0 27 -13l69 -74q10 -14 10 -25q0 -13 -12 -26l-69 -76q-17 -17 -25 -17 q-14 0 -25 12l-76 87q-9 11 -9 22q0 13 14 26zM1657 1620h23l12 -47q-93 -81 -187 -81q-15 -16 -151 -82h-70v-23h-70q0 -30 -58 -35q0 -28 -93 -47q-39 -29 -117 -46q0 -18 -105 -70q0 -17 -93 -59h-70q0 -38 -23 -93h-24v47h-23q0 -29 -23 -59v-81q-24 0 -24 -12l12 -23 q-12 -51 -58 -70q0 -42 -82 -198h-12v-70h12q116 74 396 198q131 58 210 70l82 35h105v-23q-42 0 -117 -47q-105 -23 -361 -163q0 -16 -163 -70q0 -35 -140 -93h-24l-35 23h-35q0 -74 -116 -303q0 -24 -23 -24v-69h-24v-70l-23 -35v-117q23 -27 23 -82q82 0 93 -11 q80 11 129 11h70q48 32 128 59v11h58q165 70 198 70q0 30 117 82q22 36 93 70q0 31 117 140l46 116h24v-81q-31 -105 -198 -280q-35 0 -70 -47q-25 -32 -129 -81q-65 -35 -279 -117v-11h-59l-105 -47h-209q0 27 -70 35l-70 81v70q0 48 -12 94q12 114 58 221q70 175 94 175 v70q26 0 35 47q8 46 34 46v70q35 3 117 233q47 56 58 117q35 20 70 116q24 47 35 47h70q5 82 70 82q24 42 245 163l175 70q116 38 116 58h59l221 93h70q0 24 70 47z" />
<glyph unicode="&#xcc;" horiz-adv-x="2343" d="M2317 1498h-69l-330 202q-31 20 -46.5 40t-15.5 42q0 31 20.5 51t53.5 20q20 0 40.5 -12t55.5 -47zM2205 1376h58v-12q0 -55 -280 -117q0 -11 -11 -11h-70v-24h-58l-35 -23h-222l-35 -23h-233q0 -39 -12 -59q24 -3 24 -23v-12q-47 0 -47 -70q-82 -120 -82 -139 q-26 0 -35 -47q-8 -47 -35 -47v-70l-23 -35v-58h-23v-70q-8 0 -47 -23v-93h-23v-70l-23 -35v-82q-27 0 -35 -47q-12 0 -12 -23h-47q-23 0 -23 23v117h-23v23q85 129 151 327q25 140 59 140v70q26 0 34 46l152 222v11h-338q-26 0 -47 -11q-20 11 -46 11l-35 -23l-35 23 q-26 0 -47 -11q-22 11 -35 11q-76 -23 -105 -23t-93 12q-43 -12 -105 -12q0 21 -58 82l11 58h24l35 -23l35 23h23v-23h734q24 0 24 23q11 0 11 -12l59 12h291q14 0 128 23h140q26 21 117 35q22 -11 35 -11q0 21 105 35q102 14 128 35zM993 117h268q113 -24 128 -24h35v-23 h-70q-27 -20 -187 -47h-163l-35 -23h-93q-314 -47 -560 -140h-69q0 -26 -47 -35v-12h-58l-47 -34q-17 0 -35 34v47q35 43 163 82v11h70v24h58l129 46h70v24h128l128 46h187v24z" />
<glyph unicode="&#xcd;" horiz-adv-x="2343" d="M2539 1795q35 35 55.5 47t40.5 12q33 0 53.5 -20t20.5 -51q0 -22 -15.5 -42t-46.5 -40l-330 -203h-69zM2205 1376h58v-12q0 -55 -280 -117q0 -11 -11 -11h-70v-24h-58l-35 -23h-222l-35 -23h-233q0 -39 -12 -59q24 -3 24 -23v-12q-47 0 -47 -70q-82 -120 -82 -139 q-26 0 -35 -47q-8 -47 -35 -47v-70l-23 -35v-58h-23v-70q-8 0 -47 -23v-93h-23v-70l-23 -35v-82q-27 0 -35 -47q-12 0 -12 -23h-47q-23 0 -23 23v117h-23v23q85 129 151 327q25 140 59 140v70q26 0 34 46l152 222v11h-338q-26 0 -47 -11q-20 11 -46 11l-35 -23l-35 23 q-26 0 -47 -11q-22 11 -35 11q-76 -23 -105 -23t-93 12q-43 -12 -105 -12q0 21 -58 82l11 58h24l35 -23l35 23h23v-23h734q24 0 24 23q11 0 11 -12l59 12h291q14 0 128 23h140q26 21 117 35q22 -11 35 -11q0 21 105 35q102 14 128 35zM993 117h268q113 -24 128 -24h35v-23 h-70q-27 -20 -187 -47h-163l-35 -23h-93q-314 -47 -560 -140h-69q0 -26 -47 -35v-12h-58l-47 -34q-17 0 -35 34v47q35 43 163 82v11h70v24h58l129 46h70v24h128l128 46h187v24z" />
<glyph unicode="&#xce;" horiz-adv-x="2343" d="M1992 1498l232 355h118l232 -355h-58l-233 216l-233 -216h-58zM2205 1376h58v-12q0 -55 -280 -117q0 -11 -11 -11h-70v-24h-58l-35 -23h-222l-35 -23h-233q0 -39 -12 -59q24 -3 24 -23v-12q-47 0 -47 -70q-82 -120 -82 -139q-26 0 -35 -47q-8 -47 -35 -47v-70l-23 -35 v-58h-23v-70q-8 0 -47 -23v-93h-23v-70l-23 -35v-82q-27 0 -35 -47q-12 0 -12 -23h-47q-23 0 -23 23v117h-23v23q85 129 151 327q25 140 59 140v70q26 0 34 46l152 222v11h-338q-26 0 -47 -11q-20 11 -46 11l-35 -23l-35 23q-26 0 -47 -11q-22 11 -35 11q-76 -23 -105 -23 t-93 12q-43 -12 -105 -12q0 21 -58 82l11 58h24l35 -23l35 23h23v-23h734q24 0 24 23q11 0 11 -12l59 12h291q14 0 128 23h140q26 21 117 35q22 -11 35 -11q0 21 105 35q102 14 128 35zM993 117h268q113 -24 128 -24h35v-23h-70q-27 -20 -187 -47h-163l-35 -23h-93 q-314 -47 -560 -140h-69q0 -26 -47 -35v-12h-58l-47 -34q-17 0 -35 34v47q35 43 163 82v11h70v24h58l129 46h70v24h128l128 46h187v24z" />
<glyph unicode="&#xcf;" horiz-adv-x="2343" d="M2053 1645l71 72q13 12 25 12q11 0 27 -14l69 -73q10 -14 10 -25q0 -13 -12 -27l-69 -75q-17 -17 -25 -17q-14 0 -25 12l-76 86q-9 12 -9 23q0 13 14 26zM2418 1645l71 72q13 12 25 12q11 0 27 -13l69 -74q10 -14 10 -25q0 -13 -12 -26l-69 -76q-17 -17 -25 -17 q-14 0 -25 12l-76 87q-9 11 -9 22q0 13 14 26zM2205 1376h58v-12q0 -55 -280 -117q0 -11 -11 -11h-70v-24h-58l-35 -23h-222l-35 -23h-233q0 -39 -12 -59q24 -3 24 -23v-12q-47 0 -47 -70q-82 -120 -82 -139q-26 0 -35 -47q-8 -47 -35 -47v-70l-23 -35v-58h-23v-70 q-8 0 -47 -23v-93h-23v-70l-23 -35v-82q-27 0 -35 -47q-12 0 -12 -23h-47q-23 0 -23 23v117h-23v23q85 129 151 327q25 140 59 140v70q26 0 34 46l152 222v11h-338q-26 0 -47 -11q-20 11 -46 11l-35 -23l-35 23q-26 0 -47 -11q-22 11 -35 11q-76 -23 -105 -23t-93 12 q-43 -12 -105 -12q0 21 -58 82l11 58h24l35 -23l35 23h23v-23h734q24 0 24 23q11 0 11 -12l59 12h291q14 0 128 23h140q26 21 117 35q22 -11 35 -11q0 21 105 35q102 14 128 35zM993 117h268q113 -24 128 -24h35v-23h-70q-27 -20 -187 -47h-163l-35 -23h-93 q-314 -47 -560 -140h-69q0 -26 -47 -35v-12h-58l-47 -34q-17 0 -35 34v47q35 43 163 82v11h70v24h58l129 46h70v24h128l128 46h187v24z" />
<glyph unicode="&#xd1;" horiz-adv-x="2110" d="M2380 2097q-20 -103 -68.5 -154t-126.5 -51h-4q-50 0 -113 23q-66 24 -114 24q-39 0 -60.5 -20.5t-33.5 -71.5h-54q19 106 68 158.5t129 52.5q46 -1 113 -24q64 -23 112 -23h4q36 0 58 20t36 66h54zM1972 1725h46v-152q0 -35 12 -35l-12 -58v-175q-23 -25 -58 -233 q-164 -468 -396 -653q-119 -128 -175 -128v-12h-140q-198 163 -198 245q-9 58 -35 58v234h-23v186l23 35v222h23v46h-23l-163 -268q-86 -120 -175 -315q-12 0 -152 -256q-26 0 -140 -233l-70 -93q-33 -89 -104 -199q-43 -151 -82 -151h-23q-19 0 -47 46v47l23 35v58 q21 0 59 117h11v70q21 26 35 116q32 117 59 117v58q35 175 69 175v70l24 35v58h23v70q23 27 23 70h35v-11l-11 -59q46 0 46 -23v-12q-23 -159 -46 -186v-59h-24v-69h-23v-94h-23v-46h23q0 29 140 233q93 143 93 186q19 0 59 70l34 59q47 76 47 104q37 0 82 117 q128 187 140 187l35 58q0 35 46 70v11h47q0 -23 23 -23v-105l23 -35v-116l-23 -35v-490l23 -35v-70q37 0 59 -93q58 -47 58 -70h140q0 26 47 35q75 43 163 163q93 101 186 315q59 136 59 163q8 47 34 47v70h24v70q17 14 35 139q11 0 11 12v152l24 35v128zM316 559 q0 -23 -23 -23v-47h23q0 47 24 47v23h-24zM1109 513v-47q26 0 47 -35v-12h23v24q-26 0 -35 46q-12 0 -12 24h-23z" />
<glyph unicode="&#xd2;" horiz-adv-x="1457" d="M1041 1451h-69l-330 202q-31 20 -46.5 40t-15.5 42q0 31 20.5 51t53.5 20q20 0 40.5 -12t55.5 -47zM864 1329h187q165 -59 186 -117q37 -12 82 -117h12v-70h23v-93q23 0 23 -11q0 -36 -11 -82q11 -61 11 -117l-23 -35v-128h-23v-93q-31 -93 -164 -292q-39 -110 -291 -314 q-105 -47 -105 -70h-82l-34 -23h-70q-49 0 -94 -12q-349 71 -349 198q-82 97 -82 233q12 77 12 152v58q36 95 93 175q0 39 47 105q133 320 443 489h69v24h210q0 -13 70 -94v-35h-11l-47 35h-58v24h-82q-233 -108 -233 -117q-28 0 -58 -46q-17 0 -94 -117q-44 0 -116 -198 q-18 -3 -128 -245h-12v-140l-23 -35v-47q98 -249 174 -268q105 -13 105 -46h245q253 119 268 186q40 7 187 233q46 57 70 140h23v70h23v117l24 35v186q0 42 11 105q-8 70 -35 70v70q-26 0 -81 105q-105 55 -105 82h-35q-51 0 -93 23l-24 -12q-20 12 -46 12q-32 -20 -129 -47 q0 12 -11 12q0 51 140 70q0 12 11 12z" />
<glyph unicode="&#xd3;" horiz-adv-x="1457" d="M1263 1748q35 35 55.5 47t40.5 12q33 0 53.5 -20t20.5 -51q0 -22 -15.5 -42t-46.5 -40l-330 -203h-69zM864 1329h187q165 -59 186 -117q37 -12 82 -117h12v-70h23v-93q23 0 23 -11q0 -36 -11 -82q11 -61 11 -117l-23 -35v-128h-23v-93q-31 -93 -164 -292 q-39 -110 -291 -314q-105 -47 -105 -70h-82l-34 -23h-70q-49 0 -94 -12q-349 71 -349 198q-82 97 -82 233q12 77 12 152v58q36 95 93 175q0 39 47 105q133 320 443 489h69v24h210q0 -13 70 -94v-35h-11l-47 35h-58v24h-82q-233 -108 -233 -117q-28 0 -58 -46q-17 0 -94 -117 q-44 0 -116 -198q-18 -3 -128 -245h-12v-140l-23 -35v-47q98 -249 174 -268q105 -13 105 -46h245q253 119 268 186q40 7 187 233q46 57 70 140h23v70h23v117l24 35v186q0 42 11 105q-8 70 -35 70v70q-26 0 -81 105q-105 55 -105 82h-35q-51 0 -93 23l-24 -12q-20 12 -46 12 q-32 -20 -129 -47q0 12 -11 12q0 51 140 70q0 12 11 12z" />
<glyph unicode="&#xd4;" horiz-adv-x="1457" d="M715 1451l232 355h118l232 -355h-58l-233 216l-233 -216h-58zM864 1329h187q165 -59 186 -117q37 -12 82 -117h12v-70h23v-93q23 0 23 -11q0 -36 -11 -82q11 -61 11 -117l-23 -35v-128h-23v-93q-31 -93 -164 -292q-39 -110 -291 -314q-105 -47 -105 -70h-82l-34 -23h-70 q-49 0 -94 -12q-349 71 -349 198q-82 97 -82 233q12 77 12 152v58q36 95 93 175q0 39 47 105q133 320 443 489h69v24h210q0 -13 70 -94v-35h-11l-47 35h-58v24h-82q-233 -108 -233 -117q-28 0 -58 -46q-17 0 -94 -117q-44 0 -116 -198q-18 -3 -128 -245h-12v-140l-23 -35 v-47q98 -249 174 -268q105 -13 105 -46h245q253 119 268 186q40 7 187 233q46 57 70 140h23v70h23v117l24 35v186q0 42 11 105q-8 70 -35 70v70q-26 0 -81 105q-105 55 -105 82h-35q-51 0 -93 23l-24 -12q-20 12 -46 12q-32 -20 -129 -47q0 12 -11 12q0 51 140 70 q0 12 11 12z" />
<glyph unicode="&#xd5;" horiz-adv-x="1457" d="M1342 1701q-20 -103 -68.5 -154t-126.5 -51h-4q-50 0 -113 23q-66 24 -114 24q-39 0 -60.5 -20.5t-33.5 -71.5h-54q19 106 68 158.5t129 52.5q46 -1 113 -24q64 -23 112 -23h4q36 0 58 20t36 66h54zM864 1329h187q165 -59 186 -117q37 -12 82 -117h12v-70h23v-93 q23 0 23 -11q0 -36 -11 -82q11 -61 11 -117l-23 -35v-128h-23v-93q-31 -93 -164 -292q-39 -110 -291 -314q-105 -47 -105 -70h-82l-34 -23h-70q-49 0 -94 -12q-349 71 -349 198q-82 97 -82 233q12 77 12 152v58q36 95 93 175q0 39 47 105q133 320 443 489h69v24h210 q0 -13 70 -94v-35h-11l-47 35h-58v24h-82q-233 -108 -233 -117q-28 0 -58 -46q-17 0 -94 -117q-44 0 -116 -198q-18 -3 -128 -245h-12v-140l-23 -35v-47q98 -249 174 -268q105 -13 105 -46h245q253 119 268 186q40 7 187 233q46 57 70 140h23v70h23v117l24 35v186 q0 42 11 105q-8 70 -35 70v70q-26 0 -81 105q-105 55 -105 82h-35q-51 0 -93 23l-24 -12q-20 12 -46 12q-32 -20 -129 -47q0 12 -11 12q0 51 140 70q0 12 11 12z" />
<glyph unicode="&#xd6;" horiz-adv-x="1457" d="M777 1598l71 72q13 12 25 12q11 0 27 -14l69 -73q10 -14 10 -25q0 -13 -12 -27l-69 -75q-17 -17 -25 -17q-14 0 -25 12l-76 86q-9 12 -9 23q0 13 14 26zM1142 1598l71 72q13 12 25 12q11 0 27 -13l69 -74q10 -14 10 -25q0 -13 -12 -26l-69 -76q-17 -17 -25 -17 q-14 0 -25 12l-76 87q-9 11 -9 22q0 13 14 26zM864 1329h187q165 -59 186 -117q37 -12 82 -117h12v-70h23v-93q23 0 23 -11q0 -36 -11 -82q11 -61 11 -117l-23 -35v-128h-23v-93q-31 -93 -164 -292q-39 -110 -291 -314q-105 -47 -105 -70h-82l-34 -23h-70q-49 0 -94 -12 q-349 71 -349 198q-82 97 -82 233q12 77 12 152v58q36 95 93 175q0 39 47 105q133 320 443 489h69v24h210q0 -13 70 -94v-35h-11l-47 35h-58v24h-82q-233 -108 -233 -117q-28 0 -58 -46q-17 0 -94 -117q-44 0 -116 -198q-18 -3 -128 -245h-12v-140l-23 -35v-47 q98 -249 174 -268q105 -13 105 -46h245q253 119 268 186q40 7 187 233q46 57 70 140h23v70h23v117l24 35v186q0 42 11 105q-8 70 -35 70v70q-26 0 -81 105q-105 55 -105 82h-35q-51 0 -93 23l-24 -12q-20 12 -46 12q-32 -20 -129 -47q0 12 -11 12q0 51 140 70q0 12 11 12z " />
<glyph unicode="&#xd9;" horiz-adv-x="1585" d="M1379 1532h-69l-330 202q-31 20 -46.5 40t-15.5 42q0 31 20.5 51t53.5 20q20 0 40.5 -12t55.5 -47zM1249 1410h93q87 -130 140 -280v-105l23 -35v-442l-23 -35q0 -12 12 -12q-12 -102 -35 -128v-59q-27 0 -58 -140q-30 -14 -129 -233q-20 0 -93 -116q-21 0 -105 -117 q-42 -36 -81 -46q0 -27 -35 -47q-24 0 -70 -35q-93 -19 -175 -58h-93v23h-187q0 26 -47 35q0 15 -70 47q-69 70 -104 151q-20 2 -70 117h-12v58l-23 35v105l-24 35v93q0 23 -23 117l23 58q0 26 -11 47q11 99 11 163v151h24v140q23 34 46 163h24v70q46 100 46 117h47 q46 -19 46 -82v-35q-38 -23 -46 -23v-70q-18 -14 -35 -140q-12 0 -12 -11v-82h-23v-140q-23 0 -23 -12q0 -11 11 -11l-11 -59v-361h23v-105q23 -83 23 -93v-58q34 0 47 -105q80 -105 93 -105q44 -64 93 -82v-11h70v-24h198q88 35 117 59q31 0 128 81q19 0 59 70q48 0 58 70 q23 0 70 70h23v-47h47v12q0 29 -47 35v47q8 0 47 23v70q38 0 58 70q78 120 117 373q11 0 11 11q0 35 -11 35l11 59v198q0 13 -23 128v128h-23v59l-70 151h-82v35q0 17 35 35zM783 -362v-23h-70v-12l11 -23q47 12 82 12v46h-23z" />
<glyph unicode="&#xda;" horiz-adv-x="1585" d="M1601 1829q35 35 55.5 47t40.5 12q33 0 53.5 -20t20.5 -51q0 -22 -15.5 -42t-46.5 -40l-330 -203h-69zM1249 1410h93q87 -130 140 -280v-105l23 -35v-442l-23 -35q0 -12 12 -12q-12 -102 -35 -128v-59q-27 0 -58 -140q-30 -14 -129 -233q-20 0 -93 -116q-21 0 -105 -117 q-42 -36 -81 -46q0 -27 -35 -47q-24 0 -70 -35q-93 -19 -175 -58h-93v23h-187q0 26 -47 35q0 15 -70 47q-69 70 -104 151q-20 2 -70 117h-12v58l-23 35v105l-24 35v93q0 23 -23 117l23 58q0 26 -11 47q11 99 11 163v151h24v140q23 34 46 163h24v70q46 100 46 117h47 q46 -19 46 -82v-35q-38 -23 -46 -23v-70q-18 -14 -35 -140q-12 0 -12 -11v-82h-23v-140q-23 0 -23 -12q0 -11 11 -11l-11 -59v-361h23v-105q23 -83 23 -93v-58q34 0 47 -105q80 -105 93 -105q44 -64 93 -82v-11h70v-24h198q88 35 117 59q31 0 128 81q19 0 59 70q48 0 58 70 q23 0 70 70h23v-47h47v12q0 29 -47 35v47q8 0 47 23v70q38 0 58 70q78 120 117 373q11 0 11 11q0 35 -11 35l11 59v198q0 13 -23 128v128h-23v59l-70 151h-82v35q0 17 35 35zM783 -362v-23h-70v-12l11 -23q47 12 82 12v46h-23z" />
<glyph unicode="&#xdb;" horiz-adv-x="1585" d="M1053 1532l232 355h118l232 -355h-58l-233 216l-233 -216h-58zM1249 1410h93q87 -130 140 -280v-105l23 -35v-442l-23 -35q0 -12 12 -12q-12 -102 -35 -128v-59q-27 0 -58 -140q-30 -14 -129 -233q-20 0 -93 -116q-21 0 -105 -117q-42 -36 -81 -46q0 -27 -35 -47 q-24 0 -70 -35q-93 -19 -175 -58h-93v23h-187q0 26 -47 35q0 15 -70 47q-69 70 -104 151q-20 2 -70 117h-12v58l-23 35v105l-24 35v93q0 23 -23 117l23 58q0 26 -11 47q11 99 11 163v151h24v140q23 34 46 163h24v70q46 100 46 117h47q46 -19 46 -82v-35q-38 -23 -46 -23v-70 q-18 -14 -35 -140q-12 0 -12 -11v-82h-23v-140q-23 0 -23 -12q0 -11 11 -11l-11 -59v-361h23v-105q23 -83 23 -93v-58q34 0 47 -105q80 -105 93 -105q44 -64 93 -82v-11h70v-24h198q88 35 117 59q31 0 128 81q19 0 59 70q48 0 58 70q23 0 70 70h23v-47h47v12q0 29 -47 35v47 q8 0 47 23v70q38 0 58 70q78 120 117 373q11 0 11 11q0 35 -11 35l11 59v198q0 13 -23 128v128h-23v59l-70 151h-82v35q0 17 35 35zM783 -362v-23h-70v-12l11 -23q47 12 82 12v46h-23z" />
<glyph unicode="&#xdc;" horiz-adv-x="1585" d="M1115 1679l71 72q13 12 25 12q11 0 27 -14l69 -73q10 -14 10 -25q0 -13 -12 -27l-69 -75q-17 -17 -25 -17q-14 0 -25 12l-76 86q-9 12 -9 23q0 13 14 26zM1480 1679l71 72q13 12 25 12q11 0 27 -13l69 -74q10 -14 10 -25q0 -13 -12 -26l-69 -76q-17 -17 -25 -17 q-14 0 -25 12l-76 87q-9 11 -9 22q0 13 14 26zM1249 1410h93q87 -130 140 -280v-105l23 -35v-442l-23 -35q0 -12 12 -12q-12 -102 -35 -128v-59q-27 0 -58 -140q-30 -14 -129 -233q-20 0 -93 -116q-21 0 -105 -117q-42 -36 -81 -46q0 -27 -35 -47q-24 0 -70 -35 q-93 -19 -175 -58h-93v23h-187q0 26 -47 35q0 15 -70 47q-69 70 -104 151q-20 2 -70 117h-12v58l-23 35v105l-24 35v93q0 23 -23 117l23 58q0 26 -11 47q11 99 11 163v151h24v140q23 34 46 163h24v70q46 100 46 117h47q46 -19 46 -82v-35q-38 -23 -46 -23v-70 q-18 -14 -35 -140q-12 0 -12 -11v-82h-23v-140q-23 0 -23 -12q0 -11 11 -11l-11 -59v-361h23v-105q23 -83 23 -93v-58q34 0 47 -105q80 -105 93 -105q44 -64 93 -82v-11h70v-24h198q88 35 117 59q31 0 128 81q19 0 59 70q48 0 58 70q23 0 70 70h23v-47h47v12q0 29 -47 35v47 q8 0 47 23v70q38 0 58 70q78 120 117 373q11 0 11 11q0 35 -11 35l11 59v198q0 13 -23 128v128h-23v59l-70 151h-82v35q0 17 35 35zM783 -362v-23h-70v-12l11 -23q47 12 82 12v46h-23z" />
<glyph unicode="&#xdd;" horiz-adv-x="1434" d="M1618 1899q35 35 55.5 47t40.5 12q33 0 53.5 -20t20.5 -51q0 -22 -15.5 -42t-46.5 -40l-330 -203h-69zM1272 1480h82v-23h-35v-24h23v-46q-98 -59 -175 -210q-128 -163 -268 -443q-108 -221 -163 -303q0 -18 -128 -303h-12v-70q-27 0 -70 -163l-116 -292v-58h-24v-70 q-24 -83 -233 -315h-23v35q82 109 128 210h12v70h23v93h23v94h24v70h23v69q26 0 35 47h12v70q23 70 46 70v70h24v70q26 0 35 46q35 56 70 187q11 0 11 12v58h-11l-105 -47h-12q-123 0 -245 175q0 26 -46 82q0 60 -35 93h-12v93h-23v59l-24 35v104l-23 35v210h47 q0 -20 70 -163v-105q20 -26 35 -116q35 -129 58 -129v-70q26 0 35 -46q0 -56 128 -140q23 0 23 -23l59 11q22 -11 35 -11q0 16 70 35q0 31 69 46q100 184 117 245q26 0 47 93q26 0 35 47q25 65 128 198q163 236 163 245q0 23 93 81v12zM456 -82q0 -47 -23 -47v-46h23 q0 46 24 46v47h-24z" />
<glyph unicode="&#xe0;" d="M953 1311h-69l-330 202q-31 20 -46.5 40t-15.5 42q0 31 20.5 51t53.5 20q20 0 40.5 -12t55.5 -47zM759 967h47q73 -32 105 -70q45 -30 82 -116h-12l35 -70q0 -17 -35 -35h-12q0 21 -46 93l-94 70v12h-128q-137 -79 -315 -245q-186 -357 -186 -373v-59h-23v-244 q26 -76 104 -105l35 23h105l175 93q328 294 338 373h12v70h23v70l70 152v11h-23q0 17 70 70h23q18 0 47 -46v-93h-24v-94q-56 -58 -81 -210q-12 0 -12 -11v-117l35 -81h12v-59q77 -145 140 -163v-12h35q26 0 46 12q23 -12 35 -12v-23q0 -16 -70 -35v-11h-46q0 20 -117 58 q-39 19 -58 58q-40 70 -58 93q0 63 -82 164h-12q0 -18 -175 -187q-35 0 -35 -35q-204 -163 -396 -163q-132 0 -175 105q-12 0 -58 93v233l23 35v82q27 0 35 46q60 218 350 513q28 0 128 94q47 0 47 23h116v23z" />
<glyph unicode="&#xe1;" d="M1175 1608q35 35 55.5 47t40.5 12q33 0 53.5 -20t20.5 -51q0 -22 -15.5 -42t-46.5 -40l-330 -203h-69zM759 967h47q73 -32 105 -70q45 -30 82 -116h-12l35 -70q0 -17 -35 -35h-12q0 21 -46 93l-94 70v12h-128q-137 -79 -315 -245q-186 -357 -186 -373v-59h-23v-244 q26 -76 104 -105l35 23h105l175 93q328 294 338 373h12v70h23v70l70 152v11h-23q0 17 70 70h23q18 0 47 -46v-93h-24v-94q-56 -58 -81 -210q-12 0 -12 -11v-117l35 -81h12v-59q77 -145 140 -163v-12h35q26 0 46 12q23 -12 35 -12v-23q0 -16 -70 -35v-11h-46q0 20 -117 58 q-39 19 -58 58q-40 70 -58 93q0 63 -82 164h-12q0 -18 -175 -187q-35 0 -35 -35q-204 -163 -396 -163q-132 0 -175 105q-12 0 -58 93v233l23 35v82q27 0 35 46q60 218 350 513q28 0 128 94q47 0 47 23h116v23z" />
<glyph unicode="&#xe2;" d="M628 1311l232 355h118l232 -355h-58l-233 216l-233 -216h-58zM759 967h47q73 -32 105 -70q45 -30 82 -116h-12l35 -70q0 -17 -35 -35h-12q0 21 -46 93l-94 70v12h-128q-137 -79 -315 -245q-186 -357 -186 -373v-59h-23v-244q26 -76 104 -105l35 23h105l175 93 q328 294 338 373h12v70h23v70l70 152v11h-23q0 17 70 70h23q18 0 47 -46v-93h-24v-94q-56 -58 -81 -210q-12 0 -12 -11v-117l35 -81h12v-59q77 -145 140 -163v-12h35q26 0 46 12q23 -12 35 -12v-23q0 -16 -70 -35v-11h-46q0 20 -117 58q-39 19 -58 58q-40 70 -58 93 q0 63 -82 164h-12q0 -18 -175 -187q-35 0 -35 -35q-204 -163 -396 -163q-132 0 -175 105q-12 0 -58 93v233l23 35v82q27 0 35 46q60 218 350 513q28 0 128 94q47 0 47 23h116v23z" />
<glyph unicode="&#xe3;" d="M1255 1561q-20 -103 -68.5 -154t-126.5 -51h-4q-50 0 -113 23q-66 24 -114 24q-39 0 -60.5 -20.5t-33.5 -71.5h-54q19 106 68 158.5t129 52.5q46 -1 113 -24q64 -23 112 -23h4q36 0 58 20t36 66h54zM759 967h47q73 -32 105 -70q45 -30 82 -116h-12l35 -70q0 -17 -35 -35 h-12q0 21 -46 93l-94 70v12h-128q-137 -79 -315 -245q-186 -357 -186 -373v-59h-23v-244q26 -76 104 -105l35 23h105l175 93q328 294 338 373h12v70h23v70l70 152v11h-23q0 17 70 70h23q18 0 47 -46v-93h-24v-94q-56 -58 -81 -210q-12 0 -12 -11v-117l35 -81h12v-59 q77 -145 140 -163v-12h35q26 0 46 12q23 -12 35 -12v-23q0 -16 -70 -35v-11h-46q0 20 -117 58q-39 19 -58 58q-40 70 -58 93q0 63 -82 164h-12q0 -18 -175 -187q-35 0 -35 -35q-204 -163 -396 -163q-132 0 -175 105q-12 0 -58 93v233l23 35v82q27 0 35 46q60 218 350 513 q28 0 128 94q47 0 47 23h116v23z" />
<glyph unicode="&#xe4;" d="M689 1458l71 72q13 12 25 12q11 0 27 -14l69 -73q10 -14 10 -25q0 -13 -12 -27l-69 -75q-17 -17 -25 -17q-14 0 -25 12l-76 86q-9 12 -9 23q0 13 14 26zM1054 1458l71 72q13 12 25 12q11 0 27 -13l69 -74q10 -14 10 -25q0 -13 -12 -26l-69 -76q-17 -17 -25 -17 q-14 0 -25 12l-76 87q-9 11 -9 22q0 13 14 26zM759 967h47q73 -32 105 -70q45 -30 82 -116h-12l35 -70q0 -17 -35 -35h-12q0 21 -46 93l-94 70v12h-128q-137 -79 -315 -245q-186 -357 -186 -373v-59h-23v-244q26 -76 104 -105l35 23h105l175 93q328 294 338 373h12v70h23v70 l70 152v11h-23q0 17 70 70h23q18 0 47 -46v-93h-24v-94q-56 -58 -81 -210q-12 0 -12 -11v-117l35 -81h12v-59q77 -145 140 -163v-12h35q26 0 46 12q23 -12 35 -12v-23q0 -16 -70 -35v-11h-46q0 20 -117 58q-39 19 -58 58q-40 70 -58 93q0 63 -82 164h-12q0 -18 -175 -187 q-35 0 -35 -35q-204 -163 -396 -163q-132 0 -175 105q-12 0 -58 93v233l23 35v82q27 0 35 46q60 218 350 513q28 0 128 94q47 0 47 23h116v23z" />
<glyph unicode="&#xe5;" d="M887 1489q0 -42 29 -71t71 -29t71 29t29 71q0 40 -29.5 69.5t-70.5 29.5t-70.5 -29.5t-29.5 -69.5zM811 1489q0 75 51 126t125 51q76 0 127.5 -51.5t51.5 -125.5q0 -75 -51.5 -126.5t-127.5 -51.5q-74 0 -125 51.5t-51 126.5zM759 967h47q73 -32 105 -70q45 -30 82 -116 h-12l35 -70q0 -17 -35 -35h-12q0 21 -46 93l-94 70v12h-128q-137 -79 -315 -245q-186 -357 -186 -373v-59h-23v-244q26 -76 104 -105l35 23h105l175 93q328 294 338 373h12v70h23v70l70 152v11h-23q0 17 70 70h23q18 0 47 -46v-93h-24v-94q-56 -58 -81 -210q-12 0 -12 -11 v-117l35 -81h12v-59q77 -145 140 -163v-12h35q26 0 46 12q23 -12 35 -12v-23q0 -16 -70 -35v-11h-46q0 20 -117 58q-39 19 -58 58q-40 70 -58 93q0 63 -82 164h-12q0 -18 -175 -187q-35 0 -35 -35q-204 -163 -396 -163q-132 0 -175 105q-12 0 -58 93v233l23 35v82 q27 0 35 46q60 218 350 513q28 0 128 94q47 0 47 23h116v23z" />
<glyph unicode="&#xe7;" horiz-adv-x="1294" d="M193 -603q85 -52 152 -52q66 0 94.5 21.5t28.5 66.5t-49 64q-40 16 -102 16q-16 0 -34 -2l48 176h63l-37 -104q32 4 62 5q86 0 134 -40.5t48 -113.5q0 -76 -58.5 -120.5t-160.5 -44.5q-109 0 -189 32v96zM689 816h140q82 -34 105 -94l12 -23v-58l-23 -140h-24v105l24 35 v11h-24v-23h-23q0 82 -70 82v11h-117q0 -39 -116 -93q0 -26 -47 -47q-27 0 -116 -116q-27 0 -35 -47q-164 -175 -187 -303q-11 0 -11 -11v-140q67 -164 186 -164l175 -34q105 23 151 23h59l35 23h105l35 23h93v24h81q59 23 59 46h58v-11q-7 -38 -82 -70q-18 -26 -93 -47v-11 h-70v-24h-58l-35 -23h-117v-23h-93v-24h-303v24h-70q0 25 -93 46q0 26 -47 35q-41 39 -58 105h-12v82l-23 35v93q23 34 47 163q23 0 23 12v35q21 0 117 140q26 0 46 35q0 32 70 104q0 28 70 59q3 15 140 105q0 15 116 70z" />
<glyph unicode="&#xe8;" horiz-adv-x="1632" d="M1325 1311h-69l-330 202q-31 20 -46.5 40t-15.5 42q0 31 20.5 51t53.5 20q20 0 40.5 -12t55.5 -47zM1226 1177h23l35 -23h105q0 -27 70 -35q62 -58 93 -152v-93h-23v-70q-31 -77 -93 -128q0 -30 -47 -47q0 -30 -47 -47q-4 -52 -140 -116q-81 -89 -303 -175q-43 0 -70 -23 h-11q-163 31 -163 151q-12 0 -12 12v23q23 0 23 24h23q50 -70 105 -94h47l35 24h70q0 26 47 35q86 63 279 174q19 67 117 140q26 0 35 47h12v70h23v58q-44 128 -117 128l-35 24h-93q-31 -24 -198 -47q0 -23 -23 -23h-70q0 -18 -94 -58v-12h-70q0 -27 -46 -47 q-175 -99 -420 -373q0 -32 -46 -93q-44 -140 -70 -140v-70l-24 -35v-35h24v-140q51 0 70 -70q20 0 81 -70q29 -27 210 -93h501v23h175l35 24h93v23h70v-23q-23 0 -23 -24h-70v-23h-93q0 -33 -105 -46q-148 -31 -175 -47h-466q-59 43 -164 58q-114 64 -198 198h-11v70 q-27 0 -35 47h-12v186q23 34 47 164q23 0 81 116q15 0 47 70q24 56 81 105q0 42 140 128q0 43 47 59q163 99 163 116q61 12 117 58q46 0 46 24h70v23h59l128 47h140v23z" />
<glyph unicode="&#xe9;" horiz-adv-x="1632" d="M1547 1608q35 35 55.5 47t40.5 12q33 0 53.5 -20t20.5 -51q0 -22 -15.5 -42t-46.5 -40l-330 -203h-69zM1226 1177h23l35 -23h105q0 -27 70 -35q62 -58 93 -152v-93h-23v-70q-31 -77 -93 -128q0 -30 -47 -47q0 -30 -47 -47q-4 -52 -140 -116q-81 -89 -303 -175 q-43 0 -70 -23h-11q-163 31 -163 151q-12 0 -12 12v23q23 0 23 24h23q50 -70 105 -94h47l35 24h70q0 26 47 35q86 63 279 174q19 67 117 140q26 0 35 47h12v70h23v58q-44 128 -117 128l-35 24h-93q-31 -24 -198 -47q0 -23 -23 -23h-70q0 -18 -94 -58v-12h-70q0 -27 -46 -47 q-175 -99 -420 -373q0 -32 -46 -93q-44 -140 -70 -140v-70l-24 -35v-35h24v-140q51 0 70 -70q20 0 81 -70q29 -27 210 -93h501v23h175l35 24h93v23h70v-23q-23 0 -23 -24h-70v-23h-93q0 -33 -105 -46q-148 -31 -175 -47h-466q-59 43 -164 58q-114 64 -198 198h-11v70 q-27 0 -35 47h-12v186q23 34 47 164q23 0 81 116q15 0 47 70q24 56 81 105q0 42 140 128q0 43 47 59q163 99 163 116q61 12 117 58q46 0 46 24h70v23h59l128 47h140v23z" />
<glyph unicode="&#xea;" horiz-adv-x="1632" d="M1000 1311l232 355h118l232 -355h-58l-233 216l-233 -216h-58zM1226 1177h23l35 -23h105q0 -27 70 -35q62 -58 93 -152v-93h-23v-70q-31 -77 -93 -128q0 -30 -47 -47q0 -30 -47 -47q-4 -52 -140 -116q-81 -89 -303 -175q-43 0 -70 -23h-11q-163 31 -163 151q-12 0 -12 12 v23q23 0 23 24h23q50 -70 105 -94h47l35 24h70q0 26 47 35q86 63 279 174q19 67 117 140q26 0 35 47h12v70h23v58q-44 128 -117 128l-35 24h-93q-31 -24 -198 -47q0 -23 -23 -23h-70q0 -18 -94 -58v-12h-70q0 -27 -46 -47q-175 -99 -420 -373q0 -32 -46 -93 q-44 -140 -70 -140v-70l-24 -35v-35h24v-140q51 0 70 -70q20 0 81 -70q29 -27 210 -93h501v23h175l35 24h93v23h70v-23q-23 0 -23 -24h-70v-23h-93q0 -33 -105 -46q-148 -31 -175 -47h-466q-59 43 -164 58q-114 64 -198 198h-11v70q-27 0 -35 47h-12v186q23 34 47 164 q23 0 81 116q15 0 47 70q24 56 81 105q0 42 140 128q0 43 47 59q163 99 163 116q61 12 117 58q46 0 46 24h70v23h59l128 47h140v23z" />
<glyph unicode="&#xeb;" horiz-adv-x="1632" d="M1062 1458l71 72q13 12 25 12q11 0 27 -14l69 -73q10 -14 10 -25q0 -13 -12 -27l-69 -75q-17 -17 -25 -17q-14 0 -25 12l-76 86q-9 12 -9 23q0 13 14 26zM1427 1458l71 72q13 12 25 12q11 0 27 -13l69 -74q10 -14 10 -25q0 -13 -12 -26l-69 -76q-17 -17 -25 -17 q-14 0 -25 12l-76 87q-9 11 -9 22q0 13 14 26zM1226 1177h23l35 -23h105q0 -27 70 -35q62 -58 93 -152v-93h-23v-70q-31 -77 -93 -128q0 -30 -47 -47q0 -30 -47 -47q-4 -52 -140 -116q-81 -89 -303 -175q-43 0 -70 -23h-11q-163 31 -163 151q-12 0 -12 12v23q23 0 23 24h23 q50 -70 105 -94h47l35 24h70q0 26 47 35q86 63 279 174q19 67 117 140q26 0 35 47h12v70h23v58q-44 128 -117 128l-35 24h-93q-31 -24 -198 -47q0 -23 -23 -23h-70q0 -18 -94 -58v-12h-70q0 -27 -46 -47q-175 -99 -420 -373q0 -32 -46 -93q-44 -140 -70 -140v-70l-24 -35 v-35h24v-140q51 0 70 -70q20 0 81 -70q29 -27 210 -93h501v23h175l35 24h93v23h70v-23q-23 0 -23 -24h-70v-23h-93q0 -33 -105 -46q-148 -31 -175 -47h-466q-59 43 -164 58q-114 64 -198 198h-11v70q-27 0 -35 47h-12v186q23 34 47 164q23 0 81 116q15 0 47 70q24 56 81 105 q0 42 140 128q0 43 47 59q163 99 163 116q61 12 117 58q46 0 46 24h70v23h59l128 47h140v23z" />
<glyph unicode="&#xec;" horiz-adv-x="653" d="M597 1311h-69l-330 202q-31 20 -46.5 40t-15.5 42q0 31 20.5 51t53.5 20q20 0 40.5 -12t55.5 -47zM456 1131h70q0 -12 47 -94v-93h-47l-93 117v46q4 24 23 24zM433 711h47v-58l23 -35v-24q-34 -50 -58 -139q-72 -123 -94 -210q-16 -24 -35 -24v-69l-69 -152v-58h-24v-70 h12l70 81h11q0 -26 12 -46l-151 -198h-70q0 23 -47 23v93q32 0 70 187q27 0 35 70q12 0 12 11v59h23v69q26 0 35 47l93 210q79 143 105 233z" />
<glyph unicode="&#xed;" horiz-adv-x="653" d="M819 1608q35 35 55.5 47t40.5 12q33 0 53.5 -20t20.5 -51q0 -22 -15.5 -42t-46.5 -40l-330 -203h-69zM456 1131h70q0 -12 47 -94v-93h-47l-93 117v46q4 24 23 24zM433 711h47v-58l23 -35v-24q-34 -50 -58 -139q-72 -123 -94 -210q-16 -24 -35 -24v-69l-69 -152v-58h-24 v-70h12l70 81h11q0 -26 12 -46l-151 -198h-70q0 23 -47 23v93q32 0 70 187q27 0 35 70q12 0 12 11v59h23v69q26 0 35 47l93 210q79 143 105 233z" />
<glyph unicode="&#xee;" horiz-adv-x="653" d="M271 1311l232 355h118l232 -355h-58l-233 216l-233 -216h-58zM456 1131h70q0 -12 47 -94v-93h-47l-93 117v46q4 24 23 24zM433 711h47v-58l23 -35v-24q-34 -50 -58 -139q-72 -123 -94 -210q-16 -24 -35 -24v-69l-69 -152v-58h-24v-70h12l70 81h11q0 -26 12 -46l-151 -198 h-70q0 23 -47 23v93q32 0 70 187q27 0 35 70q12 0 12 11v59h23v69q26 0 35 47l93 210q79 143 105 233z" />
<glyph unicode="&#xef;" horiz-adv-x="653" d="M333 1458l71 72q13 12 25 12q11 0 27 -14l69 -73q10 -14 10 -25q0 -13 -12 -27l-69 -75q-17 -17 -25 -17q-14 0 -25 12l-76 86q-9 12 -9 23q0 13 14 26zM698 1458l71 72q13 12 25 12q11 0 27 -13l69 -74q10 -14 10 -25q0 -13 -12 -26l-69 -76q-17 -17 -25 -17 q-14 0 -25 12l-76 87q-9 11 -9 22q0 13 14 26zM456 1131h70q0 -12 47 -94v-93h-47l-93 117v46q4 24 23 24zM433 711h47v-58l23 -35v-24q-34 -50 -58 -139q-72 -123 -94 -210q-16 -24 -35 -24v-69l-69 -152v-58h-24v-70h12l70 81h11q0 -26 12 -46l-151 -198h-70q0 23 -47 23 v93q32 0 70 187q27 0 35 70q12 0 12 11v59h23v69q26 0 35 47l93 210q79 143 105 233z" />
<glyph unicode="&#xf1;" horiz-adv-x="1317" d="M1519 1782q-20 -103 -68.5 -154t-126.5 -51h-4q-50 0 -113 23q-66 24 -114 24q-39 0 -60.5 -20.5t-33.5 -71.5h-54q19 106 68 158.5t129 52.5q46 -1 113 -24q64 -23 112 -23h4q36 0 58 20t36 66h54zM1039 1410h93l47 -70q0 -23 23 -23v-222q0 -50 -23 -93q0 -12 12 -12 q-12 -128 -35 -151v-58h-24v-70q-23 -70 -46 -70q0 -13 11 -35q-11 -143 -34 -163v-47q27 -187 69 -187v-11h105v-12q-7 -31 -58 -58h-93q-27 7 -105 140h-12v233l47 128v105q21 40 58 233q12 0 12 12v128l23 35v175h-46q0 -18 -94 -58q-116 -120 -116 -152q-37 0 -117 -140 q-26 0 -35 -46l-70 -94q-19 -39 -58 -58q0 -35 -47 -70q0 -33 -35 -58q-23 -54 -58 -82q-70 -107 -70 -116q-47 0 -58 -82q-45 -29 -105 -233q-47 -30 -47 -47h-46q-30 47 -47 47v46q50 142 128 304q59 112 140 349q70 94 82 94h46q24 -4 24 -24v-70h-24v-23h24l140 186 q209 244 209 257q20 0 129 117l81 34v12z" />
<glyph unicode="&#xf2;" horiz-adv-x="1259" d="M936 1311h-69l-330 202q-31 20 -46.5 40t-15.5 42q0 31 20.5 51t53.5 20q20 0 40.5 -12t55.5 -47zM806 1189h93q47 -24 70 -70v-70q128 -24 128 -70q27 -10 47 -82q14 -102 35 -128v-47q-17 -14 -35 -140q-9 -46 -35 -46v-70q-112 -171 -245 -303q-52 0 -81 -70h-70 q0 -18 -93 -58q0 -12 -47 -35h-70v-24h-233l-140 82l-70 82v116q4 23 23 23l-11 47q0 25 81 187q0 17 70 116l140 187h23v-24h24v24h-24v23q66 44 152 163q41 0 58 35q69 78 175 128q35 0 35 24zM153 221l35 -81q27 0 82 -35v-12h233q0 23 70 47h70q0 26 46 34l94 70 q136 116 233 280q0 50 47 117v210q-40 105 -59 105q-11 0 -11 23h-47q0 -26 -35 -47q-28 -7 -47 -93q-26 0 -105 -70h-35v23q62 0 152 152v58h-23v70q-47 0 -47 23h-12q-84 -116 -116 -116q-222 -214 -222 -233q0 -14 -93 -105q0 -24 -93 -117q0 -24 -70 -140 q-20 -56 -35 -151q-12 0 -12 -12zM107 186v-46q23 0 23 -24h23v24q-23 0 -23 46h-23z" />
<glyph unicode="&#xf3;" horiz-adv-x="1259" d="M1158 1608q35 35 55.5 47t40.5 12q33 0 53.5 -20t20.5 -51q0 -22 -15.5 -42t-46.5 -40l-330 -203h-69zM806 1189h93q47 -24 70 -70v-70q128 -24 128 -70q27 -10 47 -82q14 -102 35 -128v-47q-17 -14 -35 -140q-9 -46 -35 -46v-70q-112 -171 -245 -303q-52 0 -81 -70h-70 q0 -18 -93 -58q0 -12 -47 -35h-70v-24h-233l-140 82l-70 82v116q4 23 23 23l-11 47q0 25 81 187q0 17 70 116l140 187h23v-24h24v24h-24v23q66 44 152 163q41 0 58 35q69 78 175 128q35 0 35 24zM153 221l35 -81q27 0 82 -35v-12h233q0 23 70 47h70q0 26 46 34l94 70 q136 116 233 280q0 50 47 117v210q-40 105 -59 105q-11 0 -11 23h-47q0 -26 -35 -47q-28 -7 -47 -93q-26 0 -105 -70h-35v23q62 0 152 152v58h-23v70q-47 0 -47 23h-12q-84 -116 -116 -116q-222 -214 -222 -233q0 -14 -93 -105q0 -24 -93 -117q0 -24 -70 -140 q-20 -56 -35 -151q-12 0 -12 -12zM107 186v-46q23 0 23 -24h23v24q-23 0 -23 46h-23z" />
<glyph unicode="&#xf4;" horiz-adv-x="1259" d="M610 1311l232 355h118l232 -355h-58l-233 216l-233 -216h-58zM806 1189h93q47 -24 70 -70v-70q128 -24 128 -70q27 -10 47 -82q14 -102 35 -128v-47q-17 -14 -35 -140q-9 -46 -35 -46v-70q-112 -171 -245 -303q-52 0 -81 -70h-70q0 -18 -93 -58q0 -12 -47 -35h-70v-24 h-233l-140 82l-70 82v116q4 23 23 23l-11 47q0 25 81 187q0 17 70 116l140 187h23v-24h24v24h-24v23q66 44 152 163q41 0 58 35q69 78 175 128q35 0 35 24zM153 221l35 -81q27 0 82 -35v-12h233q0 23 70 47h70q0 26 46 34l94 70q136 116 233 280q0 50 47 117v210 q-40 105 -59 105q-11 0 -11 23h-47q0 -26 -35 -47q-28 -7 -47 -93q-26 0 -105 -70h-35v23q62 0 152 152v58h-23v70q-47 0 -47 23h-12q-84 -116 -116 -116q-222 -214 -222 -233q0 -14 -93 -105q0 -24 -93 -117q0 -24 -70 -140q-20 -56 -35 -151q-12 0 -12 -12zM107 186v-46 q23 0 23 -24h23v24q-23 0 -23 46h-23z" />
<glyph unicode="&#xf5;" horiz-adv-x="1259" d="M1237 1561q-20 -103 -68.5 -154t-126.5 -51h-4q-50 0 -113 23q-66 24 -114 24q-39 0 -60.5 -20.5t-33.5 -71.5h-54q19 106 68 158.5t129 52.5q46 -1 113 -24q64 -23 112 -23h4q36 0 58 20t36 66h54zM806 1189h93q47 -24 70 -70v-70q128 -24 128 -70q27 -10 47 -82 q14 -102 35 -128v-47q-17 -14 -35 -140q-9 -46 -35 -46v-70q-112 -171 -245 -303q-52 0 -81 -70h-70q0 -18 -93 -58q0 -12 -47 -35h-70v-24h-233l-140 82l-70 82v116q4 23 23 23l-11 47q0 25 81 187q0 17 70 116l140 187h23v-24h24v24h-24v23q66 44 152 163q41 0 58 35 q69 78 175 128q35 0 35 24zM153 221l35 -81q27 0 82 -35v-12h233q0 23 70 47h70q0 26 46 34l94 70q136 116 233 280q0 50 47 117v210q-40 105 -59 105q-11 0 -11 23h-47q0 -26 -35 -47q-28 -7 -47 -93q-26 0 -105 -70h-35v23q62 0 152 152v58h-23v70q-47 0 -47 23h-12 q-84 -116 -116 -116q-222 -214 -222 -233q0 -14 -93 -105q0 -24 -93 -117q0 -24 -70 -140q-20 -56 -35 -151q-12 0 -12 -12zM107 186v-46q23 0 23 -24h23v24q-23 0 -23 46h-23z" />
<glyph unicode="&#xf6;" horiz-adv-x="1259" d="M672 1458l71 72q13 12 25 12q11 0 27 -14l69 -73q10 -14 10 -25q0 -13 -12 -27l-69 -75q-17 -17 -25 -17q-14 0 -25 12l-76 86q-9 12 -9 23q0 13 14 26zM1037 1458l71 72q13 12 25 12q11 0 27 -13l69 -74q10 -14 10 -25q0 -13 -12 -26l-69 -76q-17 -17 -25 -17 q-14 0 -25 12l-76 87q-9 11 -9 22q0 13 14 26zM806 1189h93q47 -24 70 -70v-70q128 -24 128 -70q27 -10 47 -82q14 -102 35 -128v-47q-17 -14 -35 -140q-9 -46 -35 -46v-70q-112 -171 -245 -303q-52 0 -81 -70h-70q0 -18 -93 -58q0 -12 -47 -35h-70v-24h-233l-140 82l-70 82 v116q4 23 23 23l-11 47q0 25 81 187q0 17 70 116l140 187h23v-24h24v24h-24v23q66 44 152 163q41 0 58 35q69 78 175 128q35 0 35 24zM153 221l35 -81q27 0 82 -35v-12h233q0 23 70 47h70q0 26 46 34l94 70q136 116 233 280q0 50 47 117v210q-40 105 -59 105q-11 0 -11 23 h-47q0 -26 -35 -47q-28 -7 -47 -93q-26 0 -105 -70h-35v23q62 0 152 152v58h-23v70q-47 0 -47 23h-12q-84 -116 -116 -116q-222 -214 -222 -233q0 -14 -93 -105q0 -24 -93 -117q0 -24 -70 -140q-20 -56 -35 -151q-12 0 -12 -12zM107 186v-46q23 0 23 -24h23v24q-23 0 -23 46 h-23z" />
<glyph unicode="&#xf9;" horiz-adv-x="1084" d="M407 1311h-69l-330 202q-31 20 -46.5 40t-15.5 42q0 31 20.5 51t53.5 20q20 0 40.5 -12t55.5 -47zM247 1037h34l-11 -58v-152q-23 -70 -47 -70v-70h-23v-23q0 -16 -23 -186v-327q26 0 35 -46q54 -135 151 -187l35 -23h105q0 26 47 35q146 89 256 279q0 82 47 82v93 q17 15 35 140q11 0 11 12v163q-29 82 -93 82v23q4 23 23 23h70q0 -26 47 -35l35 -58h12v-23q0 -67 11 -82q-11 -63 -11 -105v-70q-18 -14 -35 -140q-12 0 -12 -11v-59q-23 0 -82 -163l-70 -93q-125 -145 -291 -210h-23l-35 23q-27 0 -47 -11q-147 35 -221 116q0 38 -70 105 v70q-24 0 -47 70v408q0 14 23 128v24q27 0 70 163q37 0 70 58q0 26 -11 47q14 58 35 58zM153 757q0 -46 -23 -46v-24h47q0 47 23 47v23h-47zM247 -82v-23q46 0 46 -24h23v24q-23 0 -23 23h-46z" />
<glyph unicode="&#xfa;" horiz-adv-x="1084" d="M629 1608q35 35 55.5 47t40.5 12q33 0 53.5 -20t20.5 -51q0 -22 -15.5 -42t-46.5 -40l-330 -203h-69zM247 1037h34l-11 -58v-152q-23 -70 -47 -70v-70h-23v-23q0 -16 -23 -186v-327q26 0 35 -46q54 -135 151 -187l35 -23h105q0 26 47 35q146 89 256 279q0 82 47 82v93 q17 15 35 140q11 0 11 12v163q-29 82 -93 82v23q4 23 23 23h70q0 -26 47 -35l35 -58h12v-23q0 -67 11 -82q-11 -63 -11 -105v-70q-18 -14 -35 -140q-12 0 -12 -11v-59q-23 0 -82 -163l-70 -93q-125 -145 -291 -210h-23l-35 23q-27 0 -47 -11q-147 35 -221 116q0 38 -70 105 v70q-24 0 -47 70v408q0 14 23 128v24q27 0 70 163q37 0 70 58q0 26 -11 47q14 58 35 58zM153 757q0 -46 -23 -46v-24h47q0 47 23 47v23h-47zM247 -82v-23q46 0 46 -24h23v24q-23 0 -23 23h-46z" />
<glyph unicode="&#xfb;" horiz-adv-x="1084" d="M81 1311l232 355h118l232 -355h-58l-233 216l-233 -216h-58zM247 1037h34l-11 -58v-152q-23 -70 -47 -70v-70h-23v-23q0 -16 -23 -186v-327q26 0 35 -46q54 -135 151 -187l35 -23h105q0 26 47 35q146 89 256 279q0 82 47 82v93q17 15 35 140q11 0 11 12v163 q-29 82 -93 82v23q4 23 23 23h70q0 -26 47 -35l35 -58h12v-23q0 -67 11 -82q-11 -63 -11 -105v-70q-18 -14 -35 -140q-12 0 -12 -11v-59q-23 0 -82 -163l-70 -93q-125 -145 -291 -210h-23l-35 23q-27 0 -47 -11q-147 35 -221 116q0 38 -70 105v70q-24 0 -47 70v408 q0 14 23 128v24q27 0 70 163q37 0 70 58q0 26 -11 47q14 58 35 58zM153 757q0 -46 -23 -46v-24h47q0 47 23 47v23h-47zM247 -82v-23q46 0 46 -24h23v24q-23 0 -23 23h-46z" />
<glyph unicode="&#xfc;" horiz-adv-x="1084" d="M143 1458l71 72q13 12 25 12q11 0 27 -14l69 -73q10 -14 10 -25q0 -13 -12 -27l-69 -75q-17 -17 -25 -17q-14 0 -25 12l-76 86q-9 12 -9 23q0 13 14 26zM508 1458l71 72q13 12 25 12q11 0 27 -13l69 -74q10 -14 10 -25q0 -13 -12 -26l-69 -76q-17 -17 -25 -17 q-14 0 -25 12l-76 87q-9 11 -9 22q0 13 14 26zM247 1037h34l-11 -58v-152q-23 -70 -47 -70v-70h-23v-23q0 -16 -23 -186v-327q26 0 35 -46q54 -135 151 -187l35 -23h105q0 26 47 35q146 89 256 279q0 82 47 82v93q17 15 35 140q11 0 11 12v163q-29 82 -93 82v23q4 23 23 23 h70q0 -26 47 -35l35 -58h12v-23q0 -67 11 -82q-11 -63 -11 -105v-70q-18 -14 -35 -140q-12 0 -12 -11v-59q-23 0 -82 -163l-70 -93q-125 -145 -291 -210h-23l-35 23q-27 0 -47 -11q-147 35 -221 116q0 38 -70 105v70q-24 0 -47 70v408q0 14 23 128v24q27 0 70 163 q37 0 70 58q0 26 -11 47q14 58 35 58zM153 757q0 -46 -23 -46v-24h47q0 47 23 47v23h-47zM247 -82v-23q46 0 46 -24h23v24q-23 0 -23 23h-46z" />
<glyph unicode="&#xfd;" horiz-adv-x="1108" d="M1288 1608q35 35 55.5 47t40.5 12q33 0 53.5 -20t20.5 -51q0 -22 -15.5 -42t-46.5 -40l-330 -203h-69zM946 1154h47q16 0 35 -35q0 -49 -82 -117q0 -26 -117 -233q0 -12 -23 -12v-70q-28 0 -93 -174v-59q-21 0 -58 -116q-31 -70 -59 -70v-70q-33 -3 -140 -268 q0 -21 -70 -129q-45 -110 -105 -116q-29 0 -58 -23h-23q0 23 -23 23v47q99 49 104 93q28 0 70 163l82 186h23v70h-11q-59 -23 -59 -46h-46q-91 52 -210 326v70q-33 0 -58 152q-12 0 -12 11v24q28 81 70 81q47 -40 58 -140q79 -160 93 -256q43 -133 94 -152h23 q152 79 152 129q34 27 58 81h12v70h23v70q20 0 58 117q97 190 175 303q23 46 70 70z" />
<glyph unicode="&#xff;" horiz-adv-x="1108" d="M803 1458l71 72q13 12 25 12q11 0 27 -14l69 -73q10 -14 10 -25q0 -13 -12 -27l-69 -75q-17 -17 -25 -17q-14 0 -25 12l-76 86q-9 12 -9 23q0 13 14 26zM1168 1458l71 72q13 12 25 12q11 0 27 -13l69 -74q10 -14 10 -25q0 -13 -12 -26l-69 -76q-17 -17 -25 -17 q-14 0 -25 12l-76 87q-9 11 -9 22q0 13 14 26zM946 1154h47q16 0 35 -35q0 -49 -82 -117q0 -26 -117 -233q0 -12 -23 -12v-70q-28 0 -93 -174v-59q-21 0 -58 -116q-31 -70 -59 -70v-70q-33 -3 -140 -268q0 -21 -70 -129q-45 -110 -105 -116q-29 0 -58 -23h-23q0 23 -23 23 v47q99 49 104 93q28 0 70 163l82 186h23v70h-11q-59 -23 -59 -46h-46q-91 52 -210 326v70q-33 0 -58 152q-12 0 -12 11v24q28 81 70 81q47 -40 58 -140q79 -160 93 -256q43 -133 94 -152h23q152 79 152 129q34 27 58 81h12v70h23v70q20 0 58 117q97 190 175 303q23 46 70 70 z" />
<glyph unicode="&#x152;" horiz-adv-x="3229" d="M3114 1620h23l12 -47q-93 -81 -187 -81q-15 -16 -151 -82h-70v-23h-70q0 -30 -58 -35q0 -28 -93 -47q-39 -29 -117 -46q0 -18 -105 -70q0 -17 -93 -59h-70q0 -38 -23 -93h-24v47h-23q0 -29 -23 -59v-81q-24 0 -24 -12l12 -23q-12 -51 -58 -70q0 -42 -82 -198h-12v-70h12 q116 74 396 198q131 58 210 70l82 35h105v-23q-42 0 -117 -47q-105 -23 -361 -163q0 -16 -163 -70q0 -35 -140 -93h-24l-35 23h-35q0 -74 -116 -303q0 -24 -23 -24v-69h-24v-70l-23 -35v-117q23 -27 23 -82q82 0 93 -11q80 11 129 11h70q48 32 128 59v11h58q165 70 198 70 q0 30 117 82q22 36 93 70q0 31 117 140l46 116h24v-81q-31 -105 -198 -280q-35 0 -70 -47q-25 -32 -129 -81q-65 -35 -279 -117v-11h-59l-105 -47h-209q0 27 -70 35l-70 81v70q0 48 -12 94q12 114 58 221q70 175 94 175v70q26 0 35 47q8 46 34 46v70q35 3 117 233 q47 56 58 117q35 20 70 116q24 47 35 47h70q5 82 70 82q24 42 245 163l175 70q116 38 116 58h59l221 93h70q0 24 70 47zM864 1329h187q165 -59 186 -117q37 -12 82 -117h12v-70h23v-93q23 0 23 -11q0 -36 -11 -82q11 -61 11 -117l-23 -35v-128h-23v-93q-31 -93 -164 -292 q-39 -110 -291 -314q-105 -47 -105 -70h-82l-34 -23h-70q-49 0 -94 -12q-349 71 -349 198q-82 97 -82 233q12 77 12 152v58q36 95 93 175q0 39 47 105q133 320 443 489h69v24h210q0 -13 70 -94v-35h-11l-47 35h-58v24h-82q-233 -108 -233 -117q-28 0 -58 -46q-17 0 -94 -117 q-44 0 -116 -198q-18 -3 -128 -245h-12v-140l-23 -35v-47q98 -249 174 -268q105 -13 105 -46h245q253 119 268 186q40 7 187 233q46 57 70 140h23v70h23v117l24 35v186q0 42 11 105q-8 70 -35 70v70q-26 0 -81 105q-105 55 -105 82h-35q-51 0 -93 23l-24 -12q-20 12 -46 12 q-32 -20 -129 -47q0 12 -11 12q0 51 140 70q0 12 11 12z" />
<glyph unicode="&#x153;" horiz-adv-x="2891" d="M2485 1177h23l35 -23h105q0 -27 70 -35q62 -58 93 -152v-93h-23v-70q-31 -77 -93 -128q0 -30 -47 -47q0 -30 -47 -47q-4 -52 -140 -116q-81 -89 -303 -175q-43 0 -70 -23h-11q-163 31 -163 151q-12 0 -12 12v23q23 0 23 24h23q50 -70 105 -94h47l35 24h70q0 26 47 35 q86 63 279 174q19 67 117 140q26 0 35 47h12v70h23v58q-44 128 -117 128l-35 24h-93q-31 -24 -198 -47q0 -23 -23 -23h-70q0 -18 -94 -58v-12h-70q0 -27 -46 -47q-175 -99 -420 -373q0 -32 -46 -93q-44 -140 -70 -140v-70l-24 -35v-35h24v-140q51 0 70 -70q20 0 81 -70 q29 -27 210 -93h501v23h175l35 24h93v23h70v-23q-23 0 -23 -24h-70v-23h-93q0 -33 -105 -46q-148 -31 -175 -47h-466q-59 43 -164 58q-114 64 -198 198h-11v70q-27 0 -35 47h-12v186q23 34 47 164q23 0 81 116q15 0 47 70q24 56 81 105q0 42 140 128q0 43 47 59 q163 99 163 116q61 12 117 58q46 0 46 24h70v23h59l128 47h140v23zM806 1189h93q47 -24 70 -70v-70q128 -24 128 -70q27 -10 47 -82q14 -102 35 -128v-47q-17 -14 -35 -140q-9 -46 -35 -46v-70q-112 -171 -245 -303q-52 0 -81 -70h-70q0 -18 -93 -58q0 -12 -47 -35h-70v-24 h-233l-140 82l-70 82v116q4 23 23 23l-11 47q0 25 81 187q0 17 70 116l140 187h23v-24h24v24h-24v23q66 44 152 163q41 0 58 35q69 78 175 128q35 0 35 24zM153 221l35 -81q27 0 82 -35v-12h233q0 23 70 47h70q0 26 46 34l94 70q136 116 233 280q0 50 47 117v210 q-40 105 -59 105q-11 0 -11 23h-47q0 -26 -35 -47q-28 -7 -47 -93q-26 0 -105 -70h-35v23q62 0 152 152v58h-23v70q-47 0 -47 23h-12q-84 -116 -116 -116q-222 -214 -222 -233q0 -14 -93 -105q0 -24 -93 -117q0 -24 -70 -140q-20 -56 -35 -151q-12 0 -12 -12zM107 186v-46 q23 0 23 -24h23v24q-23 0 -23 46h-23z" />
<glyph unicode="&#x178;" horiz-adv-x="1434" d="M1132 1749l71 72q13 12 25 12q11 0 27 -14l69 -73q10 -14 10 -25q0 -13 -12 -27l-69 -75q-17 -17 -25 -17q-14 0 -25 12l-76 86q-9 12 -9 23q0 13 14 26zM1497 1749l71 72q13 12 25 12q11 0 27 -13l69 -74q10 -14 10 -25q0 -13 -12 -26l-69 -76q-17 -17 -25 -17 q-14 0 -25 12l-76 87q-9 11 -9 22q0 13 14 26zM1272 1480h82v-23h-35v-24h23v-46q-98 -59 -175 -210q-128 -163 -268 -443q-108 -221 -163 -303q0 -18 -128 -303h-12v-70q-27 0 -70 -163l-116 -292v-58h-24v-70q-24 -83 -233 -315h-23v35q82 109 128 210h12v70h23v93h23v94 h24v70h23v69q26 0 35 47h12v70q23 70 46 70v70h24v70q26 0 35 46q35 56 70 187q11 0 11 12v58h-11l-105 -47h-12q-123 0 -245 175q0 26 -46 82q0 60 -35 93h-12v93h-23v59l-24 35v104l-23 35v210h47q0 -20 70 -163v-105q20 -26 35 -116q35 -129 58 -129v-70q26 0 35 -46 q0 -56 128 -140q23 0 23 -23l59 11q22 -11 35 -11q0 16 70 35q0 31 69 46q100 184 117 245q26 0 47 93q26 0 35 47q25 65 128 198q163 236 163 245q0 23 93 81v12zM456 -82q0 -47 -23 -47v-46h23q0 46 24 46v47h-24z" />
<glyph unicode="&#x2c6;" horiz-adv-x="722" d="M60 1079l232 355h118l232 -355h-58l-233 216l-233 -216h-58z" />
<glyph unicode="&#x2da;" horiz-adv-x="495" d="M136 1257q0 -42 29 -71t71 -29t71 29t29 71q0 40 -29.5 69.5t-70.5 29.5t-70.5 -29.5t-29.5 -69.5zM60 1257q0 75 51 126t125 51q76 0 127.5 -51.5t51.5 -125.5q0 -75 -51.5 -126.5t-127.5 -51.5q-74 0 -125 51.5t-51 126.5z" />
<glyph unicode="&#x2dc;" horiz-adv-x="714" d="M634 1382q-20 -103 -68.5 -154t-126.5 -51h-4q-50 0 -113 23q-66 24 -114 24q-39 0 -60.5 -20.5t-33.5 -71.5h-54q19 106 68 158.5t129 52.5q46 -1 113 -24q64 -23 112 -23h4q36 0 58 20t36 66h54z" />
<glyph unicode="&#x2000;" horiz-adv-x="1049" />
<glyph unicode="&#x2001;" horiz-adv-x="2098" />
<glyph unicode="&#x2002;" horiz-adv-x="1049" />
<glyph unicode="&#x2003;" horiz-adv-x="2098" />
<glyph unicode="&#x2004;" horiz-adv-x="699" />
<glyph unicode="&#x2005;" horiz-adv-x="524" />
<glyph unicode="&#x2006;" horiz-adv-x="349" />
<glyph unicode="&#x2007;" horiz-adv-x="349" />
<glyph unicode="&#x2008;" horiz-adv-x="262" />
<glyph unicode="&#x2009;" horiz-adv-x="419" />
<glyph unicode="&#x200a;" horiz-adv-x="116" />
<glyph unicode="&#x2010;" horiz-adv-x="1073" d="M118 513l105 -35q39 0 58 11q64 -11 105 -11h152l35 23h420v-47q-24 0 -24 -23h-81l-35 -23h-175l-35 -24h-128l-35 -23l-35 23h-12v-23h-117v23h-139v24h-35l-59 -12q-23 43 -23 93z" />
<glyph unicode="&#x2011;" horiz-adv-x="1073" d="M118 513l105 -35q39 0 58 11q64 -11 105 -11h152l35 23h420v-47q-24 0 -24 -23h-81l-35 -23h-175l-35 -24h-128l-35 -23l-35 23h-12v-23h-117v23h-139v24h-35l-59 -12q-23 43 -23 93z" />
<glyph unicode="&#x2012;" horiz-adv-x="1073" d="M118 513l105 -35q39 0 58 11q64 -11 105 -11h152l35 23h420v-47q-24 0 -24 -23h-81l-35 -23h-175l-35 -24h-128l-35 -23l-35 23h-12v-23h-117v23h-139v24h-35l-59 -12q-23 43 -23 93z" />
<glyph unicode="&#x2013;" horiz-adv-x="1024" d="M60 361v152h884v-152h-884z" />
<glyph unicode="&#x2014;" horiz-adv-x="2048" d="M60 361v152h1908v-152h-1908z" />
<glyph unicode="&#x2018;" horiz-adv-x="583" d="M154 1100h-47q0 11 -47 93v23l24 35v105q70 143 70 163q11 0 116 117q140 41 140 70h47q0 -23 46 -23v-70q-28 0 -105 -47q-61 0 -151 -140q-16 -93 -47 -93v-105q0 -32 -46 -128z" />
<glyph unicode="&#x2019;" horiz-adv-x="583" d="M409 1706h47q0 -11 47 -93v-23l-24 -35v-105q-70 -143 -70 -163q-11 0 -116 -117q-140 -41 -140 -70h-47q0 23 -46 23v70q28 0 105 47q61 0 151 140q16 93 47 93v105q0 32 46 128z" />
<glyph unicode="&#x201c;" horiz-adv-x="1203" d="M154 1100h-47q0 11 -47 93v23l24 35v105q70 143 70 163q11 0 116 117q140 41 140 70h47q0 -23 46 -23v-70q-28 0 -105 -47q-61 0 -151 -140q-16 -93 -47 -93v-105q0 -32 -46 -128zM774 1100h-47q0 11 -47 93v23l24 35v105q70 143 70 163q11 0 116 117q140 41 140 70h47 q0 -23 46 -23v-70q-28 0 -105 -47q-61 0 -151 -140q-16 -93 -47 -93v-105q0 -32 -46 -128z" />
<glyph unicode="&#x201d;" horiz-adv-x="1203" d="M409 1706h47q0 -11 47 -93v-23l-24 -35v-105q-70 -143 -70 -163q-11 0 -116 -117q-140 -41 -140 -70h-47q0 23 -46 23v70q28 0 105 47q61 0 151 140q16 93 47 93v105q0 32 46 128zM1029 1706h47q0 -11 47 -93v-23l-24 -35v-105q-70 -143 -70 -163q-11 0 -116 -117 q-140 -41 -140 -70h-47q0 23 -46 23v70q28 0 105 47q61 0 151 140q16 93 47 93v105q0 32 46 128z" />
<glyph unicode="&#x2026;" horiz-adv-x="1023" d="M208 182l41 -24q-13 -23 43 -65v-95l-12 -20q-23 14 -65 -43q-62 10 -74 -11l-81 46q9 15 19 125l23 40q23 -13 65 44zM534 182l40 -24q-13 -23 43 -65v-95l-11 -20q-24 14 -66 -43q-62 10 -74 -11l-81 46q9 15 19 125l23 40q23 -13 66 44zM859 182l40 -24 q-13 -23 44 -65l-1 -95l-11 -20q-24 14 -66 -43q-62 10 -74 -11l-81 46q9 15 19 125l23 40q23 -13 66 44z" />
<glyph unicode="&#x202f;" horiz-adv-x="419" />
<glyph unicode="&#x2039;" horiz-adv-x="1469" d="M946 1247h82l-12 -58v-35q-26 0 -35 -47q-136 -140 -175 -140q-12 -30 -117 -81q-83 -100 -163 -117q0 -30 -46 -47q-117 -58 -117 -81q-122 -70 -140 -70v-23h187l35 -24h81v-23h163v-23h140l35 -24h129v-23h93q97 -65 245 -93l58 -47l-23 -35q-138 0 -338 82h-129 l-128 46h-163q-126 24 -163 47h-198l-35 23h-59q0 35 -93 47v93q29 0 105 47q78 66 151 93q27 56 164 117q0 13 93 58q0 30 47 47l116 93q102 61 187 175q23 0 23 23z" />
<glyph unicode="&#x203a;" horiz-adv-x="1620" d="M107 1364q39 -34 221 -105v-12h70q15 -17 140 -35q0 -11 12 -11h58v-24h70q26 -23 233 -58q0 -12 12 -12h198l128 -46h128q12 0 12 -12l23 12h35q93 -43 93 -70q-1 -25 -70 -58q-32 -45 -116 -94q-233 -179 -233 -198q-56 0 -105 -70q-105 -56 -105 -93q-38 -41 -105 -58 q-90 -67 -198 -117v-12h-70q0 -26 -47 -35l-221 -116q-58 15 -58 35v23q30 58 139 105q94 32 94 58h58q48 31 128 59q19 35 187 128q20 0 105 93q31 0 221 163q147 95 187 152v12h-164l-35 23h-58v23h-151q-16 0 -129 23h-70v24h-93q-80 44 -256 70h-47q0 27 -163 70 q0 11 -105 128q0 17 47 35zM118 1317v-23q24 0 24 -23h46v23q-46 0 -46 23h-24z" />
<glyph unicode="&#x205f;" horiz-adv-x="524" />
<glyph unicode="&#x20ac;" horiz-adv-x="1504" d="M946 863h12q48 0 128 -70v-24q0 -16 -35 -35h-12q-23 64 -23 82h-47q0 -30 -58 -35q-15 -53 -198 -152q0 -26 -47 -35q-35 -27 -58 -81h-12v-23h59l34 23h24q28 -23 46 -23v-24q-1 -25 -70 -58v-12h-58q-88 -36 -128 -70q-37 0 -93 -70h-24v-70h-23v-93q6 0 47 12 l116 -12q4 24 24 24l35 -24l35 24h93q26 -24 70 -24v-46h-152l-35 -24h-175q-16 0 -35 -35v-23q34 -69 94 -117v-11h70v-24h11q42 0 105 -11q21 11 47 11v-23h198l35 23h93q0 35 152 70l221 105l12 -23v-12q-28 0 -187 -116q-270 -117 -303 -117q-54 0 -81 -23h-187 q-31 23 -198 47q0 16 -58 35q-94 43 -140 221h-58l-35 -23h-70q0 58 -47 58v35q23 0 23 23h70v-23q23 0 117 23v12q0 26 -12 47q16 65 35 93v23l-23 35v23q0 43 140 94q50 53 81 116q310 315 443 315q0 12 12 12z" />
<glyph unicode="&#x2122;" horiz-adv-x="1259" d="M620 746h46q0 -24 23 -24v-23q-26 0 -34 -47h-12v-35q0 -16 35 -35h11q0 31 129 117l58 -12v-93q23 -29 23 -58h24q0 26 46 46h70v-23h47q0 26 46 35v12h47v-47q-19 0 -58 -70h-12v-116q51 0 70 -47v-47q-18 0 -47 -23h-23q0 19 -70 58q0 11 -23 82h-47q0 -26 -35 -47 l-58 -35v-11h-47q0 19 -70 58v12q24 46 24 81l-12 24q12 20 12 46v12h-12q-74 -33 -82 -105q-16 0 -34 -58h-12v-94q-23 0 -23 -23h-70q0 23 -24 23v82q0 51 24 93q0 12 -12 12l12 58v82l46 58v58q24 0 24 24zM316 676h140q0 -24 24 -24v-23q0 -26 -140 -47v-69l-24 -35 v-175q0 -18 -46 -47h-23q0 17 -47 47v70q0 26 12 46q-12 21 -12 47q23 0 47 58v35h-59l-35 -23h-70q-23 0 -23 23v58q158 15 256 59z" />
<glyph unicode="&#xe000;" horiz-adv-x="860" d="M0 860h860v-860h-860v860z" />
<glyph unicode="&#xfb01;" horiz-adv-x="2005" d="M1808 1131h70q0 -12 47 -94v-93h-47l-93 117v46q4 24 23 24zM1785 711h47v-58l23 -35v-24q-34 -50 -58 -139q-72 -123 -94 -210q-16 -24 -35 -24v-69l-69 -152v-58h-24v-70h12l70 81h11q0 -26 12 -46l-151 -198h-70q0 23 -47 23v93q32 0 70 187q27 0 35 70q12 0 12 11v59 h23v69q26 0 35 47l93 210q79 143 105 233zM853 1480h70l35 -23h58q0 -27 70 -35q39 -20 58 -58q50 0 93 -129q9 0 35 -58v-93h-46q-16 70 -47 70v70q-26 0 -35 46q-85 70 -128 70v24h-70l-35 23l-35 -23h-70q0 -14 -93 -140q0 -16 -35 -70h-12v-70l-46 -82v-93 q0 -14 -24 -128v-117h-23v-12q0 -26 12 -46l-12 -24q23 -42 23 -104h140q14 0 128 23h70l82 47h23v-47q-20 0 -116 -70q-47 0 -47 -23h-93v-24h-105q-29 -23 -58 -23v-233h23v-35q23 -82 23 -93v-35q-23 -29 -23 -47h-70q-73 117 -93 117v70h23v-47h47v35l-24 35v70 q0 59 -23 140q12 0 12 11l-24 12h-361q0 26 -47 35q0 35 -23 35v23q4 24 23 24h94l35 -24h93l35 24h35q69 -12 105 -12q0 12 23 12v11l-23 35v233l23 35v82q23 0 23 12q0 11 -11 11q18 223 186 490q54 50 152 93z" />
<glyph unicode="&#xfb02;" horiz-adv-x="2028" d="M1785 1247h93v-58l59 -152h11v-70q-23 -61 -93 -93v-93h-23v-70l-24 -35v-82h-23v-70q-23 -70 -47 -70v-35q-37 -198 -70 -198v-70l-46 -105v-58h-23v-93q-27 0 -35 -70q-12 0 -12 -12v-58h-23v-82q0 -15 58 -58q46 23 81 23v-46q-11 0 -93 -47h-93q-50 74 -58 128 q-12 0 -12 12v93q23 70 47 70v70l46 105v58h24v70h23v70h23v117h24v70l69 151v58h24v94q27 0 35 70q16 79 35 105v151l23 35v175zM1599 233v-35h23q0 23 23 23v47h-12q-16 0 -34 -35zM853 1480h70l35 -23h58q0 -27 70 -35q39 -20 58 -58q50 0 93 -129q9 0 35 -58v-93h-46 q-16 70 -47 70v70q-26 0 -35 46q-85 70 -128 70v24h-70l-35 23l-35 -23h-70q0 -14 -93 -140q0 -16 -35 -70h-12v-70l-46 -82v-93q0 -14 -24 -128v-117h-23v-12q0 -26 12 -46l-12 -24q23 -42 23 -104h140q14 0 128 23h70l82 47h23v-47q-20 0 -116 -70q-47 0 -47 -23h-93v-24 h-105q-29 -23 -58 -23v-233h23v-35q23 -82 23 -93v-35q-23 -29 -23 -47h-70q-73 117 -93 117v70h23v-47h47v35l-24 35v70q0 59 -23 140q12 0 12 11l-24 12h-361q0 26 -47 35q0 35 -23 35v23q4 24 23 24h94l35 -24h93l35 24h35q69 -12 105 -12q0 12 23 12v11l-23 35v233 l23 35v82q23 0 23 12q0 11 -11 11q18 223 186 490q54 50 152 93z" />
<glyph unicode="&#xfb03;" horiz-adv-x="3357" d="M3160 1131h70q0 -12 47 -94v-93h-47l-93 117v46q4 24 23 24zM3137 711h47v-58l23 -35v-24q-34 -50 -58 -139q-72 -123 -94 -210q-16 -24 -35 -24v-69l-69 -152v-58h-24v-70h12l70 81h11q0 -26 12 -46l-151 -198h-70q0 23 -47 23v93q32 0 70 187q27 0 35 70q12 0 12 11v59 h23v69q26 0 35 47l93 210q79 143 105 233zM2205 1480h70l35 -23h58q0 -27 70 -35q39 -20 58 -58q50 0 93 -129q9 0 35 -58v-93h-46q-16 70 -47 70v70q-26 0 -35 46q-85 70 -128 70v24h-70l-35 23l-35 -23h-70q0 -14 -93 -140q0 -16 -35 -70h-12v-70l-46 -82v-93 q0 -14 -24 -128v-117h-23v-12q0 -26 12 -46l-12 -24q23 -42 23 -104h140q14 0 128 23h70l82 47h23v-47q-20 0 -116 -70q-47 0 -47 -23h-93v-24h-105q-29 -23 -58 -23v-233h23v-35q23 -82 23 -93v-35q-23 -29 -23 -47h-70q-73 117 -93 117v70h23v-47h47v35l-24 35v70 q0 59 -23 140q12 0 12 11l-24 12h-361q0 26 -47 35q0 35 -23 35v23q4 24 23 24h94l35 -24h93l35 24h35q69 -12 105 -12q0 12 23 12v11l-23 35v233l23 35v82q23 0 23 12q0 11 -11 11q18 223 186 490q54 50 152 93zM853 1480h70l35 -23h58q0 -27 70 -35q39 -20 58 -58 q50 0 93 -129q9 0 35 -58v-93h-46q-16 70 -47 70v70q-26 0 -35 46q-85 70 -128 70v24h-70l-35 23l-35 -23h-70q0 -14 -93 -140q0 -16 -35 -70h-12v-70l-46 -82v-93q0 -14 -24 -128v-117h-23v-12q0 -26 12 -46l-12 -24q23 -42 23 -104h140q14 0 128 23h70l82 47h23v-47 q-20 0 -116 -70q-47 0 -47 -23h-93v-24h-105q-29 -23 -58 -23v-233h23v-35q23 -82 23 -93v-35q-23 -29 -23 -47h-70q-73 117 -93 117v70h23v-47h47v35l-24 35v70q0 59 -23 140q12 0 12 11l-24 12h-361q0 26 -47 35q0 35 -23 35v23q4 24 23 24h94l35 -24h93l35 24h35 q69 -12 105 -12q0 12 23 12v11l-23 35v233l23 35v82q23 0 23 12q0 11 -11 11q18 223 186 490q54 50 152 93z" />
<glyph unicode="&#xfb04;" horiz-adv-x="3380" d="M3137 1247h93v-58l59 -152h11v-70q-23 -61 -93 -93v-93h-23v-70l-24 -35v-82h-23v-70q-23 -70 -47 -70v-35q-37 -198 -70 -198v-70l-46 -105v-58h-23v-93q-27 0 -35 -70q-12 0 -12 -12v-58h-23v-82q0 -15 58 -58q46 23 81 23v-46q-11 0 -93 -47h-93q-50 74 -58 128 q-12 0 -12 12v93q23 70 47 70v70l46 105v58h24v70h23v70h23v117h24v70l69 151v58h24v94q27 0 35 70q16 79 35 105v151l23 35v175zM2951 233v-35h23q0 23 23 23v47h-12q-16 0 -34 -35zM2205 1480h70l35 -23h58q0 -27 70 -35q39 -20 58 -58q50 0 93 -129q9 0 35 -58v-93h-46 q-16 70 -47 70v70q-26 0 -35 46q-85 70 -128 70v24h-70l-35 23l-35 -23h-70q0 -14 -93 -140q0 -16 -35 -70h-12v-70l-46 -82v-93q0 -14 -24 -128v-117h-23v-12q0 -26 12 -46l-12 -24q23 -42 23 -104h140q14 0 128 23h70l82 47h23v-47q-20 0 -116 -70q-47 0 -47 -23h-93v-24 h-105q-29 -23 -58 -23v-233h23v-35q23 -82 23 -93v-35q-23 -29 -23 -47h-70q-73 117 -93 117v70h23v-47h47v35l-24 35v70q0 59 -23 140q12 0 12 11l-24 12h-361q0 26 -47 35q0 35 -23 35v23q4 24 23 24h94l35 -24h93l35 24h35q69 -12 105 -12q0 12 23 12v11l-23 35v233 l23 35v82q23 0 23 12q0 11 -11 11q18 223 186 490q54 50 152 93zM853 1480h70l35 -23h58q0 -27 70 -35q39 -20 58 -58q50 0 93 -129q9 0 35 -58v-93h-46q-16 70 -47 70v70q-26 0 -35 46q-85 70 -128 70v24h-70l-35 23l-35 -23h-70q0 -14 -93 -140q0 -16 -35 -70h-12v-70 l-46 -82v-93q0 -14 -24 -128v-117h-23v-12q0 -26 12 -46l-12 -24q23 -42 23 -104h140q14 0 128 23h70l82 47h23v-47q-20 0 -116 -70q-47 0 -47 -23h-93v-24h-105q-29 -23 -58 -23v-233h23v-35q23 -82 23 -93v-35q-23 -29 -23 -47h-70q-73 117 -93 117v70h23v-47h47v35 l-24 35v70q0 59 -23 140q12 0 12 11l-24 12h-361q0 26 -47 35q0 35 -23 35v23q4 24 23 24h94l35 -24h93l35 24h35q69 -12 105 -12q0 12 23 12v11l-23 35v233l23 35v82q23 0 23 12q0 11 -11 11q18 223 186 490q54 50 152 93z" />
</font>
</defs>
</svg>
