<?xml version="1.0" standalone="no"?>
<!DOCTYPE svg PUBLIC "-//W3C//DTD SVG 1.1//EN" "http://www.w3.org/Graphics/SVG/1.1/DTD/svg11.dtd" >
<svg xmlns="http://www.w3.org/2000/svg">
<metadata>
This is a custom SVG webfont generated by Font Squirrel.
</metadata>
<defs>
<font id="webfontQep710FQ" horiz-adv-x="316" >
<font-face units-per-em="1000" ascent="800" descent="-200" />
<missing-glyph horiz-adv-x="500" />
<glyph unicode=" " />
<glyph unicode="!" d="M102 23v1v0v70q0 3 2.5 6t6.5 5q5 2 9.5 3t10.5 1h40h2h3q7 -1 13 -3t12 -6t9 -9t3 -13v-78q0 -2 -1.5 -4t-3.5 -3q-3 -2 -6 -2.5t-7 -1.5l-40 -1q-1 1 -2 1h-2q-2 1 -3 1h-2q-2 0 -4.5 0.5t-4.5 1.5q-7 1 -13 4t-11 6q-6 5 -8.5 10t-2.5 11zM110 582v3v2q-1 5 1 9t6 7 t8.5 4.5t9.5 1.5h40l6 -1h6q8 -2 15 -6.5t14 -10.5q6 -6 9.5 -14t3.5 -19v-2v-2v-2v-2l-2 -13.5l-2 -12.5l-2 -13.5l-2 -13.5t-1.5 -14t-1.5 -13q-1 -7 -1.5 -14t-0.5 -14q-4 -46 -6.5 -89t-3.5 -84q-1 -40 -1 -68.5v-44.5q0 -4 -2 -7t-6 -4h-40q-4 -1 -7.5 0t-7.5 3t-8.5 5 t-8.5 7t-5.5 9t-1.5 11v1v0v34v49v29v30q-1 15 -1 30v31q-1 29 -1.5 57.5t-1.5 56.5q-1 27 -1.5 48t-2.5 36z" />
<glyph unicode="&#x22;" horiz-adv-x="371" d="M63 598q0 8 2.5 15t6.5 12q5 5 10.5 8t11.5 4h40q6 0 11.5 -3.5t10.5 -9.5t7.5 -16.5t2.5 -25.5l-16 -188q0 -8 -1.5 -14t-3.5 -9q-3 -3 -5.5 -4.5t-4.5 -0.5h-40q-3 0 -6 2t-5 6q-3 3 -4 8t-1 11v1v0zM197 598q0 8 2.5 14.5t6.5 11.5q5 5 10 7.5t11 2.5h40h1h2 q5 -1 10.5 -4.5t9.5 -9.5q5 -6 7.5 -15.5t2.5 -22.5l-16 -188q0 -7 -1.5 -13t-3.5 -10q-1 -2 -2.5 -3t-2.5 -2q-2 -1 -3 -1t-3 1h-40q-3 1 -5 3t-4 5t-3.5 8t-2.5 11v1v0z" />
<glyph unicode="#" horiz-adv-x="599" d="M24 189v39h126l15 111h-110v39h118l32 197h40h55l-32 -197h94l32 197h40h55l-32 -197h103v-39h-111l-15 -111h94v-39h-102l-32 -189h-40h-55l32 189h-94l-32 -189h-40h-55v0v0l32 189h-118zM245 228h94l15 111h-94l-15 -111v0z" />
<glyph unicode="$" horiz-adv-x="599" d="M53 79v2v2v1v2q0 8 2.5 10t6.5 0h40q5 -2 11.5 -6.5t13.5 -11.5t20.5 -13.5t32.5 -11.5q17 -4 38 -6t44 -3q5 0 10.5 0.5t10.5 1.5v245h40l-3 -1h-40h-2q-41 3 -73.5 8t-55.5 12q-24 7 -36 24t-12 45v3l1 4v3v4q3 32 17.5 59t40.5 49q26 21 57 39.5t66 33.5v48q0 2 1 4.5 t4 4.5q2 2 4.5 3.5t5.5 2.5l3 1h40h3q2 0 4.5 -0.5t3.5 -1.5q2 -1 2.5 -3t0.5 -4v-44h1.5h1.5h40q22 0 41 -4t35 -12q16 -7 27.5 -22t18.5 -36q2 -4 2.5 -7t1.5 -6v-2.5t1 -3.5v-2v-2q0 -7 -2.5 -9.5t-7.5 -1.5h-40l-6 2t-5 3q-3 2 -6 4.5t-6 5.5l-2 1l-1 2q-2 2 -4 3.5 t-3 3.5q-2 1 -3.5 3t-3.5 3q-4 3 -7 6l-6 6q-9 7 -18.5 12.5t-19.5 9.5q-6 3 -12.5 5t-14.5 3h-0.5h-0.5h-0.5h-0.5v-211q56 -7 94 -16.5t57 -22.5t28.5 -31.5t9.5 -41.5q0 -24 -8 -47t-25 -45q-16 -22 -34.5 -40.5t-38.5 -33.5q-12 -9 -23.5 -16.5t-22.5 -13.5t-20 -10 t-17 -6v-70q0 -4 -1.5 -7.5t-4.5 -6.5q-1 -2 -2.5 -3t-2.5 -2l-3 -1.5l-3 -1.5l-4 -2h-40h-2l-7 2q-1 2 -1.5 3.5t-0.5 3.5v61v0q-1 1 -3 0.5t-3 -0.5q-2 0 -3.5 -0.5t-3.5 -0.5q-10 -2 -21.5 -2.5t-22.5 -0.5l-40 -1h-5h-5q-21 2 -40.5 7t-37.5 12q-18 8 -29 24.5t-14 40.5 q-1 2 -1.5 4.5t-0.5 4.5zM197 408q0 -18 5.5 -29.5t15.5 -16.5t26.5 -8.5t38.5 -5.5v0v178q-10 -5 -19 -12t-18 -15q-18 -16 -29.5 -33.5t-16.5 -35.5l-2 -6t-1 -6v-5.5v-4.5zM355 68q11 5 20.5 12t18.5 16q17 16 28 33t16 35q0 3 0.5 6t1.5 6v3.5t1 2.5v3.5v2.5 q0 17 -8.5 33t-25.5 29q-10 8 -23 14.5t-29 10.5v-207v0z" />
<glyph unicode="%" horiz-adv-x="930" d="M55 416v1v0q0 47 13 82t38 59q26 23 56.5 35t65.5 12h40q29 0 54 -8t46 -23q21 -16 31.5 -47.5t10.5 -78.5q0 -37 -8 -64.5t-24 -47.5q-16 -19 -33 -32.5t-35 -21.5q-10 -4 -20 -7t-20 -5q-10 -1 -18 -2t-15 -1h-40q-33 0 -58.5 10t-45.5 29q-19 20 -28.5 47.5t-9.5 62.5 zM118 408v1h40v0q3 -33 11.5 -55t21.5 -33q10 -9 22 -14t25 -7q17 3 30 11.5t23 22.5q12 18 18 40.5t6 49.5q0 35 -5 63t-16 47q-8 16 -22 25.5t-33 12.5q-20 -3 -35 -12t-24 -23q-12 -19 -17.5 -43t-5.5 -53v-7.5v-8.5v-4v-4q0 -3 0.5 -5t0.5 -4h-40zM254 -25q0 4 0.5 6.5 t1.5 4.5l4 6v0v0l40 67l41 69l21.5 34.5l21.5 35.5l21 35t21 36l40 68l40 68l39 68.5l38 68.5q1 2 2.5 4.5t2.5 3.5t2 1.5t2 0.5q0 1 1 1.5t2 0.5l3 1h40h2q4 0 7.5 -2t6.5 -5t5 -7.5t2 -9.5v-4.5t-1 -5.5t-2.5 -5.5t-3.5 -4.5l-77 -121.5l-66 -108.5l-60 -101.5l-58 -96.5 l-8.5 -14.5l-9.5 -15.5l-8.5 -14.5l-9.5 -15.5q-4 -7 -8.5 -14t-8.5 -12l-4 -6t-4 -7q-3 -3 -5 -6.5t-4 -7.5q-7 -13 -12 -18t-9 -2l-40 -1q-4 4 -6 9t-2 12v2v3zM520 141v1v0q0 47 13 82t38 59q26 23 56 35t66 12h40q29 0 54 -8t46 -24t31.5 -47.5t10.5 -78.5 q0 -37 -8 -64.5t-24 -47.5q-16 -19 -33 -32.5t-36 -21.5q-10 -4 -20 -6t-20 -3q-10 -2 -18 -3t-15 -1l-40 -1q-32 1 -57.5 10.5t-45.5 28.5q-19 20 -28.5 47t-9.5 63zM583 133v1h40v0q3 -33 11.5 -55.5t21.5 -33.5q10 -8 22 -13t25 -7q17 3 30 11.5t23 22.5q12 18 18 40.5 t6 49.5q0 35 -5 63t-16 47q-8 16 -22 25t-33 13q-20 -4 -35 -13t-24 -23q-12 -19 -17.5 -42t-5.5 -52v-4v-4v-5v-4v-4v-4q0 -3 0.5 -5t0.5 -4h-40z" />
<glyph unicode="&#x26;" horiz-adv-x="764" d="M54 82.5v3.5v4v4q0 27 11.5 52t35.5 47t50.5 42t55.5 39l15.5 10l14.5 10q4 2 8 4.5t8 5.5l7 4.5t8 5.5q-18 20 -30.5 39t-20.5 35q-8 17 -12 32t-4 28q0 25 11.5 45.5t34.5 36.5q23 17 52 32t63 28q3 1 6 1.5t6 1.5q2 0 3.5 0.5t3.5 1.5q1 0 3 0.5t3 1.5q3 0 6 0.5 t7 1.5q3 0 6 0.5t6 0.5t6 0.5t7 0.5q3 1 6 1h6h40q22 0 40.5 -4.5t33.5 -13.5t22.5 -21t7.5 -28q0 -8 -1.5 -17t-6.5 -19q-4 -10 -11.5 -21t-17.5 -22q-15 -18 -32.5 -35t-37.5 -32l-43 -30t-45 -29l145 -157v0v0v0q14 18 23.5 35.5t16.5 33.5q6 17 9.5 29.5t3.5 22.5v2v2v1 v2l-1 5q-1 4 -2 7.5t-2 6.5q0 2 -0.5 3t-0.5 3v2.5v2.5q0 5 1 8t2 5q2 2 4 3t5 1h40q2 0 4 -0.5t5 -1.5q2 -1 4.5 -2.5t5.5 -3.5q5 -4 10.5 -10.5t9.5 -14.5q5 -7 7 -15.5t2 -17.5q0 -15 -6.5 -32.5t-18.5 -37.5q-13 -20 -32.5 -42t-45.5 -45q29 -24 51.5 -40.5t37.5 -26.5 t28 -15t25 -5q5 0 8.5 -0.5t5.5 -2.5q2 -1 3.5 -3.5t1.5 -5.5t-0.5 -6t-2.5 -6q-1 -4 -3.5 -7.5l-4.5 -6.5l-8.5 -8.5t-9.5 -7.5t-11 -5t-12 -2l-40 -1q-7 1 -15.5 3t-17.5 7q-10 4 -21 11.5t-23 17.5l-69 57q-13 -9 -27.5 -17t-30.5 -16q-22 -10 -44.5 -18.5t-45.5 -14.5 q-15 -4 -29.5 -6l-28.5 -4t-27.5 -3.5t-27.5 -1.5l-40 -1q-28 1 -51.5 5.5t-43.5 14.5q-19 10 -31 27t-16 41q-1 2 -1 4.5zM174 109q0 -4 0.5 -7.5t1.5 -7.5q2 -4 3.5 -8t4.5 -8q6 -10 15.5 -18.5t22.5 -16.5q10 -5 22 -8.5t26 -5.5q15 2 32.5 5.5t36.5 10.5q26 9 55 25 t63 39v1v0q-5 5 -9.5 9t-9.5 9l-8.5 8.5t-9.5 8.5l-17 17.5l-16 16.5q-3 2 -5 4.5t-4 4.5l-4 4l-4 4l-20.5 22l-21.5 22l-15 16.5l-16 17.5q-1 -1 -2.5 -2t-3.5 -2q-2 -2 -4.5 -4t-5.5 -4q-31 -24 -52.5 -46.5t-32.5 -43.5t-16.5 -36.5t-5.5 -26.5zM320 457q0 -10 3 -22 t9 -24l11 -19.5t14 -21.5v0l13.5 10l12.5 10q12 10 22.5 20t19.5 20q9 11 16.5 21.5t12.5 20.5q5 11 8 20.5t3 18.5q0 16 -4.5 28t-12.5 19q-5 5 -10.5 8t-12.5 5q-3 -1 -6.5 -1.5t-7.5 -2.5q-9 -4 -17.5 -8.5t-16.5 -10.5t-15.5 -13.5t-14.5 -15.5q-3 -3 -5.5 -6t-4.5 -6 q-1 -1 -2 -3t-2 -3q-1 -2 -1.5 -3.5t-1.5 -3.5q-3 -4 -4.5 -8.5t-3.5 -9.5q-1 -2 -1.5 -4.5t-0.5 -4.5v-5.5v-4.5z" />
<glyph unicode="'" horiz-adv-x="540" />
<glyph unicode="(" d="M54 219q0 41 7.5 83t23.5 85t41 86.5t59 86.5q8 9 15.5 18.5l15.5 19.5t17 19.5l19 19.5h40l16 -23q-27 -29 -48.5 -58.5t-38.5 -59.5t-30 -60.5t-22 -61.5q-3 -9 -5 -18l-4 -18q-2 -10 -3.5 -19t-2.5 -18q-3 -18 -4 -36t-1 -36q-1 -55 9 -106t30 -99q20 -46 46.5 -86 t57.5 -71l-24 -17h-40v0v0q-42 41 -74 84.5t-55 88.5q-22 47 -33.5 96t-11.5 100z" />
<glyph unicode=")" d="M8 -126q32 35 57.5 71.5t44.5 73.5q19 38 31.5 76.5t19.5 78.5q2 11 3.5 22t2.5 22t1.5 22.5t0.5 22.5q0 50 -9 97.5t-28 93.5q-19 45 -46 85t-62 74l23 25h40q42 -46 73.5 -92.5t53.5 -93.5q22 -48 33 -96t12 -97q0 -29 -4 -58.5t-12 -58.5q-7 -29 -19 -58.5t-28 -58.5 q-12 -21 -26 -42.5t-31 -43.5q-16 -22 -35 -44t-40 -44l-40 -1l-16 24v0v0z" />
<glyph unicode="*" horiz-adv-x="434" d="M66 526q-1 2 0 4.5t2 5.5l4.5 6.5t6.5 7.5l5 5l5 3l2 1h40h3q5 0 11.5 -4.5t14.5 -13.5q3 -4 7 -7.5t8 -7.5q-1 5 -1.5 9.5t-1.5 8.5q-2 11 -3 20t-1 16q0 8 1.5 13t4.5 7t9 3.5t14 1.5h40q7 0 11.5 -1t7.5 -3t4.5 -6t1.5 -10q0 -5 -0.5 -12t-1.5 -16q-1 -3 -1.5 -7 t-0.5 -8q0 -5 -0.5 -9.5t-1.5 -9.5q2 1 3 2.5t2 2.5q2 1 3 2.5t2 2.5q9 10 16.5 15t14.5 6h40q2 0 4.5 -0.5t4.5 -2.5q2 -1 4.5 -3.5t4.5 -5.5q4 -5 5.5 -9.5t0.5 -7.5q-1 -4 -3 -7.5t-7 -6.5l-14.5 -9.5t-19.5 -10.5t-23 -12l-26 -15q14 -9 26 -16t23 -12l20 -10.5t15 -9.5 q4 -4 6 -7.5t3 -6.5q1 -4 -0.5 -8t-5.5 -9q-2 -3 -4 -5l-4 -4l-6 -5h-40q-6 -1 -12.5 2.5t-14.5 12.5l-8.5 8.5t-10.5 9.5q0 -2 0.5 -3.5t1.5 -3.5q0 -2 0.5 -3.5t0.5 -3.5q1 -6 1.5 -11.5t1.5 -10.5t1.5 -9.5t0.5 -8.5q0 -7 -1.5 -12t-3.5 -9q-3 -4 -8 -5.5t-13 -1.5h-40 q-8 0 -14 1.5t-9 4.5t-4.5 8t-1.5 12q0 5 0.5 10t1.5 12q1 3 1.5 6.5t1.5 6.5q0 4 0.5 8t1.5 8v0.5v1.5q-3 -3 -6 -5.5t-5 -4.5q-10 -8 -17.5 -12.5t-12.5 -4.5h-40q-2 0 -4 1l-4 2l-3.5 3.5t-3.5 4.5q-4 5 -6 8.5t-3 6.5t-0.5 6t2.5 6q3 5 10 9.5t18 9.5t27 13.5l38 19.5v1 v0l-37 19.5l-28 14.5q-12 5 -19.5 10t-10.5 9l-3 4z" />
<glyph unicode="+" horiz-adv-x="638" d="M39 228v63h221v221h40h63v-221h220v-63h-220v-228h-40h-63v0v0v228h-221z" />
<glyph unicode="," d="M-22 -146q1 3 2 5.5t3 4.5q1 1 2 2.5t2 2.5q2 2 3.5 3t3.5 3l-2 -1v0q35 42 60.5 81t41.5 75q16 38 24 65.5t8 45.5v2v2l-1 1v2q0 4 1 7t2 5q2 2 3.5 3t4.5 1h40q2 0 4.5 -0.5t5.5 -2.5l3 -1.5l3 -1.5q1 -1 2.5 -1.5t2.5 -1.5l4 -4t5 -4q2 -2 4 -4.5t4 -5.5q4 -5 7 -10.5 t5 -10.5v-2t1 -1q0 -1 0.5 -2t0.5 -2v-2t1 -2v-2v-2q0 -10 -5.5 -25t-16.5 -34l-8 -12.5l-8 -13.5q-8 -13 -17.5 -25.5t-20.5 -25.5l-14.5 -18l-15.5 -18q-4 -5 -8 -9t-7 -8q-4 -5 -8 -9l-8 -8l-4.5 -4.5t-4.5 -5.5l-4.5 -4.5l-4.5 -4.5t-4.5 -4t-4.5 -5q-2 -2 -4.5 -4 t-4.5 -4q-4 -3 -8 -5t-7 -3q-3 -2 -6 -2.5t-6 -0.5l-40 -1q-1 1 -3.5 1.5t-3.5 1.5z" />
<glyph unicode="-" horiz-adv-x="426" d="M28 178v1v2q0 3 1 6t3 5t6 3t9 1v1h40v0q11 -1 21.5 -2.5t21.5 -1.5q11 -1 22 -1h22h3.5h2.5h12t12 1q5 0 11 0.5t12 0.5h12t12 1h12h12h12t12 1h12h12h40q6 0 10.5 -2t8.5 -6q3 -4 5.5 -8t3.5 -9l1 -3v-3q0 -4 -0.5 -7t-2.5 -5q-1 -2 -4 -3t-6 -1q-16 -3 -39 -4.5 t-52 -2.5t-59 -1h-62h-40h-16h-16h-16h-16h-4l-3 1q-4 2 -7.5 4t-6.5 6q-4 4 -6.5 8t-4.5 8l-2 6q0 1 -0.5 2t-0.5 2z" />
<glyph unicode="." d="M102 23v1v0v86q0 2 1.5 4t4.5 3q3 2 6.5 2.5t7.5 1.5h40h2h3q1 -1 2.5 -1h2.5q2 0 4.5 -0.5t5.5 -1.5q8 -2 14.5 -5t12.5 -7t9 -9t3 -11v-86q0 -2 -1.5 -4t-4.5 -3q-3 -2 -6.5 -2.5t-7.5 -1.5l-40 -1q-1 1 -2.5 1h-2.5q-2 1 -3 1h-2q-3 0 -5.5 0.5t-4.5 1.5q-7 2 -14 5 t-13 6q-6 4 -9 9t-3 11z" />
<glyph unicode="/" horiz-adv-x="426" d="M25 11v4l2 6l1 4l3 5v1v0l44 82.5l44 87.5l43 91.5l42 92.5l12 28t13 28l12 27l12 28l23.5 55l22.5 54q2 5 4.5 8.5t5.5 6.5q2 3 4.5 5.5t5.5 3.5l5 2l5 1h40q5 0 10 -2.5t9 -7.5q5 -5 7 -11t2 -13v-4l-1 -4l-1 -4l-1 -4l-34.5 -67.5l-39.5 -81.5l-42.5 -91l-43.5 -93 l-30 -64.5l-30 -62.5l-28.5 -60l-26.5 -55q-1 -3 -3 -5t-3 -5q-2 -2 -3.5 -4t-3.5 -3q-4 -3 -7.5 -4.5t-7.5 -1.5l-40 -1q-5 1 -9.5 3t-8.5 7l-2 2l-2 2q-2 3 -3 6.5t-1 7.5z" />
<glyph unicode="0" horiz-adv-x="599" d="M39 227v1v0q0 56 18 107.5t55 97.5q36 47 87 70.5t116 23.5h40q47 0 82.5 -17t59.5 -51q23 -34 35 -82t12 -110q0 -74 -20 -128t-60 -88t-91 -50t-113 -16l-40 -1q-40 1 -70 12.5t-50 36.5q-19 24 -32.5 51.5t-19.5 57.5q-3 11 -4.5 22t-2.5 22t-1.5 21t-0.5 20zM142 252 q2 -57 15 -99t36 -71q23 -28 48.5 -44t52.5 -21h0.5h1.5q1 -1 1.5 -1h0.5q35 4 61.5 19t43.5 43q19 32 28.5 77t9.5 104q-3 62 -16.5 107t-36.5 73q-20 24 -42 37.5t-47 17.5q-40 -4 -67.5 -21.5t-43.5 -47.5q-18 -34 -29 -72.5t-15 -80.5q0 -1 -0.5 -2.5t-0.5 -2.5 q-1 -2 -1 -3v-3v-3.5v-2.5v-1.5v-1.5v0z" />
<glyph unicode="1" horiz-adv-x="599" d="M78 331v2t1 2l1 1l2 2l2 2t3 2q1 0 3 1l4 2q14 5 29.5 11.5t31.5 14.5l33.5 16.5l34.5 18.5l9.5 5.5l9.5 5.5q4 2 9 5t9 6l9.5 5.5l9.5 5.5q4 2 9 5t9 6l12 8l12 8q6 3 12 7l12 8l21.5 15.5l19.5 14.5q8 5 13 9t8 5h40l6 -1v-3t-1 -5t-1.5 -6t-1.5 -7q-3 -14 -5.5 -38.5 t-4.5 -59.5q-2 -34 -3.5 -71t-2.5 -76v-13.5v-12.5v-6v-6v-7v-6q0 -30 0.5 -57t1.5 -52l3.5 -43.5t3.5 -31.5v-2.5t1 -2.5v-3v-2v-2.5t1 -2.5v-2v-2v-3l1 -3q0 -4 -0.5 -7.5t-2.5 -5.5q-1 -2 -4 -3t-6 -1l-40 -1q-1 1 -2 1h-2q-2 1 -3 1h-2q-3 1 -6 1.5t-7 1.5 q-15 6 -24 11.5t-14 10.5q-4 6 -6.5 12t-2.5 12l21 392v0l-60 -46.5l-43 -34.5q-22 -18 -39 -27t-28 -9h-40q-11 0 -21 2t-19 6t-13 8.5t-3 8.5z" />
<glyph unicode="2" horiz-adv-x="599" d="M30 30v3q0 4 1 7t3 6t5.5 5t7.5 3q77 32 142.5 67.5t119.5 72.5q54 38 81 81.5t27 93.5q0 35 -9 60t-27 41q-14 13 -30 20.5t-33 10.5v0h-1q-24 -4 -45.5 -14.5t-41.5 -27.5t-32 -39.5t-16 -50.5q-1 -2 -1 -4v-4v-4v-4q0 -16 2.5 -27t7.5 -19q5 -7 11 -12.5t13 -7.5l4 -2 t5 -2q2 0 4 -0.5t4 -0.5h-40h7h6l6 1h40h5l7 -1l2 -3q0 -1 -0.5 -2l-0.5 -1l-2 -2l-2 -2q-2 -2 -5 -4.5t-7 -4.5q-4 -3 -9 -5.5t-10 -4.5l-6 -2t-5 -2q-3 -1 -6 -1.5t-6 -1.5t-6 -1.5t-6 -0.5q-3 -1 -6 -1h-6h-40q-15 0 -27 5.5t-21 16.5q-10 11 -14.5 25.5t-4.5 33.5v9.5 t1 8.5q0 5 1 9.5t2 9.5v1v0q8 35 27.5 63t49.5 50t63 35.5t68 18.5q5 1 9.5 1.5t9.5 0.5h4.5t5.5 1h4.5h5.5h40q32 0 61 -8.5t54 -25.5q25 -16 38.5 -42.5t16.5 -62.5v-3l1 -3v-4v-3q0 -33 -15 -64t-44 -60t-61 -54.5t-67 -47.5l-43.5 -26.5l-41.5 -23.5q-21 -10 -37.5 -19 t-30.5 -15l-12.5 -7t-7.5 -5q-3 -1 -2.5 -2.5t4.5 -3.5q2 -1 4 -1.5t5 -1.5t7.5 -1.5t9.5 -1.5q6 -1 13.5 -1.5t17.5 -0.5q9 -1 20 -1h23h0.5h1.5h1.5h0.5q11 0 22.5 0.5t23.5 1.5q22 0 43 1l42 2q20 2 36.5 3.5t29.5 2.5h2t3 1h2h2h2t2 1h2h2h40q8 0 13 -1.5t8 -3.5t4 -4.5 t0 -4.5t-2.5 -3.5l-3.5 -3.5l-5 -2.5t-7 -2.5q-7 -1 -14 -2.5t-14 -3.5q-7 -1 -13 -2.5t-12 -2.5q-28 -6 -61 -9.5t-71 -5.5q-37 -2 -99.5 -3t-148.5 -1h-40q-9 0 -16 2t-12 6q-5 5 -8 9.5t-4 10.5z" />
<glyph unicode="3" horiz-adv-x="599" d="M15 6q0 4 1 7t3 4q2 2 4.5 2.5t6.5 0.5h40q3 0 7 -0.5t8 -2.5q5 -1 9.5 -4t8.5 -6q11 -7 23.5 -12t28.5 -9l20.5 -4t21.5 -3v0h1v0v0h4.5h4.5q2 1 4.5 1h4.5q34 4 65.5 16t59.5 33q29 21 44.5 52.5t16.5 74.5q0 20 -7 36.5t-21 29.5q-12 11 -29.5 17.5t-41.5 7.5 q-9 -1 -18.5 -1.5t-20.5 -2.5q-16 -3 -35 -7t-39 -9h-40q-4 2 -7.5 5t-6.5 7t-4 8.5t-1 9.5v4t1 4q0 2 0.5 4.5t1.5 5.5h2.5t2.5 1h3.5h3.5h3.5t3.5 1h4.5h4.5q9 0 20 0.5t24 1.5q12 1 25 2.5t26 3.5q25 5 48 13t44 21q21 12 32.5 33t12.5 49v2v2v2v2q0 23 -6 41t-20 30 q-10 9 -21 15t-24 8q-3 -1 -6.5 -1.5t-7.5 -1.5q-9 -2 -18 -5t-18 -7q-15 -7 -29 -17.5t-28 -23.5t-26.5 -28.5t-23.5 -33.5q-1 -4 -3.5 -6t-5.5 -4q-1 -1 -3 -1.5t-3 -0.5q-2 -1 -3.5 -1h-3.5h-40h-4l-3 1q-6 1 -11 3.5t-10 6.5q-4 4 -6.5 9t-2.5 12q0 3 0.5 6t1.5 7 q2 4 4 7.5t6 7.5q16 19 35 34t41 27q22 11 44.5 19.5t46.5 12.5q8 2 15.5 2.5t14.5 1.5q4 0 8 0.5t8 0.5q3 1 7 1h8h40q32 0 60 -6t51 -20q23 -13 35 -32t12 -44v-2v-3q0 -32 -10.5 -56.5t-30.5 -41.5q-19 -17 -47.5 -29.5t-66.5 -20.5v0q44 -4 74.5 -10.5t49.5 -15.5 q19 -10 28.5 -29.5t9.5 -48.5v-3v-2v-3v-2q0 -34 -17.5 -66t-53.5 -61q-36 -28 -75.5 -49.5t-82.5 -34.5q-13 -4 -26.5 -7l-27.5 -6q-13 -2 -26.5 -3.5t-25.5 -1.5l-40 -1q-19 1 -36.5 4.5t-32.5 9.5t-26 15.5t-18 23.5l-3.5 7t-3.5 6q-1 2 -1.5 4t-0.5 4z" />
<glyph unicode="4" horiz-adv-x="599" d="M66 182q-1 5 0 9.5t2 10.5q2 6 4.5 12t6.5 13l157 301q2 3 3.5 5.5t3.5 3.5q2 2 4.5 2.5t5.5 0.5h40l4 -1l6 -1q2 -1 4 -2.5t5 -3.5l4 -4l4 -4q5 -5 8 -10.5t5 -11.5v-5l1 -5l-1 -7l-2 -6l-157 -227l-9.5 -13.5t-7.5 -11.5t-5 -9.5t-2 -8.5q0 -5 3 -9t9 -7t17 -4t26 -1 l157 -6l8 204q0 2 1.5 4.5t4.5 4.5t7.5 3t9.5 1h40l5 -1h6q6 -2 11.5 -5.5t9.5 -8.5q5 -4 7.5 -11.5t2.5 -16.5v-4.5v-4.5t-0.5 -4.5t-1.5 -4.5q-3 -24 -5 -45t-2 -40q-1 -19 -1 -36.5v-34.5v0v0h4.5t5.5 1q2 0 4.5 0.5t4.5 0.5q7 0 13.5 0.5t12.5 1.5h6t5 1h5.5h4.5h40 q8 0 12.5 -1.5t5.5 -3.5q2 -2 -2 -6.5t-12 -11.5q-2 -3 -9.5 -5t-21.5 -4q-13 -2 -27.5 -3.5t-29.5 -2.5h-2.5h-2.5h-3h-3h-6h-5v-149q0 -4 -2 -8t-5 -6t-6.5 -3.5t-8.5 -2.5l-40 -1q-1 1 -2 1h-1q-1 1 -2 1h-2h-6l-13.5 6t-11.5 8q-6 4 -8.5 9t-2.5 11l8 125v0l-157 -6h-40 q-20 -1 -37.5 1.5t-32.5 6.5q-15 5 -22 15t-7 25z" />
<glyph unicode="5" horiz-adv-x="599" d="M16 0q-1 3 2 5t10 3h40q2 0 6 -0.5t8 -1.5q5 -1 10 -2.5t11 -3.5q11 -4 23 -7t25 -5q8 -2 16 -2.5t16 -1.5q38 2 74 13.5t70 32.5q38 24 60.5 55.5t29.5 70.5q1 4 1.5 8t1.5 8v4t1 4v4v4q-1 27 -10.5 47.5t-29.5 33.5q-16 11 -34 17t-38 8h-1v0q-5 -1 -10 -1.5t-10 -1.5 q-13 -2 -26 -5.5t-25 -8.5q-13 -5 -24.5 -11.5t-22.5 -14.5q-16 -11 -26 -16.5t-14 -4.5h-40q-4 1 -6 4t-2 9v4v4v4v4l16 253h40q13 -2 26.5 -3.5t28.5 -2.5l28.5 -2t29.5 -1h-40h9.5h8.5h10h10q36 -1 69.5 0.5t64.5 4.5t52 8t33 11h40q1 -1 1.5 -2t1.5 -1q1 -1 1.5 -2 t1.5 -2t1.5 -3.5t0.5 -4.5v-2v-1q-1 -1 -1 -2v-2t-0.5 -2l-0.5 -1q-1 -1 -1.5 -2t-0.5 -2q-4 -7 -10 -13t-15 -11t-19.5 -7.5t-22.5 -2.5h-40l-204 7v0l-15 -167q13 4 25 7t23 5q21 5 41 7t38 2h40q36 0 64 -8t49 -25q21 -16 31.5 -40t10.5 -56q0 -4 -0.5 -8.5t-1.5 -9.5 q-1 -4 -1.5 -8.5t-2.5 -9.5q-10 -33 -33 -63.5t-61 -59.5q-37 -28 -77 -48t-82 -33q-12 -3 -23.5 -5.5t-22.5 -3.5q-11 -2 -21.5 -3t-21.5 -1l-40 -1q-14 1 -27.5 3t-26.5 5t-24.5 8t-22.5 12l-6 4l-6 5l-8 11.5t-3 9.5z" />
<glyph unicode="6" horiz-adv-x="599" d="M24 117q0 18 7.5 40.5t23.5 50.5q15 27 34.5 55.5t42.5 58.5q9 12 19 24l20 24l20.5 23.5l20.5 22.5l58 61t54 51t43.5 34.5t26.5 11.5h40q5 0 10.5 -3t10.5 -9t9 -12t7 -13q1 -2 1.5 -4t1.5 -3q0 -2 0.5 -3.5t1.5 -3.5q1 -4 1.5 -7t0.5 -5l-1 -7l-5 -3h-40h-3h-1v0v0h-1 v0l-13.5 -6t-12.5 -7q-3 -1 -5.5 -3t-4.5 -3q-3 -2 -5.5 -3.5t-4.5 -3.5l-9.5 -7.5l-8.5 -6.5q-2 -1 -3.5 -2.5t-3.5 -2.5q-1 -2 -2.5 -3t-3.5 -3q-3 -3 -6 -5.5t-5 -4.5l-20.5 -18l-19.5 -17q-10 -8 -19 -16l-18 -16t-17.5 -16.5l-16.5 -16.5l-2 -2l-2 -2l-2 -2l-2 -2v0 q5 2 10 3t11 2q5 2 10 3l10 2t9.5 1.5t9.5 1.5q4 1 9 1.5t9 1.5q5 0 9.5 0.5t9.5 0.5q4 1 9 1h9h40q35 0 65 -7.5t55 -21.5q26 -14 38.5 -36t12.5 -51v-2.5v-2.5q-1 -2 -1 -3v-3v-2.5v-2.5q-1 -2 -1 -3v-3q-7 -45 -28.5 -82t-56.5 -66q-36 -28 -74 -46.5t-79 -27.5l-19.5 -4 t-18.5 -3t-18 -1.5t-18 -0.5l-40 -1q-34 1 -64 9t-55 24q-25 17 -37 42.5t-12 61.5zM134 149q0 -30 10 -52.5t30 -37.5t42.5 -24t47.5 -11v0v0q30 2 58 12t53 27q30 20 46.5 49.5t19.5 67.5v3l1 4v3v3q0 27 -8 48t-25 37q-16 15 -33.5 25.5t-37.5 14.5q-4 1 -8 1.5t-8 1.5 q-31 -3 -61 -11.5t-57 -22.5q-32 -16 -49.5 -50.5t-20.5 -87.5v0z" />
<glyph unicode="7" horiz-adv-x="599" d="M39 509q0 3 1 5.5t3 4.5t4.5 3t6.5 1h40h1.5h1.5q1 -1 2 -1h2q2 -1 4.5 -1.5t5.5 -1.5q14 -5 32.5 -9t42.5 -6t49.5 -3.5t51.5 -1.5h27.5h26.5q14 0 27.5 0.5t25.5 1.5h11.5t10.5 1h9.5h8.5h7.5t6.5 1h5.5h3.5h2t3 1h2.5h2.5h40h5.5h4.5q11 0 19 -1.5t12 -4.5 q5 -3 7.5 -6.5t2.5 -8.5v-4.5t-1 -4.5q-1 -1 -1.5 -2t-0.5 -2l-1.5 -3t-1.5 -2l-4 -5l-4 -4l-14 -12l-14 -12l-14 -13.5l-14 -13.5q-38 -40 -74 -89.5t-71 -108.5q-34 -59 -58.5 -120.5t-39.5 -124.5q-1 -7 -4 -10.5t-8 -3.5l-40 -1q-2 1 -4.5 1.5t-4.5 1.5q-3 1 -5.5 3 t-4.5 4q-5 4 -10 10.5t-10 14.5l-4 8t-3 8q-2 3 -3 7t-1 8l-1 5v5q0 15 10.5 40t31.5 59q21 35 46 71t55 75q8 11 16.5 21.5l17.5 21.5l18 21.5l18 20.5l28.5 33l28.5 31q4 5 8.5 9.5t8.5 9.5l17.5 17.5t16.5 15.5v0l-305 -20h-40q-12 -1 -22 1.5t-19 8.5t-16 12.5t-12 13.5 q-3 3 -4.5 6t-3.5 6q-1 3 -1.5 6t-0.5 6z" />
<glyph unicode="8" horiz-adv-x="599" d="M28 106v6.5t1 7.5q0 3 0.5 6.5t1.5 7.5q6 24 20 47t36 44q23 21 50 35.5t60 21.5v1h40v0l-3 -1h-40h-3q-25 0 -45 7.5t-34 22.5q-15 15 -22 32.5t-7 37.5v6v6v3t1 3q0 1 0.5 2.5t0.5 2.5q5 23 21 44t43 40q27 20 68.5 29.5t96.5 9.5h40h10h10h4.5h5.5q2 -1 4.5 -1h5.5 q32 -3 55 -12.5t38 -24.5q15 -16 22.5 -33t8.5 -36v-2v-1v-2v-2l-1 -6q-3 -20 -12.5 -39t-26.5 -36t-40 -27.5t-52 -15.5q39 0 69 -9.5t51 -29.5q21 -19 31.5 -41.5t10.5 -48.5v-2.5v-3.5q-1 -1 -1 -2.5v-3.5v-2.5v-2.5q-1 -2 -1 -3v-3q-6 -29 -25.5 -55.5t-52.5 -50.5 t-81.5 -35t-112.5 -12l-40 -1q-1 1 -2 1h-1h-2h-2h-2h-1h-2h-2q-52 0 -88.5 9t-59.5 26q-22 18 -33 39.5t-11 46.5zM142 134q0 -23 7.5 -41t22.5 -31t31.5 -22t34.5 -15q8 -3 16.5 -4.5t16.5 -3.5h2h2q0 -1 1 -1h2v0h1v0v0q5 0 10 1l10 2q23 4 44 13t40 23q20 14 32.5 33.5 t17.5 44.5v2t1 3v2.5v2.5v3.5t1 2.5v3.5v2.5v2v3q-1 1 -1 2v2v4.5v5.5q-3 17 -12.5 33t-26.5 31q-14 12 -37.5 19.5t-56.5 8.5q-4 0 -9.5 -0.5t-10.5 -1.5t-10.5 -2t-10.5 -2l-11.5 -2t-10.5 -3q-18 -6 -34.5 -15.5t-31.5 -23.5t-22.5 -35t-7.5 -47v0zM197 381q0 -1 1 -2v-3 v-2q2 -13 8.5 -25.5t18.5 -23.5q10 -10 27 -16.5t41 -8.5q21 2 40 9t35 19q20 15 30.5 33.5t10.5 39.5q0 23 -8 40.5t-25 29.5q-13 10 -29 15.5t-35 7.5q-22 -2 -41.5 -9.5t-37.5 -19.5t-27 -30t-9 -42v0v-5.5v-4.5v-2z" />
<glyph unicode="9" horiz-adv-x="599" d="M47 306q2 38 21.5 73t56.5 66q38 31 78.5 52t85.5 31q8 2 17 3.5t18 2.5q5 0 9 0.5t9 0.5q4 1 8.5 1h8.5h40q27 0 51.5 -6t46.5 -18t37.5 -32t25.5 -48q1 -4 1.5 -7.5t1.5 -7.5v-4t1 -4v-5v-4q0 -20 -5 -42.5t-16 -46.5q-10 -24 -23.5 -48.5t-30.5 -50.5 q-13 -20 -27.5 -40t-30.5 -40l-32.5 -38t-33.5 -36q-28 -30 -55 -54t-53 -43q-25 -20 -44 -29.5t-31 -9.5l-40 -1l-5 1l-4 1q-4 2 -8 5t-8 7t-7.5 8t-5.5 8q-2 3 -3.5 6t-2.5 6t-1.5 5.5t-0.5 4.5q0 4 1 6t4 3l40 -1q2 2 6.5 0.5t10.5 -4.5l-40 -1q6 -1 24 6.5t47 23.5 q29 17 61 42t66 58l28 28.5l28 30.5l27 34t26 36v1h40v0q-16 -15 -34 -26.5t-38 -20.5q-19 -9 -39.5 -15.5t-40.5 -10.5l-13.5 -2t-12.5 -1q-3 0 -6 -0.5t-6 -0.5h-7h-6h-40q-35 0 -66 9t-57 27t-39 46t-13 65zM158 323q0 -24 6 -43.5t19 -34.5q12 -15 31.5 -25.5 t45.5 -15.5q5 -1 10.5 -2.5t11.5 -2.5h1.5h1.5q28 2 53.5 12t49.5 28q28 21 44.5 45t22.5 49v2t1 3v2.5v2.5v2t1 3v2.5v2.5q0 38 -9 64t-27 41t-38 24t-41 12h-0.5h-0.5h-0.5h-0.5q-32 -3 -61.5 -13.5t-56.5 -30.5q-32 -22 -48 -54t-16 -73v0z" />
<glyph unicode=":" d="M102 23v1v0v70q0 3 2.5 6t6.5 5q5 2 9.5 3t10.5 1h40h2h3q7 -1 13 -3t12 -6t9 -9t3 -13v-78q0 -2 -1.5 -4t-3.5 -3q-3 -2 -6 -2.5t-7 -1.5l-40 -1q-1 1 -2 1h-2q-2 1 -3 1h-2q-2 0 -4.5 0.5t-4.5 1.5q-7 1 -13 4t-11 6q-6 5 -8.5 10t-2.5 11zM102 204v1v0v71q0 3 2 6t6 5 q5 2 9.5 3t10.5 1h40h3h4q7 -1 13 -3.5t12 -6.5q5 -4 8 -9t3 -13v-78q0 -4 -1.5 -6t-3.5 -4l-6 -2t-7 -1h-40h-4.5h-4.5t-4.5 1t-4.5 2q-7 2 -13 5t-11 7q-6 5 -8.5 10t-2.5 11z" />
<glyph unicode=";" d="M-28.5 -131.5q1.5 5.5 6.5 14.5l-2 -1v0q10 10 17.5 19.5t13.5 19.5l13.5 20l12.5 20q15 25 27 49t19 47q8 23 11.5 40.5t3.5 27.5q0 5 1 8.5t3 5.5t4.5 3t5.5 1h40q2 0 4.5 -0.5t5.5 -1.5t6 -2.5t6 -3.5q2 -1 3.5 -2t3.5 -3q1 -1 3 -2t3 -3l6 -6l6 -6q1 -1 2 -2.5 t2 -2.5l1.5 -3l1.5 -3q2 -3 2.5 -5t0.5 -4q0 -6 -6 -18t-18 -32q-12 -19 -27 -39l-33 -42q-4 -5 -8 -9.5t-7 -8.5q-4 -5 -8 -9.5t-8 -8.5l-16 -17.5l-16 -16.5q-3 -2 -5.5 -4.5l-4.5 -4.5l-4 -4l-4 -4q-10 -9 -17.5 -12.5t-10.5 -1.5l-40 -1q-2 3 -0.5 8.5zM102 204v1v0v71 q0 3 2 6t6 5q5 2 9.5 3t10.5 1h40h3h4q7 -1 13 -3.5t12 -6.5q5 -4 8 -9t3 -13v-78q0 -4 -1.5 -6t-3.5 -4l-6 -2t-7 -1h-40h-4.5h-4.5t-4.5 1t-4.5 2q-7 2 -13 5t-11 7q-6 5 -8.5 10t-2.5 11z" />
<glyph unicode="&#x3c;" horiz-adv-x="638" d="M39 228v63l512 229h40v-63l-441 -197l441 -205v-63h-40l-512 236v0v0z" />
<glyph unicode="=" horiz-adv-x="638" d="M47 126v63h40h512v-63h-40h-512v0v0zM47 323v63h40h512v-63h-40h-512v0v0z" />
<glyph unicode="&#x3e;" horiz-adv-x="638" d="M39 -8v63l441 205v0v0l-441 205v70h40l520 -244v-63l-520 -236h-40z" />
<glyph unicode="?" horiz-adv-x="481" d="M24 492v1v2q0 22 16 42.5t48 39.5t68 29.5t75 13.5h2t3 1h2.5h2.5h40h3h3h2.5h2.5q39 0 67 -8t44 -23q16 -16 25.5 -33t12.5 -35v-5.5v-4.5v-2t1 -2v-3v-2v-2v0v-2v-1q0 -27 -10.5 -46.5t-30.5 -32.5t-42.5 -24.5t-46.5 -20.5l-3 -2h-2q-24 -10 -45 -20.5t-41 -22.5 q-19 -12 -29 -29.5t-10 -41.5v-4v-3q0 -17 5.5 -30t17.5 -21q8 -6 17 -9t18 -5q11 2 21 6.5t20 11.5q13 9 19.5 23t6.5 32q0 3 1 6t2 4q2 2 4 2.5t4 0.5h40q2 0 4 -0.5t4 -1.5t4 -1.5t5 -1.5q5 -3 9.5 -7.5t8.5 -9.5l4 -6t3 -5q1 -3 1.5 -6t0.5 -6q0 -16 -11 -28t-33 -21 t-46.5 -14t-50.5 -5h-40h-3h-3q-27 0 -51.5 6t-47.5 17q-22 11 -33.5 28t-11.5 41v1v0q0 21 9 38t28 30t40 25t45 23l4 2l5 2q24 11 46 24t43 27q20 14 30.5 33.5t10.5 44.5v4.5v4.5v2v3q-1 1 -1 2v2q-3 17 -11 31.5t-22 24.5q-10 8 -21 13t-24 7q-1 0 -2 -0.5t-2 -0.5 t-2 -0.5t-2 -0.5q-7 -1 -14 -4l-14 -6q-13 -6 -26 -15.5t-26 -22.5t-24 -29.5t-22 -36.5q-1 -4 -2.5 -7t-3.5 -5l-6 -7l-7 -5l-6 -2h-40q-4 0 -8.5 2t-7.5 6q-4 5 -6.5 9.5t-4.5 9.5q-1 2 -1.5 4t-0.5 4q0 1 -0.5 2t-0.5 2zM173 23v1v0v70q0 3 2.5 6t6.5 5q5 2 9.5 3t10.5 1 h40h2h3q7 -1 13 -3t12 -6t9 -9t3 -13v-78q0 -2 -1.5 -4t-3.5 -3q-3 -2 -6 -2.5t-7 -1.5l-40 -1q-1 1 -2 1h-2q-2 1 -3 1h-2q-2 0 -4.5 0.5t-4.5 1.5q-7 1 -13 4t-11 6q-6 5 -8.5 10t-2.5 11z" />
<glyph unicode="@" horiz-adv-x="843" d="M71 298q0 65 24 123.5t73 110.5q49 53 107.5 79t126.5 26h40q11 0 22 -0.5t23 -2.5q11 -1 23 -3t24 -5q39 -10 75.5 -29.5t70.5 -49.5t53.5 -74.5t23.5 -103.5v-2v-1v-2v-2v-2t1 -1v-2v-2v-4v-4v-6q0 -40 -10 -73t-30 -59t-42 -44t-46 -27q-6 -2 -12 -3.5t-12 -3.5 q-6 -1 -12 -1.5t-11 -0.5h-40q-15 0 -27.5 4t-23.5 12q-5 4 -9 9t-8 12l-7.5 -7.5t-8.5 -5.5q-9 -6 -17.5 -10.5t-16.5 -7.5q-9 -3 -17 -4.5t-16 -1.5h-40q-19 0 -34.5 7t-27.5 22q-13 14 -19 34.5t-6 46.5v8.5t1 8.5q0 5 0.5 9.5t1.5 9.5q7 37 19 67t29 53t35.5 39.5 t37.5 26.5q7 4 14 7t14 4q8 2 14.5 3t13.5 1h40q12 0 23 -3t20 -10t15 -16.5t9 -22.5h-40v1v0l8 40h40h71l-63 -252q-1 -3 -1.5 -6t-0.5 -5v-4v-4q0 -10 2.5 -17t7.5 -12q1 -1 2 -1.5t2 -1.5q0 -1 1 -1.5t2 -0.5l11.5 4t10.5 6q15 9 28.5 24.5t26.5 37.5q12 21 18.5 48 t6.5 60v2v2v1v2v6q-3 56 -22 99t-54 73t-73.5 49t-79.5 26q-7 2 -14 2.5t-14 1.5h-1.5h-1.5h-2h-2q-1 -1 -2 -1h-2q-6 -1 -12 -1.5t-12 -2.5q-40 -10 -76 -34t-69 -62q-33 -39 -49.5 -90t-16.5 -115q0 -65 20.5 -117.5t60.5 -93.5q37 -37 81.5 -57t96.5 -23q13 1 26 2.5 t26 4.5q18 4 37 10t38 15q3 2 7 3.5t8 3.5t7.5 4t7.5 4h40l16 -23q-19 -13 -38 -22t-39 -14q-20 -6 -40 -10.5t-40 -6.5h-8h-8h-4t-4 -1h-4h-4l-40 -1q-69 1 -130.5 23.5t-115.5 68.5q-54 47 -81 104.5t-27 125.5zM323 267v1h40v0l-1 -5v-4v-5v-4q0 -19 4 -33.5t13 -24.5 q5 -6 10.5 -10t11.5 -6q2 0 3.5 0.5t3.5 1.5q1 1 3 1.5t3 1.5q16 8 31 24t28 40q14 24 22 57t9 75q0 15 -3.5 26.5t-9.5 18.5l-6 6t-8 4v0v0q-6 -2 -12 -5t-12 -7q-15 -10 -29 -24.5t-27 -34.5q-13 -19 -21.5 -43t-12.5 -51h-40z" />
<glyph unicode="A" horiz-adv-x="930" d="M-8 -29l4 2h40q2 1 3.5 0t4.5 -2q2 -2 5 -4t7 -5v0l1 -1v0v0q8 3 17.5 8t19.5 13q18 13 37.5 29t38.5 37l22.5 24.5t21.5 25.5q11 13 21 26.5l20 26.5l4.5 6.5l5.5 7.5l4.5 6.5l4.5 6.5q4 5 7.5 11t7.5 12l-68 -4h-40q-13 -1 -24 2.5t-19 10.5q-9 7 -15 14.5t-10 16.5 q-2 4 -3.5 8t-2.5 8t-1.5 7.5t-0.5 6.5q0 4 0.5 7t1.5 5q2 2 3.5 3t3.5 1h40l5 -1q2 -1 3.5 -1.5t3.5 -2.5l4 -4l4 -2q11 -7 22.5 -12.5t24.5 -7.5q13 -3 31.5 -5t43.5 -4q7 -1 14 -1.5t14 -0.5q4 5 7.5 10.5t6.5 11.5l6.5 10.5l7.5 11.5q7 11 13.5 22.5l13.5 23.5 q4 6 7.5 12.5l7.5 13.5l8 13.5l8 13.5l10 18l10 18l10.5 17t10.5 18l22 34.5t23 33.5l-1 2l-1 2q-6 11 -15 21t-21 20t-28 16t-36 9q-4 0 -7.5 1t-6.5 2q-3 2 -4 4t-1 4v1v1q0 1 1 2l2 2q1 0 3 1l4 2q4 2 10 3t14 1h40q18 0 35.5 -1.5t33.5 -4.5q17 -3 31 -7.5t26 -10.5 t28 -30t37 -65l43 -85.5l45 -92.5q1 -1 1.5 -2.5t1.5 -3.5q0 -1 0.5 -2.5t1.5 -2.5t1.5 -2.5t1.5 -2.5q0 -2 0.5 -3t1.5 -2l40 -82.5l39 -75.5q20 -36 36.5 -59t29.5 -32l8.5 -7t6.5 -5q2 -3 3.5 -5t1.5 -4q0 -1 -0.5 -3t-2.5 -3q-1 -2 -3.5 -3.5t-5.5 -3.5q-6 -4 -16 -9 t-24 -11l-3 -1l-3 -1l-4 -1h-40h-3q-1 1 -2 1h-2q-1 1 -2 1h-2t-2 0.5l-1 0.5h-2h-2q-18 11 -40.5 48.5t-48.5 101.5q-24 59 -65 139t-98 180v0l-128 -223l172 6h40q17 -1 29 -2.5t18 -3.5q3 -1 5 -2.5t4 -2.5l1.5 -3t-0.5 -3q-1 -3 -5.5 -6t-11.5 -5q-7 -3 -15 -4t-17 -1 l-244 -14q-9 -13 -18.5 -28.5l-20.5 -32.5q-6 -8 -11.5 -16.5t-11.5 -16.5l-12 -17.5l-12 -16.5q-3 -4 -6 -8.5t-6 -8.5l-7 -9l-6 -8l-13 -17l-12 -16l-40.5 -45t-38.5 -39t-34.5 -27t-27.5 -9l-40 -1h-2h-1l-2 1h-2q-8 2 -15.5 6t-14.5 10t-12 12.5l-10 13.5q-2 5 -4 9.5 t-3 9.5q-2 4 -3 8t-1 7v5z" />
<glyph unicode="B" horiz-adv-x="820" d="M12 553v2v3q0 4 1 7.5t3 7.5q2 3 6 5.5t9 3.5l6 2t7 2q3 0 6 1l6 2t6 1.5t6 1.5q3 0 6.5 0.5t6.5 1.5h2t2 1h2h2q2 0 4 0.5t4 1.5q9 2 18 3.5t18 2.5l19.5 4.5t20.5 5.5q0 1 -0.5 2t-0.5 2q-1 0 -1 1v2v6q0 7 1.5 11.5t5.5 7.5q3 2 7.5 3.5t9.5 2.5h40h2h2q1 -1 2 -1h2h2 h2q1 -1 2 -1h2q6 -2 11.5 -4.5t10.5 -5.5q2 -1 4.5 -3t4.5 -3q2 -2 4 -3.5t3 -3.5l3 -7v-1h3.5t2.5 1h3.5h2.5q15 2 32 2.5t36 0.5h40h8h8q4 -1 8 -1h8q8 0 16.5 -0.5t17.5 -1.5q37 -3 71.5 -10.5t66.5 -19.5t51.5 -31.5t26.5 -46.5v-3v-3q0 -19 -8 -37t-25 -34 q-16 -16 -34 -29t-38 -24q-12 -7 -24 -12l-23 -10q-11 -4 -20 -8t-17 -6h-40h4.5t4.5 1h4.5h5.5h4.5t5.5 1h4.5h5.5h40h8h8q4 -1 8.5 -1h8.5q8 -1 17 -1.5t18 -2.5q29 -4 54.5 -14t49.5 -24q24 -15 36 -37.5t12 -54.5q-2 -43 -31.5 -79.5t-86.5 -65.5q-57 -28 -118.5 -46.5 t-129.5 -25.5q-13 -2 -25.5 -2.5t-25.5 -1.5t-25 -1.5t-24 -0.5l-40 -1q-17 1 -33.5 1.5t-31.5 2.5q-16 1 -30.5 3.5t-28.5 4.5q-12 2 -22 5.5t-18 7.5q-8 5 -14 9.5l-11 8.5q-3 3 -5 6l-4 6l-2 6t-1 6t1 6t3 5t5 3.5t7 1.5h40h3l3 -1q2 -1 4 -1.5t4 -1.5q1 0 2 -0.5t2 -0.5 q0 -1 1 -1h2q4 -2 8.5 -3.5t8.5 -2.5q2 0 3.5 -0.5t2.5 -0.5q2 17 3.5 43t2.5 60q1 18 1.5 36.5t1.5 37.5q0 18 0.5 37.5t1.5 39.5q1 41 1.5 79.5t1.5 75.5q1 31 1.5 55t0.5 41v0q-1 0 -2 -0.5t-2 -0.5q-1 -1 -2 -1.5t-2 -0.5q-13 -4 -26.5 -10.5t-27.5 -15.5 q-4 -2 -7.5 -3.5t-6.5 -2.5t-6 -1.5t-6 -0.5h-40q-7 0 -12.5 2t-10.5 6q-4 5 -6.5 9.5t-3.5 9.5zM245 46q23 -4 45 -6.5t43 -4.5l31.5 -2l30.5 -2q56 2 99 13t73 31q33 23 51 55t20 74v2v2v1v2q0 32 -15.5 54t-45.5 34q-26 11 -55.5 17t-62.5 7h-1.5h-0.5h-1.5h-1.5h-6h-5 q-3 -1 -6 -1h-6q-15 -1 -30 -2.5t-29 -3.5q-15 -2 -28.5 -4.5t-27.5 -5.5h-40q-4 0 -7.5 1.5t-6.5 4.5t-4.5 6.5t-1.5 7.5v1v2q0 5 1.5 8.5t4.5 7.5t8.5 6t12.5 2q59 0 109.5 6t91.5 19q41 12 62 37.5t21 63.5q0 32 -15.5 53.5t-46.5 33.5q-29 11 -60 17.5t-64 8.5 q-9 -1 -18 -1.5t-18 -1.5q-14 -1 -27.5 -3t-25.5 -4h-40v1h40v0q-2 -16 -4 -34.5l-4 -38.5l-2 -21t-1 -22l-2 -22.5l-2 -23.5q-1 -20 -2.5 -41t-3.5 -42q-1 -10 -1.5 -21t-1.5 -21q-1 -11 -1.5 -21.5t-1.5 -21.5q-2 -27 -4.5 -54t-4.5 -53q-1 -13 -2.5 -26t-2.5 -26 q-2 -12 -3 -24t-3 -24z" />
<glyph unicode="C" horiz-adv-x="820" d="M39 142v4v3v1v0q1 17 4.5 34t10.5 36t16.5 38.5t21.5 38.5q23 38 52.5 74t66.5 71t75.5 63.5t78.5 50.5q17 9 33.5 16.5l32.5 14.5q17 6 33 10.5t32 7.5q7 2 14.5 2.5t15.5 1.5t16 1.5t16 0.5h40h4h4h4.5h5.5q25 -1 47.5 -6.5t43.5 -13.5t31.5 -20t10.5 -29 q0 -9 -1 -15.5t-3 -10.5q-1 -4 -3.5 -5.5t-4.5 -1.5h-40q-3 0 -6 1t-7 4q-4 2 -7.5 5t-7.5 7q-3 2 -6 4.5t-6 4.5l-6 4t-5 3q-15 5 -30 8.5t-29 5.5q-10 2 -19.5 3t-18.5 1q-63 -3 -117 -26.5t-101 -67.5q-51 -48 -85 -100.5t-52 -109.5q-2 -6 -3.5 -11.5t-3.5 -10.5 q-1 -6 -2.5 -11.5t-2.5 -10.5l-2 -10t-1 -10q-1 -5 -1 -9.5v-9.5q0 -40 16 -67.5t48 -43.5q30 -15 65.5 -22.5t75.5 -9.5h8t8 1q4 0 8 0.5t8 0.5q8 1 15 1.5t15 1.5q7 1 14.5 2.5t14.5 2.5q41 6 81 15.5t78 22.5t69 26.5t54 28.5l3 2l3 2l6 2l6 1h40q4 0 7 -1.5t6 -3.5 q2 -2 3.5 -5t1.5 -6v-3l-1 -3q-1 -3 -3 -5.5t-4 -4.5t-5 -3.5l-7 -3.5q-30 -15 -61.5 -29t-66.5 -26q-34 -13 -69.5 -23t-70.5 -18l-55 -9.5t-54 -8.5t-53 -6t-50 -2l-40 -1q-54 1 -99.5 10.5t-81.5 26.5q-36 19 -54 50.5t-18 76.5z" />
<glyph unicode="D" horiz-adv-x="820" d="M-8 559v4l1 3q4 2 8 3.5t11 4.5q7 2 15 5t18 6q5 1 9.5 2.5t9.5 2.5q2 1 4.5 1.5t5.5 1.5q2 0 4.5 0.5t5.5 1.5q5 1 9 2t9 2q4 0 8.5 1t8.5 2q9 2 16.5 2.5t14.5 0.5q2 2 3.5 4.5t2.5 3.5l1 5v1v1q0 2 0.5 4t1.5 5q0 3 1.5 7t4.5 9h2t2 1h1h2h2t2 1h2h2h40q9 0 16.5 -2 t14.5 -6l13.5 -7.5t12.5 -8.5l5 -3l5 -3l2 -2l1 -1h1v0h4.5t4.5 1h4.5h4.5h40h10h10q65 0 125 -7.5t114 -22.5t95 -45t69 -76q5 -8 8.5 -16.5t5.5 -17.5t3.5 -18t1.5 -19q0 -7 -0.5 -13.5t-1.5 -13.5q-1 -4 -1.5 -7.5t-0.5 -6.5q-1 -4 -1.5 -7.5t-1.5 -6.5 q-4 -16 -9.5 -32.5t-13.5 -32.5l-8 -15.5t-7 -14.5l-8 -14t-8 -13l-7.5 -13t-7.5 -11q-4 -6 -7.5 -10.5t-6.5 -9.5q-19 -24 -49.5 -46.5t-73.5 -43.5t-88.5 -38t-92.5 -29q-24 -6 -48 -10.5t-47 -6.5q-23 -3 -45 -5t-42 -2l-40 -1q-30 1 -55 5t-45 11q-20 8 -31 22.5 t-13 33.5l2 3h1t1 1h2h2h40q5 0 11 -1.5t15 -3.5t18 -4.5l19 -5.5q1 0 2 -0.5t2 -0.5q1 -1 2 -1.5t2 -0.5l7 508v0q-22 -6 -37.5 -12t-24.5 -11q-13 -7 -21 -10.5t-10 -3.5h-40q-4 2 -8.5 4t-7.5 5q-4 3 -6 6.5t-4 7.5q-2 2 -2.5 4.5t-1.5 4.5t-1.5 4.5t-0.5 3.5zM237 39 l3 -1q94 2 167 23.5t125 61.5q56 43 88.5 90t42.5 99q1 5 1.5 10.5t1.5 10.5v5.5t1 5.5v4.5v5.5q0 46 -18.5 86.5t-55.5 76.5q-34 33 -84 51t-116 20q-3 0 -6.5 -0.5t-7.5 -0.5q-7 -1 -13.5 -1t-14.5 -1q-16 -1 -33 -4t-34 -7h-40v1h40v0z" />
<glyph unicode="E" horiz-adv-x="820" d="M37 149.5v2.5v6v7q0 20 6 44.5t18 55.5t42 73t78 94q59 56 113.5 94t103.5 57q50 20 92 29.5t78 9.5h40q15 0 29 -1.5t27 -3.5t24 -5t21 -7l4 -2l6 -3q5 -3 9.5 -6.5t8.5 -8.5l4.5 -4.5l4.5 -4.5q2 -3 4 -5.5t4 -4.5q4 -5 7 -10l6 -10q2 -4 3.5 -8t1.5 -7l-2 -5l-4 -1 h-40h-4l-5 2q-24 10 -47.5 17.5t-46.5 11.5q-18 4 -36 6t-36 3q-41 -1 -79 -11t-73 -28q-39 -21 -72 -48t-59 -62q-1 -1 -2 -2.5t-2 -2.5l-3 -3t-2 -3l-4 -6t-4 -5l-26.5 -38.5t-25.5 -39.5t-21 -40t-14 -40q-1 -6 -2.5 -11.5t-2.5 -10.5q-1 -6 -1 -11.5v-10.5 q0 -12 1.5 -23.5t5.5 -22.5q4 -12 10 -23t15 -22q16 -22 39 -36.5t53 -22.5q27 -7 54.5 -11t55.5 -5q21 1 41.5 2.5t40.5 3.5q24 3 45.5 6.5t39.5 7.5q9 1 20 3t24 6t26 8.5t26 8.5q2 1 3.5 1.5t3.5 1.5q1 0 3 0.5t3 1.5q2 0 3.5 0.5t3.5 1.5q1 0 3 0.5t3 1.5l32 11.5 l28 10.5q14 5 23.5 9t15.5 5v1h40v0q5 -2 8.5 -4.5t5.5 -4.5q2 -3 2.5 -5.5t-0.5 -4.5t-2.5 -4.5t-4.5 -4.5q-2 -3 -5.5 -5.5t-7.5 -4.5q-7 -4 -15.5 -8t-19.5 -8l-20.5 -8t-21.5 -7l-29 -9.5t-28 -7.5q-13 -4 -22 -6t-14 -3q-19 -7 -39 -12l-41 -10l-41.5 -6l-40.5 -6 q-7 -1 -13.5 -1.5t-13.5 -1.5q-7 0 -13.5 -0.5t-12.5 -1.5q-13 -1 -26 -1.5t-26 -0.5l-40 -1q-60 1 -112 9.5t-96 24.5q-44 17 -67 42.5t-25 59.5v2.5v2.5q-1 2 -1 3.5v2.5v6v6v3.5v2.5q-1 2 -1 3.5zM189 275v1v0v23q32 1 61 2.5t56 3.5t52.5 4.5t49.5 5.5l76 7.5t63 7.5 l50 5t34 2h40q5 0 9.5 -0.5t7.5 -1.5l6 -5l2 -5l1 -4q0 -2 -0.5 -4.5t-1.5 -4.5q-1 -3 -1.5 -5.5t-1.5 -4.5q-2 -4 -4.5 -7.5t-5.5 -6.5t-5.5 -6t-4.5 -5q-3 -3 -5.5 -4.5t-4.5 -3.5q-2 -1 -4 -1.5t-4 -0.5q-4 -1 -10.5 -1.5t-14.5 -0.5h-40h-16h-19h-33.5t-37.5 1 q-19 0 -39.5 0.5t-40.5 1.5h-7.5t-6.5 1h-7.5h-7.5h-7.5t-6.5 1h-7.5h-6.5q-27 1 -51.5 1.5t-45.5 1.5q-22 1 -37 1.5t-23 0.5z" />
<glyph unicode="F" horiz-adv-x="709" d="M22 568v6q0 2 0.5 4t1.5 4q0 2 2.5 2.5t8.5 1.5t13.5 1.5t16.5 0.5h40h6h6q3 -1 6.5 -1h6.5h5.5h4.5q2 -1 4.5 -1h5.5v36h40l3 -1h-40l3 1h3l3 1h40q10 0 19 -3.5t18 -11.5q8 -7 13 -14.5t7 -15.5q10 0 22 0.5t26 1.5l34.5 2l35.5 2q18 0 37 1l38 2q15 1 29 1.5t29 1.5 q14 0 28 0.5t27 1.5q14 1 26 1.5t23 1.5q12 0 21.5 0.5t18.5 1.5h40v0h2h1h1q3 0 6 -1t4 -3q2 -1 2.5 -4t0.5 -6t-0.5 -6t-1.5 -6q-1 -4 -2.5 -7t-3.5 -6q-4 -7 -10 -14t-14 -13t-18 -9t-21 -3h-40h-5h-4q-14 2 -27.5 3.5t-27.5 2.5q-13 2 -26.5 3.5t-27.5 2.5 q-31 3 -63 5.5t-65 4.5q-12 1 -25.5 2l-26.5 2q-14 0 -28 1l-29 2q0 -9 -0.5 -17.5t-0.5 -17.5q-1 -9 -1 -17.5v-17.5q-1 -18 -1 -36v-35q-1 -34 -0.5 -68.5t1.5 -68.5t2.5 -67.5t3.5 -66.5q0 -12 0.5 -23t1.5 -22q0 -11 0.5 -22.5t1.5 -22.5q1 -5 1.5 -9.5t1.5 -8.5t1.5 -8 t0.5 -8q0 -9 -2 -15.5t-6 -10.5t-9 -6t-11 -2l-40 -1q-1 1 -2.5 1t-2.5 1q-2 0 -3 0.5t-3 0.5q-3 1 -6 1.5t-6 1.5q-5 2 -9.5 4.5l-9.5 5.5q-2 1 -4.5 2.5t-4.5 2.5q-2 2 -3.5 3t-3.5 2q-3 2 -5.5 4.5t-4.5 5.5t-3 5.5t-1 4.5q2 32 3.5 64.5t2.5 65.5q2 32 3.5 64.5 t3.5 64.5q3 65 8 130t11 130v1v0h-2h-2t-2 0.5t-2 0.5h-3h-3q-2 -1 -3.5 -1h-3.5h-4h-3q-2 -1 -3.5 -1h-3.5q-4 -1 -7.5 -1h-6.5h-40q-8 0 -15 1t-13 4t-8.5 8.5t-2.5 13.5zM236 282v1v0v16l4.5 0.5l13.5 1.5t21 1.5t27 1.5t33 1.5t38 1.5l40.5 2l42.5 2l37.5 2l37.5 2 q18 2 35 3.5t32 3.5h40l6 -4q1 -2 1.5 -4.5t0.5 -5.5v-2v-1q-1 -1 -1 -2v-2v-2v-1q-1 -1 -1 -2v-2q-1 -5 -4 -9.5t-6 -9.5q-4 -4 -8.5 -6t-10.5 -2q-4 -1 -9 -1.5t-10 -0.5h-40h-10.5h-11.5h-27.5t-30.5 1l-31.5 2l-32.5 2q-5 0 -10.5 0.5t-10.5 1.5q-5 0 -10 0.5t-10 1.5 q-10 1 -20.5 1.5t-20.5 1.5q-10 0 -19.5 0.5t-18.5 1.5q-18 2 -32 2.5t-24 0.5z" />
<glyph unicode="G" horiz-adv-x="875" d="M24 109q0 20 1 38t4 36q2 9 3.5 18t4.5 18q2 8 5 17t7 18q9 21 22 43.5t31 44.5q18 23 41.5 47t53.5 51q23 23 55 45.5t72 44.5t85 38.5t95 28.5q16 4 31 7t28 4q14 2 27 3t25 1h40q31 0 56 -4.5t44 -13.5q20 -10 33.5 -20.5t22.5 -21.5q2 -2 3 -4.5t3 -4.5 q1 -3 2.5 -5.5t2.5 -4.5q2 -4 3 -8.5t1 -8.5t-1 -7t-3 -6q-1 -3 -4 -5t-6 -3h-40v1v0q-4 -1 -10 1.5t-14 6.5q-7 5 -17.5 9.5t-22.5 10.5q-6 2 -12.5 4.5l-14.5 5.5l-15 4.5t-16 4.5q-13 3 -27 5t-30 3q-20 -1 -42 -4.5t-46 -8.5q-30 -7 -63.5 -20t-70.5 -31 q-9 -4 -19.5 -11.5l-23.5 -17.5l-13.5 -10t-12.5 -11l-13.5 -12l-13.5 -12q-21 -19 -40 -42t-36 -49q-17 -25 -27.5 -53t-13.5 -57q-1 -4 -1.5 -8t-0.5 -8q-1 -4 -1 -7.5v-6.5q0 -37 14.5 -65t42.5 -46q26 -16 56 -26t65 -12l22 2t22 3q17 3 34.5 7t35.5 10q32 10 62.5 24 t60.5 33q30 18 56.5 41t50.5 51l1 5v6q0 5 -0.5 9.5t-1.5 8.5q-1 2 -1.5 4.5t-0.5 5.5q-1 2 -1.5 4.5t-1.5 5.5l-1 4l-1 5q-1 5 -2.5 10.5t-3.5 11.5l-2 11.5t-1 9.5v4l1 5q3 2 6 3.5t6 2.5t6.5 1.5t7.5 1.5h40h4h5q6 0 11.5 -0.5t10.5 -2.5q5 -1 8.5 -2.5t5.5 -3.5 q2 -9 3.5 -18t3.5 -19l4 -20l4 -21l2 -10.5l2 -10.5q0 -5 1 -10.5l2 -10.5l2 -10.5l2 -10.5q0 -5 1 -10.5l2 -10.5q4 -25 7 -50l6 -48l3.5 -43t1.5 -35q0 -8 -0.5 -15.5t-1.5 -13.5t-2 -10t-3 -7l-40 -1q-14 1 -24.5 12.5t-18.5 34.5q-7 22 -13 47.5t-11 53.5q-1 2 -1.5 4.5 t-0.5 5.5q-1 2 -1.5 4.5t-0.5 4.5q-2 11 -4 20.5l-4 19.5q0 1 -0.5 2.5t-0.5 2.5t-0.5 2.5t-0.5 2.5l-0.5 -0.5l-0.5 -0.5l-0.5 -0.5l-0.5 -0.5l-17.5 -14l-16.5 -13l-13.5 -10l-12.5 -10l-13.5 -9.5l-13.5 -9.5q-13 -9 -27.5 -17t-30.5 -15q-13 -7 -29.5 -14.5t-34.5 -13.5 q-19 -6 -38 -11t-39 -8l-32 -6t-31 -5t-29 -3t-26 -1l-40 -1q-4 1 -7.5 1h-6.5h-2.5h-3.5q-1 1 -2.5 1h-2.5q-7 0 -16.5 1t-22.5 3t-27 5t-28 7q-19 6 -36.5 15.5t-33.5 22.5t-24 30.5t-8 39.5z" />
<glyph unicode="H" horiz-adv-x="820" d="M-1 299v2v3q1 1 1 2.5v2.5v3.5v2.5v3.5v3.5h40q2 -1 3.5 -1.5t3.5 -0.5q2 -1 4 -1.5t4 -1.5t4.5 -2t4.5 -1q3 -1 5.5 -2t5.5 -2l12.5 -4l13.5 -4q7 -1 14.5 -2.5t14.5 -1.5h0.5h0.5h0.5h0.5h0.5h1.5v1v0q1 4 1.5 10t0.5 14v8t1 9v9v10v10.5v11.5q-1 6 -1 12.5v12.5 q0 13 -0.5 26.5t-1.5 26.5q-1 21 -2.5 41.5t-3.5 40.5t-4.5 36t-5.5 28q2 3 4 5.5t5 3.5q3 2 6.5 2.5t7.5 0.5h40h3.5h2.5q2 -1 3.5 -1h2.5q3 -1 6 -1.5t7 -1.5q5 -2 10.5 -5t10.5 -6q3 -1 5.5 -3t4.5 -3q2 -2 4 -3.5t4 -3.5t3.5 -4t2.5 -4l2 -7l-24 -275q9 -1 20 -1.5 t23 -0.5h25h27h10h10q6 -1 11 -1h11h1.5h1.5h0.5h1.5h63t60 1t51.5 3t37.5 6h40v0h1q2 0 4.5 -1.5t4.5 -3.5q2 -3 3 -5.5t1 -4.5q0 -3 -2 -6t-7 -5q-4 -3 -11 -4t-18 -1q-47 -6 -93 -11t-91 -8q-45 -4 -89.5 -7l-88.5 -6q-1 -12 -2.5 -27.5t-2.5 -35.5t-1.5 -41t-0.5 -43 q-1 -23 -1 -45v-43v-36v-26q-1 0 -2 -0.5l-1 -0.5q-1 -1 -2 -1h-2h-2t-1 -1h-2h-2l-40 -1q-1 1 -2 1h-1q-1 1 -2 1h-2l-6 -1q-6 2 -11.5 5t-10.5 7t-8.5 9.5t-5.5 12.5q1 5 1.5 10.5t1.5 12.5q0 5 0.5 12.5t1.5 16.5q1 8 1.5 16.5t1.5 17.5q0 9 0.5 18.5t1.5 18.5 q2 21 2.5 41.5t1.5 39.5t1.5 32.5t0.5 21.5h-2t-2 1h-2h-2h-2.5h-2.5h-3h-3h-6h-6h-4.5h-4.5h-5.5h-4.5q-5 0 -10 0.5t-10 1.5q-14 1 -27 4.5t-24 9.5q-12 6 -17 18t-5 29zM622 0q2 25 4 53.5t3 61.5t1.5 67t0.5 68v9.5v8.5v9.5v8.5q0 56 -0.5 107.5t-2.5 97.5 q-1 47 -2.5 75.5t-3.5 38.5l4 4q2 1 4.5 1.5t5.5 0.5h40h2.5h2.5q2 -1 3.5 -1h2.5q3 0 6.5 -0.5t7.5 -1.5q8 -1 14.5 -4l12.5 -6q6 -4 9.5 -7.5t3.5 -8.5v-50v-70v-40.5v-41.5q-1 -21 -1 -42v-43q-1 -27 -1.5 -52.5t-0.5 -50.5q-1 -24 -1.5 -48t-1.5 -47q-1 -46 -4 -73.5 t-6 -38.5l-2 -7l-6 -2h-40q-3 1 -6 1.5t-6 2.5q-2 1 -4 1.5t-3 0.5q-2 1 -3.5 1.5t-3.5 1.5l-5 2l-4 2q-3 2 -6 3.5t-5 3.5q-3 1 -5 2.5t-4 1.5v0v0z" />
<glyph unicode="I" horiz-adv-x="709" d="M13 103v6q0 12 2.5 23t6.5 21q5 10 9.5 18t10.5 14q5 5 9.5 7.5t8.5 3.5h40q5 1 7.5 -1t3.5 -7q-1 -2 -1.5 -4.5t-1.5 -4.5q-1 -3 -1.5 -5.5t-0.5 -4.5q-1 -4 -1.5 -9.5t-0.5 -10.5v-7.5t1 -7.5q0 -4 1 -8t2 -7q5 -20 19.5 -38.5t37.5 -35.5q21 -16 54.5 -25.5 t77.5 -12.5q53 3 95.5 27.5t73.5 70.5q33 49 50 125t17 179v29t-1 31q-1 14 -1.5 28.5t-2.5 30.5v0v0v0h-1v0l-19.5 -2l-19.5 -2l-25.5 -2l-24.5 -2t-24.5 -1.5t-26.5 -1.5q-13 -1 -26 -1.5t-27 -1.5q-13 -1 -28 -1.5t-30 -1.5h-40h-3h-3h-4h-3q-19 0 -35 4t-28 11 q-12 8 -21 16t-15 17q-4 5 -7 10.5t-5 10.5q-1 5 -2 9.5t-1 8.5v4l1 3l6 4h2t2 1h2.5h2.5h40q7 0 16.5 -2t22.5 -5q12 -4 28.5 -7.5t37.5 -8.5q20 -4 45 -8t54 -7q26 -3 55.5 -4.5t63.5 -2.5h3.5t3.5 1h6h6h3.5h3.5h3h3q2 2 2.5 4t1.5 5t1.5 7t1.5 8v3.5t1 3.5v3v3v6v4 q2 1 4 1.5t4 1.5t4.5 1.5t5.5 0.5h40h2h2q1 -1 2 -1h2h2h2q0 -1 1 -1h2q8 -3 16 -7.5t15 -10.5q6 -6 9.5 -13t4.5 -15q4 0 7.5 0.5t6.5 1.5h3.5t3.5 1h3h3h40q3 0 5.5 -0.5t3.5 -1.5l3 -5q0 -4 -3.5 -8t-10.5 -7q-7 -4 -15 -7t-16 -5q-2 -1 -4.5 -1.5t-4.5 -0.5 q-3 -1 -5.5 -1.5t-4.5 -0.5q-4 -1 -8 -1h-7v-5.5t1 -5.5v-6v-6v-13.5v-13.5q0 -22 -1.5 -46.5t-3.5 -51.5t-6.5 -55t-10.5 -57q-13 -55 -37 -105t-59 -97q-35 -46 -88.5 -71.5t-124.5 -30.5l-40 -1q-4 1 -8.5 1h-8.5h-9h-9h-8.5h-8.5q-5 1 -9 1h-9q-33 2 -63 8.5t-58 17.5 q-28 9 -45.5 32t-23.5 57l-2 6v6z" />
<glyph unicode="J" horiz-adv-x="709" d="M-21 -11q0 6 2 12.5t5 13.5q3 8 8.5 17.5t13.5 21.5v1h40v0q2 -6 3.5 -11.5t4.5 -10.5q1 -3 2.5 -6l2.5 -5q2 -3 3.5 -6t2.5 -6l16 -24.5t18 -25.5q10 -12 20.5 -21.5t20.5 -16.5q16 -8 34.5 -15.5t40.5 -14.5q19 -6 38.5 -10t38.5 -5q27 2 52.5 11t49.5 23 q29 18 50 49.5t34 77.5q7 23 13 48.5t10 53.5q5 28 8 56.5l6 58.5q4 46 6 90t3 86q1 41 1.5 72t0.5 53q-1 0 -2 -0.5l-1 -0.5h-2h-2q-7 -1 -15 -2t-16 -1l-16.5 -2l-17.5 -2q-7 -1 -13.5 -1.5t-13.5 -0.5q-7 -1 -13.5 -1.5t-13.5 -1.5l-28.5 -2t-28.5 -1h-4.5h-4.5 q-3 -1 -5.5 -1h-4.5h-40h-8.5h-9.5q-23 0 -45 1t-43 4t-38.5 8.5t-31.5 13.5l-1 4v4l-2 5l-2 6q-1 2 -2 4.5t-2 5.5t-1 6v6v3v4v3l2 4h40q16 -4 37 -7.5t47 -6.5l53 -6t55 -5q39 -4 76 -6.5t71 -4.5q6 0 11 -0.5t10 -0.5t9.5 -0.5t8.5 -0.5q2 14 2.5 20.5l0.5 6.5h40v-3 l-1 -3v-2h-40l-2 2v6v11q2 1 4 1.5t5 0.5h2t3 1h2.5h2.5h40h2h2q1 -1 2 -1h2h2h2q1 -1 2 -1h2q8 -1 15 -4.5t14 -8.5q6 -4 9.5 -10t4.5 -14h1.5h1.5h0.5h1.5h3t3 1h2.5h2.5h40q7 0 12 -1t9 -3t4.5 -6t-2.5 -10l-4 -2t-4 -1q-2 -1 -4.5 -1h-4.5h-40h-4.5h-5.5t-6 0.5t-6 1.5 v-11.5t1 -10.5v-11.5v-11.5v-23.5v-22.5v-7.5v-6.5v-7.5v-7.5v-14v-14q-2 -100 -19 -193t-49 -179q-31 -85 -99 -139.5t-172 -76.5h-2.5t-2.5 -1h-3h-3l-40 -1q-3 1 -5.5 1h-4.5q-10 0 -21 0.5t-22 2.5q-11 1 -22.5 3.5t-22.5 4.5q-25 6 -48 15t-45 21t-36.5 25.5 t-21.5 30.5q0 3 -0.5 5t-1.5 4l-2 4l-2 4q0 1 -0.5 2t-1.5 1q0 1 -0.5 2t-1.5 2l-5 6q0 3 -0.5 5t-1.5 3q0 2 -0.5 3.5t-1.5 3.5q-1 3 -1.5 6.5t-0.5 7.5zM195 293v6q0 2 0.5 3.5t1.5 3.5q2 3 3.5 6t4.5 4q2 2 5 2.5t7 0.5h40q5 0 11.5 -1t14.5 -3t18.5 -4t23.5 -4 q12 -2 26 -4t30 -4q12 -1 25.5 -2t29.5 -2h4t4 1h3h4q9 0 18 0.5t19 1.5h40q3 0 4.5 -1.5t1.5 -4.5t-1.5 -7.5t-4.5 -9.5h-40v1h40v0q-6 -1 -12.5 -2.5l-14.5 -3.5q-7 -1 -15.5 -2.5t-16.5 -3.5q-9 -1 -18 -2.5t-18 -3.5q-10 -1 -19.5 -2.5t-18.5 -2.5l-16.5 -2t-16.5 -1 q-8 -1 -15.5 -1h-15.5h-40q-20 0 -37 2.5t-31 6.5q-13 5 -20.5 13.5t-7.5 21.5z" />
<glyph unicode="K" horiz-adv-x="764" d="M110 7q2 13 3.5 37t2.5 58q2 35 2.5 76.5t0.5 90.5q0 38 -0.5 79t-1.5 84q-1 44 -3 89.5l-4 91.5v1h40v0q8 -1 16.5 -3t15.5 -5q4 -1 7.5 -3t6.5 -3l7 -3.5t6 -3.5q5 -3 8.5 -6t7.5 -5q3 -3 6 -4.5t6 -3.5l-23 -350l23.5 15t26.5 18q29 21 60 46t62 54l32 31l32 32 q17 17 32 33.5l29 32.5l32.5 39.5t28.5 38.5q14 20 24.5 38t17.5 35h40q8 -1 14 -6.5t10 -13.5q4 -9 7 -18t4 -18v-6v-6v-2.5t1 -3.5v-2.5v-2.5v-5.5v-5.5q-1 -2 -1 -4v-4q-1 -4 -1.5 -7t-1.5 -5q-9 -10 -22 -23l-30 -29l-36 -33l-39 -34l-4 -4t-4 -3q-3 -2 -5 -3.5t-4 -3.5 l-4 -4t-4 -3q-3 -2 -5 -3.5t-4 -3.5q-18 -16 -36 -30l-35 -27l-33 -23l-27 -18q11 -13 25.5 -27l31.5 -29l35 -31.5l37 -32.5q2 -2 4.5 -4t5.5 -4q2 -2 4.5 -4t4.5 -4l10 -8l10 -8l68 -54.5l63 -47.5t48 -32.5t23 -10.5l2 -3l1 -3l1 -2v-3q0 -5 -3 -10.5t-11 -9.5 q-7 -5 -15 -8.5t-17 -6.5q-4 -2 -7.5 -2.5t-7.5 -1.5h-3.5t-3.5 -1h-2.5h-3.5l-40 -1q-1 1 -2.5 1h-2.5q-2 1 -3 1h-2l-6 2l-19 15l-18 14q-4 4 -8.5 7.5t-9.5 6.5q-4 4 -8 7.5t-8 7.5q-27 21 -51.5 43.5l-47.5 44.5l-44 44l-43 41q-11 11 -22.5 20.5l-22.5 18.5 q-7 5 -13.5 10.5t-13.5 10.5q-10 -7 -19.5 -14.5l-18.5 -14.5q-12 -9 -22.5 -15.5t-21.5 -9.5l-4 -2h-2v-18.5v-20.5v-10.5v-11.5q-1 -5 -1 -10.5v-11.5q0 -16 -0.5 -31t-1.5 -29q-1 -7 -1.5 -13.5t-0.5 -12.5q-1 -4 -1.5 -9t-1.5 -9q-1 -2 -2.5 -2.5t-3.5 -1.5t-4.5 -1.5 t-4.5 -0.5l-40 -1q-1 1 -2 1h-2q-1 1 -2 1h-2h-2h-2q-1 1 -2 1h-2q-6 2 -11.5 5t-10.5 7q-2 1 -3.5 2.5l-2.5 2.5q-2 2 -3 4t-1 5z" />
<glyph unicode="L" horiz-adv-x="709" d="M37 51v2v6l3 8q2 2 3.5 2.5t3.5 0.5h40q3 0 8 -1t11 -3q6 -1 13 -3.5t14 -4.5q3 -1 5.5 -2t5.5 -1q3 -1 6.5 -2t6.5 -2v0q2 40 4 76t3 68q1 33 1.5 62.5t0.5 55.5q0 44 -1 78.5t-3 60.5t-4.5 46.5l-4.5 35.5q-3 14 -5.5 24.5t-4.5 16.5t-3 11t-1 9l1 4l2 6h4l4 1h40h3h4 q29 0 47 -9t25 -26t10.5 -36t4.5 -39v-4.5v-4.5v-4v-4q-1 -6 -2 -14t-1 -17q-1 -9 -2 -19l-2 -21q-2 -23 -4 -48.5l-4 -53.5l-2 -27l-2 -28l-2 -28l-2 -28l-2 -38.5l-2 -38.5l-2 -37l-2 -35q16 -1 31 -1.5t30 -0.5h9.5h8.5h55t50 1q23 1 44 1.5t40 1.5q18 1 34.5 1.5 t29.5 1.5h13t12 1h11.5h9.5h40q8 0 15 -0.5t11 -1.5q5 -1 8 -1.5t4 -2.5q3 -5 1.5 -8.5t-7.5 -5.5q-7 -1 -16.5 -2.5l-21.5 -3.5q-9 -1 -19.5 -2t-22.5 -2t-24 -3l-24 -4q-65 -8 -118.5 -13t-95.5 -8t-76 -5t-60 -2l-40 -1q-39 1 -64 3.5t-36 8.5q-11 5 -19.5 12.5 t-13.5 16.5q-1 2 -2.5 4.5t-3.5 4.5l-2 2t-1 3q-1 1 -2 2.5t-2 2.5q0 1 -0.5 2t-0.5 2q-1 0 -1 1z" />
<glyph unicode="M" horiz-adv-x="985" d="M-25 -43l2 4h40l3 -1l3 -1l4 -1h-40h3q5 1 8 1.5t5 2.5q3 1 6.5 3.5l7.5 5.5q17 13 33.5 38.5t32.5 62.5q17 38 32 78.5t28 83.5l26.5 86t22.5 81l17 64.5t11 37.5v1v0q-3 4 -5 7l-4 6q-1 2 -2.5 4.5t-3.5 4.5v1v0l-2 2t-1 3q-1 1 -2 2.5t-2 2.5q-1 2 -3.5 5.5l-5.5 7.5 q-1 2 -2.5 3t-2.5 3q-2 1 -3.5 2.5t-3.5 2.5l-7.5 5.5t-7.5 4.5l-3 2l-3 2q-5 3 -9.5 6t-8.5 6t-5.5 7t-1.5 8v3l1 3v2l2 3q2 2 3.5 2.5l4.5 1.5h3.5t2.5 1h3.5h3.5h40q5 0 10.5 -0.5t11.5 -1.5q3 -1 6 -1.5t7 -0.5q3 -1 6.5 -1.5t7.5 -1.5q5 -1 9.5 -3t9.5 -4q4 -1 9 -3 t9 -4q9 -4 16 -7.5t11 -7.5l196 -462l5.5 7.5t4.5 7.5t4.5 8.5l5.5 9.5q2 3 3.5 6.5t2.5 7.5l4 8l4 8l10.5 22.5t9.5 21.5q5 11 9 18.5t8 13.5l181 347h40q20 -1 33 -2.5t19 -4.5q5 -3 8 -7.5t3 -9.5q0 -9 1 -34.5t4 -66.5q2 -42 6.5 -86.5t10.5 -92.5t13.5 -92t17.5 -85 t22 -66.5t27 -35.5q2 -2 3 -4.5t-1 -4.5q-1 -2 -4 -4.5t-8 -5.5q-3 -1 -6.5 -2.5t-8.5 -2.5l-4 -2l-4 -2q-3 0 -5 -1l-4 -2l-11.5 -4t-10.5 -3q-6 -2 -10 -2.5t-7 -0.5l-40 -1l-5 1v2h40h-1v-1h-40h-1v0q-7 1 -14 22.5t-14 66.5l-14 94.5t-13 103.5l-8 68.5l-8 66.5 q-1 14 -2.5 26.5t-3.5 24.5l-6 -10t-5 -10l-6 -10.5l-6 -11.5l-30.5 -58l-31.5 -60l-4 -6l-2 -6l-52 -99.5l-48 -91.5q-23 -43 -38 -66.5t-22 -26.5h-40q-8 -3 -22.5 16.5t-34.5 62.5l-41.5 92l-44.5 102l-2 5l-2 5l-21.5 49l-21.5 48q-1 4 -3 7.5t-3 7.5q-2 3 -3.5 6.5 t-3.5 7.5q-1 -6 -2.5 -12t-2.5 -11q-2 -6 -3 -12t-3 -12l-8.5 -38.5t-9.5 -38.5q-4 -19 -8.5 -38t-9.5 -37q-7 -31 -15 -59.5l-15 -55.5l-15.5 -51.5t-15.5 -46.5q-16 -45 -32.5 -72t-34.5 -34l-4 -3l-5 -1h-40q-3 1 -6 1.5t-6 2.5q-3 1 -6 3l-6 4l-8.5 6.5t-7.5 8.5l-4 4 t-3 4q-2 3 -4 5t-3 4q-2 3 -3.5 6t-2.5 6t-1.5 6t-0.5 5z" />
<glyph unicode="N" horiz-adv-x="930" d="M-29 -68q1 2 1 3v1q1 1 1 2v2l5 6q3 2 6 3t7 1l39 -1q0 1 0.5 1h0.5l0.5 0.5l0.5 0.5v-1l10 10.5t11 13.5q14 20 29 46.5t31 60.5q9 19 17.5 39t16.5 42l16.5 44t15.5 44l21 68.5t18 66.5t12.5 60.5t5.5 49.5q0 14 -4.5 26.5t-12.5 22.5t-17 18t-18 15l-15.5 10t-15.5 9 q-4 2 -7 4t-5 5l-4 4t-3 4q-2 3 -1.5 5.5t4.5 3.5q3 2 8 2.5t12 0.5h40q5 0 12 -0.5t14 -1.5q4 -1 7.5 -1.5t7.5 -0.5q4 -1 8 -1.5t8 -1.5l19.5 -6l19.5 -6l16.5 -7.5t13.5 -8.5q11 -10 30 -35l47 -64l58 -82.5l62 -87.5q2 -2 3 -4t3 -4q1 -2 2.5 -4t2.5 -4q2 -4 5 -7.5 t6 -7.5q33 -48 65 -90l63 -80q19 -23 34.5 -39t27.5 -25q2 5 4.5 10t3.5 11q3 14 5 29.5t3 31.5v3.5t1 3.5v3v4v7.5v7.5v7.5v7.5v7.5v6.5q0 2 -0.5 3.5t-0.5 3.5v3v3v5.5v4.5q0 46 -2 85t-7 72q-4 32 -8.5 59.5t-9.5 49.5l-10.5 40.5t-9.5 30.5q-4 13 -6 23.5t-2 17.5l3 5 q2 1 4 1.5t5 1.5h40q3 0 7.5 -0.5t8.5 -2.5q5 -1 9.5 -2.5t9.5 -3.5q3 -1 5.5 -2.5t5.5 -2.5q2 -2 4.5 -3t5.5 -3q5 -3 9 -6l8 -6q2 -2 3.5 -4t2.5 -4l3 -7v-10.5v-10.5v-12v-12v-47.5v-54.5q0 -28 -0.5 -57.5t-1.5 -59.5q-2 -54 -6.5 -104t-10.5 -97q-7 -46 -18 -72.5 t-26 -35.5l-4 -3l-4 -2h-5l-4 -1h-40q-6 1 -12.5 3t-13.5 6l-13.5 8t-12.5 9t-12 11t-12 13l-12 14l-12 14l-15.5 19.5t-15.5 18.5q-7 9 -13.5 16.5l-11.5 13.5l-137 168l-81 101q-12 16 -23 29t-21 23q-1 -18 -5 -39t-10 -46q-9 -39 -19.5 -79l-22.5 -82l-4 -14l-4 -14 q-3 -7 -5 -13.5l-4 -13.5l-8 -26.5l-8 -26.5q-14 -42 -27.5 -77l-25.5 -65q-13 -29 -21.5 -44t-13.5 -15h-2h-1h-2h-2h-2t-2 -1h-2h-2h-5.5h-4.5h-2t-2 -1h-3h-2l-40 -1q-2 1 -4 1h-3q-2 1 -3.5 1h-3.5q-4 1 -7.5 1.5t-6.5 1.5q-4 2 -8.5 5t-9.5 8q-5 4 -10.5 10t-9.5 14v2z " />
<glyph unicode="O" horiz-adv-x="930" d="M35 202q0 14 1.5 28t5.5 29q3 15 8.5 31t12.5 32v1v0q14 33 37 65t54 63q32 30 65 56t68 48q28 17 55 31.5t54 24.5q27 11 49 16t39 5h40q6 0 11.5 -0.5t9.5 -2.5q5 -1 8.5 -3.5l6.5 -4.5l1 -8q-1 -1 -2 -1.5t-2 -0.5q-2 -1 -4 -1.5t-4 -1.5q-13 -4 -35.5 -9t-54.5 -13 q-31 -7 -65 -23t-70 -40q-2 -1 -4 -2.5t-4 -3.5q-2 -1 -4 -2.5t-4 -3.5q-22 -18 -41.5 -40t-35.5 -48t-28.5 -53t-20.5 -55q-4 -13 -7 -26.5t-5 -27.5q-2 -13 -3 -25.5t-1 -24.5q0 -19 2.5 -37t8.5 -33q6 -16 15 -28t21 -20q11 -14 31 -24.5t48 -16.5q26 -6 53 -9t55 -4 q32 1 62.5 4.5t59.5 9.5q30 6 53 14.5t39 18.5q27 18 53 42t50 52q24 29 40.5 58t25.5 60q1 3 1.5 6t0.5 6q1 2 1.5 5t0.5 6q1 6 1.5 12t0.5 12v3.5v2.5q-1 2 -1 3.5v2.5v3.5v2.5q-1 2 -1 3.5v2.5q-8 55 -26.5 93t-47.5 59q-25 18 -51.5 28.5t-55.5 12.5q-28 -2 -54.5 -9.5 t-52.5 -19.5q-28 -13 -48.5 -27.5t-34.5 -29.5q-2 -3 -4 -5.5t-4 -4.5q-1 -3 -2.5 -5.5t-3.5 -4.5q-2 -5 -4.5 -9t-5.5 -7t-6 -4.5t-6 -2.5l-5 -1h-40h-4q-4 0 -8.5 1t-7.5 4q-3 2 -4.5 5t-1.5 7v3.5t1 3.5t2.5 4t2.5 4q20 27 46.5 48.5t59.5 36.5t67 24.5t69 13.5h4.5 t5.5 1h4.5h4.5h4.5t5.5 1h4.5h5.5h40q51 0 96.5 -12.5t85.5 -38.5q40 -25 60 -63.5t20 -89.5q-3 -77 -40 -144t-108 -123t-149 -89t-163 -43q-9 -2 -18 -2.5t-18 -1.5h-8.5t-8.5 -1h-9h-9l-40 -1q-14 1 -27.5 1.5t-27.5 2.5q-13 1 -26 3.5t-26 5.5q-38 7 -70.5 25t-59.5 45 t-41 61.5t-14 77.5z" />
<glyph unicode="P" horiz-adv-x="764" d="M22 548v1v2v4l2 3q2 2 5 3t7 3q4 1 8.5 2.5t10.5 2.5q11 2 22.5 4.5t23.5 3.5q5 0 10 0.5t11 1.5q5 0 10 0.5t10 0.5q10 1 17.5 1.5t13.5 0.5v4v11v18v22h40q17 0 27.5 -2t14.5 -6q5 -4 8 -9t4 -10q1 -2 1.5 -4.5t1.5 -4.5t1.5 -3.5t1.5 -3.5l18.5 2l19.5 2l18.5 2 l19.5 2q29 3 58 4.5t58 1.5h40q22 0 43.5 -1t43.5 -3q21 -2 42.5 -5.5t43.5 -8.5q29 -9 52.5 -20.5t39.5 -25.5q17 -15 25 -33t8 -39q0 -9 -1.5 -18t-4.5 -19t-7 -20.5t-10 -21.5q-16 -29 -39.5 -55.5t-52.5 -49.5t-59.5 -42t-62.5 -33q-14 -6 -28 -11l-28 -10 q-13 -4 -26.5 -7t-26.5 -5q-2 -1 -4.5 -1h-4.5h-40h-4.5h-4.5h-12t-12 1l-13.5 2l-13.5 2q-18 4 -34.5 10t-31.5 14t-22.5 18t-7.5 20v1v2v0v2l4 4q2 1 3.5 1.5t4.5 0.5h40q5 0 11.5 -1t15.5 -3q8 -1 18 -3.5t22 -4.5q10 -2 21 -4t24 -4l15.5 -2t14.5 -1q6 0 11.5 0.5 t11.5 0.5l11.5 2l11.5 2q17 3 34 9t34 15q2 0 3 0.5l3 1.5q1 1 2.5 1.5t2.5 1.5q2 1 3.5 2t2.5 2q2 0 3.5 1t2.5 2l6 5q2 2 4 3.5t4 2.5q12 11 23 27t21 36q11 20 16 40.5t6 42.5v3v2v6t-1 7q0 3 -0.5 6t-0.5 6q-1 3 -1.5 6t-1.5 7l-2 6l-2 6q-13 27 -35.5 45.5t-52.5 28.5 q-28 9 -57 14.5t-60 6.5q-7 0 -14.5 -0.5t-14.5 -1.5q-8 -1 -15 -1.5t-15 -1.5q-19 -2 -36.5 -4.5l-32.5 -4.5q-8 -1 -15.5 -2.5t-14.5 -3.5q-7 -1 -12.5 -2t-10.5 -2q-1 -34 -2.5 -68t-2.5 -69q0 -17 -0.5 -34.5t-0.5 -34.5v-35.5v-34.5v-76.5t1 -76.5q1 -39 2.5 -77 t2.5 -75l-40 -1q0 1 -3.5 1.5t-11.5 1.5q-7 1 -15 2.5t-17 3.5t-17 5t-16 7q-7 3 -10.5 7.5t-3.5 10.5q-1 4 -1 7.5v7.5v8v8q0 23 1 48.5t4 54.5q2 29 5 58.5t7 60.5v7.5t1 7.5q0 4 0.5 8t1.5 8q2 27 4.5 53.5t4.5 52.5t3 51t1 47v10.5v9.5v4v4v0q-4 -1 -7.5 -2.5t-7.5 -3.5 l-14.5 -6l-15.5 -6q-7 -3 -13 -4t-11 -1h-40l-6 1l-4 2l-6 4t-6 6q-3 3 -5 6.5t-4 7.5q-1 2 -2 4.5t-1 4.5q0 1 -0.5 2t-0.5 2z" />
<glyph unicode="Q" horiz-adv-x="930" d="M35 202q0 14 1.5 28t5.5 29q3 15 8.5 31t12.5 32v1v0q14 33 37 65t54 63q32 30 65 56t68 48q28 17 55 31.5t54 24.5q27 11 49 16t39 5h40q6 0 11.5 -0.5t9.5 -2.5q5 -1 8.5 -3.5l6.5 -4.5l1 -8q-1 -1 -2 -1.5t-2 -0.5q-2 -1 -4 -1.5t-4 -1.5q-13 -4 -35.5 -9t-54.5 -13 q-31 -7 -65 -23t-70 -40q-2 -1 -4 -2.5t-4 -3.5q-2 -1 -4 -2.5t-4 -3.5q-22 -18 -41.5 -40t-35.5 -48t-28.5 -53t-20.5 -55q-4 -13 -7 -26.5t-5 -27.5q-2 -13 -3 -25.5t-1 -24.5q0 -19 2.5 -37t8.5 -33q6 -16 15 -28t21 -20q11 -14 31 -24.5t48 -16.5q26 -6 53 -9t55 -4 q32 1 62.5 4.5t59.5 9.5q30 6 53 14.5t39 18.5q27 18 53 42t50 52q24 29 40.5 58t25.5 60q1 3 1.5 6t0.5 6q1 2 1.5 5t0.5 6q1 6 1.5 12t0.5 12v3.5v2.5q-1 2 -1 3.5v2.5v3.5v2.5q-1 2 -1 3.5v2.5q-8 55 -26.5 93t-47.5 59q-25 18 -51.5 28.5t-55.5 12.5q-28 -2 -54.5 -9.5 t-52.5 -19.5q-28 -13 -48.5 -27.5t-34.5 -29.5q-2 -3 -4 -5.5t-4 -4.5q-1 -3 -2.5 -5.5t-3.5 -4.5q-2 -5 -4.5 -9t-5.5 -7t-6 -4.5t-6 -2.5l-5 -1h-40h-4q-4 0 -8.5 1t-7.5 4q-3 2 -4.5 5t-1.5 7v3.5t1 3.5t2.5 4t2.5 4q20 27 46.5 48.5t59.5 36.5t67 24.5t69 13.5h4.5 t5.5 1h4.5h4.5h4.5t5.5 1h4.5h5.5h40q51 0 96.5 -12.5t85.5 -38.5q40 -25 60 -63.5t20 -89.5q-3 -77 -40 -144t-108 -123t-149 -89t-163 -43q-9 -2 -18 -2.5t-18 -1.5h-8.5t-8.5 -1h-9h-9l-40 -1q-14 1 -27.5 1.5t-27.5 2.5q-13 1 -26 3.5t-26 5.5q-38 7 -70.5 25t-59.5 45 t-41 61.5t-14 77.5zM216.5 -69q3.5 7 18.5 12q14 5 30.5 8.5t35.5 5.5q12 1 23.5 2.5t21.5 1.5q11 1 18.5 1h13.5l40 -1q4 1 7.5 1h7.5h4t4 -1h4h4l34.5 -4t34.5 -5t34.5 -7l34.5 -8q8 -2 16.5 -3.5t16.5 -3.5q8 -1 16.5 -3t16.5 -3l32.5 -6t31.5 -4h3.5t3.5 -1h3.5h3.5 q11 1 20 3t16 4l22 7.5t18 8.5t14 9.5t10 8.5q5 4 8.5 5.5t7.5 1.5l40 -1h3l3 -2l2 -1l3 -4q0 -28 -10 -47.5t-30 -29.5q-20 -11 -42 -17.5t-45 -7.5h-2.5t-3.5 -1h-2.5h-3.5l-40 -1q-3 1 -5.5 1h-4.5q-10 0 -20 0.5t-19 1.5q-10 1 -18 1.5t-15 1.5q-4 1 -7 1.5t-6 0.5 q-3 1 -5.5 1.5t-4.5 0.5q-21 6 -40 12l-37 12t-34 12l-31 12v-1v0q-17 5 -33.5 8.5t-32.5 5.5q-8 0 -15.5 1t-14.5 1q-4 0 -7.5 0.5t-7.5 0.5h-4t-3 -1h-4h-4q-10 -1 -18.5 -2l-16.5 -2q-8 0 -15.5 -0.5t-13.5 -1.5q-7 -1 -12 -1.5t-10 -0.5l-40 -1q-7 11 -3.5 18z" />
<glyph unicode="R" horiz-adv-x="820" d="M0 542v2v2v2v2q7 7 17.5 11.5t25.5 7.5q15 2 31 4.5t32 3.5h2h1q5 0 10.5 0.5t10.5 1.5t10 1.5t10 1.5l6 1l1 5l-1 4v5l-1 6v3.5v3.5v4.5v4.5t0.5 4.5t1.5 5.5l5 3h2t2 1h2.5h2.5h40q3 0 6 -0.5t7 -1.5t8 -3l8 -4q3 -3 6.5 -6t7.5 -8l2.5 -2.5t2.5 -3.5l2.5 -2.5 t2.5 -3.5q7 1 15 1.5t17 1.5q23 2 47 3t49 1h40h5h6q26 0 50 -0.5t48 -2.5q12 -1 22.5 -1.5t19.5 -0.5q9 -1 17 -1.5t15 -1.5q5 -1 9.5 -1.5t8.5 -1.5q5 -1 10 -1.5t10 -1.5q20 -4 37.5 -12.5t33.5 -19.5q17 -11 25 -28.5t8 -41.5v-3v-2v-3v-2q-7 -45 -28 -78t-57 -55 t-74 -37t-79 -23q-16 -3 -32.5 -5l-32.5 -4q-16 -1 -31 -1.5t-29 -0.5l25 -24l34 -32l41 -36l45 -37q5 -5 11 -10l12 -10q3 -3 6 -5.5t7 -4.5q3 -3 6 -5.5t6 -4.5l56 -41l53 -36q26 -16 46 -23.5t33 -7.5l-40 -1q1 1 2 1h2q0 1 1 1h2l6 1h40q4 -1 5 -4t-1 -7q-2 -5 -6 -9.5 l-9 -10.5q-3 -2 -6 -4.5t-6 -5.5q-2 -2 -4 -3t-3 -3q-2 -1 -3.5 -2.5t-3.5 -2.5l-4 -2l-4 -2q-2 0 -4 -1l-4 -2q-4 -2 -7 -3t-6 -1l-40 -1h-2v0l-2 1h-1l-43 29.5l-57 39.5l-67 49l-70 54q-3 2 -6 4.5t-5 4.5q-3 2 -6 4.5t-6 4.5t-6 4.5t-5 5.5q-3 2 -6 4.5t-6 4.5l-47 38.5 l-45 37.5q-22 18 -40.5 35t-33.5 33q7 7 14.5 11.5t14.5 6.5q8 2 15.5 3.5t15.5 1.5h40h4.5h5.5q2 -1 4.5 -1h5.5q5 -1 10.5 -1.5t11.5 -0.5q5 -1 11 -2t12 -1h2h2q1 -1 2 -1h2q3 0 5.5 0.5t5.5 0.5q2 0 5 0.5t6 0.5q12 1 24 2.5t24 4.5q22 5 43 13t41 20q20 11 37 28.5 t30 39.5q4 7 7 13.5t4 12.5q2 6 2.5 12t0.5 12q0 22 -11 39t-32 30q-22 12 -45.5 21t-49.5 15q-15 3 -29 5t-28 3q-6 1 -12 1.5t-12 0.5h-1.5h-1.5h-4.5h-4.5q-3 -1 -5.5 -1h-4.5q-12 -1 -23 -2.5t-22 -3.5q-11 -1 -21.5 -2.5t-19.5 -3.5q-7 -1 -14 -2.5t-13 -3.5l-11.5 -2 t-10.5 -2q-3 -43 -5 -86l-4 -85l-2 -82.5t-1 -79.5v-60t1 -58l2 -54.5l2 -52.5q-1 -1 -3.5 -3t-4.5 -3q-3 -1 -6 -1.5t-6 -0.5l-40 -1q-1 1 -2.5 1h-2.5q-2 1 -3 1h-3q-3 1 -5.5 1.5t-4.5 1.5q-7 2 -13 4t-11 5q-6 3 -10 6.5t-7 7.5l-4 5l-1 6v1v0l23 505q-2 -1 -4 -1.5 t-4 -0.5q-2 -1 -4 -1.5t-4 -1.5l-2 -1h-2q-9 -3 -16.5 -6t-14.5 -5q-7 -3 -12 -4.5t-7 -3.5l-2 -1h-1l-2 -1h-40h-1h-5l-5 2q-4 2 -8.5 5t-7.5 7q-4 5 -5.5 9.5t-1.5 9.5z" />
<glyph unicode="S" horiz-adv-x="764" d="M1 63v4.5t1 3.5q0 1 1 2t1 2q1 0 2 1l2 2l5 3l4 1h40h1l2 -1q3 -1 8.5 -5.5t12.5 -12.5q8 -7 27 -15.5t50 -17.5q21 -4 41.5 -6.5t39.5 -4.5l29.5 -2t27.5 -2q32 1 60.5 4.5t53.5 9.5q29 7 53 14.5t43 16.5q10 5 18 9.5l15 8.5l12 8.5t8 6.5l4 4l5 6q9 11 15 21.5t9 21.5 t4.5 24t1.5 26q0 23 -18 39.5t-53 26.5t-88.5 18.5t-125.5 15.5q-6 1 -12 1.5t-12 1.5q-6 0 -12 0.5t-12 1.5t-12.5 1.5t-13.5 1.5q-6 0 -12.5 0.5t-13.5 1.5q-5 0 -10 1l-10 2t-10.5 2.5t-10.5 2.5q-17 5 -33 12t-30 17t-21 24t-7 32v8t1 8t2.5 8.5t2.5 8.5v1v0 q20 40 48 70.5t65 52.5q36 21 74.5 36t78.5 23q14 3 28 5t28 3q14 2 27.5 2.5t26.5 0.5h40q38 0 70 -4.5t59 -12.5q27 -9 42.5 -19.5t19.5 -23.5q1 -1 2 -2.5t2 -2.5q0 -2 1 -4l2 -4t1.5 -4.5t1.5 -4.5q1 -3 1.5 -5.5t1.5 -4.5v-4v-4l1 -7q0 -4 -0.5 -7t-2.5 -6q-1 -3 -3 -4 t-4 -1h-40q-2 0 -5 1t-6 3q-4 2 -8 5.5t-9 8.5q-21 16 -44.5 27.5t-49.5 18.5q-23 6 -46.5 9.5t-47.5 4.5q-43 -1 -82.5 -11t-74.5 -27q-41 -19 -62 -43t-21 -52v-4.5v-4.5q0 -3 0.5 -5.5t1.5 -4.5t2 -4.5t2 -4.5q1 -3 2.5 -5.5t2.5 -4.5q12 -21 34 -33.5t54 -17.5 q32 -4 67 -7.5t74 -5.5h6h6q3 -1 6 -1h6h6h7q3 -1 6.5 -1h6.5l22 -2l23 -2l22 -2t22 -3q22 -3 42 -7.5t39 -11.5q17 -6 29 -14t19 -18t10.5 -21.5t4.5 -23.5q0 -7 -1 -13.5t-3 -13.5q-1 -7 -3.5 -13.5t-5.5 -13.5q-7 -16 -17 -31.5t-22 -30.5t-24.5 -27.5t-26.5 -23.5l-6 -4 l-6 -4q-1 -1 -2.5 -2t-2.5 -2q-2 -1 -3 -2t-3 -2l-3 -2l-2 -1l-57 -26.5t-64 -24.5t-68.5 -20t-69.5 -15q-10 -2 -20 -2.5t-20 -1.5t-20 -1.5t-20 -0.5l-40 -1q-3 1 -6.5 1h-6.5q-4 1 -7 1h-6q-6 0 -12 0.5t-12 1.5q-22 0 -42.5 5t-39.5 15t-33.5 19.5t-25.5 20.5 q-6 5 -10 10.5t-7 10.5t-4.5 10.5t-1.5 9.5z" />
<glyph unicode="T" horiz-adv-x="764" d="M-11 594l1 7l3 4l3 1h40h4q6 0 16.5 -1.5l25.5 -3.5q8 -1 16 -2.5t18 -2.5q9 -2 19.5 -3t21.5 -3q21 -3 45 -6t50 -5q17 -2 34.5 -3l36.5 -2q0 8 0.5 15.5t1.5 13.5t4.5 10.5t9.5 7.5l5 1h40l6 -1q2 -1 3.5 -2t3.5 -3q1 -2 3 -4t3 -4q3 -4 5.5 -9.5t3.5 -10.5v-2v-2v-3 l-1 -2l-1 -3v-2q13 -1 25 -1.5t24 -0.5h0.5h1.5h1.5h0.5h41.5t36.5 1l33 2l31 2h8t8 1q3 0 7 0.5t8 0.5q8 0 15.5 0.5t15.5 1.5h12h12h6t7 1h6.5h6.5h40l7 -6l-3 -5q-7 -4 -23 -8t-42 -8t-54 -7.5t-58 -5.5q-22 -2 -42.5 -3.5t-40.5 -3.5q-20 -1 -36.5 -1.5t-29.5 -0.5h-40 h-8h-7h-5.5t-4.5 1h40l-24 -306v-23v-25q0 -7 0.5 -13.5t0.5 -12.5q1 -7 1.5 -13.5t1.5 -13.5l4 -26t5 -25q3 -13 8 -24t11 -22q2 -4 5 -7.5t7 -5.5h0.5h0.5q0 -1 0.5 -1h0.5q3 1 6 1.5t6 1.5q11 3 21.5 7.5l21.5 9.5l10 4t10 5q2 1 4.5 2t5.5 3q2 1 4.5 2.5t4.5 2.5 q11 6 20 11.5l18 10.5l15 9l12 7l6 3l6 2h40h3h3q6 0 11 -1.5t9 -4.5t5 -6.5t-1 -7.5l-5 -4l-6 -4q-6 -4 -14 -8.5l-17 -9.5t-19.5 -10l-21.5 -10q-10 -4 -19.5 -8.5l-20.5 -9.5l-10 -4l-10 -4q-6 -1 -11 -2.5t-10 -3.5l-31.5 -8l-30.5 -8q-15 -3 -28 -5t-25 -2l-40 -1 q-26 1 -43.5 9t-25.5 23q-9 16 -13 35.5t-4 41.5v12t1 13v6t1 7q0 3 0.5 6t0.5 6v4.5t1 5.5q0 2 0.5 4.5t0.5 4.5q0 5 1 10l2 10q0 5 0.5 10t1.5 11q0 5 0.5 10t1.5 10q2 10 2.5 19t0.5 17q0 11 1 25t4 32q2 18 5 37.5l6 40.5v3l1 4q3 20 5.5 38.5t4.5 36.5l3.5 32t1.5 26v0 h-2.5h-2.5h-3h-3h-14h-14q-8 -1 -15 -1h-14h-2v0q-10 -1 -20 -1.5t-19 -0.5h-40h-19h-18h-22.5t-20.5 1q-10 0 -17.5 1t-13.5 2q-9 2 -17 6t-15 9t-12.5 10.5t-9.5 11.5q-2 4 -4.5 8t-3.5 8q-2 4 -3 7.5t-1 6.5z" />
<glyph unicode="U" horiz-adv-x="820" d="M101 114.5v13.5v13.5v13.5q0 32 1 60t4 52t6 44.5t6 38.5q2 12 4.5 22.5l4.5 19.5t4 17t3 15q4 17 7 32t4 28q2 14 3 25.5t1 21.5q0 11 -0.5 20t-2.5 16q-1 4 -1.5 7.5t-0.5 6.5q-1 3 -1.5 6t-1.5 6q-3 11 -4.5 17.5t-3.5 10.5q-1 4 2.5 7t10.5 6l5 1l6 2h40 q22 -4 37.5 -9.5t24.5 -13.5q9 -7 13.5 -18.5t4.5 -25.5q0 -16 -4.5 -37.5t-12.5 -48.5q-9 -27 -18.5 -62l-20.5 -77h-40v1h40v0q-1 -2 -1.5 -4.5t-0.5 -5.5q-1 -3 -1.5 -6.5t-1.5 -7.5t-1.5 -7.5t-0.5 -7.5q-1 -4 -1.5 -8t-1.5 -9q-1 -4 -1.5 -7.5t-0.5 -7.5 q-1 -4 -1.5 -7.5t-0.5 -6.5q-2 -15 -3.5 -29t-3.5 -28q-1 -13 -2 -21t-1 -11q2 -23 11 -43t25 -37q12 -13 27 -21.5t32 -11.5q1 1 1.5 1h1.5l14 4t14 6q29 14 54.5 36t47.5 51q23 29 42.5 60t37.5 63q8 14 14.5 27.5t13.5 26.5l13.5 26.5l12.5 24.5q5 8 8.5 18.5t6.5 23.5 t5.5 26.5t4.5 26.5q2 15 4.5 29.5t3.5 28.5l3.5 25t2.5 19h40h4h5q26 0 42 -9t23 -27q6 -18 9.5 -37.5t4.5 -41.5v-4.5v-4.5q-1 -2 -1 -4.5v-4.5v-8v-8v-4v-4q-1 -2 -1 -4v-4v-8v-8v-7v-6v-6t1 -5q2 -21 4.5 -40.5t3.5 -38.5q2 -19 3.5 -36t2.5 -34q3 -46 8.5 -84t12.5 -67 q8 -28 24.5 -46t42.5 -24q1 -2 0 -4t-3 -3q-3 -2 -6 -4.5t-7 -5.5l-4 -2l-4 -2q-2 0 -4 -1l-4 -2l-8 -4l-8 -4q-7 -2 -14.5 -4.5l-13.5 -4.5q-7 -2 -11.5 -3t-6.5 -1l-2 -2h-40h-2q-9 1 -16.5 14.5t-13.5 39.5q-6 27 -11 57.5t-10 64.5l-2 14t-1 15l-2 14l-2 14l-2 13.5 t-1 13.5l-2 12.5l-2 12.5v1.5v1.5q-1 1 -1 2v2v2v2q-1 0 -1 1v2q-1 2 -2 5t-1 7q-1 4 -1.5 8.5t-0.5 9.5q-1 5 -1.5 9.5t-1.5 9.5t-1.5 10.5t-0.5 11.5q0 2 -0.5 4t-0.5 4q-1 2 -1.5 4t-0.5 4q-1 -2 -1.5 -4t-1.5 -4t-1.5 -4t-1.5 -4q-7 -19 -16 -37.5l-19 -38.5 q-18 -36 -40 -70.5t-48 -67.5t-57.5 -58.5t-67.5 -42.5q-4 -2 -8 -3.5t-8 -3.5q-4 -1 -7.5 -2.5t-7.5 -3.5q-8 -1 -16 -2.5t-16 -2.5q-7 -2 -14.5 -2.5t-15.5 -0.5l-40 -1q-23 1 -43.5 7t-37.5 19q-18 13 -27.5 33.5t-11.5 48.5q-1 7 -1 13.5z" />
<glyph unicode="V" horiz-adv-x="709" d="M0 613v4v4v1v0h2q1 0 2.5 0.5t3.5 1.5h4.5t5.5 1h3.5t3.5 1h4h4h40q7 0 15 -0.5t18 -2.5q9 -1 20 -3.5t24 -6.5q11 -4 20 -13t16 -23q8 -14 15 -29l14 -31l7.5 -21.5l7.5 -21.5l7.5 -18.5t7.5 -15.5q5 -10 10.5 -23l11.5 -27q5 -15 11 -30l12 -31l4 -13.5l4 -12.5 q2 -7 4.5 -13.5t5.5 -12.5l26 -75l23 -68q6 -16 11.5 -29t9.5 -21l0.5 0.5l1.5 1.5l1.5 1.5l0.5 0.5q8 9 17 20.5t18 24.5q3 4 6 8.5t6 8.5q3 5 6 9.5t6 9.5q8 12 14.5 23.5l12.5 22.5l11 20l9 16q40 60 66 110t39 89q12 39 18.5 70t6.5 54q0 9 -0.5 17.5t-1.5 15.5 q-1 4 -1.5 7.5t-0.5 6.5q-1 3 -1.5 6t-1.5 6q-1 5 -2.5 9t-3.5 8q-1 3 -1.5 6t-0.5 5l1 4l2 3h1l2 1h40v0h2q3 0 7.5 -1t8.5 -3q5 -2 9.5 -5t8.5 -6q5 -4 10 -8.5t10 -9.5l10 -11.5t9 -10.5l6 -11.5l6 -10.5q2 -5 3.5 -9.5t1.5 -8.5q0 -15 -4.5 -32.5t-12.5 -37.5 q-8 -21 -18 -42t-22 -42q-2 -4 -4.5 -8l-4.5 -7q-2 -4 -4.5 -8t-4.5 -8l-8.5 -14.5l-9.5 -15.5l-27.5 -42l-25.5 -38q-13 -18 -21.5 -31l-13.5 -21l-15 -22.5t-19 -26.5l-21.5 -29l-22.5 -30l-6 -8t-6 -7q-3 -4 -6 -7.5t-5 -7.5l-35 -41t-33 -35q-16 -15 -27 -22.5t-17 -5.5 l-40 -1q-6 -1 -18 21.5t-31 70.5l-39.5 101.5l-43.5 111.5q-1 2 -2 4.5t-2 4.5t-1.5 4.5t-1.5 5.5l-29 73.5l-28 69.5l-26 61t-22 46q-3 5 -6 9t-6 7q-4 3 -7 6t-6 5t-6 2.5t-5 1.5q-3 1 -5.5 2t-4.5 2q-4 2 -7.5 3.5t-5.5 3.5t-3 5.5t-1 7.5z" />
<glyph unicode="W" horiz-adv-x="1040" d="M8 605q2 4 6 7t8 5q5 2 10.5 3t11.5 1h40q4 0 8 -0.5t8 -1.5q2 0 4 -0.5t5 -0.5q2 -1 4 -1.5t4 -0.5l6 -2t7 -2l6 -2l6 -2q6 -2 11.5 -4.5t10.5 -4.5l9.5 -5.5t7.5 -4.5t5.5 -3.5t3.5 -3.5q5 -12 10 -30t11 -42l10.5 -52l11.5 -57q1 -8 2.5 -16t2.5 -16q1 -4 1.5 -8 t1.5 -7q1 -4 1.5 -8t1.5 -8q8 -49 16.5 -94.5t17.5 -86.5q3 -15 6 -27.5t6 -21.5l9 18t10 22l32.5 69.5l36.5 76.5l6 14l6 14t6.5 14t7.5 14l31.5 60.5t30.5 52.5t27.5 36t22.5 12h2h2h1l2 1h40v0h2q10 0 21 -17.5t23 -52.5l24.5 -75l25.5 -81l4 -16t5 -16q2 -7 4.5 -14.5 t4.5 -15.5l10 -32t11 -30l10 -27.5t10 -25.5l9.5 -20t9.5 -15q27 25 49 54t38 62q18 36 31 73.5t21 75.5l4 21.5l4 21.5q1 10 2.5 21t2.5 21q2 21 3 41.5t1 39.5q0 20 -0.5 39t-2.5 37q-1 18 -3.5 34t-4.5 30h40q24 -3 41 -12.5t27 -26.5q11 -16 16 -36.5t5 -45.5 q0 -23 -3.5 -48.5t-11.5 -53.5q-7 -28 -17 -56t-22 -57q-12 -28 -26 -56t-29 -55q-7 -13 -15 -26t-15 -26l-15.5 -24t-15.5 -23q-17 -25 -33.5 -45.5t-33.5 -37.5q-16 -16 -30.5 -25.5t-26.5 -13.5l-40 -1q-18 6 -33 25.5t-28 53.5q-13 35 -25.5 72.5t-24.5 77.5 q-1 5 -2.5 9.5t-3.5 8.5q-1 5 -2 9.5t-2 8.5q-4 15 -9 29.5t-9 28.5l-9.5 27t-9.5 26l-8 21t-9 18l-75.5 -146t-50.5 -106q-21 -46 -38 -78.5t-31 -51.5q-2 -3 -4.5 -5.5t-4.5 -3.5t-3 -2.5t-2 -2.5q-2 -1 -3 -2l-2 -2q-4 -4 -9.5 -7.5l-10.5 -6.5l-40 -1v0v0v0v0h-1v0 q-5 1 -11 10t-13 27q-7 19 -13.5 42.5l-14.5 51.5l-6 22.5l-6 23.5t-5.5 24t-4.5 24l-14 62.5t-13 59.5t-10 50.5t-6 34.5q-3 17 -6 32t-6 28q-4 13 -7 24t-6 20q-7 18 -13.5 31.5t-12.5 22.5q-5 6 -10 11t-10 8q-4 3 -8.5 6t-8.5 6l-4 2l-4 2z" />
<glyph unicode="X" horiz-adv-x="764" d="M-39 -57l1 1v1l361 386v0v0l-197 228q-3 2 -6 4.5t-6 5.5q-1 2 -2.5 3t-2.5 3q-2 1 -3 2.5t-3 2.5q-12 9 -23 16t-22 11q-10 4 -17.5 7.5t-12.5 6.5l-5 6q0 2 2 4.5t6 5.5q7 2 13.5 2.5t13.5 1.5h6t7 1h6h6h40q41 0 72.5 -12.5t53.5 -36.5q23 -24 44 -51t40 -57 q0 -1 0.5 -2t1.5 -1q0 -1 0.5 -2t1.5 -2l4 -6l16 -25.5l16 -24.5l4 -6t5 -6q2 -3 4 -5.5t4 -5.5q7 6 14.5 14l16.5 18q18 20 38 40l42 42l4.5 4.5l4.5 4.5l4.5 4.5l5.5 5.5l35.5 34.5l33.5 32.5l31 27t26 19q3 2 7 3t8 0h40q5 -1 9.5 -2.5t8.5 -4.5l8 -6t8 -7l4 -4l4 -4 q2 -3 4 -5t3 -4q5 -7 9 -13.5t5 -12.5q2 -6 0 -8.5t-7 -2.5h-40q-1 0 -2 0.5l-1 0.5q-1 1 -2 1h-2h-2t-1 1h-2h-2h40q-13 0 -29 -6t-36 -18l-40 -26t-42 -31q-3 -2 -6 -4.5t-6 -4.5q-3 -3 -6 -5.5t-6 -4.5t-6 -4.5t-6 -4.5l-5.5 -5.5t-5.5 -4.5l-36 -31l-32 -29l-27.5 -26 l-19.5 -19l19 -29.5t26 -36.5q14 -21 30 -42t34 -42l12 -16t13 -16l12.5 -14.5l13.5 -15.5q21 -25 42 -46t40 -38q20 -17 36 -25.5t29 -8.5h3h2q1 -1 2 -1h2l3 -3q0 -1 -1.5 -3.5t-3.5 -4.5q-3 -2 -6 -4.5t-8 -4.5q-4 -1 -9.5 -3t-10.5 -4l-6 -2t-5 -2l-6 -2l-6 -2 q-4 -1 -7.5 -1.5t-6.5 -1.5q-4 -1 -7.5 -1.5t-6.5 -0.5l-40 -1q-1 1 -2 1h-2q-2 1 -3 1h-2q-2 0 -4 0.5t-4 1.5q-7 2 -23 16.5t-39 42.5l-48 59l-51 65l-4 5l-4 6q-7 8 -13.5 16.5t-12.5 17.5q-7 8 -13.5 16.5l-12.5 16.5q-7 10 -14 19l-13 17q-89 -100 -148 -177t-89 -130 q-31 -57 -51.5 -84t-29.5 -24l-40 -1l-1 1l-4 4t-6 7t-6 9q-2 2 -3.5 4.5t-2.5 5.5q-1 1 -1.5 2.5t-1.5 2.5l-1.5 3l-1.5 3q-2 4 -3.5 8.5t-2.5 9.5q-2 4 -2.5 7.5t-0.5 6.5l-1 1v2z" />
<glyph unicode="Y" horiz-adv-x="709" d="M-26 614q1 5 4.5 8t9.5 4q6 2 12.5 3t14.5 1h40h3.5h2.5q2 -1 3.5 -1h2.5h6h6q10 -1 19.5 -3l18.5 -4t15 -4.5t10 -4.5q20 -10 40.5 -46t42.5 -98l47.5 -130.5l53.5 -140.5l12.5 -32.5t13.5 -32.5q2 -4 3.5 -8t2.5 -8q2 -4 3.5 -8t2.5 -8q14 17 27 35l26 37l36.5 54 t33.5 55q26 44 46 87.5t36 85.5t24 79t8 68q0 8 -0.5 16t-2.5 15q-1 8 -3 14.5l-4 12.5q-3 8 -0.5 9t10.5 -4h40q8 -5 18 -13t20 -19l4 -4l4 -4q1 -3 3 -5l4 -4l4 -4t3 -4q2 -3 4 -5t3 -4q5 -6 8 -12l6 -12t4.5 -11t1.5 -10l-1 -7l-2 -5q-100 -192 -180.5 -315.5 t-140.5 -179.5q-60 -54 -90 -93t-30 -63q1 -1 3 -1.5t5 -1.5q9 1 19.5 1.5t22.5 2.5q11 1 21.5 2.5t21.5 2.5q12 2 23 3t23 3q2 1 3.5 1.5t3.5 0.5h4h4q18 3 36 5.5t35 4.5q17 3 31.5 4.5t26.5 2.5l40 -1q3 1 5 0t2 -4t-1.5 -6t-4.5 -6l-6 -4t-7 -4t-9 -3.5t-11 -2.5 l-362 -88q-2 0 -4 -0.5t-4 -0.5h-2t-2 -1h-3h-2l-40 -1h-2h-1q-6 2 -11 3.5t-10 4.5q-4 3 -7 8t-3 11v4t1 4q0 2 1 4.5t2 4.5l56 55.5l52 50.5q23 23 35.5 36.5t13.5 20.5v0q-6 10 -17.5 37l-28.5 70l-37.5 91.5l-41.5 98.5l-12 27.5l-12 26.5q-6 14 -12 26.5l-12 25.5 q-19 39 -37.5 72.5l-35.5 61.5q-18 29 -32 44t-27 17l-3 4z" />
<glyph unicode="Z" horiz-adv-x="764" d="M6 22q0 3 1 7t3 8t6 8.5t8 8.5l28 20l31 23l34 25l35 26l4 3l6 4l58 41l55 38l44 30l27 18v1v0l-19 9.5l-17 8.5q-9 4 -16 7.5t-13 7.5l-7 3.5l-5 2.5q-3 2 -5 4l-4 4v3.5v3.5v4.5t1 4.5q0 5 1.5 10t3.5 9t6.5 5t10.5 -1h40q18 -9 33 -17.5t27 -16.5q1 -1 2.5 -1.5 t2.5 -1.5q3 -1 5.5 -2.5t4.5 -3.5q4 4 9 8.5t10 8.5q11 9 22.5 19.5l23.5 21.5l5 4l5 5l18 17.5l17 16.5l15 15.5t12 13.5l4 4l4 5l23 26.5t21 25.5q11 13 16 24t5 20q0 7 -3.5 12t-11.5 9q-7 3 -18 5t-27 3q-11 0 -22.5 -0.5t-23.5 -1.5q-7 0 -14.5 -0.5t-14.5 -1.5 q-8 0 -15 -0.5t-15 -1.5l-45.5 -6l-45.5 -6l-43 -7.5t-41 -6.5l-14 -4l-14 -4q-4 -1 -7.5 -2t-6.5 -2q-4 -1 -7.5 -1.5t-7.5 -1.5q-15 -4 -29 -7t-28 -5q-13 -2 -26 -3t-25 -1h-40q-1 2 -2.5 4.5t-2.5 5.5q-1 2 -1 4.5v4.5q0 9 4.5 17.5t14.5 15.5t20.5 12.5t22.5 9.5 q4 2 8 3l8 2q3 1 7 2l8 2q8 2 13.5 2.5t9.5 0.5l35.5 4t37.5 3q20 2 40 2.5t40 0.5h40h2h2h1h2h4h4h5h6q41 0 79.5 -1.5t75.5 -4.5q18 -1 34.5 -3t30.5 -3q15 -2 27.5 -3.5t22.5 -3.5l10 -2t9 -2q5 -1 8 -1.5t5 -1.5q11 -4 19.5 -9.5t13.5 -11.5t7.5 -12.5t2.5 -14.5 q0 -7 -2 -13.5t-5 -14.5l-8.5 -14.5l-9.5 -15.5q-6 -8 -12.5 -15.5t-14.5 -15.5l-14.5 -14.5t-15.5 -13.5q-11 -10 -21.5 -18l-20.5 -16l-17.5 -12.5t-12.5 -8.5q-3 -2 -5.5 -4t-4.5 -4q-3 -3 -5.5 -5t-5.5 -4l-11.5 -8t-10.5 -8l-20 -14.5l-20 -14.5l-18.5 -13l-16.5 -12 q5 -2 9.5 -4.5t10.5 -4.5t12 -4.5t12 -5.5q2 -1 3.5 -1.5t2.5 -0.5q2 -1 3.5 -1.5t2.5 -1.5l3 -1.5t3 -0.5q1 -1 2.5 -1.5t2.5 -1.5q8 -4 14 -7.5l11 -6.5t8 -6t3 -6l-4 -8q-2 -1 -5 -1.5t-6 -0.5h-40q-6 0 -12.5 1t-14.5 3t-16.5 5l-17.5 6l-4 1l-3 2q-3 1 -6.5 2t-6.5 2 l-6 2l-6 2q-10 -5 -20.5 -11.5l-21.5 -13.5l-15 -10.5l-15 -10.5q-8 -5 -15.5 -10.5t-15.5 -10.5q-2 -1 -4 -2.5t-4 -3.5q-2 -1 -4.5 -2.5t-4.5 -3.5l-46 -32l-43 -31t-36 -24.5t-25 -14.5q-11 -6 11.5 -10.5t77.5 -9.5q53 -4 112.5 -6t124.5 -2q31 0 61 0.5t59 1.5 q36 2 66 4t55 6h40q8 0 12.5 -1.5t6.5 -3.5q2 -3 2.5 -5.5t-0.5 -4.5l-3 -7l-5 -6l-4 -2l-2 -1q-85 -10 -160.5 -17.5t-143.5 -13.5q-67 -5 -124.5 -8t-104.5 -3l-40 -1q-44 1 -78 3.5t-58 7.5t-36.5 12.5t-12.5 18.5z" />
<glyph unicode="[" d="M110 -142v780h40h158v0v0v-32h-111v-716h103v-32h-40h-150z" />
<glyph unicode="\" horiz-adv-x="426" d="M24 613q2 6 6.5 10.5t10.5 7.5t13.5 4.5t16.5 1.5v1h40v0q4 -1 18 -30t39 -86l52.5 -120l58.5 -131q2 -4 3.5 -7.5t3.5 -6.5q1 -4 3 -7.5t3 -7.5q2 -4 3.5 -7.5t3.5 -6.5q1 -4 3 -7.5t3 -6.5l24.5 -54.5l25.5 -52.5l24 -48.5l23 -43.5q0 -7 -2 -11.5t-6 -8.5t-8 -6t-9 -2 l-40 -1q-1 1 -2 1h-1q-1 1 -2 1h-2t-2 0.5t-1 1.5q-1 1 -2 1.5t-2 1.5q-11 19 -21.5 39t-20.5 41l-20 40l-20 40l-38 79.5l-37 79.5q-4 7 -7 13.5l-6 13.5q-1 3 -3 6.5t-3 7.5q-2 3 -3.5 6.5t-3.5 7.5l-28.5 60.5l-28.5 61.5l-14.5 30.5l-14.5 30.5q-8 16 -15 31.5t-15 31.5 z" />
<glyph unicode="]" d="M16 -110h102v708h-102v32h40v0v0h149v-772h-40h-149v32z" />
<glyph unicode="^" horiz-adv-x="638" d="M94 150l189 362h40h40v0v0l181 -362h-40h-55l-130 252l-129 -252h-40h-56z" />
<glyph unicode="_" horiz-adv-x="544" d="M0 -71h40v0v0h496v-55h-40h-496v55z" />
<glyph unicode="`" horiz-adv-x="260" d="M36 518v4v4.5t1 5.5q0 2 1 4.5t2 4.5t2.5 4t3.5 5l4 4t5 4v1h40v0q5 2 8.5 2t7.5 -2q3 -2 6.5 -5.5t7.5 -8.5q3 -6 7 -13t8 -15q4 -9 8.5 -17.5t9.5 -16.5q5 -10 12 -19.5l14 -18.5q8 -9 17 -16.5t20 -12.5l7 -5q1 -1 1.5 -2l0.5 -1q1 -1 1 -2v-2v-2l-1 -2q-1 -3 -2.5 -6 t-4.5 -5q-3 -3 -6 -4t-6 -1h-40h-3l-3 1l-10.5 5.5t-15.5 9.5t-18 13t-18 15q-8 6 -15.5 13.5t-15.5 14.5l-13.5 16t-11.5 16q-1 2 -2.5 4t-2.5 5q-1 2 -1.5 4t-1.5 4t-1.5 4t-0.5 5q-1 2 -1 4z" />
<glyph unicode="a" horiz-adv-x="599" d="M39 72q0 9 1.5 18t4.5 19q3 9 7 19t10 20q14 23 34 45.5t45 44.5q26 21 52 37t54 26q8 3 16.5 5.5t16.5 3.5q8 2 16.5 2.5t16.5 0.5h40q14 0 27 -3t25 -8q11 -5 22 -13.5t20 -19.5v0h1.5t1.5 1h0.5h1.5q2 0 3.5 0.5t3.5 1.5q1 1 3 1.5t3 1.5h40l1 -6v-2t1 -3v-2v-3 q1 -9 2 -21.5t2 -27.5q1 -16 2.5 -31.5t3.5 -32.5q2 -25 6 -47.5t10 -42.5q5 -21 13.5 -31t18.5 -10h1h2q3 -2 4.5 -4.5t0.5 -4.5t-3.5 -4t-5.5 -4t-6.5 -4t-8.5 -4l-4 -2l-4 -2q-3 -1 -5 -2l-4 -2q-3 -1 -5.5 -1.5t-4.5 -1.5q-3 0 -5.5 -0.5t-4.5 -1.5q-4 -2 -8 -2.5 t-7 -0.5l-40 -1l-6 1l-2 2q-3 5 -5 11t-4 13q-1 7 -2.5 15t-3.5 17l-1 2v3l-2 11.5t-3 10.5q-8 -7 -18 -13.5t-22 -12.5q-25 -12 -51 -20t-53 -13q-11 -1 -22 -2.5t-22 -2.5q-10 -1 -20.5 -1.5t-20.5 -0.5l-40 -1q-10 1 -19 1.5t-17 1.5t-15.5 2.5t-13.5 2.5 q-15 5 -25.5 12.5t-16.5 17.5q-7 9 -10 19.5t-3 22.5zM161 97.5q0 -4.5 1 -9.5q1 -4 2 -8.5t2 -9.5q5 -12 13 -21t21 -15q9 -4 19 -6.5t20 -3.5h3h3q1 0 2.5 0.5t2.5 0.5q8 2 17 4t18 5q17 5 34.5 13.5t33.5 18.5q17 11 30.5 23.5t25.5 27.5v1v0q1 2 1.5 4.5t0.5 6.5v3.5 t1 3.5v3v4q0 6 -0.5 13t-1.5 14t-1.5 14t-1.5 14q-1 4 -1.5 7.5t-1.5 7.5q-1 3 -1.5 6.5t-0.5 7.5q-10 14 -21 24.5t-24 16.5q-9 4 -18 7t-17 4q-12 -1 -23 -4.5t-22 -7.5q-16 -7 -28.5 -14t-23.5 -15l-6 -6l-6 -5q-10 -10 -18.5 -22t-15.5 -26t-11 -28.5t-6 -28.5 q-1 -2 -1 -4v-4v-2v-1v-2v-2v-9.5z" />
<glyph unicode="b" horiz-adv-x="544" d="M55 162v22.5v19.5v1v0l16 425q1 6 4 11t7 9q5 3 10.5 5t11.5 2h40h1h2q7 -1 13.5 -4.5t12.5 -9.5q6 -7 9 -16.5t4 -22.5v-3v-4q-1 -1 -1 -3v-4q-1 -4 -1.5 -8t-1.5 -8q-1 -16 -3.5 -36l-5.5 -43q-1 -12 -2.5 -23.5t-2.5 -23.5q-2 -12 -3 -24.5t-3 -25.5q-1 -4 -1.5 -8 t-0.5 -8q-1 -4 -1.5 -8t-0.5 -8q-3 -22 -5 -43l-4 -42q-1 -14 -2.5 -27t-2.5 -26q9 5 18 11t19 12q11 8 25.5 15.5t31.5 14.5q2 1 4.5 2t5.5 2q2 1 3.5 1.5t2.5 1.5q2 0 3.5 0.5t2.5 1.5q8 2 17 4.5t19 3.5q10 2 20.5 3t21.5 1h40h4h4q23 -1 43.5 -6.5t39.5 -16.5 q19 -10 28.5 -28.5t9.5 -44.5v-3v-3v-3.5v-3.5v-3t-1 -3q0 -2 -0.5 -3.5t-0.5 -3.5q-1 -4 -1.5 -7.5t-2.5 -6.5q-1 -1 -1.5 -3t-0.5 -3q-1 -2 -1.5 -3.5t-1.5 -3.5q-11 -22 -30 -44t-46 -43t-55 -37t-58 -27q-13 -4 -25.5 -7l-24.5 -6q-13 -3 -24.5 -4.5t-22.5 -1.5l-40 -1 q-7 1 -14 1.5t-14 2.5q-7 1 -13 3t-11 4q-15 5 -25.5 15.5t-16.5 28.5q-7 18 -11 37t-6 39q-1 6 -1.5 12t-1.5 13q0 6 -0.5 12t-0.5 12zM102 172v1h40v0q-1 -3 -1 -5v-4v-2v-1v-2v-2q0 -28 10 -51t31 -43q17 -16 37 -25.5t42 -12.5q5 1 10.5 2.5t11.5 3.5q9 3 18 7t18 10 q5 3 9 6.5t9 7.5q4 3 8.5 7.5l8.5 8.5q10 14 17 26.5t11 25.5q5 12 7 24t2 23q0 22 -7 40t-21 31q-10 10 -21 16t-23 9q-4 -1 -9.5 -2t-10.5 -3l-22.5 -8.5l-23.5 -9.5q-10 -4 -20 -9.5l-20 -10.5q-5 -3 -9.5 -6t-9.5 -5l-8 -6l-8 -6q-6 -4 -11.5 -8.5t-10.5 -9.5 q-4 -4 -8 -8.5t-6 -8.5h-40z" />
<glyph unicode="c" horiz-adv-x="544" d="M41 86v10.5t1 11.5t2.5 12t2.5 13v1v0q2 6 5 12.5t7 13.5q5 7 9.5 14t10.5 14q17 20 39.5 39t50.5 37t57 31t60 20q4 1 7.5 1.5t7.5 1.5q4 0 7.5 0.5t7.5 1.5q8 1 15.5 1.5t14.5 0.5h40q19 0 33.5 -3t24.5 -9q11 -6 18 -12t11 -13q1 -3 1.5 -5.5t1.5 -4.5t1.5 -4t0.5 -4 q0 -4 -1 -7t-3 -6q-1 -3 -3.5 -4t-5.5 -1h-40h-2l-2 1h-2l-2 1q-7 5 -18 9t-26 8q-10 2 -20 3.5t-21 2.5h-0.5h-0.5h-0.5h-0.5h-4.5h-4.5q-2 -1 -4.5 -1h-4.5q-29 -4 -55.5 -14.5t-50.5 -27.5t-36.5 -45t-12.5 -67v-5l1 -4v-5v-4q2 -21 15.5 -36t38.5 -26q23 -10 48.5 -15.5 t51.5 -6.5q11 1 21 2.5t20 3.5q17 4 30.5 10t25.5 13q12 6 22 10.5l17 7.5q8 3 13.5 4.5t9.5 1.5h40q6 0 8.5 -2t0.5 -7q-1 -2 -2.5 -4.5t-3.5 -4.5q-2 -3 -4.5 -5.5t-5.5 -4.5q-3 -3 -6.5 -5.5t-7.5 -4.5q-2 -1 -4 -2.5t-4 -2.5q-3 -1 -5 -2l-4 -2q-1 0 -2 -0.5l-1 -0.5 q-1 -1 -2 -1.5t-2 -0.5t-2 -0.5l-1 -0.5q-1 -1 -2 -1h-2q-15 -6 -33 -11.5t-39 -9.5q-21 -5 -42.5 -8.5t-44.5 -6.5q-7 -1 -14.5 -1.5t-15.5 -1.5h-7.5t-7.5 -1h-7.5h-6.5l-40 -1q-33 1 -61 7t-52 16q-24 11 -35.5 33t-11.5 53z" />
<glyph unicode="d" horiz-adv-x="599" d="M44 77v10t1 10t2.5 10.5t3.5 10.5q8 29 25.5 56t44.5 52q26 26 54.5 44.5t58.5 30.5l19.5 6t19.5 5q5 1 9.5 2t9.5 2q4 0 9 0.5t9 0.5h40h4h4q1 -1 3 -1h4q3 0 6.5 -0.5t7.5 -1.5t8 -2.5t8 -3.5q5 -1 9.5 -3.5t8.5 -4.5q3 -1 5.5 -3t4.5 -3q2 -2 4.5 -3.5t5.5 -3.5v0 q0 27 -0.5 52t-1.5 48q-1 30 -1.5 57t-1.5 50t-2 43t-2 36q-1 17 -1 30v23v9v7t0.5 6t1.5 5h2l2 1h40h1h2h2h3q1 -1 2.5 -1h2.5q3 -1 6 -1.5t6 -1.5q2 -1 4.5 -2t5.5 -2q2 -1 4.5 -2t4.5 -2q5 -3 9 -5t7 -4l7 -4q1 -4 1.5 -8.5t0.5 -9.5v-5.5t1 -5.5v-6.5v-6.5 q0 -19 -1 -43.5t-3 -53.5q-2 -30 -4.5 -61.5t-4.5 -66.5l-2 -36l-2 -36l-2 -36l-2 -36l-2 -34t-1 -34q-1 -16 -1 -32.5v-32.5v-35t1 -34q1 -16 2.5 -31.5t2.5 -30.5l-40 -1q0 1 -0.5 1h-1.5q-1 1 -3 1h-4h-4.5t-4.5 1q-3 0 -5.5 0.5t-4.5 1.5q-4 1 -8.5 3t-8.5 4t-6 5t-4 7 q-1 5 -2 9.5t-1 9.5q-1 4 -1 8v8v8.5v7.5t0.5 8t1.5 8v0v0q-7 -4 -16 -7.5t-18 -7.5q-24 -10 -49.5 -17.5t-51.5 -11.5l-23.5 -4t-22.5 -3q-12 -2 -22.5 -2.5t-21.5 -0.5l-40 -1q-19 1 -35 3.5t-30 7.5q-13 3 -23 11t-15 19q-3 5 -4.5 11t-3.5 12l-2 12t-1 12zM157 111 q0 -23 7.5 -39.5t23.5 -25.5q12 -8 27 -12.5t32 -5.5h3.5h3.5q1 0 3 0.5t3 0.5q10 2 19.5 3.5t19.5 4.5l16.5 4t17.5 5l16.5 6t16.5 7q17 8 31.5 16t27.5 18v143v0v0q-11 8 -26 15.5t-34 14.5q-15 6 -30.5 10t-32.5 5q-22 -2 -42.5 -10.5t-40.5 -22.5q-24 -16 -39 -47 t-22 -76q-1 -2 -1 -4v-4v-6z" />
<glyph unicode="e" horiz-adv-x="544" d="M43 75q0 11 2 22.5t6 24.5q5 14 11.5 28t16.5 30v1v0q17 26 33.5 44.5t32.5 29.5t27 17.5t17 9.5q2 1 4 2.5t5 2.5q2 1 3.5 1.5t3.5 1.5q3 0 5 0.5t5 1.5q8 3 18.5 5.5t22.5 4.5t25 3.5t26 2.5h40h6h2h2h1h2q18 0 34.5 -3t30.5 -9t22.5 -17t9.5 -28q0 -9 0.5 -16t1.5 -13 l3.5 -10.5t3.5 -7.5q1 -2 1.5 -4t1.5 -4q0 -1 0.5 -2.5t1.5 -2.5q2 -2 2.5 -4t0.5 -4l-2 -5q-1 -1 -3 -2.5t-4 -3.5q-7 -1 -22.5 -4t-38.5 -7l-23 -4l-24 -4q-12 -3 -24.5 -5l-25.5 -4l-49.5 -8l-47.5 -8q-22 -4 -37 -6.5t-23 -4.5q6 -26 18 -46.5t31 -34.5 q15 -12 36.5 -18.5t48.5 -8.5q12 1 25 2.5t27 3.5q20 3 42 9t47 14q11 2 20.5 4t16.5 3q8 2 13.5 2.5t9.5 0.5h40q6 0 9.5 -0.5t4.5 -2.5q0 -1 0.5 -2l0.5 -1q0 -1 -0.5 -2t-1.5 -2l-4 -5l-6 -3q-18 -7 -36.5 -13t-38.5 -11l-39.5 -8l-40.5 -8q-15 -2 -30 -4.5t-30 -3.5 q-15 -2 -29.5 -2.5t-28.5 -0.5l-40 -1q-36 1 -66.5 6.5t-55.5 15.5t-37.5 29t-12.5 46zM152 155q14 2 26.5 3.5t24.5 2.5q5 1 10.5 1.5t10.5 1.5q11 2 21.5 3t19.5 3q9 1 17 2.5t15 2.5q17 3 28 6t17 7q6 3 9 9t3 15v2t1 2v1v2v2t1 2v1v2q0 12 -5 22t-15 18q-7 5 -15.5 8.5 t-19.5 5.5q-4 -1 -9 -2t-11 -3q-13 -3 -26.5 -9.5t-27.5 -15.5q-11 -8 -21.5 -18t-21.5 -22q-10 -11 -18 -24.5t-14 -30.5v0z" />
<glyph unicode="f" d="M9 280v3l1 3l2 6l4 6q1 1 2.5 1.5t3.5 0.5h2.5t2.5 1h3.5h3.5h40h3.5h2.5q2 -1 3.5 -1h2.5h3.5h3.5q1 -1 3 -1h4v0h1v0v0v0l-2 19.5l-2 18.5q-1 11 -1 22v21q0 56 8.5 99.5t26.5 73.5t37.5 52t41.5 35q5 3 10.5 6t11.5 5q5 2 10.5 4.5t10.5 3.5l20.5 5.5t17.5 3.5h40h4h4 q9 0 16 -2.5t11 -7.5q5 -4 7.5 -9.5t3.5 -10.5v-4v-3q0 -6 -1.5 -11t-3.5 -10q-2 -4 -4.5 -5t-4.5 0h-40q-3 1 -5.5 2t-4.5 2q-3 1 -5.5 2t-4.5 2q-4 2 -7.5 3t-6.5 3q-4 1 -7.5 2.5t-7.5 2.5q-1 0 -1.5 0.5t-1.5 0.5t-1.5 0.5t-1.5 0.5q-11 -5 -21 -17.5t-19 -32.5 q-12 -28 -18 -85.5t-6 -144.5v-7.5v-6.5v-3v-3q0 -2 0.5 -3.5t0.5 -3.5v-7.5v-6.5v-7.5v-7.5q11 0 21 0.5t20 1.5q11 1 20 2.5t17 3.5h40q9 0 14 -1.5t6 -4.5q1 -1 1 -2.5v-2.5l-1.5 -3t-2.5 -3t-4.5 -4t-5.5 -4q-1 -1 -3 -1.5t-3 -1.5q-2 -1 -3.5 -1.5t-3.5 -1.5h-1v0 l-6 -2t-6 -1q-4 -1 -7.5 -2t-8.5 -2q-9 -1 -18 -2.5t-18 -2.5l-15.5 -2t-14.5 -1q-7 -1 -13.5 -1h-11.5q-1 -2 -1.5 -9t-0.5 -18q-1 -12 -1.5 -26.5t-0.5 -31.5q-1 -9 -1 -18v-19v-10v-10q-1 -5 -1 -10v-10v0v0v-1v0v-10v-10q-1 -6 -1 -11v-10v-20.5v-21.5q-1 -41 -1.5 -81 t-1.5 -77q-1 -18 -1.5 -32.5t-0.5 -24.5q-1 -10 -1.5 -16.5t-1.5 -8.5q-2 -5 -4.5 -9t-5.5 -7q-3 -2 -6 -3.5t-6 -1.5l-40 -1q-2 1 -4.5 1.5t-4.5 1.5t-4.5 1.5t-4.5 1.5q-1 1 -2.5 6.5t-1.5 16.5q-1 10 -1 24.5v31.5v37.5t1 41.5q0 22 0.5 44.5t1.5 45.5v6v7v6.5t1 7.5 q0 26 0.5 51t1.5 49v23t1 21v18v17v8v7q-1 3 -1 6v6v5v3q-1 2 -1 3v2h-13t-15 1q-4 0 -8.5 0.5t-8.5 1.5q-5 1 -9 2.5t-9 2.5l-1.5 0.5t-3.5 1.5t-4.5 2.5t-5.5 3.5t-5.5 3.5t-4.5 4.5q-3 3 -4 6t-1 7z" />
<glyph unicode="g" horiz-adv-x="599" d="M39 78v2v2v1v2v6v6v3t1 3q0 1 0.5 2.5t0.5 2.5q5 38 26 72t58 65q36 32 76.5 47.5t84.5 16.5h40q9 0 18 -1t18 -3q8 -1 17 -4l18 -6q14 -5 26 -12t24 -17v0l6 4l6 4q2 1 5 3l6 4q6 5 10.5 7t7.5 2h40v-14t1 -14v-14v-14v-14t1 -14v-13v-13q0 -90 -10.5 -164t-31.5 -133 t-70 -96.5t-126 -53.5h-2.5t-3.5 -1h-2.5h-3.5h-2.5t-3.5 -1h-2.5h-3.5l-40 -1q-2 1 -4 1h-3q-2 1 -4 1h-4h-4h-3q-2 1 -4 1h-4q-28 4 -53 14.5t-48 26.5t-34.5 32.5t-11.5 34.5v4.5v4.5t1 4l2 4q0 2 1 4.5t2 4.5q2 2 3.5 4t2.5 4l4 4l4 5q1 2 2 3l2 2q0 2 1 3l2 2l6 6 q2 3 4 4.5t4 2.5l40 -1q2 2 4.5 2t5.5 -1v-4v-3l-1 -3v-3q0 -29 11.5 -53t35.5 -42q20 -15 41.5 -24t44.5 -12q19 2 36.5 8t33.5 17q21 13 35.5 35t22.5 52q1 3 2.5 8t2.5 13q2 7 3.5 15.5t3.5 17.5q2 10 3.5 21t2.5 23q1 6 1.5 12t1.5 11t1.5 11t0.5 12v4.5t1 5.5v4.5v4.5 v4.5t1 5.5v4.5v5.5v2v2v1v2q-11 -7 -23.5 -14l-25.5 -14q-22 -10 -44 -19t-45 -15q-13 -3 -25.5 -5.5t-24.5 -4.5t-23.5 -3t-22.5 -1l-40 -1q-22 1 -41.5 6t-35.5 14q-16 10 -25.5 27.5t-11.5 42.5zM141 138q0 -22 9 -40t28 -32q15 -12 32.5 -18.5t38.5 -8.5h1.5t1.5 1h1.5 h1.5q7 1 14 2.5t14 3.5q5 1 10.5 2.5t11.5 2.5q3 1 6 1.5t6 1.5q2 1 5 2l6 2q13 5 25.5 12.5t25.5 17.5t24.5 23.5t21.5 29.5v1v0v63q0 15 -11 26.5t-34 19.5q-19 7 -41 11t-45 5q-13 -1 -26.5 -2.5t-26.5 -4.5q-17 -4 -30 -10.5t-21 -14.5q-13 -13 -22 -25.5t-15 -24.5 t-9 -24t-3 -23z" />
<glyph unicode="h" horiz-adv-x="544" d="M55 645q1 2 3 4.5t5 3.5q3 2 7.5 2.5t8.5 0.5h40h2h2q1 -1 2.5 -1h2.5h2h3q1 -1 2.5 -1h2.5q8 -3 15.5 -6.5t14.5 -8.5t10.5 -11.5t3.5 -14.5q0 -62 -1 -116t-3 -99q-1 -45 -3.5 -83l-4.5 -70q-1 -22 -2.5 -41.5t-3.5 -36.5q9 16 19.5 31.5t22.5 30.5q17 21 38 38.5 t47 30.5q7 3 13.5 5.5t12.5 3.5q6 2 12 2.5t11 0.5h40q15 0 27 -7t19 -21q8 -14 13.5 -35.5t9.5 -50.5q0 -9 1 -20t3 -25q2 -13 5.5 -27.5t7.5 -29.5q6 -22 13.5 -42.5t16.5 -38.5q9 -17 19.5 -26.5t20.5 -9.5q5 -1 6 -3.5t-1 -6.5q-2 -5 -6 -9.5t-10 -8.5q-1 -1 -3 -2 t-3 -3q-2 -1 -3.5 -2t-3.5 -2q-1 -1 -3 -2t-3 -2q-2 -1 -3.5 -2t-3.5 -2q-5 -2 -9.5 -4.5t-9.5 -3.5q-4 -2 -8 -3t-7 -1l-40 -1h-5l-3 2l-2 2l-2 2q-6 8 -12 20t-12 30t-11 36t-10 38l-7.5 33t-6.5 32t-4.5 28.5t-3.5 21.5q-1 4 -1.5 8.5t-2.5 8.5q-1 2 -1.5 4.5t-0.5 4.5 q-1 2 -1.5 4.5t-1.5 5.5q-4 11 -8.5 21.5t-10.5 20.5q-1 2 -2 3l-2 2q-1 2 -2 3l-2 2q-13 -7 -25 -17.5t-23 -24.5q-13 -16 -24.5 -34t-20.5 -36q-5 -9 -9.5 -18t-9.5 -18l-8 -17.5l-8 -16.5q-3 -6 -5.5 -12t-4.5 -12q-1 -6 -2.5 -11.5t-3.5 -10.5l-2 -6t-1 -6 q-1 -3 -2 -5.5t-2 -4.5l-2.5 -5t-2.5 -6q-1 -1 -2 -3t-2 -3l-40 -1l-12.5 3.5t-8.5 2.5l-8 2l-1 1h-1l-5 3q-1 2 -4 2.5t-7 1.5v0v0q-1 8 -1 17v18v18.5v19.5v40.5t1 41.5q0 21 0.5 42t1.5 42v9.5v8.5v4.5t1 5.5v4.5v4.5q0 22 0.5 43.5t1.5 43.5t1.5 43t0.5 41q0 29 -1 56.5 t-3 52.5q-1 26 -4 48t-7 41z" />
<glyph unicode="i" horiz-adv-x="260" d="M70 318v2l3 8q2 2 3.5 2.5t4.5 0.5h40q3 0 7 -0.5t8 -2.5q5 -1 9.5 -3.5t8.5 -4.5q1 -1 2 -1.5t2 -0.5q0 -1 1 -1.5t2 -0.5q1 -1 2 -1.5t2 -0.5q1 -1 2 -1.5t2 -1.5q2 -1 3 -2t3 -1q1 -1 2.5 -2t2.5 -2q3 -1 5.5 -2.5t4.5 -3.5q2 -1 2.5 -5t1.5 -10v-6t1 -7v-7v-8v-10.5 v-11.5q-1 -6 -1 -12v-12q-1 -13 -1.5 -25.5t-0.5 -26.5l-1 -5v-5q-1 -12 -1.5 -24t-0.5 -24q-1 -12 -1 -23v-21v-11.5v-10.5t0.5 -9.5t1.5 -8.5v-3l1 -4v-4l1 -4v-1v-3l-3 -6q-1 -1 -3 -2.5t-4 -2.5l-3 -2l-2 -1h-40h-3h-2h-4l-4 1q-4 2 -8 2.5t-7 2.5q-2 1 -3.5 2t-3.5 1 l-2 2l-2 2l-3 2l-1 3q-1 3 -1.5 9t-0.5 15v18v22v4.5v5.5v5v6v16.5v17.5v18v18q-1 29 -2 55t-3 50t-6 37.5t-10 16.5v1v0v0v2zM87 535h40v0v0l2 -1h-40l3 1h40h2h3h1h1q5 0 10.5 -1t10.5 -3t9 -4l8 -4t7 -4t4 -4l2 -4v-94l-4 -3q-1 -1 -3.5 -1h-4.5h-40h-4h-4t-4.5 0.5 t-4.5 1.5q-5 2 -9.5 4t-9.5 5q-4 3 -6 7.5t-2 8.5z" />
<glyph unicode="j" horiz-adv-x="260" d="M-57 -247l1 2q2 6 6 10.5t10 9.5q6 4 15.5 6t22.5 2l39 -1q2 1 5 1h7t7.5 -0.5t7.5 -1.5l-40 -1q8 5 14 12t10 16q5 9 8 18l6 18q2 10 4 19t3 18t1.5 15t0.5 11q5 40 8 74t4 63q2 29 3 54.5t1 47.5q0 32 -1.5 56.5t-4.5 40.5t-6.5 28t-7.5 19q-3 5 -5 8t-4 5t-3.5 4.5 t-3.5 4.5l-3 4l-1 6v1v0q0 2 1 3t4 2q2 1 5 1.5t7 0.5h40q3 0 7.5 -0.5t8.5 -1.5q5 -1 9.5 -1.5t8.5 -1.5l6 -2t6 -1q2 -1 5 -2l6 -2q6 -2 11 -4t9 -4l7 -6l2 -6q1 -3 1.5 -6t0.5 -8v-4.5t1 -5.5v-4.5v-5.5q0 -19 -2 -44.5t-5 -57.5q-3 -31 -7.5 -64t-10.5 -67 q-7 -37 -15 -74t-17 -72q-10 -35 -20 -61.5t-21 -42.5q-1 -2 -2.5 -4t-3.5 -4l-2 -2t-1 -3l-2 -2l-2 -2q-5 -6 -11.5 -12t-14.5 -11q-7 -5 -15.5 -8t-17.5 -3l-40 -1q0 1 -1 1h-3q-1 1 -2.5 1h-2.5h-3t-3 1q-1 0 -2.5 0.5t-2.5 0.5q-5 0 -8 1.5t-6 3.5q-2 3 -3.5 6t-1.5 7z M79 515v12q1 2 2.5 4t3.5 3q2 2 4.5 2.5t5.5 0.5h40q2 0 5 -0.5t6 -1.5t6 -1.5t6 -2.5q3 -1 6 -2.5t6 -3.5q2 -1 3 -2t3 -1q1 -1 2.5 -2t2.5 -2l5 -4l4 -3v0v-86q0 -4 -1 -6.5t-3 -4.5q-1 -1 -3.5 -2t-5.5 -1h-40h-4.5t-4.5 1q-3 0 -5.5 1t-4.5 2q-3 2 -6 3.5t-6 2.5 q-3 2 -5.5 4t-4.5 4l-6 6l-3 5v5.5v5.5q-1 2 -1 4.5v5.5q0 2 -0.5 4.5t-0.5 5.5q-1 2 -1.5 4.5t-0.5 4.5v1v2q-1 5 -1.5 10.5t-1.5 10.5t-1 11z" />
<glyph unicode="k" horiz-adv-x="544" d="M54 644v4l1 5v0v1v0v1l2 4q2 1 3.5 1.5t3.5 0.5h40q3 0 6.5 -0.5t7.5 -1.5q2 -1 4 -1.5t5 -1.5l4 -2l4 -2q8 -3 14.5 -7.5t13.5 -10.5q6 -6 9.5 -12.5t3.5 -14.5l-1 -5l-1 -5l-23 -472v0q14 6 27 14t26 17q22 16 41.5 32.5t37.5 33.5l39.5 40.5t33.5 37.5t26.5 29.5 t19.5 15.5h40q3 0 6 -3t6 -8q3 -6 5 -12t3 -12v-2.5t1 -2.5v-2v-2v-2t1 -2v-2v-2q0 -4 -0.5 -7t-1.5 -5l-5 -6q-4 -7 -10.5 -14.5t-14.5 -15.5q-7 -7 -16 -14.5t-19 -14.5t-22 -14.5l-24 -15.5l-24.5 -14.5l-26.5 -15.5l10 -12t11 -12l6 -6t7 -5q3 -3 6.5 -6t7.5 -6l5 -5 l6 -4q5 -5 10.5 -10l11.5 -10q6 -4 11.5 -8.5t9.5 -9.5q8 -8 16.5 -15.5t18.5 -14.5t20.5 -12.5t20.5 -8.5q3 -1 6.5 -2t7.5 -2t7.5 -1h7.5h-40h3h4h3l3 1h40l1 -3v-2q0 -1 -0.5 -3t-1.5 -5q-1 -2 -1.5 -3.5t-0.5 -2.5q-1 -2 -1.5 -3.5t-1.5 -2.5l-6 -10t-8 -10 q-4 -5 -8.5 -8.5t-9.5 -6.5q-2 -1 -4 -1.5t-4 -1.5h-2t-1 -1h-2h-2l-40 -1l-6 1l-4 2q-4 4 -14 11.5l-27 19.5l-33 24l-35 25l-5 3l-4 4l-34.5 26.5l-31.5 24.5l-13.5 11.5l-11.5 9.5l-58 -25v-8.5v-8.5t0.5 -8t1.5 -8v-5.5v-4.5t0.5 -4t1.5 -4q1 -7 1.5 -13t1.5 -11v-5 t1 -4v-5.5v-4.5l-6 -3q-1 1 -2 1t-1 -1h-2h-2l-40 -1l-6 1h-5q-5 2 -9.5 4.5l-9.5 5.5q-4 3 -7 6.5t-5 8.5q1 44 1.5 83t1.5 75q0 35 0.5 67.5t1.5 61.5q0 51 -0.5 93t-1.5 74q-1 16 -1.5 30t-0.5 27q-1 13 -1.5 24t-1.5 21q-1 19 -2.5 32.5l-2.5 22.5q-1 8 -1.5 15t-0.5 11 z" />
<glyph unicode="l" horiz-adv-x="260" d="M73 635.5q0 2.5 1 5.5l2.5 5t2.5 7q1 1 2.5 1.5t3.5 1.5t4.5 1.5t4.5 0.5h40h2.5h2.5q2 -1 3.5 -1h2.5q3 -1 6 -1.5t6 -2.5q7 -3 13 -6t12 -8q6 -4 10 -8.5t5 -9.5v-1.5t1 -1.5v-2v-3v-6v-7q0 -14 -0.5 -35t-2.5 -49q-1 -14 -1.5 -29t-0.5 -30q-1 -16 -1.5 -32t-1.5 -33 q-1 -11 -1.5 -22.5t-0.5 -22.5q-1 -12 -1.5 -23.5t-0.5 -22.5l-2 -48t-1 -47q-1 -23 -1 -44.5v-41.5q0 -22 0.5 -42t1.5 -37t2.5 -29t3.5 -19q0 -2 -1.5 -4t-3.5 -3q-2 -2 -5 -2.5t-6 -0.5l-40 -1q-1 1 -2 1h-1q-1 1 -2 1h-2h-2h-2q-1 1 -2 1h-2q-4 1 -7.5 1.5t-7.5 2.5 q-2 1 -3.5 1.5t-3.5 0.5q-1 1 -2.5 1.5t-2.5 1.5l-5 3v3q-1 6 -2 13t-1 14q-1 8 -1 15.5v14.5v14v14t0.5 14t1.5 14v5v5v8t1 8v8v8v8t1 9v8v8v1v0v220q0 32 -0.5 58.5t-1.5 46.5t-2 36t-2 28t-2.5 20.5l-2.5 14.5q-1 5 -1.5 9.5t-0.5 8.5q-1 2 -1 4.5z" />
<glyph unicode="m" horiz-adv-x="764" d="M70.5 2q-0.5 2 0.5 5v1v0q3 33 5 61.5t3 52.5q1 23 1.5 42.5t0.5 35.5v10v10q-1 4 -1 8v8v7.5v6.5q-1 3 -1 5.5v5.5q-1 5 -1.5 9.5t-0.5 8.5v6v6v2v2v1v2q0 2 0.5 4t1.5 4q2 0 3.5 0.5t3.5 0.5q1 1 3 1h3h3.5t2.5 1h3.5h2.5h40q12 0 21 -3t14 -11q5 -7 7.5 -16.5 t2.5 -21.5t-2 -25t-5 -28l-2 -10l-2 -10q-2 -5 -3 -10l-2 -10l2 2l2 2l2 2l2 2q3 4 6.5 8t7.5 8q2 2 3.5 4t3.5 5q1 2 3 4l4 4l8 8l8 8q3 4 7 7.5t8 7.5l14.5 13t13.5 10l20 11t16 8q8 3 14.5 4.5t12.5 1.5h40q13 0 21 -6t12 -20q4 -13 6 -30t2 -38v-6v-6q-1 -4 -1 -7v-6v-2 v-2v-2v-2l9.5 13.5l9.5 13.5q6 6 11 12.5t11 13.5l24 27t25 23q10 8 20 14.5t20 11.5t19 7.5t18 2.5h40q10 0 19 -4t17 -12t14 -21.5t10 -31.5q2 -5 3.5 -15t2.5 -24q2 -15 4.5 -30t5.5 -31q3 -19 7.5 -37l8.5 -35q5 -16 10.5 -24t12.5 -8l3 -1.5t2 -0.5q1 -1 2 -1.5t2 -1.5 t1.5 -2l0.5 -1q1 -1 1 -2v-2v-2t-1 -1q0 -1 -0.5 -2t-0.5 -2l-4 -6q-3 -2 -7 -5.5t-9 -7.5q-5 -3 -10.5 -6t-10.5 -5q-3 -1 -6 -1.5t-6 -1.5t-6 -1.5t-5 -0.5l-40 -1q-3 1 -5.5 1t-4.5 1q-3 1 -4.5 3t-2.5 4q-1 5 -2.5 10t-3.5 10q-1 5 -2.5 10t-3.5 10q-3 11 -5.5 22 t-4.5 22q-1 3 -1.5 5.5t-0.5 5.5q-1 2 -1.5 5t-1.5 6t-1.5 6t-0.5 6q-1 2 -1.5 5t-0.5 6l-6 25l-6 23q-4 11 -7 21.5l-6 20.5q-4 11 -8 19.5t-9 13.5l-1 -1v0q-13 -7 -26.5 -18t-26.5 -28q-13 -16 -25 -34l-23 -36l-18.5 -34.5t-15.5 -32.5l-12 -27t-7 -18l-4 -4l-6 -1h-40 q-1 1 -2 1h-1q-1 1 -2 1h-2h-2t-1 1q-1 0 -2 0.5t-2 0.5q-4 1 -8.5 3t-8.5 6t-5.5 8.5t-1.5 8.5v2l1 3q4 23 7 43.5t5 37.5t3 31t1 26q0 15 -2 26.5t-6 18.5q-1 3 -4 6t-6 4v0v0h-1v0q-14 -6 -28 -18t-28 -29q-14 -18 -27 -37t-24 -39l-14 -26l-13 -25l-11 -22.5l-9 -19.5 q0 -3 -2 -5t-5 -2q-4 -2 -7.5 -2.5t-7.5 -0.5l-40 -1q-4 1 -7.5 1.5t-6.5 2.5q-3 0 -3.5 2z" />
<glyph unicode="n" horiz-adv-x="544" d="M67 312l3 8q2 2 4.5 2.5t5.5 0.5h40h2h3q1 -1 2.5 -1h2.5q2 -1 5 -1.5t6 -1.5q2 -1 3.5 -1.5t3.5 -1.5q1 -1 3 -1.5t3 -1.5q2 -1 3.5 -2t2.5 -1q2 -1 3.5 -2t2.5 -2l5 -4l3 -4q2 -1 3 -2.5t2 -4.5t1.5 -7t0.5 -9q0 -9 -1 -19.5t-3 -22.5l-2 -12t-1 -13l-2 -12.5l-2 -13.5 l-1 -2v-1q22 34 42.5 55.5t40.5 31.5q31 16 53.5 24t36.5 8h40h2h2h1h2h5h1h2q15 0 26 -10.5t18 -31.5t13 -44t10 -49v-3t1 -3q0 -2 0.5 -3.5t0.5 -3.5v-3t1 -3q0 -2 0.5 -3.5t0.5 -3.5q3 -19 7 -36.5t8 -32.5q4 -16 9.5 -25.5t12.5 -12.5q5 -2 8 -4.5t4 -4.5q2 -3 2 -5.5 t-1 -4.5q-2 -4 -6 -7.5t-10 -5.5q-3 -2 -6 -3t-6 -3q-4 -1 -7 -2.5t-6 -2.5q-4 -1 -7.5 -1.5t-6.5 -1.5h-2.5t-3.5 -1h-2.5h-2.5l-40 -1q-4 1 -7.5 1.5t-5.5 1.5q-3 1 -4 3t-1 5q-1 7 -3.5 17t-5.5 25q-1 8 -3 15.5t-3 14.5q-2 8 -3.5 16t-3.5 16l-2 8l-2 8q-1 5 -2 9.5 t-2 8.5q-3 9 -5.5 18t-4.5 18l-4 15.5t-4 13.5q-4 15 -10 25.5t-13 17.5q-1 1 -2.5 2t-2.5 2q-2 1 -3 2t-3 2q-2 -1 -4.5 -2t-4.5 -3q-9 -5 -17.5 -12t-16.5 -16q-15 -16 -28.5 -35.5t-27.5 -42.5l-25 -48t-21 -50q-1 -3 -2.5 -6t-2.5 -6q-1 -1 -1.5 -2.5t-0.5 -2.5l-1.5 -3 t-0.5 -3q-1 -2 -3 -3.5t-4 -3.5q-1 -1 -2.5 -1.5t-2.5 -0.5h-3h-3h-40h-2h-1q-5 0 -9.5 1.5t-8.5 3.5t-6 5t-2 7v16v16v16.5t1 17.5v16.5v17.5v8t1 9v8v8v10.5t1 10.5v10.5v10.5v9.5t1 9.5v9v9v11v10q-1 5 -1 9.5v8.5q-1 8 -1.5 14t-1.5 10v1v0q-1 1 -1.5 2t-0.5 2 q-1 0 -1 1v2z" />
<glyph unicode="o" horiz-adv-x="544" d="M39 101q0 8 1.5 18t4.5 23t8.5 26.5t14.5 27.5q11 19 29.5 36.5t43.5 33.5q26 17 61 26.5t81 13.5v1h40v0q8 -1 17 -1.5t20 -2.5q11 -1 23 -3.5t24 -5.5q20 -6 37.5 -15t33.5 -21t24 -29t8 -39q0 -10 -2 -20t-5 -21t-8.5 -23t-13.5 -25q-10 -16 -22.5 -30t-29.5 -27 q-16 -13 -33.5 -22.5t-35.5 -15.5q-4 -1 -8.5 -2.5t-8.5 -2.5q-5 -1 -9 -2t-9 -2q-9 -2 -17 -3t-16 -1h-6t-5 -1h-6h-6h-6t-5 -1h-6h-6l-40 -1h-6h-6q-28 2 -54 7.5t-49 15.5q-24 11 -37 33t-15 55zM152 152q0 -25 10.5 -47.5t31.5 -41.5q17 -16 38.5 -25.5t45.5 -11.5v0v0 q5 1 10.5 2t10.5 2q22 5 40 15t32 26q14 15 21.5 33.5t7.5 39.5v3.5v2.5q-1 2 -1 3.5v2.5q0 3 -0.5 6t-1.5 6l-1 6l-2 6v1v0q-10 24 -23.5 40.5t-30.5 25.5q-13 7 -27 11.5t-28 5.5q-10 -1 -20 -3t-20 -5q-15 -4 -27.5 -9.5t-21.5 -10.5q-4 -3 -7.5 -5t-6.5 -4t-4.5 -4 t-3.5 -4q-1 -2 -2.5 -4t-3.5 -4q-1 -3 -2 -5l-2 -4q-2 -4 -3.5 -8t-3.5 -8q-1 -4 -2 -8.5t-2 -9.5q-1 -4 -1 -8v-8z" />
<glyph unicode="p" horiz-adv-x="599" d="M79 -226q0 7 0.5 13t1.5 13q0 7 1 16.5t2 21.5q2 22 2.5 59t1.5 89q1 50 1 130.5t-2 189.5v1v0q1 5 2.5 8.5t3.5 5.5t5 3t6 1h40q3 0 6 -0.5t6 -2.5q3 -1 6 -2.5l7 -3.5l6 -4q1 -1 2 -1.5t2 -0.5q0 -1 1 -1.5t2 -0.5q2 -1 4 -2.5t4 -3.5q1 -1 2 -1.5t2 -0.5q0 -1 1 -1.5 t2 -0.5q2 0 2.5 -1.5t1.5 -3.5t1.5 -5t0.5 -7q0 -3 -0.5 -7t-0.5 -8q0 -1 -0.5 -2.5t-0.5 -2.5h1v0q13 9 25.5 16.5t25.5 14.5t24.5 12.5t21.5 9.5l18.5 4.5t23.5 4.5q12 2 25 3t26 1h40h2h3q17 0 33.5 -3t32.5 -9t28 -16t21 -24q3 -6 5 -12t3 -12q1 -3 1.5 -6t0.5 -6 q1 -4 1 -7v-6q0 -5 -0.5 -10t-1.5 -10t-1.5 -9.5t-1.5 -9.5q-7 -23 -19 -45.5t-29 -43.5q-17 -22 -35 -39.5t-38 -31.5q-10 -7 -20 -12.5l-19 -10.5q-10 -4 -18.5 -7t-16.5 -4q-9 -2 -17 -3.5t-16 -2.5q-7 -1 -14.5 -1.5t-14.5 -1.5l-40 -1q-17 1 -30.5 3.5t-23.5 7.5 q-10 4 -17.5 9t-12.5 11q-3 3 -4.5 6t-2.5 6l-1.5 3t-0.5 3v2.5v2.5q0 3 1 5.5t2 3.5h40q2 2 4.5 2t5.5 -2l6 -3q2 -1 4 -1.5t4 -1.5q9 -3 20.5 -6t25.5 -6q8 -1 17 -2.5t18 -1.5q6 0 12 0.5t12 1.5q11 2 20 5t18 7q13 9 23.5 21.5t18.5 28.5q8 17 13 33.5t6 34.5v2t1 2v1v2 v4v4q0 22 -6 41.5t-18 35.5q-10 13 -24 21.5t-33 11.5q-2 0 -4 -0.5t-4 -0.5q-3 -1 -5 -1.5t-4 -0.5q-10 -1 -20.5 -4t-21.5 -7q-36 -13 -59.5 -41t-34.5 -70t-17 -86.5t-8 -90.5q-1 -8 -1 -16.5v-17.5v-16.5v-16.5v-3v-3v-2.5v-2.5v-6v-6v-22v-22q-1 -11 -1 -21.5v-20.5 q0 -20 -1.5 -37.5t-3.5 -32.5q0 -5 -2 -6.5t-7 -0.5l-40 -1q-4 2 -8.5 4t-9.5 5q-1 1 -2.5 2t-2.5 1q-2 1 -3 2l-2 2l-4 4l-4 4q-3 2 -4.5 4.5t-3.5 4.5l-2 6v6v4z" />
<glyph unicode="q" horiz-adv-x="599" d="M35 76.5v7.5v3.5v3.5v3v3v3.5t1 3.5q0 1 0.5 3t1.5 3q6 29 22.5 57t44.5 55q27 27 57 46.5t61 31.5q7 2 13.5 4.5t13.5 3.5q6 2 12.5 3.5t13.5 2.5h2t2 1h2h2h40h4h4q17 0 32.5 -5t28.5 -14q2 -1 4.5 -3t4.5 -4v2q1 2 2.5 3.5t3.5 2.5q2 2 5 2.5t6 0.5h40h2h2q1 -1 2 -1 h2q2 -1 4.5 -1.5t5.5 -0.5q6 -2 11.5 -5t10.5 -7t8.5 -7.5t4.5 -7.5v-2v-1q-1 -8 -1.5 -16t-0.5 -16q-1 -9 -1.5 -17t-1.5 -16t-1.5 -16.5t-1.5 -16.5q-1 -9 -1.5 -17.5t-0.5 -16.5q0 -1 -0.5 -2l-0.5 -1v-2v-2l-1 -6l-7.5 -95.5t-6.5 -91.5t-5 -81.5t-2 -64.5v-11.5v-10.5 t0.5 -9.5t1.5 -8.5v-1v0h-4l-4 -1l-5 -1h-40h-4q-10 1 -17.5 3t-13.5 6t-8 8.5t1 9.5q0 2 -0.5 4.5t-0.5 4.5q-1 3 -1 5.5v4.5v9.5v10.5q0 13 0.5 25.5t1.5 26.5q0 7 0.5 13.5t1.5 12.5q0 7 0.5 13.5t1.5 13.5v2v2q2 14 2.5 27t1.5 26q1 8 1 16t1 15v8v8v3v3q0 1 -0.5 2.5 t-0.5 2.5q-9 -5 -18.5 -9l-19.5 -8q-16 -6 -30 -10.5t-28 -5.5q-13 -3 -21 -4.5t-10 -1.5h-4t-3 -1h-4h-4q-4 0 -7.5 -0.5t-6.5 -1.5h-8h-8h-4t-3 -1h-3.5h-3.5l-40 -1q-22 1 -42 4.5t-38 8.5q-18 6 -30.5 19.5t-19.5 33.5q-1 4 -2 7.5t-1 7.5q-1 4 -1 7.5zM151 117 q-1 -10 1 -20.5t6 -19.5t10 -17t14 -14q6 -7 14 -11.5t18 -7.5q6 -1 12 -2.5t12 -1.5h3h3q1 0 2.5 0.5t2.5 0.5q8 2 16.5 3.5t17.5 4.5q15 4 30 10t30 13q14 8 27 17.5t24 20.5v135v0v0l-11 9.5t-10 8.5q-5 5 -10 8.5t-10 6.5q-9 5 -18 9t-18 7q-3 1 -6.5 1.5t-7.5 1.5 q-2 0 -3.5 0.5t-3.5 0.5q-24 -3 -45.5 -13t-38.5 -27q-22 -20 -36 -42t-20 -46q-1 -4 -2.5 -8.5t-1.5 -9.5q-1 -4 -1 -8.5v-9.5z" />
<glyph unicode="r" horiz-adv-x="426" d="M85.5 13.5q-1.5 4.5 1.5 9.5v1v0q1 14 1.5 26.5t1.5 25.5v12.5t1 12.5v12v12v10.5v10.5q-1 5 -1 10.5v10.5v9.5v9.5q-1 4 -1 9v9q-1 8 -1.5 16t-0.5 15v14v12q0 9 0.5 16t1.5 11q2 5 4 7.5t6 2.5h1h2h4l3 1h40h4h3q12 0 21 -2t13 -7q5 -4 7.5 -11.5t2.5 -16.5t-1.5 -19.5 t-3.5 -22.5l-4.5 -22t-4.5 -25v0v0l23.5 29l21.5 26q11 12 18 22t11 17l-1 3v4q0 3 0.5 6t1.5 7q1 3 2.5 7t2.5 8q3 8 8 14.5t11 13.5q6 6 12 9.5t12 3.5h40h2t2 -1l1 -0.5t2 -0.5t2 -0.5t2 -0.5q0 -1 1 -1.5t2 -0.5q2 -25 6 -44t9 -31t11 -20.5t12 -13.5q4 -3 8 -5t8 -3 t7.5 -1.5t6.5 -0.5h2h2q1 -1 2 -1h2q2 -1 2.5 -2.5t0.5 -3.5q-2 -5 -6 -9t-10 -6q-6 -3 -12 -4t-14 -1h-40h-6h-6t-6 1l-6 2q-12 2 -22.5 6.5t-20.5 10.5l-0.5 0.5l-0.5 0.5q-1 0 -1.5 0.5l-0.5 0.5v-0.5v-0.5q-1 0 -1 -0.5v-0.5l-4.5 -6.5l-4.5 -6.5q-3 -4 -5.5 -7t-4.5 -6 l-4.5 -6.5l-4.5 -6.5q-3 -4 -5.5 -7t-4.5 -6q-12 -17 -23 -35t-22 -38q-11 -19 -19 -41t-13 -46h-3l-3 -1l-4 -1h-40h-3q-8 1 -15 2t-13 5t-7.5 8.5z" />
<glyph unicode="s" horiz-adv-x="481" d="M47 46q0 17 4.5 23t13.5 1h40l24 -10.5l34 -14.5q11 -5 23.5 -9.5l27.5 -9.5q11 -3 22 -5t23 -2h1.5h1.5h0.5h1.5q7 0 13.5 1.5t13.5 2.5q10 2 17.5 7.5t11.5 13.5q5 8 7.5 17t3.5 19v1v2q-1 10 -4.5 19t-10.5 18q-6 8 -14.5 13.5t-20.5 6.5h-11h-13h-40h-10.5h-10.5 q-6 0 -11.5 0.5t-10.5 1.5q-22 2 -42 5.5t-38 10.5q-18 6 -27 17.5t-9 27.5q0 6 1.5 13.5t4.5 15.5t9 16.5t14 18.5q11 8 22.5 15t23.5 13q12 5 24.5 9.5t25.5 7.5q6 2 12 3t13 2q6 1 12 1.5t12 1.5q12 2 24 2.5t23 0.5h40q11 0 21 -0.5t19 -1.5t16.5 -1.5t14.5 -1.5 q3 -1 6 -1.5t6 -0.5q2 -1 4.5 -1.5t3.5 -0.5q5 -1 9 -4t8 -8q2 -2 3 -4.5t3 -4.5q1 -3 2 -5.5t2 -4.5q0 -2 0.5 -4t1.5 -4v-2t1 -2v-2v-2q0 -4 -1 -7.5t-3 -5.5q-1 -3 -4 -3.5t-6 0.5h-40q-11 8 -23 14t-25 10q-13 5 -25.5 8t-26.5 5q-6 1 -11 1.5t-10 0.5h-1.5h-1.5 q-16 -1 -31 -5t-28 -9q-17 -7 -25.5 -16.5t-8.5 -21.5v-4.5t1 -4.5q0 -3 1.5 -5.5t2.5 -4.5h-40v1h40v0q2 -9 10 -15t24 -9t34.5 -4.5t39.5 -3.5h3.5h3.5q1 -1 3 -1h4q4 -1 8 -1h8q26 -3 49.5 -7t45.5 -10q21 -6 32 -18t11 -29v-6v-2v-1q-1 -1 -1 -2v-2q-4 -28 -20.5 -50 t-43.5 -36q-27 -15 -56 -23t-61 -11h-4.5t-4.5 -1h-4.5h-4.5h-4t-4 -1h-5h-4l-40 -1q-28 1 -53 5t-47 11q-22 8 -33 19t-13 25z" />
<glyph unicode="t" d="M15 288v2l1 3v2v3l3 3l4 1h40q2 0 5.5 -0.5t7.5 -2.5q2 -1 4 -1.5t4 -0.5q3 -1 5 -1.5t5 -1.5q5 -1 9.5 -2.5t9.5 -3.5q1 0 1.5 0.5t1.5 0.5l0.5 0.5t1.5 0.5q1 4 1.5 8.5t0.5 9.5v10v10v6v6q-1 3 -1 6.5v6.5v6v7q-1 3 -1 6.5v6.5q-1 5 -1.5 10t-0.5 10v5.5v5.5 q-1 2 -1 4.5v5.5l-2 21t-2 19t-1 16v11q1 1 2 1.5t2 0.5q0 1 1 1.5t2 0.5q2 1 4 1.5t4 1.5h40q5 0 10 -2t11 -5q3 -1 5.5 -3t5.5 -3q3 -2 6 -3.5t6 -3.5l2 -2l2 -1q3 -2 6 -5t4 -7q2 -4 2.5 -9t0.5 -11t-0.5 -13t-1.5 -15q-1 -4 -1.5 -8t-0.5 -8q-1 -4 -1.5 -8t-1.5 -8 l-2 -13.5l-2 -13.5t-1.5 -13.5t-0.5 -13.5q-1 -3 -1 -5.5v-4.5v-4.5v-4.5v-6v-6v-6t1 -6h-40v1h40v0v0h3.5t3.5 1q1 0 3 0.5t3 0.5h6h3.5t3.5 1h5.5t5.5 1h5h6h6t5 1h5.5h4.5h40q5 0 9.5 -0.5t8.5 -1.5l7 -4q-3 -9 -12 -15t-24 -9q-15 -4 -41.5 -5.5t-64.5 -1.5v-26v-29 v-31.5v-32.5v-41v-39v-34v-25q0 -2 -1.5 -4t-4.5 -3t-6.5 -1.5t-7.5 -0.5l-40 -1h-6l-6 1q-6 2 -11.5 3.5t-10.5 3.5q-4 2 -6.5 4.5t-2.5 4.5q0 4 0.5 14.5t1.5 28.5q2 17 3.5 36t2.5 40v4l1 4l2 38.5l2 36.5q2 17 2.5 29.5t0.5 19.5h-2t-1 1h-2h-2h-2t-1 1h-2h-2h-4h-4h-6 h-6h-5q-13 0 -24.5 1t-20.5 3q-10 2 -14.5 10t-4.5 21z" />
<glyph unicode="u" horiz-adv-x="544" d="M66 88v12t1 12q0 6 0.5 12t1.5 12v10.5t1 9.5v4t1 4v4v4v1v0q1 3 1.5 7t1.5 8q0 4 0.5 7.5t1.5 7.5v3.5t1 3.5v3v3v3.5t1 3.5q0 1 0.5 3t0.5 3q1 8 1.5 15.5t1.5 15.5t2.5 18t2.5 20l5 3l6 1h40h2h3q1 -1 2.5 -1h2.5q2 -1 5 -1.5t6 -2.5q2 -1 3.5 -2t3.5 -1q1 -1 3 -2 t3 -2q3 -2 6 -4.5t6 -4.5q2 -2 4.5 -4t3.5 -4l5 -6l-2 -4t-1 -4q-1 -3 -2 -5.5t-2 -5.5l-2 -6t-1 -6q-1 -3 -2 -6.5t-2 -7.5q-2 -7 -4 -15l-4 -16q-1 -8 -2.5 -16t-3.5 -16l-2 -14l-2 -14t-1 -13v-12q-1 -11 0.5 -21t4.5 -18q3 -7 7.5 -12.5t10.5 -7.5h1v0q5 2 10.5 4 t11.5 5q16 8 31.5 20.5t30.5 30.5q15 17 28.5 35.5t23.5 37.5l5.5 9.5t4.5 9.5q2 4 4 9t4 9q4 9 7 17.5t5 16.5q2 5 4.5 8t6.5 6l8 4t8 3q2 0 4 0.5t5 0.5q2 1 4 1h4h3.5t3.5 1h2h2h40v-2v-1q-1 -1 -1 -2v-2v-2v-1v-2v-2v-4v-4v-6v-3v-3q0 -26 2.5 -51.5t6.5 -49.5l9.5 -44 t9.5 -35q2 -4 3 -8.5t3 -7.5q1 -4 2.5 -7l2.5 -5q3 -5 5.5 -7.5t4.5 -2.5q17 -3 21.5 -8t-3.5 -12q-7 -6 -22.5 -13.5t-38.5 -15.5l-6 -3l-6 -2h-40q-4 6 -8 15.5t-7 22.5q-4 14 -7 29.5l-6 31.5l-7.5 34l-6.5 31q-2 -3 -4.5 -6t-4.5 -6q-2 -4 -4.5 -7t-5.5 -6 q-10 -13 -22 -26t-25 -25t-26 -22t-26 -18q-9 -6 -18 -10t-17 -7q-8 -1 -16 -2.5t-16 -1.5l-40 -1q-8 1 -15.5 2.5t-14.5 3.5q-7 3 -13.5 8.5t-12.5 13.5q-4 6 -6 13.5l-4 15.5q-1 8 -2 17t-1 19z" />
<glyph unicode="v" horiz-adv-x="481" d="M11 290.5q0 3.5 5 5.5t12 3.5t16 1.5h40h4h4h2h3q1 -1 2.5 -1h2.5q5 -1 10.5 -1.5t11.5 -2.5q5 -1 9.5 -2.5t8.5 -3.5q5 -1 11 -11.5t14 -29.5l16.5 -40.5l17.5 -44.5l1 -4l2 -4q8 -23 16.5 -44.5t15.5 -41.5l5.5 -13l4.5 -11l5.5 5.5t4.5 5.5l4.5 6.5t5.5 6.5 q8 11 16 23.5t16 26.5t15.5 29l14.5 30q8 18 14.5 35.5t11.5 33.5q5 17 7.5 31t2.5 26v2v3q-1 1 -1 2v2v2v2q-1 1 -1 2v2q2 5 4.5 7t6.5 1h40q4 -1 8 -3t8 -7q2 -2 3.5 -4.5t3.5 -5.5q1 -2 3 -5t3 -6l6 -12t5 -12q1 -2 1.5 -4.5t1.5 -4.5q0 -2 0.5 -4.5t1.5 -4.5 q1 -4 1.5 -8t0.5 -7v-2v-2q-1 -1 -1 -2v-2l-2 -7q-5 -11 -12.5 -24t-17.5 -27q-10 -15 -21.5 -30t-24.5 -30q-5 -7 -10.5 -13.5l-10.5 -12.5q-3 -3 -6 -6.5t-5 -6.5l-6 -6l-6 -6q-21 -23 -41 -42t-38 -32q-18 -15 -29 -20.5t-16 -0.5l-40 -1v0v0l-61.5 135t-35.5 81 q-12 27 -21 45t-16 27l-3 4l-4 5l-2 2l-2 2q-1 0 -2 1l-2 2q-1 2 -3.5 4t-4.5 5q-5 5 -5 8.5z" />
<glyph unicode="w" horiz-adv-x="764" d="M19 309v6q1 2 2.5 3.5t2.5 3.5h6l6 1h40h5h6q22 0 37 -3.5t24 -10.5t16.5 -19.5t13.5 -29.5l11.5 -36t13.5 -46q6 -21 15.5 -45.5t22.5 -53.5l0.5 0.5l0.5 0.5l0.5 0.5l0.5 0.5q7 8 14 18.5t14 23.5q4 6 7.5 12l7.5 13l6.5 12.5l7.5 13.5l23 44.5l21 40.5q11 20 19 29.5 t15 9.5h40q3 2 9 -7.5t16 -29.5l20.5 -42.5l21.5 -46.5v-2l2 -2l19.5 -43t18.5 -39q5 -11 9.5 -19t8.5 -13q6 5 12.5 13.5t13.5 19.5q8 14 15 27.5t13 28.5q2 7 4.5 13.5t4.5 13.5t4.5 13.5t3.5 12.5q2 6 3 12l2 12q0 3 0.5 6t0.5 6q1 2 1 5v6q0 8 -0.5 14.5t-1.5 13.5 q-1 3 -1.5 6.5t-0.5 6.5q-1 3 -1.5 6t-1.5 6q-1 2 -1.5 4.5t-0.5 5.5q-1 2 -1.5 4.5t-1.5 4.5q-1 5 -1.5 8.5t-0.5 6.5v4.5t1 4.5t2.5 3.5t3.5 2.5h40q19 -4 32.5 -11.5t20.5 -18.5q8 -11 11.5 -24t3.5 -27v-4v-3q-1 -2 -1 -4v-4q-1 -4 -1.5 -7.5t-0.5 -7.5q-3 -12 -6.5 -23 t-8.5 -22q-2 -6 -4.5 -11t-4.5 -10l-5.5 -9t-4.5 -8q-2 -3 -4 -5.5t-4 -4.5l-7 -8l-8.5 -13l-9.5 -15q-5 -7 -11 -14.5l-12 -15.5q-5 -7 -10.5 -13t-10.5 -12t-10.5 -12l-10.5 -11q-10 -10 -19.5 -17.5t-18.5 -12.5q-9 -6 -17 -9t-15 -3l-40 -1h-2v0h-2h-1q-4 2 -10.5 11 t-14.5 25l-17 35.5l-18 38.5l-2 4l-2 4t-1.5 4t-1.5 4l-17 33t-16 30q0 1 -0.5 2t-1.5 2q-1 0 -1.5 1t-0.5 2q-2 -4 -5 -9.5l-6 -10.5l-20 -33l-21 -35q-2 -4 -4 -7.5t-4 -6.5q-2 -4 -4 -7.5t-4 -6.5l-22.5 -34.5t-21.5 -29.5q-10 -12 -19 -18t-16 -5l-40 -1q-3 4 -6 8.5 t-6 9.5l-6 10.5t-5 12.5q-1 2 -2.5 4t-2.5 5q-1 2 -2 4.5t-2 5.5l-2 4t-1 5l-2 4l-2 4l-2 4t-2 5l-2 4l-2 4v1v0q-22 75 -42 121.5t-37 65.5q-17 18 -26 31t-10 20z" />
<glyph unicode="x" horiz-adv-x="544" d="M28 -64l1 5l2 4q6 11 15.5 23l21.5 27l25 28.5l26 31.5l4 5l4 5l21.5 25l20.5 24l20 22.5t16 19.5q-31 36 -59 61t-51 38t-38 23.5t-21 19.5l-4 6l-1 6v2v2q1 2 4 3.5t7 2.5q5 1 10.5 1.5t12.5 0.5h40h3.5h3.5q2 -1 4 -1h4h4h4q2 -1 4 -1h4q9 -1 18 -3.5t18 -5.5 q8 -3 14.5 -6t10.5 -7q11 -10 19 -18.5t14 -15.5l11.5 -14l10.5 -13l2 -3l2 -2q2 -3 4.5 -6t4.5 -6l0.5 0.5l0.5 0.5l0.5 0.5l0.5 0.5l14.5 16t16.5 16l12 10.5l13 11.5l12.5 10.5t13.5 10.5q4 3 8 5.5t8 4.5q3 3 7 5.5t8 4.5t7.5 4t7.5 4q3 1 6.5 2.5t7.5 2.5v0v0l2 1h40h1 h1l4 -1l6 -2q2 -1 3 -2.5t3 -2.5q1 -2 2.5 -3t2.5 -3q2 -1 3 -3t2 -3q1 -2 2 -3.5t2 -3.5l1 -6l1 -4l-1 -7l-3 -5l-3 -2l-3 -2q-9 -4 -24 -10t-37 -13t-45 -21t-47 -34q-3 -3 -6 -5.5t-6 -4.5l-5.5 -5.5l-4.5 -4.5q42 -52 73.5 -85t50.5 -47q20 -13 34 -23l22 -16l4 -5l5 -4 q0 -3 -3.5 -6.5t-9.5 -7.5l-14 -6t-15 -6q-4 -1 -8 -1.5t-8 -1.5h-3.5t-3.5 -1h-2.5h-3.5l-40 -1q-11 1 -22.5 8t-23.5 21q-12 13 -24.5 28.5t-25.5 33.5l-8 10t-7 10l-8 10l-8 10q-2 3 -4.5 6t-5.5 6q-3 -4 -6 -8.5t-6 -9.5q-5 -7 -10 -15l-10 -16q-6 -9 -11 -17.5 l-10 -17.5l-3 -5l-2 -4q-12 -18 -22.5 -35.5l-20.5 -33.5l-17 -28t-12 -15l-5 -4l-4 -1h-40l-4 1l-4 1q-4 2 -7.5 5t-6.5 6t-5.5 6t-4.5 6l-2 5v4z" />
<glyph unicode="y" horiz-adv-x="544" d="M15 307v3.5t1 3.5q7 3 13.5 5.5t12.5 3.5q3 1 6 1.5t6 0.5q2 1 5 1h6h40q24 0 44 -11.5t36 -34.5q15 -23 29 -48.5t26 -53.5l6 -14.5l6 -15.5l6 -14l6 -14l4 -10t5 -10q2 -4 4 -8.5t4 -8.5v-0.5t1 -0.5v-1.5v-0.5l0.5 0.5l0.5 0.5q1 0 1 0.5v0.5l16 21l17 23q2 3 4.5 6 t4.5 6l4 6l4 6q8 11 14.5 21.5l12.5 20.5t10 19l7 16q1 3 2.5 6t2.5 7q2 3 3.5 7.5t2.5 8.5l4.5 13.5t4.5 16.5t3.5 18.5t1.5 19.5v4.5v5.5v3v3q-1 1 -1 2.5v2.5l3 2l4 1h40q2 0 5 -0.5t7 -2.5q4 -1 7.5 -3.5t7.5 -4.5q2 -1 4 -3t4 -3q1 -2 3 -3.5t4 -3.5q3 -4 6 -7.5 t6 -7.5l4 -6t3 -6q2 -3 2.5 -5.5t0.5 -4.5v-3l-1 -2q-10 -26 -27.5 -53t-42.5 -54l-51 -57l-54 -59l-44 -49.5t-43 -51.5q-20 -26 -36.5 -53t-29.5 -55q11 1 24 2.5t26 3.5q5 1 9.5 1.5t8.5 0.5q2 0 4.5 0.5t5.5 0.5q2 1 4.5 1h4.5q18 2 35.5 3.5t33.5 3.5q17 1 29.5 1.5 t22.5 0.5l40 -1q3 1 6 1h5l6 -3q6 -4 5.5 -8.5t-8.5 -7.5q-7 -3 -18.5 -6t-27.5 -6q-16 -2 -34.5 -5t-40.5 -6t-45 -7.5t-46 -10.5q-13 -3 -26 -7l-26 -8l-25 -10t-23 -11l-2 -1l-1 -1h-40q-4 -1 -8 0.5t-8 5.5t-6 8.5t-4 9.5l-2 4v4q3 11 9 23t15 25t19.5 25.5t22.5 25.5 q2 3 4 5.5t4 4.5q2 3 4.5 5.5l4.5 4.5q5 5 9.5 10.5t9.5 10.5q4 5 9 10.5t9 10.5q9 10 16.5 19.5l13.5 16.5v0v0l-32 58l-24 45q-10 20 -17.5 37t-13.5 32q-21 39 -39 64.5t-32 35.5q-15 11 -24 18.5t-13 11.5z" />
<glyph unicode="z" horiz-adv-x="544" d="M29 15v2v2l0.5 1t1.5 2q1 2 3 4t5 4l10.5 6t31.5 19l44.5 26.5l48.5 30.5q1 1 2 1.5t2 1.5q1 0 2 0.5t2 1.5q2 2 4 3.5t4 2.5l16.5 10.5t15.5 10.5l15.5 10l14.5 10q2 1 7.5 4t13.5 8l17 10.5t19 12.5l10.5 8.5t11.5 8.5q3 2 5.5 4.5t4.5 5.5q3 2 5.5 4.5l4.5 4.5t3 4 t3 5q1 2 2.5 4t2.5 4q2 4 3.5 8t1.5 8v2v2q-1 0 -1 1v2t-0.5 2t-1.5 2l-0.5 1t-1.5 2q-4 2 -8.5 4t-9.5 3h-1.5t-1.5 1h-1.5h-1.5q-6 -1 -12.5 -1.5t-13.5 -2.5q-13 -2 -26 -4.5t-26 -5.5q-6 -1 -11 -2.5t-10 -3.5q-3 -1 -5.5 -1.5t-4.5 -0.5q-3 -1 -5.5 -1.5t-4.5 -1.5 l-34 -9.5l-30 -8.5t-24.5 -6t-17.5 -2h-40l-7 1l-3 3q-1 2 -0.5 5t1.5 7q2 4 4.5 8.5t5.5 8.5q2 2 4 4.5t5 5.5l4.5 4.5t5.5 4.5q3 3 6.5 6t7.5 5q3 2 6 3t5 1v1v0q25 2 47.5 3.5t42.5 2.5q20 2 39 2.5t35 0.5h40q30 0 53.5 -1.5t41.5 -4.5q9 -1 16.5 -3t14.5 -3 q6 -2 11.5 -3.5t9.5 -3.5q1 -1 2 -1.5t2 -0.5q0 -1 1 -1.5t2 -0.5l5 -3l2 -3l3 -3q1 -1 1.5 -2l1.5 -3q0 -1 0.5 -2l1.5 -3q1 -3 1.5 -6.5t0.5 -7.5t-0.5 -7.5t-2.5 -7.5l-2 -4l-2 -4q-2 -3 -3.5 -5t-3.5 -4t-4.5 -4t-5.5 -4l-6 -4l-6 -4l-13.5 -7.5l-13.5 -7.5l-13.5 -7.5 t-13.5 -6.5l-80.5 -42l-73.5 -37q-35 -18 -54 -30t-21 -20v-2l-1 -1q0 -8 13 -12.5t39 -6.5q17 -1 36 -1.5t39 -0.5q26 2 47.5 3.5t40.5 2.5q20 2 35.5 2.5t27.5 0.5h40q9 0 16 -0.5t11 -1.5q5 -1 7.5 -3t2.5 -4q0 -3 -2.5 -5.5t-7.5 -4.5t-12.5 -4t-17.5 -4 q-12 -3 -26.5 -5.5t-32.5 -4.5q-18 -1 -38.5 -3.5l-43.5 -5.5q-11 -1 -21.5 -1.5t-21.5 -1.5q-10 0 -20.5 -0.5t-20.5 -1.5q-20 -2 -39 -2.5t-36 -0.5l-40 -1q-18 1 -33.5 2t-29.5 3q-14 1 -25.5 4t-20.5 7h-2l-3 4l-4 5z" />
<glyph unicode="{" d="M63 243v1v0q24 5 40 15.5t23 27.5q8 17 11.5 37.5t3.5 43.5v7.5v7.5q-1 4 -1 7.5v7.5q-1 8 -1 15.5v15.5l-1 4v4q-1 7 -1.5 13.5t-0.5 13.5v12.5v13.5q0 29 6 55t19 48q12 22 41 33t74 11h40v-5v-5v-5.5v-4.5v-4q-29 -1 -47.5 -11t-26.5 -28q-8 -19 -12 -40.5t-4 -47.5 v-6v-6v-7v-6q0 -7 0.5 -13.5t1.5 -12.5v-6v-5v-10.5v-10.5v-5.5t1 -4.5v-5.5v-4.5q0 -25 -3.5 -47t-10.5 -42t-23 -33t-42 -18q24 -4 39.5 -16.5t22.5 -32.5q7 -19 10.5 -41.5t3.5 -47.5v-6v-5q-1 -3 -1 -6v-6v-12v-11v-6v-6q-1 -3 -1 -6v-6v-12v-11q-1 -26 3 -49.5 t12 -44.5q8 -20 27 -31t50 -12v-25h-40q-45 1 -73.5 12t-41.5 33t-19 48t-6 56v8.5v9.5v5.5t1 5.5v4.5v5.5v3t1 3v2.5v2.5v4.5t1 5.5v8v8q0 3 0.5 7t0.5 8v7.5t1 7.5v7.5v7.5q0 23 -3.5 43.5t-10.5 37.5t-23 27.5t-41 14.5z" />
<glyph unicode="|" horiz-adv-x="182" d="M87 -24v670h40h55v0v0v-670h-40h-55z" />
<glyph unicode="}" d="M0 613v25h40h3h3h2.5h2.5h3h3h2.5h2.5q40 0 65.5 -11t35.5 -34q11 -22 16.5 -49t5.5 -58v-6v-6q-1 -3 -1 -6v-6v-6v-6v-7v-6v-4v-4q-1 -7 -1.5 -14t-0.5 -14v-14v-14q0 -25 3 -46.5t9 -39.5t21 -29t38 -15q-22 -4 -36.5 -14.5t-20.5 -28.5t-9 -38.5t-3 -44.5v-12v-12v-6 t1 -6v-6v-6v-6v-6v-7v-6v-6t1 -6v-6v-6q0 -32 -6 -61.5t-17 -55.5q-12 -26 -40.5 -39t-74.5 -13l-40 -1v24q29 3 47.5 13t27.5 28t13.5 39t4.5 45v5.5v6.5q-1 4 -1 7.5v7.5q-1 8 -1.5 15.5t-0.5 14.5v3v3q-1 8 -1.5 16.5t-0.5 16.5q-1 8 -1 16.5v15.5q0 22 3 41t10 35t21 26 t36 14v1v0q-22 0 -35.5 9.5t-18.5 28.5q-6 18 -8.5 40t-2.5 47v12.5v13.5v14v14v2l1 4v7v8v7.5v7.5q0 30 -4 57t-12 50t-27.5 35t-51.5 12h-3h-3z" />
<glyph unicode="~" horiz-adv-x="638" d="M63 228q17 23 33.5 38.5t32.5 24.5t31.5 13.5t31.5 4.5h40q14 0 28.5 -3t27.5 -8q7 -3 14 -5.5t14 -5.5q6 -3 13 -6l14 -6q13 -7 25.5 -13t24.5 -11q3 -1 6.5 -2.5t7.5 -2.5t7.5 -2t6.5 -1q4 1 7.5 2t7.5 3q3 1 6.5 3t7.5 5q12 8 23.5 22.5t22.5 35.5v1h40v0l39 -39 q-18 -25 -34.5 -42.5t-33.5 -26.5q-16 -10 -32 -14.5t-31 -4.5h-40q-14 0 -27.5 2.5t-26.5 8.5q-13 5 -26 11t-26 13l-12.5 6l-12.5 6q-7 2 -13 5l-12 6q-3 2 -6.5 3t-6.5 2t-6.5 2t-6.5 2q-1 0 -2 -0.5l-1 -0.5q-1 0 -2 -0.5t-2 -0.5q-6 -1 -12 -4t-12 -7q-3 -2 -6 -4.5 t-6 -5.5q-4 -2 -7 -5l-6 -6q-6 -7 -12 -15t-12 -18h-40z" />
<glyph unicode="&#xa0;" />
<glyph unicode="&#xa1;" d="M87 -219v-1v0q0 16 1 35.5t3 45.5q2 25 5 52.5l6 56.5v6.5v7.5q-1 3 -1 6.5v7.5v15v17v4v4q-1 2 -1 4.5v4.5v9.5v8.5v4v5v4v4v9.5v8.5q0 17 0.5 33t1.5 29q1 14 3 22.5t5 11.5l3 1l4 1h40h2h2q1 -1 2.5 -1h2.5q2 -1 5 -1.5t6 -1.5q2 -1 4.5 -3t5.5 -3q2 -2 4.5 -3.5 t4.5 -3.5q5 -4 7 -8t2 -9q-3 -12 -5 -31t-2 -45q-1 -27 -1 -60.5v-73.5v-12v-12q0 -5 0.5 -11t0.5 -12q0 -11 0.5 -22.5t1.5 -22.5v-20.5t1 -18.5v-9t1 -9v-8v-8q0 -11 -0.5 -20t-1.5 -15t-3.5 -9.5t-6.5 -3.5h-2t-2 -1h-3h-2h-2t-2 -1h-2h-2l-40 -1q-13 1 -22 4.5t-14 9.5 q-5 7 -7.5 14t-2.5 15zM100 287.5v5.5v4.5v5.5q0 7 0.5 13t1.5 12q1 5 3 9.5t5 7.5v1v0l4 3h1.5t1.5 1h2h2h40h2h2q1 -1 2 -1h2q2 -1 4 -1.5t5 -0.5q2 -1 3.5 -2t3.5 -2q1 -1 3 -2t3 -2q3 -2 6 -4.5t4 -4.5l3 -4l1 -4v-24v-23v-21v-19l-1 -6q-1 -1 -3 -1h-4h-40h-2.5h-2.5 q-2 0 -3 0.5t-3 0.5q-1 0 -3 0.5t-3 0.5q-2 1 -3.5 1.5t-3.5 1.5q-4 2 -8.5 3.5t-8.5 3.5t-7 4t-5 4l-2 1v2v3.5v2.5q-1 2 -1 3.5v2.5v3.5v3.5v3v3v3v4q-1 2 -1 4.5z" />
<glyph unicode="&#xa2;" horiz-adv-x="599" d="M61 74q0 8 1 17t4 18q2 5 3.5 9.5t3.5 9.5q2 4 4 9t5 9q15 26 38 50.5t54 47.5t66 39t75 23l8.5 28.5l5.5 18.5t3.5 11t2.5 5l2 1h40h4l2 -1h3l5 -2q1 -1 1.5 -3t0.5 -4v-2v-3q-1 -1 -1 -2v-3q0 -1 -0.5 -2.5t-0.5 -2.5q-1 -2 -1 -3v-3l-2 -6l-1 -5v-2v-2q-1 -1 -1 -2v-2 v-6h-40h4.5t5.5 1h4.5h4.5h4t5 1h4h4h40q20 0 34.5 -3t24.5 -8q9 -5 15 -12.5t9 -17.5q1 -3 1.5 -6t0.5 -5v-2.5t1 -2.5v-2v-2q0 -4 -0.5 -6.5t-2.5 -4.5q-1 -1 -3.5 -2t-4.5 -1h-40q-4 0 -8.5 1t-10.5 3l-12 4t-14 5q-8 2 -17 4.5t-20 4.5h-1.5h-0.5q-1 0 -1.5 0.5 t-1.5 0.5l-4 -12.5l-4 -13.5l-4 -13.5t-4 -14.5l-8 -32.5l-8 -33.5l-10 -38.5l-10 -37.5q-4 -18 -8.5 -33.5t-9.5 -27.5h1.5h1.5q1 -1 1.5 -1h1.5q22 1 40.5 3.5t33.5 7.5q18 6 34.5 12.5t29.5 13.5q2 1 4.5 2t5.5 3q2 1 4.5 2.5t4.5 2.5l4 2t5 3l4 2l4 2q5 2 8.5 4t7.5 3 q4 2 7 2.5t5 0.5h40q6 0 7 -3t-2 -9q-4 -7 -12 -13.5t-22 -14.5q-4 -2 -8.5 -4.5t-9.5 -4.5q-4 -2 -9.5 -4t-10.5 -4q-9 -4 -18.5 -7t-20.5 -6q-10 -2 -21.5 -4l-22.5 -4q-16 -3 -31 -5.5t-29 -4.5l-14 -2t-12 -2q-6 0 -11 -1t-9 -2l-8.5 -26t-5.5 -18l-3.5 -10.5t-2.5 -5.5 l-2 -3l-3 -1h-40h-3h-4l-6 2q-1 2 -1.5 3.5t-0.5 3.5q0 4 1 9t3 13l5 17.5l7 23.5l40 -1v0v0h-6l-4 -1h-40h-6h-5q-39 1 -66.5 7.5t-44.5 18.5q-17 13 -26 29.5t-9 35.5zM182 116q0 -20 6 -36.5t18 -29.5q7 -7 15 -13t18 -11l58 235v0l-14 -6t-14 -7q-16 -9 -29 -19t-23 -21 q-6 -6 -10.5 -12t-7.5 -12q-4 -6 -6 -10.5t-3 -9.5q-2 -7 -3.5 -13t-2.5 -12t-1.5 -12t-0.5 -11z" />
<glyph unicode="&#xa3;" horiz-adv-x="599" d="M39 46q32 0 59.5 6t49.5 19q22 12 33 33t11 51q0 11 -2 22.5t-5 24.5q-3 11 -7.5 24.5t-10.5 27.5q-1 -1 -2 -1h-3h-40h-4h-4h-12.5t-10.5 1q-4 1 -7 2.5l-5 2.5l-5 3q-1 1 -2 1.5t-1 1.5q-1 1 -2 2.5t-2 2.5q-1 2 -2.5 4t-3.5 5q-1 3 -2.5 6t-2.5 6q-1 2 -1.5 4t-0.5 4 q0 1 -0.5 2t-0.5 2v1v2v4l2 4l5 4h1.5t1.5 1h2h2h40q3 0 7.5 -0.5t9.5 -1.5t11 -2l12 -2q1 0 2 -0.5t2 -0.5t2 -0.5t2 -0.5v0l-2 8l-2 8q-1 2 -1 4.5t-1 4.5q-1 8 -1.5 15.5t-0.5 14.5q-1 46 18 85t57 72q38 32 81 48.5t91 16.5h40q7 0 14 -0.5t14 -1.5t13.5 -1.5t13.5 -2.5 q20 -6 35 -15.5t25 -21.5q9 -13 14 -29.5t5 -36.5q0 -16 -2 -27t-7 -19q-4 -7 -9.5 -11t-11.5 -4h-40h-4.5t-4.5 1t-4.5 2.5t-4.5 2.5q-1 2 -1.5 4.5t-0.5 5.5q-1 2 -1.5 4.5t-0.5 4.5q-1 5 -2 9.5t-1 8.5q-4 17 -9 31t-11 27q-7 12 -21.5 22t-37.5 17h-1.5t-0.5 1h-1.5 h-1.5q-27 -4 -48 -21.5t-37 -46.5q-19 -34 -28.5 -72.5t-9.5 -80.5v-5.5v-4.5v-5.5t1 -4.5v-5.5v-4.5v-2.5t1 -2.5v-0.5v-0.5v-1.5v-1.5h2h2h1h2h10.5t10.5 1h10h10h40q41 0 67.5 -2t39.5 -5q13 -4 13.5 -7.5t-10.5 -7.5l-5 -2l-4 -1q-6 -3 -14.5 -5t-19.5 -3 q-12 -1 -24 -1.5t-25 -0.5h-40h-2h-1h-2h-2h-2h-1h-2h-2h-10h-10h-5.5t-4.5 1h-4.5h-4.5h-1.5h-0.5h-1.5h-1.5q0 -4 0.5 -9t1.5 -10l2 -11.5l2 -10.5q0 -3 0.5 -6t1.5 -6q0 -4 0.5 -7t1.5 -6q1 -6 1.5 -12t0.5 -12v-4v-4v-2v-1q-1 -1 -1 -2v-2q-1 -6 -3 -12t-4 -11 q-2 -6 -5 -11t-7 -10q-1 -2 -3 -4.5t-4 -4.5q-1 -3 -3 -5.5t-4 -4.5l-8 -10t-9 -10q-5 -6 -11 -11t-13 -10t-14.5 -9.5l-16.5 -9.5q17 -1 38 -2.5t45 -2.5q22 -1 44 -1h45h44.5t43.5 1q24 1 45.5 2.5t40.5 2.5h40q13 0 19 -2t6 -6t-4.5 -7.5t-12.5 -7.5q-7 -4 -17.5 -8 t-23.5 -7l-25.5 -4t-26.5 -3l-5 -1h-5l-283 -8h-40q-4 1 -7.5 1h-6.5h-7.5h-7.5q-16 1 -30 4.5t-27 8.5q-13 4 -19 16.5t-6 31.5z" />
<glyph unicode="&#xa4;" horiz-adv-x="599" d="M29 260q0 23 4 44t13 40q9 20 19 38t22 34l-56 49l40 39h40l40 -34q17 8 33.5 14.5t32.5 10.5q20 6 39 9t35 3h40q23 0 42.5 -4t37.5 -12q11 -4 22.5 -9.5t21.5 -11.5l33 34h40l47 -32v0v0l-55 -63q8 -10 14 -19.5t11 -18.5l9.5 -19.5l8.5 -18.5q3 -10 5.5 -20t3.5 -19 q2 -10 3 -19t1 -18q0 -23 -4.5 -45t-13.5 -42t-20.5 -37.5t-25.5 -31.5l63 -54l-39 -39h-40l-40 40q-12 -7 -24 -13t-25 -11q-19 -8 -39.5 -12t-42.5 -4h-40q-18 0 -36.5 3t-38.5 9q-14 5 -29.5 11.5t-31.5 16.5l-38 -32h-40l-40 39l56 47q-16 21 -27 42t-17 40 q-7 20 -10.5 39t-3.5 37zM133 277q0 -54 13 -93.5t40 -63.5t56.5 -37.5t61.5 -16.5v0h1v0v0q15 1 29.5 4t27.5 9q18 7 31.5 16.5t23.5 21.5l2.5 2t6.5 6q5 5 9.5 11t10.5 15l4.5 9t5.5 10l4.5 11t4.5 13q5 13 7 28t2 33v8.5v8.5q0 5 -0.5 9.5t-1.5 8.5v1v0q0 5 -1 11t-3 13 q-2 6 -5 13l-6 14q-10 18 -24 34.5t-32 32.5q-18 15 -37 24.5t-39 12.5h-2.5t-2.5 1h-3h-2h-2t-2 1h-2h-2h-2q-31 -3 -59 -13t-53 -28q-30 -21 -44.5 -48t-14.5 -61v-6v-4l-1 -6v-5z" />
<glyph unicode="&#xa5;" horiz-adv-x="599" d="M-64.5 556.5q0.5 3.5 3.5 9.5l15.5 4t15.5 3q7 1 14 1.5t13 0.5h39q28 0 49.5 -9.5t36.5 -29.5q15 -19 29 -43.5t27 -54.5q8 -18 15.5 -37.5l15.5 -40.5t18 -42t22 -42l2 -4l2 -4q1 -3 2.5 -5t2.5 -4q2 -4 4.5 -8t5.5 -8l118 1q0 -1 2.5 6.5t8.5 22.5l11.5 33l13.5 39 q1 2 1.5 4t1.5 4q0 2 0.5 4t1.5 4t1.5 4t1.5 4q0 2 0.5 4t1.5 4q5 14 8.5 28.5t7.5 27.5l5.5 25t3.5 21v2t1 3v2v2v4.5v4.5q0 8 -0.5 15.5t-2.5 14.5q-1 6 -2.5 12t-3.5 12q-1 5 -2.5 9.5t-3.5 8.5q-1 4 -1.5 7.5t-0.5 6.5q0 2 0.5 4.5t1.5 3.5q1 2 2.5 3.5t3.5 2.5h40 q2 0 5.5 -2t9.5 -7l13.5 -9t14.5 -11q2 -3 4.5 -5.5t5.5 -4.5q2 -1 3 -2t3 -2q1 -2 2.5 -3t2.5 -2q5 -5 8.5 -9.5l7.5 -9.5q3 -4 5 -8.5t2 -7.5v-1v0l-1 -2v0q-3 -6 -10.5 -29l-21.5 -64q-13 -40 -35 -83.5t-51 -90.5h63h40l2 -2l2 -1l4 -5q0 -1 0.5 -2t1.5 -1q0 -1 0.5 -2 t0.5 -2q0 -3 -1 -5.5t-3 -4.5q-2 -3 -6 -4.5t-9 -2.5h-40l-70 1l-63 -111h165q8 -1 13 -2.5t8 -3.5q3 -3 4 -5.5t0 -4.5q-1 -3 -3 -6t-7 -5q-4 -3 -9.5 -4t-13.5 -1h-40l-141 1l-118 -221q-4 -4 -7.5 -8.5t-8.5 -7.5q-4 -3 -8.5 -4.5t-9.5 -2.5l-4 -2h-40h-4q-8 1 -15.5 2.5 t-13.5 6.5q-7 4 -10.5 8.5t-4.5 9.5v0v1l1 7q1 2 2.5 3.5l3.5 3.5q6 0 13.5 3.5t16.5 9.5q9 7 18 15.5t18 19.5q4 4 8 9l8 10q3 6 7 11.5l8 11.5q8 12 14.5 23.5t13.5 21.5q2 5 4.5 9.5t4.5 8.5q2 5 4 9.5t4 8.5l-16 33h-181q-6 -1 -10.5 0t-7.5 3t-5 5t-2 6v0v2q0 2 1 4.5 t3 4.5t5.5 3.5t7.5 1.5l181 1l-71 111h-62l-2 -2h-40h-2h-2h-2q-4 0 -7.5 1t-5.5 4q-2 2 -3 5t0 6q0 2 0.5 3l1.5 3l2.5 2.5l2.5 2.5q3 2 7 3.5t10 1.5l87 1v0v0l-67.5 125.5l-46.5 82.5l-29 47t-13 20q-2 4 -5 7l-6 6q-3 2 -6 4.5t-6 3.5q-2 0 -3 0.5l-3 1.5q-1 0 -2.5 0.5 t-2.5 0.5q-3 1 -5.5 1.5t-4.5 1.5q-5 1 -8 2.5l-5 2.5q-2 2 -1.5 5.5zM284 213l42 -68l36 68v0h-78z" />
<glyph unicode="&#xa6;" />
<glyph unicode="&#xa7;" horiz-adv-x="599" d="M80 218v11t1 12t2.5 12.5t3.5 13.5q5 20 15.5 35t26.5 25q17 11 35 21l37 20l5 2l6 3q3 2 6 3.5t6 2.5q3 2 6 3.5t6 2.5q-28 8 -47.5 18.5t-31.5 22.5t-18 25.5t-6 26.5v6v2t1 2v1v2q4 21 18 40.5t38 38.5q24 18 50 30.5t54 18.5q2 0 4.5 0.5t5.5 1.5q2 0 4.5 0.5 t4.5 0.5h4.5t5.5 1h4.5h5.5h40q15 0 29 -3t27 -9q14 -6 24.5 -15t19.5 -22h-40v1h40v0q2 -7 3.5 -14t2.5 -13t1.5 -12t0.5 -11q0 -12 -2 -21t-5 -15q-3 -7 -6.5 -10.5t-7.5 -5.5l-3 -1h-40h-2h-4t-4 1l-2.5 2.5t-2.5 3.5q0 25 -6.5 45.5t-20.5 36.5q-10 12 -22 19.5 t-26 10.5q-6 -1 -12.5 -3.5t-13.5 -4.5q-12 -5 -24 -13.5t-24 -19.5q-4 -6 -7.5 -12t-5.5 -11t-3 -10.5t-1 -10.5q0 -14 5.5 -26t17.5 -23q12 -10 25 -18.5t28 -14.5q8 -4 16 -7.5t16 -6.5t14.5 -5l12.5 -4l9.5 -5.5t9.5 -4.5q5 -3 10.5 -5t10.5 -4q1 -1 2 -1.5t2 -0.5 q0 -1 1 -1.5t2 -0.5t2 -0.5t2 -0.5q0 -1 1 -1h2q18 -8 35 -17t32 -20q15 -10 22.5 -24.5t7.5 -34.5q0 -7 -1 -13.5t-3 -14.5q-2 -7 -5 -15.5t-8 -17.5q-5 -13 -14.5 -24t-23.5 -22q-14 -10 -29 -19.5t-30 -17.5q-1 -1 -2.5 -1.5t-2.5 -1.5l-3 -1.5l-3 -1.5q-1 -1 -2.5 -1.5 t-3.5 -0.5q-1 -1 -2.5 -1.5t-2.5 -1.5q22 -4 42 -11.5t38 -17.5t27.5 -25.5t10.5 -35.5q0 -7 -1.5 -15t-4.5 -16q-3 -7 -7 -15.5t-10 -18.5q-12 -18 -30 -33t-41 -27q-24 -11 -48.5 -18.5t-50.5 -11.5q-5 -1 -10.5 -1.5t-10.5 -0.5h-6t-5 -1h-5.5h-4.5l-40 -1q-29 1 -54.5 7 t-47.5 17q-22 12 -32.5 30t-10.5 43q0 7 1 14.5t3 14.5q2 8 5.5 17t8.5 19q4 2 7 4t6 3t5.5 1.5t4.5 0.5h40q3 0 5 -1.5t3 -4.5t1.5 -7.5t0.5 -9.5q0 -7 1 -14l2 -14q1 -8 4 -16.5t8 -17.5q6 -11 16.5 -20t25.5 -16q13 -6 27 -9.5t28 -5.5q8 1 15.5 2.5t14.5 3.5 q11 4 20.5 9t16.5 12q6 5 10.5 10.5l8.5 10.5q2 3 3.5 6t3.5 5q1 3 2.5 6t2.5 6q2 4 2.5 7.5t1.5 6.5q0 2 0.5 3t0.5 3q1 2 1 3.5v3.5q0 19 -7 35.5t-21 29.5q-14 14 -30 20.5t-34 6.5h-16.5h-16.5t-16.5 0.5t-16.5 1.5q-28 2 -54.5 9t-50.5 19q-24 11 -36 33t-12 54z M180 243q0 -19 7.5 -36t23.5 -32q15 -15 38.5 -23.5t55.5 -10.5q19 3 36 11t33 21q18 14 27.5 35t9.5 49v3.5v2.5q-1 2 -1 3.5v2.5v3.5v2.5q-1 2 -1 3.5v3.5v1v0q0 2 -0.5 5t-2.5 6q-1 2 -1.5 3.5t-1.5 3.5q-1 1 -2 3t-2 3q-7 8 -16.5 16.5t-21.5 15.5q-12 8 -24.5 13 t-26.5 7h-2.5t-3.5 1q-25 -3 -44.5 -11t-35.5 -22q-19 -16 -30 -34.5t-13 -38.5l-1 -6v-5z" />
<glyph unicode="&#xa8;" horiz-adv-x="260" d="M8 440v88v0v0l4 5q2 1 4.5 1.5t6.5 0.5h40h2h2q1 -1 2 -1h2h2h2q1 -1 2.5 -1h2.5q2 -1 4.5 -2t5.5 -2q2 -1 4.5 -2t4.5 -3q5 -3 8 -6t4 -7v-94l-4 -8q-1 -1 -3.5 -2t-5.5 -1h-40h-4.5t-4.5 1q-3 0 -5.5 1t-4.5 2q-6 2 -11.5 5.5t-10.5 7.5q-4 4 -6.5 8.5t-2.5 8.5z M150 432v96v0v0l3 3q2 1 4.5 1.5t5.5 0.5h40h2h2q1 -1 2.5 -1h2.5q2 0 4.5 -0.5t5.5 -1.5q6 -1 11.5 -3.5t9.5 -4.5q2 -1 4 -2.5t3 -2.5q2 -2 2.5 -3t0.5 -3v-94q0 -4 -1.5 -6t-3.5 -4q-2 -1 -5 -1.5t-6 -0.5h-40h-4h-4t-4 0.5t-4 1.5q-5 2 -9.5 4t-9.5 5q-4 3 -7 7.5 t-5 8.5z" />
<glyph unicode="&#xa9;" horiz-adv-x="764" d="M46 314v4v5v4v4v4t1 5q0 2 0.5 4t0.5 4q1 8 2.5 16.5t2.5 17.5q2 9 4.5 17.5t5.5 16.5v1v0q3 5 6 11t7 12q3 6 7.5 12t8.5 12q4 5 8 11l8 12q5 6 9.5 12t8.5 12q25 25 53.5 44.5t61.5 33.5t67 21.5t68 8.5h40h4h5q38 -1 74 -12t72 -31q35 -21 66 -52.5t57 -75.5 q5 -9 8.5 -18t7.5 -18q2 -4 3 -8.5t3 -8.5q1 -5 2.5 -9t2.5 -9l4 -18t3 -18t1.5 -18t0.5 -18q0 -65 -24.5 -122t-72.5 -107q-48 -49 -105.5 -73t-123.5 -25l-40 -1q-19 1 -37.5 3.5t-37.5 7.5q-19 4 -38 10.5t-38 16.5q-35 19 -65 49t-54 72q-24 41 -36 85.5t-12 92.5z M127 283q3 -17 7 -32t8 -28q5 -13 9.5 -23.5l8.5 -19.5q7 -13 13.5 -23.5t12.5 -18.5l10.5 -12.5t8.5 -8.5q17 -22 39 -39t50 -31q23 -11 48 -17t50 -8h4h3q22 2 43.5 8.5t43.5 16.5q22 11 42 26t39 36q22 25 37 49t24 48q9 23 13.5 45t4.5 43t-3.5 41t-9.5 38t-12.5 35 t-14.5 32q-21 35 -46 61.5t-55 43.5q-20 11 -41.5 19t-42.5 12q-8 1 -15 2l-14 2q-48 -4 -91.5 -23.5t-84.5 -54.5q-45 -39 -67 -92t-22 -119v-5v-3v0zM189 298q0 45 13 78t38 55q26 22 53.5 35.5t58.5 19.5q6 2 12 2.5t13 1.5h6t7 1h6h6h40q20 0 37.5 -2.5t32.5 -7.5 t25.5 -11t14.5 -14v-62h-40h-16q0 17 -9 30t-26 23q-13 8 -28 12.5t-31 6.5q-3 0 -5.5 -0.5t-4.5 -1.5q-2 0 -4.5 -0.5t-5.5 -1.5q-10 -2 -18.5 -5.5t-16.5 -8.5q-12 -8 -22.5 -22.5t-18.5 -34.5q-8 -21 -12.5 -42.5t-5.5 -44.5v-4v-4q-1 -19 2.5 -38t10.5 -36t18.5 -29.5 t27.5 -20.5l6 -3l6 -3q8 -3 17 -6t19 -6q5 -1 10.5 -2t10.5 -2q13 2 25 5.5t23 9.5q15 8 25 24t15 38l16 1h40v-63v0v0q-7 -10 -18 -18t-27 -13q-16 -6 -34.5 -8.5t-38.5 -2.5h-40h-11.5t-10.5 1h-6t-5 1q-3 0 -6 0.5t-6 0.5q-31 5 -60.5 17.5t-55.5 32.5t-39 51t-13 71z " />
<glyph unicode="&#xaa;" horiz-adv-x="402" d="M47 393v6v2t1 2v1v2q3 20 15 38.5t31 36.5q20 18 41.5 30t44.5 19q5 2 10.5 2.5t10.5 1.5t10 1.5t10 0.5h40q11 0 20.5 -2t18.5 -6q5 -2 9.5 -5t8.5 -6v0q1 0 2.5 0.5t2.5 1.5h40q1 -5 1.5 -11t1.5 -13v-7.5t1 -7.5v-7.5v-7.5v-4.5v-4.5v-2t1 -2v-3v-2q1 -16 2.5 -32 t4.5 -30q2 -14 7 -22t12 -10q3 -1 5.5 -2t3.5 -1q2 -1 3 -2l2 -2q1 -2 0 -4t-4 -4q-3 -3 -8 -5t-11 -4t-13.5 -3.5t-16.5 -3.5h-40q-5 0 -8 2.5t-5 8.5q-1 5 -1.5 11.5t-0.5 13.5l-1 4v4q-1 -1 -2.5 -1.5t-2.5 -0.5q-1 -1 -2.5 -1.5t-2.5 -1.5q-18 -9 -37.5 -14.5 t-40.5 -8.5q-4 -1 -8 -1.5t-8 -0.5h-40h-8h-8q-19 0 -35 3t-30 10q-13 6 -20 17t-7 27zM149 408q0 -5 0.5 -9.5t1.5 -8.5q2 -4 3.5 -7.5t3.5 -5.5q4 -4 8.5 -7t10.5 -5q1 0 2 -0.5t2 -0.5l1 -0.5t2 -0.5q1 1 1.5 1h1.5q5 1 9.5 2t9.5 2q4 2 9 3.5t9 3.5q9 4 17 8t14 8 q3 2 5.5 4.5t3.5 4.5q2 2 3 4t1 4v1v0q2 2 3.5 5.5t2.5 8.5q2 5 2.5 10.5t0.5 11.5v6v2v2q-1 0 -1 1v2q-1 10 -4 19t-8 17q-3 5 -7.5 9t-9.5 6q-16 -2 -29 -7t-24 -13q-14 -10 -23.5 -22t-14.5 -25q-2 -4 -3.5 -8.5t-2.5 -9.5q-1 -4 -1 -8v-8z" />
<glyph unicode="&#xab;" horiz-adv-x="481" d="M39 181l181 142h40l24 -24v0v0l-150 -126l142 -142l-31 -23h-40zM181 181l181 142h40l24 -24v0v0l-150 -126l142 -142l-32 -23h-40z" />
<glyph unicode="&#xac;" />
<glyph unicode="&#xad;" horiz-adv-x="540" />
<glyph unicode="&#xae;" horiz-adv-x="764" d="M47 305q0 9 0.5 18t1.5 18t2.5 18t3.5 18v1v0q3 16 8.5 31.5t12.5 31.5t14.5 30t15.5 27l12 17.5t12 15.5t11 11.5t9 7.5q22 20 46 36t49 26q26 11 52.5 17.5t53.5 7.5h40h6h4h4q44 0 85.5 -11.5t81.5 -34.5q39 -22 69.5 -54t52.5 -73q5 -9 8.5 -18t6.5 -18q2 -4 3 -8.5 t3 -9.5q1 -4 2.5 -8.5t2.5 -9.5q2 -10 3.5 -19t2.5 -18t1.5 -18t0.5 -18q0 -67 -24 -126t-72 -109t-105 -74.5t-122 -24.5l-40 -1q-17 1 -34 3t-34 6t-34.5 9t-34.5 13q-44 20 -78 49.5t-57 69.5q-23 41 -34.5 83.5t-11.5 87.5zM87 330v1h40v0v-2v-2q-1 -1 -1 -2v-2v-6v-2 v-1v-2v-2v-6q0 -46 14.5 -86.5t42.5 -75.5q29 -34 60.5 -58.5t65.5 -38.5q3 -1 6 -2.5t6 -2.5q2 -1 5 -2l6 -2l6 -2l6 -2q2 0 5 -1t6 -1q3 -1 6.5 -2t7.5 -2t7.5 -1.5t7.5 -0.5h1.5h1.5q1 -1 2 -1h2q41 2 78.5 18.5t71.5 47.5q38 34 62.5 76.5t34.5 93.5q1 6 1.5 12t1.5 12 t1.5 12t0.5 12q0 56 -21 105.5t-63 94.5q-38 41 -83 63t-96 26l-16.5 -2t-17.5 -3q-13 -3 -26.5 -7t-27.5 -10q-27 -12 -51 -31.5t-46 -46.5t-37 -55t-23 -57q-2 -7 -3.5 -14t-2.5 -14t-1.5 -13.5t-0.5 -12.5h-40zM213 142v15h40v0v0l6 -2h-40h6q14 0 22.5 4t12.5 13t6 19 t2 21v11v26v35.5v38.5v35v33v26.5v14.5l-2 5l-1 5q-3 7 -6 12t-8 9q-4 4 -13.5 6t-24.5 2v17h40q2 -1 3.5 -1.5t3.5 -0.5h3.5h3.5h6t6 1h6h6h6h6h3.5t3.5 1h3h3h40h6h6h3.5h3.5h3h3q26 0 48.5 -3.5t42.5 -9.5t32 -21t16 -38q1 -1 1.5 -3.5t0.5 -4.5v-2.5t1 -3.5v-2.5v-3.5 q0 -4 -0.5 -8.5t-1.5 -9.5q0 -2 -0.5 -4.5t-1.5 -4.5q0 -3 -0.5 -5.5t-1.5 -4.5q-4 -10 -9.5 -20.5t-13.5 -19.5t-19.5 -14t-25.5 -7l6 -10.5t7 -10.5q3 -6 7 -11.5l8 -10.5l10 -14.5t11 -15.5l12 -14.5t12 -13.5l13.5 -15.5t13.5 -13.5t13.5 -11t12.5 -8v-15h-40h-55 q-4 -1 -10.5 4t-14.5 15l-16.5 22.5l-17.5 24.5l-4 4l-3 5l-15.5 23l-14.5 21q-7 11 -12.5 18t-9.5 11h-7v-5.5v-4.5q-1 -2 -1 -4.5v-4.5v-8.5v-9.5v-4.5v-4.5q-1 -2 -1 -4v-4v-8v-8q0 -13 1.5 -23.5t4.5 -18.5t9.5 -12t16.5 -4h-40h4h4t4.5 0.5t4.5 1.5h40v-14h-40h-149z M355 308q13 1 24 3t21 5q17 5 25 22t8 47q0 19 -4 34t-12 25q-7 9 -21 14t-35 6h-2.5h-3.5v-156v0z" />
<glyph unicode="&#xaf;" />
<glyph unicode="&#xb0;" />
<glyph unicode="&#xb1;" horiz-adv-x="638" />
<glyph unicode="&#xb2;" />
<glyph unicode="&#xb3;" />
<glyph unicode="&#xb4;" horiz-adv-x="260" d="M49.5 387.5q1.5 4.5 9.5 9.5t17.5 13.5t20.5 19.5q3 5 7 9.5t8 9.5t7.5 10.5t6.5 11.5v1v0q3 2 5.5 6t4.5 8q1 2 2 4.5t3 5.5q1 2 2 4.5t2 4.5l2 4l1 4q3 8 6 14t7 12q3 5 8 8t12 3h40q5 0 9.5 -3.5t8.5 -9.5t6 -13t2 -15v-4v-4l-2 -6q-25 -37 -46 -61t-39 -36t-31 -17.5 t-22 -5.5h-40h-7l-5 2h-1v1q-6 5 -4.5 9.5z" />
<glyph unicode="&#xb5;" horiz-adv-x="544" />
<glyph unicode="&#xb6;" horiz-adv-x="638" d="M39 401v3v4v19t1 22q0 12 2 24t5 25q6 23 19 44t33 40q20 20 54.5 29.5t82.5 9.5l268 1h40v-24q-1 0 -3 -0.5t-3 -0.5h-3.5h-3.5h-4h-3q-2 -1 -3.5 -1h-3.5q-12 -1 -22.5 -4.5t-19.5 -8.5q-10 -5 -14.5 -15.5t-4.5 -27.5v-6v-2v-1q0 -1 0.5 -2t0.5 -2v-558q0 -11 4 -20 t13 -14q8 -5 18 -8t20 -4h4t4 -1h4h4h8.5h7.5v-32h-40h-142v701h-15v-701h-40h-142v31q3 1 7 1h8h4h5q2 1 4 1h4q11 1 20 4t18 8q8 5 12.5 14t4.5 21v235v0v0q-44 -1 -81.5 12.5t-69.5 40.5q-31 27 -46.5 62.5t-15.5 80.5zM158 392.5q0 -8.5 1 -17.5q1 -10 3 -19.5t6 -19.5 q5 -16 15 -30.5t23 -28.5q8 -8 20 -14.5t26 -11.5v336v0q-25 -5 -42 -17t-26 -30q-13 -25 -19.5 -58t-6.5 -74v-15.5z" />
<glyph unicode="&#xb7;" />
<glyph unicode="&#xb8;" horiz-adv-x="260" d="M24 -142q16 6 27 10.5t17 9.5q6 4 9 8.5t4 7.5q0 3 -1 5.5t-3 4.5q-2 3 -4.5 5t-5.5 4l-4 2l-3 3l-4 4t-4 3l-3.5 3.5l-3.5 3.5q-3 3 -4.5 6.5t-1.5 7.5q0 7 2.5 14t6.5 13l9.5 11t10.5 10l5 3l5 3l2 2l2 2q1 0 2 1l2 2l4 4l4 4h40l16 -7q-13 -11 -19 -20t-4 -15t6.5 -12 t11.5 -11l3 -2l3 -2q4 -2 7.5 -5.5l7.5 -7.5t6 -8.5t2 -10.5v-3v-2q-1 -6 -6.5 -12.5t-14.5 -13.5t-18 -13t-20 -10q-6 -3 -12 -5.5t-12 -4.5l-10.5 -3.5t-9.5 -2.5l-40 -1v0v0z" />
<glyph unicode="&#xb9;" />
<glyph unicode="&#xba;" horiz-adv-x="363" d="M46 403v3v2v3q0 5 0.5 9.5t1.5 9.5q2 5 3.5 10.5t3.5 10.5q7 15 19 29.5t28 27.5q17 13 38.5 19.5t48.5 6.5v1h40v0l6 -1h3.5h3.5h6h6h6h6q18 -1 35 -4.5t33 -9.5q15 -7 23 -22.5t8 -40.5v-2.5v-3.5q-1 -1 -1 -2.5v-3.5v-3v-3q-1 -2 -1 -3.5v-3.5q-3 -19 -15 -35t-33 -29 t-44 -21t-47 -11q-4 -1 -7.5 -1.5t-7.5 -0.5h-40h-8h-7q-20 0 -38 4t-33 12q-16 8 -25 20.5t-11 30.5zM134 440q2 -16 9.5 -29t20.5 -24q9 -7 20 -12.5t23 -7.5q1 1 1.5 1h1.5l12.5 4t13.5 5l6 2l6 5q6 4 11.5 10t9.5 13q5 8 7.5 15.5t2.5 16.5v8t-2 8q-1 5 -3.5 8.5 l-5.5 7.5v1v0q-7 10 -16 17.5t-20 11.5q-3 1 -6.5 2t-6.5 2t-6.5 2t-6.5 2q-12 -2 -22.5 -6.5t-20.5 -11.5q-15 -10 -22 -22.5t-7 -28.5z" />
<glyph unicode="&#xbb;" horiz-adv-x="481" d="M55 39l158 118l-142 142v0v0l23 24h40l174 -166l-181 -141h-40zM197 39l157 118l-141 142v0v0l23 24h40l173 -166l-181 -141h-40z" />
<glyph unicode="&#xbc;" />
<glyph unicode="&#xbd;" horiz-adv-x="875" />
<glyph unicode="&#xbe;" />
<glyph unicode="&#xbf;" horiz-adv-x="481" d="M40 -153q0 22 10 41t31 33t43.5 27t47.5 24l4 2l4 2l4 2l4 2q23 10 42.5 20.5t37.5 22.5q18 11 27 26t9 33q0 5 -0.5 10t-2.5 10q-1 5 -4 11l-6 12q-5 9 -12 15t-15 10q-4 2 -8.5 3.5t-9.5 2.5q-11 -2 -21.5 -6.5t-20.5 -11.5q-13 -9 -19 -18.5t-6 -20.5l1 -6v-2t1 -1 q0 -1 0.5 -2t0.5 -2l-6 -8q-2 -1 -4.5 -1.5t-4.5 -0.5h-40h-5l-5 2q-5 2 -10 5.5t-10 8.5q-4 5 -7 11t-4 12v2v3q0 2 -0.5 3t-0.5 3q0 1 0.5 2.5t1.5 2.5q2 3 3.5 5.5t3.5 4.5q9 8 22 15.5t30 14.5t34.5 11.5t36.5 6.5h6h6h3.5t3.5 1h3h3h40h3.5h3.5q1 -1 3 -1h3h3.5h3.5 q1 -1 3 -1h3q26 -7 45.5 -16t32.5 -21q12 -12 18.5 -25.5t7.5 -27.5v-2.5v-2.5q-1 -2 -1 -3v-3q-1 -3 -1.5 -5.5t-0.5 -4.5q-4 -11 -10.5 -21.5t-16.5 -20.5t-22.5 -18.5t-28.5 -16.5q-7 -2 -15.5 -5t-17.5 -7q-4 -2 -9 -4t-9 -4q-5 -2 -9.5 -4t-9.5 -4q-18 -8 -34 -17.5 t-31 -19.5q-15 -11 -24.5 -23.5t-13.5 -28.5v-1v0q-1 -4 -2.5 -9.5t-1.5 -9.5q-1 -5 -1 -9.5v-8.5q-1 -20 4.5 -34.5t16.5 -23.5t24 -14.5t26 -8.5h4.5t4.5 -1q2 0 3.5 0.5t2.5 0.5q2 0 3 0.5t2 0.5q17 3 31 8.5t24 13.5q5 4 9.5 8t8.5 7q4 4 7.5 8t6.5 8q2 3 3 5.5t3 4.5 q1 2 2.5 4.5t2.5 4.5q2 4 4.5 8.5t5.5 7.5l2 4l2 4l6 5q4 9 8 15t8 9q4 4 8 5.5t8 1.5l40 -1q5 2 10.5 -1t9.5 -9q5 -6 7 -13.5t2 -15.5v-2v-3q-1 -1 -1 -2v-2q-1 -2 -1.5 -4.5t-0.5 -5.5q-1 -1 -1.5 -2t-0.5 -2q-1 -1 -1.5 -2.5t-1.5 -2.5q-1 -2 -2.5 -4.5t-3.5 -4.5 q-16 -18 -34.5 -32.5t-39.5 -24.5q-21 -11 -42.5 -18t-44.5 -11q-6 -1 -12 -1.5t-12 -1.5h-6t-5 -1h-6h-6l-40 -1q-27 1 -51 6t-45 16q-22 10 -36 25.5t-22 35.5q-2 5 -3.5 9.5t-2.5 9.5q-1 4 -1 8v8zM205 251v95v0v0l6 1h2t2 1h2h2h40h2h2q1 -1 2 -1h2q2 -1 4.5 -1.5 t5.5 -1.5t6 -2.5t6 -3.5q2 -1 3 -2t3 -2q1 -1 2.5 -2t2.5 -2v-94l-5 -3l-5 -1h-40h-3h-2h-4h-3q-5 1 -10 2.5t-10 3.5q-4 2 -7.5 5.5t-5.5 7.5z" />
<glyph unicode="&#xc0;" horiz-adv-x="930" d="M-8 -45l4 2h40q2 1 3.5 0t4.5 -2q2 -2 5 -4t7 -5v0l1 -1v0v0q8 3 17.5 8.5t19.5 13.5q18 13 37.5 29.5t38.5 36.5l22.5 23.5l22.5 25.5l21 27.5l20 26.5q5 6 9.5 12.5t8.5 13.5q4 5 7.5 11t7.5 12l-68 -4h-40q-13 -1 -24 2.5t-19 10.5q-9 8 -15 15.5t-10 16.5 q-2 4 -3.5 8t-2.5 8t-1.5 7.5t-0.5 6.5q0 5 1 9t4 6h40q3 2 7 1t9 -5l4 -4l4 -2q11 -7 22.5 -12.5t24.5 -8.5t32.5 -5t44.5 -4q6 -1 12.5 -1.5t13.5 -0.5q4 5 7.5 10.5t6.5 11.5l6.5 10.5l7.5 11.5q7 11 13.5 22.5l13.5 23.5q4 6 7.5 12.5l7.5 13.5l8 13.5l8 13.5l10 18 l10 18l10.5 17t10.5 18l22 34.5t23 33.5l-1 2l-1 2q-6 11 -15 21t-21 20t-28 16.5t-36 9.5q-4 0 -7.5 1t-6.5 2q-3 2 -4 3.5t-1 3.5t1.5 4.5t5.5 4.5t10.5 3t16.5 1h40q18 0 35.5 -1.5t33.5 -4.5q17 -3 31 -7.5t26 -9.5q12 -6 28 -30t37 -65l43 -86l45 -93q0 -1 0.5 -2.5 t1.5 -2.5q0 -2 0.5 -3l1.5 -3q2 -3 3.5 -5.5t2.5 -4.5l40 -82.5l39 -75.5q20 -36 36.5 -59t29.5 -32l8.5 -7t6.5 -5q2 -2 3.5 -4t1.5 -4q0 -1 -0.5 -3t-2.5 -3q-1 -2 -3.5 -3.5t-5.5 -3.5q-6 -4 -16 -8.5t-24 -11.5l-3 -2l-3 -1l-4 -1h-40h-3q-1 1 -2 1h-2q-1 1 -2 1h-2 t-2 0.5l-1 0.5q-1 1 -2 1.5t-2 0.5q-18 10 -40.5 47t-48.5 101q-24 59 -65 139t-98 180v0l-128 -223l172 6h40q17 -1 29 -2.5t18 -3.5q6 -3 9 -5.5t1 -4.5q-1 -3 -5.5 -6t-11.5 -5q-7 -3 -15 -4t-17 -1l-244 -15l-19 -28.5l-21 -32.5l-23 -33.5l-24 -34.5q-3 -4 -6 -8.5 t-6 -8.5l-7 -9l-6 -8l-12 -15.5l-12 -14.5l-40.5 -46.5t-38.5 -39.5t-34.5 -27t-27.5 -9l-40 -1h-2h-1l-2 1h-2q-8 2 -15.5 6t-14.5 10t-12 12.5l-10 13.5q-2 5 -4 9.5t-3 9.5q-2 4 -3 8t-1 7v5zM391 795v4v4.5v5.5q0 2 1 4.5t2 4.5q2 5 6 8.5t9 7.5v1v0l4 1l5 1h40 q2 0 3 -0.5t3 -0.5q1 -1 2.5 -2t2.5 -2l6 -6t6 -7l6.5 -13l7.5 -15l8.5 -15.5l8.5 -16.5q5 -10 12 -19.5l14 -18.5q8 -9 17 -16.5t20 -12.5l6 -3l3 -5l1 -2v-1v-2v-1q-1 -4 -2.5 -7t-4.5 -6q-1 -1 -3 -2.5t-3 -1.5q-2 -1 -3.5 -1.5t-3.5 -0.5h-40h-2v0h-2l-1 1l-10.5 5.5 t-15.5 9.5t-18 13l-18 14l-16 14.5l-16 15.5q-7 8 -13 16t-11 17q-3 4 -4.5 8.5t-3.5 8.5q-1 2 -1.5 4t-0.5 5q-1 2 -1 4z" />
<glyph unicode="&#xc1;" horiz-adv-x="930" d="M0 -45l3 2h40q2 1 3.5 0t4.5 -2l6 -4t7 -5v0l1 -1v0v0q8 4 18 9.5t20 13.5q18 13 37.5 29.5t38.5 36.5q11 11 22 23.5l22 25.5q5 7 10.5 13.5t10.5 13.5l10 12.5l10 13.5q5 6 9.5 12.5t8.5 13.5q4 5 7.5 11t7.5 12l-68 -4h-40q-13 -1 -24 2.5t-19 10.5q-9 8 -15 15.5 t-10 16.5q-2 4 -3.5 8t-2.5 8t-1.5 7.5t-0.5 6.5q0 5 1 9t4 6h40q3 2 7 1t9 -5l4 -4l4 -2q11 -7 22.5 -12.5t24.5 -8.5t32.5 -5t44.5 -4q6 -1 12.5 -1.5t13.5 -0.5q4 5 7.5 10.5t6.5 11.5l6.5 10.5l7.5 11.5q7 11 13.5 22.5l13.5 23.5q4 6 7.5 12.5l7.5 13.5l8 13.5l8 13.5 l10 18l10 18l10.5 17t10.5 18l22 34.5t23 33.5l-1 2l-1 2q-6 11 -15 21t-21 20t-28 16.5t-36 9.5q-4 0 -7.5 1t-6.5 2q-3 2 -4 3.5t-1 3.5t1.5 4.5t5.5 4.5t10.5 3t16.5 1h40q18 0 35.5 -1.5t33.5 -4.5q17 -3 31 -7.5t26 -9.5q12 -6 28 -30t37 -65l43 -86l45 -93 q1 -3 2 -5.5t2 -4.5q1 -1 1.5 -2t1.5 -2q0 -2 0.5 -3t1.5 -2l40 -83l39 -76q20 -37 36.5 -60t29.5 -32l8.5 -7t6.5 -5t4.5 -4t1.5 -4q0 -1 -0.5 -3t-2.5 -3q-1 -2 -3.5 -3.5t-5.5 -3.5q-6 -4 -16 -8.5t-24 -11.5l-3 -2l-3 -1l-4 -1h-40h-3l-7 1q-1 1 -2 1.5l-1 0.5 q-1 1 -2 1h-2q-19 10 -41.5 46.5t-48.5 100.5q-24 59 -65 139.5t-98 181.5v0l-128 -223l172 6h40q17 -1 29 -2.5t18 -3.5q6 -3 9 -5.5t1 -4.5q-1 -3 -5.5 -6t-11.5 -5q-7 -3 -15 -4t-17 -1l-245 -15q-9 -13 -18.5 -28.5l-20.5 -32.5l-23 -33.5l-24 -34.5l-13.5 -17.5 l-12.5 -16.5q-3 -4 -6 -8.5t-6 -8.5l-7 -7t-6 -7q-19 -25 -38.5 -46t-38.5 -39t-34.5 -27t-27.5 -9l-40 -1h-2h-1l-2 1h-2q-8 2 -15.5 6t-14.5 10t-12 12.5l-10 13.5q-3 5 -5 9.5t-4 9.5q-1 4 -1.5 8t-0.5 7v5zM435 677.5q1 4.5 9 10.5q8 5 17.5 13.5t21.5 20.5q3 4 7 8.5 t8 9.5t7.5 11t6.5 12v1v0q3 2 5.5 6t4.5 8q2 5 4.5 10t4.5 10v2l2 3q3 8 6 14.5t7 12.5q3 6 8.5 9t12.5 3h40q2 0 4 -1t5 -2q2 -2 4 -4.5t4 -5.5q4 -6 6 -12.5t3 -14.5v-2v-1v-3l-1 -3l-1 -4v-3q-25 -37 -46 -61t-39 -36t-31 -17.5t-22 -5.5h-40h-7l-5 2q-7 5 -6 9.5z" />
<glyph unicode="&#xc2;" horiz-adv-x="930" d="M-8 -45l4 2h40q2 1 3.5 0t4.5 -2q2 -2 5 -4t7 -5v0l1 -1v0v0q8 3 17.5 8.5t19.5 13.5q18 13 37.5 29.5t38.5 36.5l22.5 23.5l22.5 25.5l21 27.5l20 26.5q5 6 9.5 12.5t8.5 13.5q4 5 7.5 11t7.5 12l-68 -4h-40q-13 -1 -24 2.5t-19 10.5q-9 8 -15 15.5t-10 16.5 q-2 4 -3.5 8t-2.5 8t-1.5 7.5t-0.5 6.5q0 5 1 9t4 6h40q3 2 7 1t9 -5l4 -4l4 -2q11 -7 22.5 -12.5t24.5 -8.5t32.5 -5t44.5 -4q6 -1 12.5 -1.5t13.5 -0.5q4 5 7.5 10.5t6.5 11.5l6.5 10.5l7.5 11.5q7 11 13.5 22.5l13.5 23.5q4 6 7.5 12.5l7.5 13.5l8 13.5l8 13.5l10 18 l10 18l10.5 17t10.5 18l22 34.5t23 33.5l-1 2l-1 2q-6 11 -15 21t-21 20t-28 16.5t-36 9.5q-4 0 -7.5 1t-6.5 2q-3 2 -4 3.5t-1 3.5t1.5 4.5t5.5 4.5t10.5 3t16.5 1h40q18 0 35.5 -1.5t33.5 -4.5q17 -3 31 -7.5t26 -9.5q12 -6 28 -30t37 -65l43 -86l45 -93q0 -1 0.5 -2.5 t1.5 -2.5q0 -2 0.5 -3l1.5 -3q2 -3 3.5 -5.5t2.5 -4.5l40 -82.5l39 -75.5q20 -36 36.5 -59t29.5 -32l8.5 -7t6.5 -5q2 -2 3.5 -4t1.5 -4q0 -1 -0.5 -3t-2.5 -3q-1 -2 -3.5 -3.5t-5.5 -3.5q-6 -4 -16 -8.5t-24 -11.5l-3 -2l-3 -1l-4 -1h-40h-3q-1 1 -2 1h-2q-1 1 -2 1h-2 t-2 0.5l-1 0.5q-1 1 -2 1.5t-2 0.5q-18 10 -40.5 47t-48.5 101q-24 59 -65 139t-98 180v0l-128 -223l172 6h40q17 -1 29 -2.5t18 -3.5q6 -3 9 -5.5t1 -4.5q-1 -3 -5.5 -6t-11.5 -5q-7 -3 -15 -4t-17 -1l-244 -15l-19 -28.5l-21 -32.5l-23 -33.5l-24 -34.5q-3 -4 -6 -8.5 t-6 -8.5l-7 -9l-6 -8l-12 -15.5l-12 -14.5l-40.5 -46.5t-38.5 -39.5t-34.5 -27t-27.5 -9l-40 -1h-2h-1l-2 1h-2q-8 2 -15.5 6t-14.5 10t-12 12.5l-10 13.5q-2 5 -4 9.5t-3 9.5q-2 4 -3 8t-1 7v5zM346 717q4 2 7.5 4.5l7.5 5.5l8 6l8 6t8 6.5t8 7.5q5 3 9.5 7t8.5 8l25 21.5 l23 20.5q11 11 20.5 18.5l16.5 13.5q2 2 4.5 3t4.5 1h40h4.5t4.5 -1q8 -4 17 -14.5t20 -28.5t33 -39.5t54 -46.5l-32 -39h-40v0v0l-93 99l-111 -91h-40z" />
<glyph unicode="&#xc3;" horiz-adv-x="930" d="M-8 -37l4 2h40q2 1 3.5 0t4.5 -2q2 -2 5 -4t7 -5v0l1 -1v0v0q8 3 17.5 8.5t19.5 13.5q18 13 37.5 29t38.5 36l22.5 24.5t21.5 25.5q11 13 21 26.5l20 26.5l4.5 6.5l5.5 7.5l4.5 6.5l4.5 6.5q4 5 7.5 11t7.5 12l-68 -4h-40q-13 -1 -24 2.5t-19 10.5q-9 8 -15 15.5 t-10 16.5q-2 4 -3.5 8t-2.5 8t-1.5 7.5t-0.5 6.5q0 5 1 9t4 6h40q3 2 7 1t9 -5l4 -4l4 -2q11 -7 22.5 -12.5t24.5 -8.5t32.5 -5t44.5 -4q6 -1 12.5 -1.5t13.5 -0.5q4 5 7.5 10.5t6.5 11.5l6.5 10.5l7.5 11.5q7 11 13.5 22.5l13.5 23.5q4 6 7.5 12.5l7.5 13.5l8 13.5l8 13.5 l10 18l10 18l10.5 17t10.5 18l22 34.5t23 33.5l-1 2l-1 2q-6 11 -15 21t-21 20t-28 16.5t-36 9.5q-4 0 -7.5 1t-6.5 2q-3 2 -4 3.5t-1 3.5t1.5 4.5t5.5 4.5t10.5 3t16.5 1h40q18 0 35.5 -1.5t33.5 -4.5q17 -3 31 -7.5t26 -9.5q12 -6 28 -30t37 -65l43 -86l45 -93 q0 -1 0.5 -2.5t1.5 -2.5q0 -2 0.5 -3l1.5 -3q2 -3 3.5 -5.5t2.5 -4.5l40 -82.5l39 -75.5q20 -36 36.5 -59t29.5 -32l8.5 -7t6.5 -5q2 -2 3.5 -4t1.5 -4q0 -3 -3 -6.5t-9 -7.5t-16 -8.5l-24 -10.5l-3 -2l-3 -1l-4 -1h-40h-3q-1 1 -2 1h-2q-1 1 -2 1h-2t-2 0.5l-1 0.5 q-1 1 -2 1.5t-2 0.5q-18 9 -40.5 46.5t-48.5 101.5q-24 59 -65 139t-98 180v0l-128 -223l172 6h40q17 -1 29 -2.5t18 -3.5q6 -3 9 -5.5t1 -4.5q-1 -3 -5.5 -6t-11.5 -5q-7 -3 -15 -4t-17 -1l-244 -15l-19 -28.5l-21 -32.5l-23 -33.5l-24 -34.5q-3 -4 -6 -8.5t-6 -8.5l-7 -9 l-6 -8l-12 -16l-12 -16l-40.5 -44.5t-38.5 -39.5t-34.5 -27t-27.5 -9l-40 -1h-2h-1l-2 1h-2q-8 2 -15.5 6t-14.5 10t-12 12.5l-10 13.5q-2 5 -4 9.5t-3 9.5q-2 4 -3 8t-1 7v5zM334.5 707q0.5 4 4.5 9q16 25 30.5 42t27.5 26q14 9 26 13.5t24 4.5h40q5 0 9 -0.5t9 -1.5 q4 -1 8.5 -2.5t8.5 -3.5q8 -4 16.5 -7.5t15.5 -8.5l6 -4t7 -4q3 -2 6 -3.5t6 -3.5q4 -1 7.5 -2.5t7.5 -3.5q3 1 6 2.5t6 3.5q8 5 16 15t16 24v1v0h2l2 1h40h2h2l7 -3q2 -2 2.5 -4.5t0.5 -5.5q0 -4 -1.5 -8.5t-3.5 -9.5t-5.5 -10t-8.5 -10t-11 -10t-14 -10q-7 -5 -16.5 -9.5 t-20.5 -7.5l-3 -1h-40h-2h-3h-3h-5.5h-4.5t-4.5 1t-4.5 2t-4.5 1.5t-4.5 1.5q-3 1 -5.5 2.5t-4.5 2.5q-5 2 -10 5l-10 6q-7 4 -14.5 7.5l-15.5 7.5q-1 0 -2.5 0.5t-2.5 1.5l-3 1.5t-3 0.5q-3 -1 -5.5 -2t-4.5 -2t-4.5 -2t-5.5 -2q-10 -6 -21 -16t-22 -24l-6 -7 q-2 -1 -4 -2.5t-4 -1.5h-40h-2h-2q-3 0 -5 1t-4 3q-1 2 -0.5 6z" />
<glyph unicode="&#xc4;" horiz-adv-x="930" d="M-8 -29l4 2h40q2 1 3.5 0t4.5 -2q2 -2 5 -4t7 -5v0l1 -1v0v0q8 3 17.5 8t19.5 13q18 13 37.5 29t38.5 37l22.5 24.5t21.5 25.5q11 13 21 26.5l20 26.5l4.5 6.5l5.5 7.5l4.5 6.5l4.5 6.5q4 5 7.5 11t7.5 12l-68 -4h-40q-13 -1 -24 2.5t-19 10.5q-9 7 -15 14.5t-10 16.5 q-2 4 -3.5 8t-2.5 8t-1.5 7.5t-0.5 6.5q0 4 0.5 7t1.5 5q2 2 3.5 3t3.5 1h40l5 -1q2 -1 3.5 -1.5t3.5 -2.5l4 -4l4 -2q11 -7 22.5 -12.5t24.5 -7.5q13 -3 31.5 -5t43.5 -4q7 -1 14 -1.5t14 -0.5q4 5 7.5 10.5t6.5 11.5l6.5 10.5l7.5 11.5q7 11 13.5 22.5l13.5 23.5 q4 6 7.5 12.5l7.5 13.5l8 13.5l8 13.5l10 18l10 18l10.5 17t10.5 18l22 34.5t23 33.5l-1 2l-1 2q-6 11 -15 21t-21 20t-28 16t-36 9q-4 0 -7.5 1t-6.5 2q-3 2 -4 4t-1 4v1v1q0 1 1 2l2 2q1 0 3 1l4 2q4 2 10 3t14 1h40q18 0 35.5 -1.5t33.5 -4.5q17 -3 31 -7.5t26 -10.5 t28 -30t37 -65l43 -85.5l45 -92.5q1 -1 1.5 -2.5t1.5 -3.5q0 -1 0.5 -2.5t1.5 -2.5t1.5 -2.5t1.5 -2.5q0 -2 0.5 -3t1.5 -2l40 -82.5l39 -75.5q20 -36 36.5 -59t29.5 -32l8.5 -7t6.5 -5q2 -3 3.5 -5t1.5 -4q0 -1 -0.5 -3t-2.5 -3q-1 -2 -3.5 -3.5t-5.5 -3.5q-6 -4 -16 -9 t-24 -11l-3 -1l-3 -1l-4 -1h-40h-3q-1 1 -2 1h-2q-1 1 -2 1h-2t-2 0.5l-1 0.5h-2h-2q-18 11 -40.5 48.5t-48.5 101.5q-24 59 -65 139t-98 180v0l-128 -223l172 6h40q17 -1 29 -2.5t18 -3.5q3 -1 5 -2.5t4 -2.5l1.5 -3t-0.5 -3q-1 -3 -5.5 -6t-11.5 -5q-7 -3 -15 -4t-17 -1 l-244 -14q-9 -13 -18.5 -28.5l-20.5 -32.5q-6 -8 -11.5 -16.5t-11.5 -16.5l-12 -17.5l-12 -16.5q-3 -4 -6 -8.5t-6 -8.5l-7 -9l-6 -8l-13 -17l-12 -16l-40.5 -45t-38.5 -39t-34.5 -27t-27.5 -9l-40 -1h-2h-1l-2 1h-2q-8 2 -15.5 6t-14.5 10t-12 12.5l-10 13.5q-2 5 -4 9.5 t-3 9.5q-2 4 -3 8t-1 7v5zM386 728v1v2v88v0v0l4 5q2 1 5 1.5t7 0.5h40h2h2q1 -1 2 -1h2h2h2q1 -1 2 -1h2q2 -1 4.5 -1.5t5.5 -1.5q2 -1 4.5 -2t4.5 -3q5 -3 8 -6t4 -8v-93q0 -3 -1 -5t-3 -4q-1 -1 -3.5 -1.5t-5.5 -0.5h-40h-4.5t-4.5 1q-3 0 -5.5 1t-4.5 2q-6 2 -10.5 4.5 t-9.5 6.5q-4 4 -7 7.5t-4 7.5zM528 723v96v0v0l3 4q2 1 4.5 1.5t5.5 0.5h40h2h2q1 -1 2.5 -1h2.5q2 -1 4.5 -1.5t5.5 -0.5q2 -1 4.5 -2t5.5 -2q2 -1 4.5 -2t4.5 -2q5 -2 7.5 -4.5t3.5 -4.5l1 -2v-1v-93q0 -4 -1.5 -6t-3.5 -4q-2 -1 -5 -2t-6 -1h-40h-4h-4t-4 1l-4 2 q-5 2 -9.5 4t-9.5 5q-4 3 -7 7t-5 8z" />
<glyph unicode="&#xc5;" horiz-adv-x="930" d="M5 -58l1 5l4 2h40q2 1 3.5 0t4.5 -2l6 -4t7 -5v0l1 -1v0v0q8 3 18 8.5t20 13.5q18 13 37.5 30t38.5 36l22.5 23.5t21.5 25.5l21.5 27.5l20.5 26.5q5 6 9.5 12.5t8.5 13.5q4 5 7.5 11t7.5 12l-68 -4h-40q-13 -1 -24 2.5t-19 10.5q-9 8 -15 15.5t-10 16.5q-2 4 -3.5 8 t-2.5 8t-1.5 7.5t-0.5 6.5q0 5 1 9t4 6h40q3 2 7 1t9 -5l4 -4l4 -2q11 -7 22.5 -12.5t24.5 -8.5t32.5 -5t44.5 -4q6 -1 12.5 -1.5t13.5 -0.5q4 5 7.5 10.5t6.5 11.5l6.5 10.5l7.5 11.5q7 11 13.5 22.5l13.5 23.5q4 6 7.5 12.5l7.5 13.5l8 13.5l8 13.5l10 18l10 18l10.5 17 t10.5 18l22 34.5t23 33.5l-1 2l-1 2q-6 11 -15.5 21t-21.5 20t-28 16.5t-36 9.5q-4 0 -8 1t-6 2q-3 2 -4 4t0 5q0 1 0.5 2t1.5 2q1 0 2.5 1t3.5 2q4 2 10.5 3t15.5 1h40h4h4q17 -1 32.5 -2.5t31.5 -4.5t29.5 -7t24.5 -9q12 -6 28 -30t37 -65l43 -86l45 -93q1 -3 2 -5.5 t2 -4.5q1 -1 1.5 -2t1.5 -2q0 -1 0.5 -2t1.5 -2l40 -83.5l39 -76.5q20 -37 36.5 -60t29.5 -32l8.5 -7t6.5 -5t4.5 -4t1.5 -4q0 -1 -0.5 -3t-2.5 -3q-1 -2 -3.5 -3.5t-5.5 -2.5q-6 -3 -16 -8.5t-24 -12.5l-3 -2l-3 -1l-4 -1h-40h-3l-7 1q-1 1 -2 1.5l-1 0.5q-1 1 -2 1h-2 q-19 10 -41.5 46.5t-48.5 100.5q-24 59 -65 139.5t-98 181.5v0l-128 -223l172 6h40q15 -1 26 -2t18 -3q6 -2 9.5 -4.5t3.5 -4.5l-1 -2v-2q-3 -3 -7.5 -5.5t-11.5 -4.5t-14.5 -3t-15.5 -1l-244 -15l-19 -28.5l-21 -32.5l-23 -33.5l-24 -34.5q-3 -4 -6 -8.5t-6 -8.5l-7 -9 l-6 -8l-12 -15.5l-12 -14.5q-20 -25 -39.5 -46.5t-38.5 -39.5t-34.5 -27t-27.5 -9l-40 -1h-2h-1l-2 1h-2q-8 2 -15.5 6t-14.5 10t-12.5 12.5t-10.5 13.5l-5.5 9.5t-4.5 9.5l-2 8t-1 7zM417 716v1v0q0 3 1 7t2 9l4 10.5t5 11.5q5 9 12.5 17t17.5 15q10 8 23.5 11.5t29.5 3.5 h40h2h2h2h2q22 0 38.5 -6t26.5 -19q11 -13 16 -27.5t6 -31.5v-2v-1v-2v-2l-1 -6q-2 -16 -9 -31.5t-19 -29.5t-28.5 -21.5t-37.5 -9.5h-40q-30 3 -49 11.5t-28 21.5q-9 14 -13.5 31.5t-4.5 38.5zM494 705.5q0 -2.5 1 -4.5q0 -3 0.5 -5t1.5 -4q2 -8 7.5 -15t12.5 -12l8 -4 l8 -4q5 2 9.5 4.5t8.5 6.5q8 7 12 19t4 29v1v0q0 11 -4 20.5t-12 17.5q-4 5 -9.5 8t-11.5 5q-5 -2 -9.5 -4.5t-8.5 -6.5q-7 -7 -10.5 -15t-5.5 -16q0 -1 -0.5 -2l-0.5 -1q-1 -1 -1 -2v-2v-4v-4v-5.5z" />
<glyph unicode="&#xc6;" horiz-adv-x="1040" d="M0 -55l3 4l3 1l2 2h40h3l4 -1l6 -2l6 -1l6 -1h-40l6 2t7 3t8.5 6.5t8.5 11.5l10 10.5t11 11.5q5 6 10.5 12t10.5 13l10.5 14.5l11.5 15.5q5 8 10.5 16t10.5 16q11 17 20.5 34l19.5 34l4 8t5 9l4 8l4 8t4 8.5t4 9.5q1 2 2.5 4.5t2.5 4.5h-2h-2h-2h-2h-40h-7.5h-7.5t-8 0.5 t-7 1.5q-16 2 -31 5.5t-29 10.5q-13 7 -19.5 18t-6.5 27v6l1 6q2 6 5.5 7.5t8.5 -1.5h40q5 -4 15 -8.5t23 -9.5q8 -4 19 -7.5t24 -6.5q8 -1 16.5 -2.5t18.5 -2.5h5h6v1v0q3 14 7.5 28.5t10.5 28.5q5 14 10.5 27.5t11.5 26.5l18 40.5l17 37.5t12 34t4 31q0 12 -4.5 23 t-12.5 21q-8 9 -22.5 17t-35.5 15q-6 5 -5.5 9t7.5 6q6 2 15 3.5t20 1.5h40h3.5h2.5q2 -1 3.5 -1h2.5h6h6q11 -1 21 -3l20 -4q9 -3 15 -6t9 -6q11 -14 20.5 -31.5t18.5 -38.5l17.5 -42.5t15.5 -43.5q10 -28 18 -55.5l15 -53.5v-1.5t1 -0.5v-1.5v-1.5l0.5 0.5t0.5 1.5 t0.5 1.5l0.5 0.5q9 22 21.5 44.5t27.5 46.5q24 38 54 73.5t65 67.5t72 48t75 16h40q8 0 16.5 -1t16.5 -3q8 -1 16 -4t16 -7q11 -2 20 -7.5t18 -14.5t13.5 -18t4.5 -20v-3v-2l-1 -3v-2h-40q-6 0 -12 1t-11 2q-5 2 -10 4.5t-10 5.5l-5 2l-4 2l-4 2l-4 2q-3 1 -5 2l-4 2 q-4 2 -8.5 3.5t-9.5 2.5h-2t-2 1h-3h-2q-2 0 -4 0.5t-4 1.5q-30 -4 -58 -16t-54 -33q-31 -25 -55.5 -52t-41.5 -57q-1 -2 -2.5 -4.5t-3.5 -4.5q-1 -2 -2 -4.5t-2 -4.5q-11 -22 -19 -44.5t-13 -44.5q-4 -22 -6.5 -43t-2.5 -41q0 -12 1 -23l2 -22q2 -11 3.5 -21.5t3.5 -20.5 q9 -33 26 -55t42 -33q21 -10 45.5 -15t53.5 -6q19 1 38 4.5t38 9.5q12 4 24 8.5t24 9.5l23 10.5l24 11.5q7 3 13 6t11 4q5 2 9 2.5t7 0.5h40q8 0 8 -3.5t-7 -11.5t-21 -17t-37 -19q-5 -2 -10.5 -4.5t-11.5 -4.5l-12 -4l-12 -4q-19 -7 -39 -13t-41 -10q-22 -5 -43.5 -8 t-43.5 -4h-4t-3 -1h-4h-4l-40 -1q-4 1 -7.5 1h-6.5h-6h-6h-2.5h-3.5q-1 1 -2.5 1h-3.5q-6 0 -12 0.5t-12 1.5t-12 1.5t-12 1.5q-34 4 -59.5 20.5t-41.5 45.5t-29.5 61.5t-24.5 66.5l-2 4l-2 4t-1.5 4.5t-0.5 4.5l-4 10t-3 11q-2 5 -3.5 10t-3.5 10q-3 10 -6.5 19.5 t-7.5 18.5l-57 149l-60 -180h149l7 -3l2 -6v-2l-1 -2q-1 -2 -2.5 -4t-3.5 -4t-4.5 -3t-5.5 -1h-3.5h-6.5q-3 -1 -7.5 -1h-9.5q-10 -1 -21.5 -1.5t-23.5 -0.5l-5 -1h-5q-12 -1 -22.5 -1.5t-21.5 -0.5q-10 -1 -18 -1h-13q-4 -15 -9.5 -31.5l-11.5 -33.5l-12 -34.5t-13 -35.5 q-11 -28 -24.5 -55.5t-28.5 -52.5q-16 -26 -34.5 -48t-39.5 -38l-4 -4l-5 -1h-40q-3 1 -6.5 2t-7.5 3q-2 1 -4 2.5t-4 2.5q-3 2 -5 3t-4 3q-6 5 -11 11l-10 12l-9.5 13.5t-7.5 12.5l-1 1v1zM598 275v1v0v15q11 0 20.5 1l19.5 2t19.5 2.5t19.5 2.5q16 2 31 3.5t30 3.5 q14 1 27.5 3t26.5 3q26 3 46 5t35 2h40h5.5h5.5q2 -1 4.5 -1h4.5q5 -1 8 -1.5t5 -2.5l2 -6l1 -6q0 -7 -3 -12.5t-9 -10.5t-12 -9t-12 -6q-3 -1 -6 -2.5t-6 -1.5q-3 -1 -6 -1h-5h-40h-23t-26 1l-26.5 2l-27.5 2h-4.5t-4.5 1h-5.5h-4.5q-4 0 -8.5 0.5t-9.5 1.5q-9 1 -18 1.5 t-17 1.5q-8 0 -16 0.5t-16 1.5q-15 2 -26 2.5t-19 0.5z" />
<glyph unicode="&#xc7;" horiz-adv-x="820" d="M50 121v6.5v7.5q0 14 2 28t6 29t9.5 30t12.5 30q17 35 42 69.5t56 68.5q32 34 65.5 63t67.5 54q19 14 37.5 25t37.5 21t37 17.5t34 11.5v1v0q23 7 42 11.5t34 6.5l26.5 3.5t20.5 1.5h40h4.5h4.5h2h2h1h2l5 -1h5q18 0 33.5 -3.5t28.5 -11.5q14 -7 24.5 -15t17.5 -16 q3 -4 6 -8.5t5 -8.5t3 -8t1 -7q0 -4 -1 -7t-3 -5t-5 -3t-8 -1h-40q-3 0 -6 0.5t-7 1.5t-8.5 2.5t-9.5 3.5q-8 4 -16.5 7l-16.5 6q-9 3 -17.5 5.5t-16.5 4.5l-12 2l-12 2q-7 1 -13 1.5t-12 0.5q-58 -3 -112.5 -24t-104.5 -59q-55 -43 -89.5 -89.5t-48.5 -97.5l-1 -2v-1 l-8 -27.5t-6 -25.5t-3 -23t-1 -22q-1 -16 1.5 -30.5t8.5 -26.5q5 -12 13.5 -22.5t18.5 -19.5q12 -10 30.5 -18.5t43.5 -14.5q21 -5 44.5 -7.5t49.5 -3.5q20 1 40 2.5t42 3.5q27 3 54 8.5t55 12.5l14 4l14 4l15.5 4t14.5 5l13.5 4.5t15.5 5.5l16 6t17 7l4 2l5 2l26 11.5 t24 9.5q11 5 19.5 7.5t12.5 2.5h40l3 -1l1 -2l2 -3l1 -3q0 -4 -3.5 -9t-10.5 -10t-16.5 -10.5t-21.5 -10.5q-4 -1 -7.5 -3t-7.5 -3q-4 -2 -8 -3.5l-9 -3.5l-18 -6t-19 -6q-22 -10 -43.5 -18t-41.5 -13q-20 -4 -38 -8.5t-33 -7.5q-17 -4 -30.5 -8.5t-23.5 -8.5 q-10 -5 -15 -14t-5 -22v-4v-4t0.5 -4t1.5 -4q11 -5 19 -10t12 -11q5 -5 6.5 -10.5t1.5 -11.5q-1 -10 -8.5 -19.5t-21.5 -19.5q-15 -10 -30.5 -19t-32.5 -16l-1 -2h-40v0l-5 3l-4 2q-5 5 -4.5 8.5t6.5 7.5l6 4t7 4q3 3 7 5l8 4l6.5 4.5t7.5 4.5q3 2 6 4.5t6 4.5l-0.5 2 l-1.5 6l-2 4t-3 4q-1 3 -3 5t-5 4q-1 1 -2.5 2t-2.5 2q-2 1 -3 2t-3 2q-3 1 -6.5 2.5t-7.5 3.5l-5 3l-1 5q0 4 1 7.5t4 7.5q2 4 5 8t7 8l3 3l4 3q4 6 7.5 10.5l7.5 9.5q2 1 2.5 2.5t1.5 2.5q-1 0 -2.5 -0.5t-2.5 -0.5q-2 0 -3 -0.5t-3 -0.5q-16 -2 -35.5 -3.5t-40.5 -1.5 l-40 -1q-4 1 -8.5 1h-8.5q-5 1 -9 1h-9q-4 0 -9 0.5t-9 0.5q-5 1 -9.5 1.5t-9.5 0.5q-32 4 -62 11t-59 19q-28 12 -45.5 30.5t-25.5 43.5q0 1 -0.5 2t-0.5 2q-1 0 -1 1v2v1.5v1.5q-1 1 -1 2v2q-1 3 -1.5 6.5t-0.5 7.5z" />
<glyph unicode="&#xc8;" horiz-adv-x="820" d="M37 149.5v2.5v6v7q0 20 6 44.5t18 55.5t42 73t78 94q59 56 113.5 94t103.5 57q50 20 92 29.5t78 9.5h40q15 0 29 -1.5t27 -3.5t24 -5t21 -7l4 -2l6 -3q5 -3 9.5 -6.5t8.5 -8.5l4.5 -4.5l4.5 -4.5q2 -3 4 -5.5t4 -4.5q4 -5 7 -10l6 -10q2 -4 3.5 -8t1.5 -7l-2 -5l-4 -1 h-40h-4l-5 2q-24 10 -47.5 17.5t-46.5 11.5q-18 4 -36 6t-36 3q-41 -1 -79 -11t-73 -28q-39 -21 -72 -48t-59 -62q-1 -1 -2 -2.5t-2 -2.5l-3 -3t-2 -3l-4 -6t-4 -5l-26.5 -38.5t-25.5 -39.5t-21 -40t-14 -40q-1 -6 -2.5 -11.5t-2.5 -10.5q-1 -6 -1 -11.5v-10.5 q0 -12 1.5 -23.5t5.5 -22.5q4 -12 10 -23t15 -22q16 -22 39 -36.5t53 -22.5q27 -7 54.5 -11t55.5 -5q21 1 41.5 2.5t40.5 3.5q24 3 45.5 6.5t39.5 7.5q9 1 20 3t24 6t26 8.5t26 8.5q2 1 3.5 1.5t3.5 1.5q1 0 3 0.5t3 1.5q2 0 3.5 0.5t3.5 1.5q1 0 3 0.5t3 1.5l32 11.5 l28 10.5q14 5 23.5 9t15.5 5v1h40v0q5 -2 8.5 -4.5t5.5 -4.5q2 -3 2.5 -5.5t-0.5 -4.5t-2.5 -4.5t-4.5 -4.5q-2 -3 -5.5 -5.5t-7.5 -4.5q-7 -4 -15.5 -8t-19.5 -8l-20.5 -8t-21.5 -7l-29 -9.5t-28 -7.5q-13 -4 -22 -6t-14 -3q-19 -7 -39 -12l-41 -10l-41.5 -6l-40.5 -6 q-7 -1 -13.5 -1.5t-13.5 -1.5q-7 0 -13.5 -0.5t-12.5 -1.5q-13 -1 -26 -1.5t-26 -0.5l-40 -1q-60 1 -112 9.5t-96 24.5q-44 17 -67 42.5t-25 59.5v2.5v2.5q-1 2 -1 3.5v2.5v6v6v3.5v2.5q-1 2 -1 3.5zM189 275v1v0v23q32 1 61 2.5t56 3.5t52.5 4.5t49.5 5.5l76 7.5t63 7.5 l50 5t34 2h40q5 0 9.5 -0.5t7.5 -1.5l6 -5l2 -5l1 -4q0 -2 -0.5 -4.5t-1.5 -4.5q-1 -3 -1.5 -5.5t-1.5 -4.5q-2 -4 -4.5 -7.5t-5.5 -6.5t-5.5 -6t-4.5 -5q-3 -3 -5.5 -4.5t-4.5 -3.5q-2 -1 -4 -1.5t-4 -0.5q-4 -1 -10.5 -1.5t-14.5 -0.5h-40h-16h-19h-33.5t-37.5 1 q-19 0 -39.5 0.5t-40.5 1.5h-7.5t-6.5 1h-7.5h-7.5h-7.5t-6.5 1h-7.5h-6.5q-27 1 -51.5 1.5t-45.5 1.5q-22 1 -37 1.5t-23 0.5zM430 798v4.5t1 5.5q0 2 1 4.5t2 4.5t2.5 4t3.5 5l4 4t5 4v1v0l4 1l5 1h40q2 0 3 -0.5t3 -0.5q1 -1 2.5 -2t2.5 -2q2 -2 4.5 -5t5.5 -7 q3 -6 7 -13t8 -15l8.5 -16.5l8.5 -16.5q6 -10 13 -19.5l14 -18.5q8 -9 17 -16.5t20 -12.5l6 -3l3 -5v-2v-1v-2v-1q-1 -4 -2.5 -7t-4.5 -6q-1 -1 -3 -2.5t-3 -1.5q-2 -1 -3.5 -1.5t-3.5 -0.5h-40h-2l-3 1l-10.5 5.5t-15.5 9.5t-18 13t-18 15q-8 6 -15.5 13.5t-15.5 14.5 q-4 4 -7 8l-6 8q-3 3 -6 7t-5 8q-3 5 -5 9.5t-4 8.5q-1 5 -2 9.5t-1 8.5z" />
<glyph unicode="&#xc9;" horiz-adv-x="820" d="M37 149.5v2.5v6v7q0 20 6 44.5t18 55.5t42 73t78 94q59 56 113.5 94t103.5 57q50 20 92 29.5t78 9.5h40q15 0 29 -1.5t27 -3.5t24 -5t21 -7l4 -2l6 -3q5 -3 9.5 -6.5t8.5 -8.5l4.5 -4.5l4.5 -4.5q2 -3 4 -5.5t4 -4.5q4 -5 7 -10l6 -10q2 -4 3.5 -8t1.5 -7l-2 -5l-4 -1 h-40h-4l-5 2q-24 10 -47.5 17.5t-46.5 11.5q-18 4 -36 6t-36 3q-41 -1 -79 -11t-73 -28q-39 -21 -72 -48t-59 -62q-1 -1 -2 -2.5t-2 -2.5l-3 -3t-2 -3l-4 -6t-4 -5l-26.5 -38.5t-25.5 -39.5t-21 -40t-14 -40q-1 -6 -2.5 -11.5t-2.5 -10.5q-1 -6 -1 -11.5v-10.5 q0 -12 1.5 -23.5t5.5 -22.5q4 -12 10 -23t15 -22q16 -22 39 -36.5t53 -22.5q27 -7 54.5 -11t55.5 -5q21 1 41.5 2.5t40.5 3.5q24 3 45.5 6.5t39.5 7.5q9 1 20 3t24 6t26 8.5t26 8.5q2 1 3.5 1.5t3.5 1.5q1 0 3 0.5t3 1.5q2 0 3.5 0.5t3.5 1.5q1 0 3 0.5t3 1.5l32 11.5 l28 10.5q14 5 23.5 9t15.5 5v1h40v0q5 -2 8.5 -4.5t5.5 -4.5q2 -3 2.5 -5.5t-0.5 -4.5t-2.5 -4.5t-4.5 -4.5q-2 -3 -5.5 -5.5t-7.5 -4.5q-7 -4 -15.5 -8t-19.5 -8l-20.5 -8t-21.5 -7l-29 -9.5t-28 -7.5q-13 -4 -22 -6t-14 -3q-19 -7 -39 -12l-41 -10l-41.5 -6l-40.5 -6 q-7 -1 -13.5 -1.5t-13.5 -1.5q-7 0 -13.5 -0.5t-12.5 -1.5q-13 -1 -26 -1.5t-26 -0.5l-40 -1q-60 1 -112 9.5t-96 24.5q-44 17 -67 42.5t-25 59.5v2.5v2.5q-1 2 -1 3.5v2.5v6v6v3.5v2.5q-1 2 -1 3.5zM189 275v1v0v23q32 1 61 2.5t56 3.5t52.5 4.5t49.5 5.5l76 7.5t63 7.5 l50 5t34 2h40q5 0 9.5 -0.5t7.5 -1.5l6 -5l2 -5l1 -4q0 -2 -0.5 -4.5t-1.5 -4.5q-1 -3 -1.5 -5.5t-1.5 -4.5q-2 -4 -4.5 -7.5t-5.5 -6.5t-5.5 -6t-4.5 -5q-3 -3 -5.5 -4.5t-4.5 -3.5q-2 -1 -4 -1.5t-4 -0.5q-4 -1 -10.5 -1.5t-14.5 -0.5h-40h-16h-19h-33.5t-37.5 1 q-19 0 -39.5 0.5t-40.5 1.5h-7.5t-6.5 1h-7.5h-7.5h-7.5t-6.5 1h-7.5h-6.5q-27 1 -51.5 1.5t-45.5 1.5q-22 1 -37 1.5t-23 0.5zM435 677.5q1 4.5 9 10.5q8 5 17.5 13.5t21.5 20.5q3 4 7 8.5t8 9.5t7.5 11t6.5 12v1v0q3 2 5.5 6t4.5 8q2 5 4.5 10t4.5 10v2l2 3q3 8 6 14.5 t7 12.5q3 6 8.5 9t12.5 3h40q2 0 4 -1t5 -2q2 -2 4 -4.5t4 -5.5q4 -6 6 -12.5t3 -14.5v-2v-1v-3l-1 -3l-1 -4v-3q-25 -37 -46 -61t-39 -36t-31 -17.5t-22 -5.5h-40h-7l-5 2q-7 5 -6 9.5z" />
<glyph unicode="&#xca;" horiz-adv-x="820" d="M37 149.5v2.5v6v7q0 20 6 44.5t18 55.5t42 73t78 94q59 56 113.5 94t103.5 57q50 20 92 29.5t78 9.5h40q15 0 29 -1.5t27 -3.5t24 -5t21 -7l4 -2l6 -3q5 -3 9.5 -6.5t8.5 -8.5l4.5 -4.5l4.5 -4.5q2 -3 4 -5.5t4 -4.5q4 -5 7 -10l6 -10q2 -4 3.5 -8t1.5 -7l-2 -5l-4 -1 h-40h-4l-5 2q-24 10 -47.5 17.5t-46.5 11.5q-18 4 -36 6t-36 3q-41 -1 -79 -11t-73 -28q-39 -21 -72 -48t-59 -62q-1 -1 -2 -2.5t-2 -2.5l-3 -3t-2 -3l-4 -6t-4 -5l-26.5 -38.5t-25.5 -39.5t-21 -40t-14 -40q-1 -6 -2.5 -11.5t-2.5 -10.5q-1 -6 -1 -11.5v-10.5 q0 -12 1.5 -23.5t5.5 -22.5q4 -12 10 -23t15 -22q16 -22 39 -36.5t53 -22.5q27 -7 54.5 -11t55.5 -5q21 1 41.5 2.5t40.5 3.5q24 3 45.5 6.5t39.5 7.5q9 1 20 3t24 6t26 8.5t26 8.5q2 1 3.5 1.5t3.5 1.5q1 0 3 0.5t3 1.5q2 0 3.5 0.5t3.5 1.5q1 0 3 0.5t3 1.5l32 11.5 l28 10.5q14 5 23.5 9t15.5 5v1h40v0q5 -2 8.5 -4.5t5.5 -4.5q2 -3 2.5 -5.5t-0.5 -4.5t-2.5 -4.5t-4.5 -4.5q-2 -3 -5.5 -5.5t-7.5 -4.5q-7 -4 -15.5 -8t-19.5 -8l-20.5 -8t-21.5 -7l-29 -9.5t-28 -7.5q-13 -4 -22 -6t-14 -3q-19 -7 -39 -12l-41 -10l-41.5 -6l-40.5 -6 q-7 -1 -13.5 -1.5t-13.5 -1.5q-7 0 -13.5 -0.5t-12.5 -1.5q-13 -1 -26 -1.5t-26 -0.5l-40 -1q-60 1 -112 9.5t-96 24.5q-44 17 -67 42.5t-25 59.5v2.5v2.5q-1 2 -1 3.5v2.5v6v6v3.5v2.5q-1 2 -1 3.5zM189 275v1v0v23q32 1 61 2.5t56 3.5t52.5 4.5t49.5 5.5l76 7.5t63 7.5 l50 5t34 2h40q5 0 9.5 -0.5t7.5 -1.5l6 -5l2 -5l1 -4q0 -2 -0.5 -4.5t-1.5 -4.5q-1 -3 -1.5 -5.5t-1.5 -4.5q-2 -4 -4.5 -7.5t-5.5 -6.5t-5.5 -6t-4.5 -5q-3 -3 -5.5 -4.5t-4.5 -3.5q-2 -1 -4 -1.5t-4 -0.5q-4 -1 -10.5 -1.5t-14.5 -0.5h-40h-16h-19h-33.5t-37.5 1 q-19 0 -39.5 0.5t-40.5 1.5h-7.5t-6.5 1h-7.5h-7.5h-7.5t-6.5 1h-7.5h-6.5q-27 1 -51.5 1.5t-45.5 1.5q-22 1 -37 1.5t-23 0.5zM339 709q4 2 8 5l8 6q5 3 9.5 6.5t8.5 7.5q3 3 7 6l8 6t7.5 6.5l7.5 7.5l25 21.5l23 20.5q11 11 20.5 18.5l16.5 13.5q2 2 4.5 3t4.5 1h40h4.5 t4.5 -1q8 -4 17 -14.5t20 -28.5t33 -39.5t54 -46.5l-32 -39h-40v0v0l-93 99l-111 -91h-40z" />
<glyph unicode="&#xcb;" horiz-adv-x="820" d="M37 149.5v2.5v6v7q0 20 6 44.5t18 55.5t42 73t78 94q59 56 113.5 94t103.5 57q50 20 92 29.5t78 9.5h40q15 0 29 -1.5t27 -3.5t24 -5t21 -7l4 -2l6 -3q5 -3 9.5 -6.5t8.5 -8.5l4.5 -4.5l4.5 -4.5q2 -3 4 -5.5t4 -4.5q4 -5 7 -10l6 -10q2 -4 3.5 -8t1.5 -7l-2 -5l-4 -1 h-40h-4l-5 2q-24 10 -47.5 17.5t-46.5 11.5q-18 4 -36 6t-36 3q-41 -1 -79 -11t-73 -28q-39 -21 -72 -48t-59 -62q-1 -1 -2 -2.5t-2 -2.5l-3 -3t-2 -3l-4 -6t-4 -5l-26.5 -38.5t-25.5 -39.5t-21 -40t-14 -40q-1 -6 -2.5 -11.5t-2.5 -10.5q-1 -6 -1 -11.5v-10.5 q0 -12 1.5 -23.5t5.5 -22.5q4 -12 10 -23t15 -22q16 -22 39 -36.5t53 -22.5q27 -7 54.5 -11t55.5 -5q21 1 41.5 2.5t40.5 3.5q24 3 45.5 6.5t39.5 7.5q9 1 20 3t24 6t26 8.5t26 8.5q2 1 3.5 1.5t3.5 1.5q1 0 3 0.5t3 1.5q2 0 3.5 0.5t3.5 1.5q1 0 3 0.5t3 1.5l32 11.5 l28 10.5q14 5 23.5 9t15.5 5v1h40v0q5 -2 8.5 -4.5t5.5 -4.5q2 -3 2.5 -5.5t-0.5 -4.5t-2.5 -4.5t-4.5 -4.5q-2 -3 -5.5 -5.5t-7.5 -4.5q-7 -4 -15.5 -8t-19.5 -8l-20.5 -8t-21.5 -7l-29 -9.5t-28 -7.5q-13 -4 -22 -6t-14 -3q-19 -7 -39 -12l-41 -10l-41.5 -6l-40.5 -6 q-7 -1 -13.5 -1.5t-13.5 -1.5q-7 0 -13.5 -0.5t-12.5 -1.5q-13 -1 -26 -1.5t-26 -0.5l-40 -1q-60 1 -112 9.5t-96 24.5q-44 17 -67 42.5t-25 59.5v2.5v2.5q-1 2 -1 3.5v2.5v6v6v3.5v2.5q-1 2 -1 3.5zM189 275v1v0v23q32 1 61 2.5t56 3.5t52.5 4.5t49.5 5.5l76 7.5t63 7.5 l50 5t34 2h40q5 0 9.5 -0.5t7.5 -1.5l6 -5l2 -5l1 -4q0 -2 -0.5 -4.5t-1.5 -4.5q-1 -3 -1.5 -5.5t-1.5 -4.5q-2 -4 -4.5 -7.5t-5.5 -6.5t-5.5 -6t-4.5 -5q-3 -3 -5.5 -4.5t-4.5 -3.5q-2 -1 -4 -1.5t-4 -0.5q-4 -1 -10.5 -1.5t-14.5 -0.5h-40h-16h-19h-33.5t-37.5 1 q-19 0 -39.5 0.5t-40.5 1.5h-7.5t-6.5 1h-7.5h-7.5h-7.5t-6.5 1h-7.5h-6.5q-27 1 -51.5 1.5t-45.5 1.5q-22 1 -37 1.5t-23 0.5zM370 708v87v0v0l4 5q2 1 5 1.5t7 0.5h40h2h2q1 -1 2 -1h2h4h4q2 -1 4.5 -2t5.5 -2q2 -1 4.5 -2t4.5 -3q5 -3 8 -6t4 -7v-94q0 -3 -1 -5t-3 -4 q-1 -1 -3.5 -1.5t-5.5 -0.5h-40h-4.5t-4.5 1q-3 0 -5.5 1t-4.5 2q-6 2 -11.5 5.5t-10.5 7.5q-4 4 -6.5 8.5t-2.5 8.5zM512 700v95v0v0l3 4q2 1 4.5 1.5t5.5 0.5h40h2h2q1 -1 2.5 -1h2.5q2 0 4.5 -0.5t5.5 -1.5q6 -1 11.5 -3.5t9.5 -4.5q2 -1 4 -2.5t3 -2.5q2 -2 2.5 -3 t0.5 -3v-94q0 -4 -1 -6t-3 -4q-2 -1 -5 -2t-6 -1h-40h-4t-4 1q-2 0 -4.5 0.5t-4.5 1.5q-5 2 -9.5 4t-9.5 6q-4 3 -7 7t-5 8z" />
<glyph unicode="&#xcc;" horiz-adv-x="709" d="M13 103v6q0 12 2.5 23t6.5 21q5 10 9.5 18t10.5 14q5 5 9.5 7.5t8.5 3.5h40q5 1 7.5 -1t3.5 -7q-1 -2 -1.5 -4.5t-1.5 -4.5q-1 -3 -1.5 -5.5t-0.5 -4.5q-1 -4 -1.5 -9.5t-0.5 -10.5v-7.5t1 -7.5q0 -4 1 -8t2 -7q5 -20 19.5 -38.5t37.5 -35.5q21 -16 54.5 -25.5 t77.5 -12.5q53 3 95.5 27.5t73.5 70.5q33 49 50 125t17 179v29t-1 31q-1 14 -1.5 28.5t-2.5 30.5v0v0v0h-1v0l-19.5 -2l-19.5 -2l-25.5 -2l-24.5 -2t-24.5 -1.5t-26.5 -1.5q-13 -1 -26 -1.5t-27 -1.5q-13 -1 -28 -1.5t-30 -1.5h-40h-3h-3h-4h-3q-19 0 -35 4t-28 11 q-12 8 -21 16t-15 17q-4 5 -7 10.5t-5 10.5q-1 5 -2 9.5t-1 8.5v4l1 3l6 4h2t2 1h2.5h2.5h40q7 0 16.5 -2t22.5 -5q12 -4 28.5 -7.5t37.5 -8.5q20 -4 45 -8t54 -7q26 -3 55.5 -4.5t63.5 -2.5h3.5t3.5 1h6h6h3.5h3.5h3h3q2 2 2.5 4t1.5 5t1.5 7t1.5 8v3.5t1 3.5v3v3v6v4 q2 1 4 1.5t4 1.5t4.5 1.5t5.5 0.5h40h2h2q1 -1 2 -1h2h2h2q0 -1 1 -1h2q8 -3 16 -7.5t15 -10.5q6 -6 9.5 -13t4.5 -15q4 0 7.5 0.5t6.5 1.5h3.5t3.5 1h3h3h40q3 0 5.5 -0.5t3.5 -1.5l3 -5q0 -4 -3.5 -8t-10.5 -7q-7 -4 -15 -7t-16 -5q-2 -1 -4.5 -1.5t-4.5 -0.5 q-3 -1 -5.5 -1.5t-4.5 -0.5q-4 -1 -8 -1h-7v-5.5t1 -5.5v-6v-6v-13.5v-13.5q0 -22 -1.5 -46.5t-3.5 -51.5t-6.5 -55t-10.5 -57q-13 -55 -37 -105t-59 -97q-35 -46 -88.5 -71.5t-124.5 -30.5l-40 -1q-4 1 -8.5 1h-8.5h-9h-9h-8.5h-8.5q-5 1 -9 1h-9q-33 2 -63 8.5t-58 17.5 q-28 9 -45.5 32t-23.5 57l-2 6v6zM304 798v4.5t1 5.5q0 2 1 4.5t2 4.5t2.5 4t3.5 5l4 4t5 4v1v0l4 1l5 1h40q2 0 3 -0.5t3 -0.5q1 -1 2.5 -2t2.5 -2q2 -2 4.5 -5t5.5 -7q3 -6 7 -13t8 -15l8.5 -16.5l8.5 -16.5q6 -10 13 -19.5l14 -18.5q8 -9 17 -16.5t20 -12.5l6 -3l3 -5v-2 v-1v-2v-1q-1 -4 -2.5 -7t-4.5 -6q-1 -1 -3 -2.5t-3 -1.5q-2 -1 -3.5 -1.5t-3.5 -0.5h-40h-2l-3 1l-10.5 5.5t-15.5 9.5t-18 13t-18 15q-8 6 -15.5 13.5t-15.5 14.5q-4 4 -7 8l-6 8q-3 3 -6 7t-5 8q-3 5 -5 9.5t-4 8.5q-1 5 -2 9.5t-1 8.5z" />
<glyph unicode="&#xcd;" horiz-adv-x="709" d="M13 103v6q0 12 2.5 23t6.5 21q5 10 9.5 18t10.5 14q5 5 9.5 7.5t8.5 3.5h40q5 1 7.5 -1t3.5 -7q-1 -2 -1.5 -4.5t-1.5 -4.5q-1 -3 -1.5 -5.5t-0.5 -4.5q-1 -4 -1.5 -9.5t-0.5 -10.5v-7.5t1 -7.5q0 -4 1 -8t2 -7q5 -20 19.5 -38.5t37.5 -35.5q21 -16 54.5 -25.5 t77.5 -12.5q53 3 95.5 27.5t73.5 70.5q33 49 50 125t17 179v29t-1 31q-1 14 -1.5 28.5t-2.5 30.5v0v0v0h-1v0l-19.5 -2l-19.5 -2l-25.5 -2l-24.5 -2t-24.5 -1.5t-26.5 -1.5q-13 -1 -26 -1.5t-27 -1.5q-13 -1 -28 -1.5t-30 -1.5h-40h-3h-3h-4h-3q-19 0 -35 4t-28 11 q-12 8 -21 16t-15 17q-4 5 -7 10.5t-5 10.5q-1 5 -2 9.5t-1 8.5v4l1 3l6 4h2t2 1h2.5h2.5h40q7 0 16.5 -2t22.5 -5q12 -4 28.5 -7.5t37.5 -8.5q20 -4 45 -8t54 -7q26 -3 55.5 -4.5t63.5 -2.5h3.5t3.5 1h6h6h3.5h3.5h3h3q2 2 2.5 4t1.5 5t1.5 7t1.5 8v3.5t1 3.5v3v3v6v4 q2 1 4 1.5t4 1.5t4.5 1.5t5.5 0.5h40h2h2q1 -1 2 -1h2h2h2q0 -1 1 -1h2q8 -3 16 -7.5t15 -10.5q6 -6 9.5 -13t4.5 -15q4 0 7.5 0.5t6.5 1.5h3.5t3.5 1h3h3h40q3 0 5.5 -0.5t3.5 -1.5l3 -5q0 -4 -3.5 -8t-10.5 -7q-7 -4 -15 -7t-16 -5q-2 -1 -4.5 -1.5t-4.5 -0.5 q-3 -1 -5.5 -1.5t-4.5 -0.5q-4 -1 -8 -1h-7v-5.5t1 -5.5v-6v-6v-13.5v-13.5q0 -22 -1.5 -46.5t-3.5 -51.5t-6.5 -55t-10.5 -57q-13 -55 -37 -105t-59 -97q-35 -46 -88.5 -71.5t-124.5 -30.5l-40 -1q-4 1 -8.5 1h-8.5h-9h-9h-8.5h-8.5q-5 1 -9 1h-9q-33 2 -63 8.5t-58 17.5 q-28 9 -45.5 32t-23.5 57l-2 6v6zM309 669.5q1 4.5 9 10.5q8 5 17.5 13.5t21.5 20.5q3 4 7 8.5t8 9.5t7.5 11t6.5 12v1v0q3 2 5.5 6t4.5 8q1 2 2 4.5t2 5.5q1 2 2 4.5t2 4.5l1 3l2 3q3 8 6 14.5t7 12.5q3 6 8.5 9t12.5 3h40q5 0 8.5 -3t7.5 -9t6.5 -12t3.5 -13v-3v-2v-3 l-1 -3l-1 -4v-3q-25 -37 -46 -61.5t-39 -36.5t-31.5 -17.5t-22.5 -5.5h-40h-7l-4 2q-7 5 -6 9.5z" />
<glyph unicode="&#xce;" horiz-adv-x="709" d="M13 103v6q0 12 2.5 23t6.5 21q5 10 9.5 18t10.5 14q5 5 9.5 7.5t8.5 3.5h40q5 1 7.5 -1t3.5 -7q-1 -2 -1.5 -4.5t-1.5 -4.5q-1 -3 -1.5 -5.5t-0.5 -4.5q-1 -4 -1.5 -9.5t-0.5 -10.5v-7.5t1 -7.5q0 -4 1 -8t2 -7q5 -20 19.5 -38.5t37.5 -35.5q21 -16 54.5 -25.5 t77.5 -12.5q53 3 95.5 27.5t73.5 70.5q33 49 50 125t17 179v29t-1 31q-1 14 -1.5 28.5t-2.5 30.5v0v0v0h-1v0l-19.5 -2l-19.5 -2l-25.5 -2l-24.5 -2t-24.5 -1.5t-26.5 -1.5q-13 -1 -26 -1.5t-27 -1.5q-13 -1 -28 -1.5t-30 -1.5h-40h-3h-3h-4h-3q-19 0 -35 4t-28 11 q-12 8 -21 16t-15 17q-4 5 -7 10.5t-5 10.5q-1 5 -2 9.5t-1 8.5v4l1 3l6 4h2t2 1h2.5h2.5h40q7 0 16.5 -2t22.5 -5q12 -4 28.5 -7.5t37.5 -8.5q20 -4 45 -8t54 -7q26 -3 55.5 -4.5t63.5 -2.5h3.5t3.5 1h6h6h3.5h3.5h3h3q2 2 2.5 4t1.5 5t1.5 7t1.5 8v3.5t1 3.5v3v3v6v4 q2 1 4 1.5t4 1.5t4.5 1.5t5.5 0.5h40h2h2q1 -1 2 -1h2h2h2q0 -1 1 -1h2q8 -3 16 -7.5t15 -10.5q6 -6 9.5 -13t4.5 -15q4 0 7.5 0.5t6.5 1.5h3.5t3.5 1h3h3h40q3 0 5.5 -0.5t3.5 -1.5l3 -5q0 -4 -3.5 -8t-10.5 -7q-7 -4 -15 -7t-16 -5q-2 -1 -4.5 -1.5t-4.5 -0.5 q-3 -1 -5.5 -1.5t-4.5 -0.5q-4 -1 -8 -1h-7v-5.5t1 -5.5v-6v-6v-13.5v-13.5q0 -22 -1.5 -46.5t-3.5 -51.5t-6.5 -55t-10.5 -57q-13 -55 -37 -105t-59 -97q-35 -46 -88.5 -71.5t-124.5 -30.5l-40 -1q-4 1 -8.5 1h-8.5h-9h-9h-8.5h-8.5q-5 1 -9 1h-9q-33 2 -63 8.5t-58 17.5 q-28 9 -45.5 32t-23.5 57l-2 6v6zM228 717q4 2 8.5 5t8.5 6q5 3 9.5 6.5t8.5 7.5l3.5 3.5l3.5 3.5l3 3t4 3q4 3 7.5 6t7.5 7l25 21.5l23 20.5q11 11 21 18.5t17 13.5q2 2 4.5 3t4.5 1h40h4t4 -1q8 -3 17 -14t20 -29t33 -39.5t55 -46.5l-32 -39h-40v0v0l-93 99l-111 -91h-40z " />
<glyph unicode="&#xcf;" horiz-adv-x="709" d="M5 103v6q0 12 2.5 23t6.5 21q5 10 9.5 18t10.5 14q5 5 9.5 7.5t8.5 3.5h40q5 1 7.5 -1t3.5 -7q-1 -2 -1.5 -4.5t-1.5 -4.5q-1 -3 -1.5 -5.5t-0.5 -4.5q-1 -4 -1.5 -9.5t-0.5 -10.5v-7.5t1 -7.5q0 -4 1 -8t2 -7q5 -20 19.5 -38.5t37.5 -35.5q21 -16 54.5 -25.5t77.5 -12.5 q53 3 95.5 27.5t73.5 70.5q33 49 50 125t17 179v29t-1 31q-1 14 -1.5 28.5t-2.5 30.5v0v0v0h-1v0l-19.5 -2l-19.5 -2l-25.5 -2l-24.5 -2t-24.5 -1.5t-26.5 -1.5q-13 -1 -26 -1.5t-27 -1.5q-13 -1 -28 -1.5t-30 -1.5h-40h-3h-3h-4h-3q-19 0 -35 4t-28 11q-12 8 -21 16t-15 17 q-4 5 -7 10.5t-5 10.5q-1 5 -2 9.5t-1 8.5v4l1 3l6 4h2t2 1h2.5h2.5h40q7 0 16.5 -2t22.5 -5q12 -4 29 -7.5t38 -8.5q20 -4 44.5 -8t54.5 -7q26 -3 55 -4.5t63 -2.5h3.5t3.5 1h6h6h3.5h3.5h3h3q2 2 2.5 4t1.5 5t1.5 7t1.5 8v3.5t1 3.5v3v3v6v4q2 1 4 1.5t4 1.5t4.5 1.5 t5.5 0.5h40h2h2q1 -1 2 -1h2h2h2q0 -1 1 -1h2q8 -3 16 -7.5t15 -10.5q6 -6 9.5 -13t4.5 -15q4 0 7.5 0.5t6.5 1.5h3.5t3.5 1h3h3h40q3 0 5.5 -0.5t3.5 -1.5l3 -5q0 -4 -3.5 -8t-10.5 -7q-7 -4 -15 -7t-16 -5q-2 -1 -4.5 -1.5t-4.5 -0.5q-3 -1 -5.5 -1.5t-4.5 -0.5 q-4 -1 -8 -1h-7v-5.5t1 -5.5v-6.5v-6.5v-13.5v-13.5q0 -22 -1.5 -46.5t-3.5 -51.5t-6.5 -54.5t-10.5 -56.5q-13 -55 -37 -105t-59 -97q-35 -46 -88.5 -71.5t-124.5 -30.5l-40 -1q-4 1 -8.5 1h-8.5h-9h-9h-8.5h-8.5q-5 1 -9 1h-9q-33 2 -63 8.5t-58 17.5q-28 9 -45.5 32 t-23.5 57l-2 6v6zM276 728v1v2v88v0v0l4 5q2 1 5 1.5t7 0.5h40h2h2q1 -1 2 -1h2h2h2q1 -1 2 -1h2q2 -1 4.5 -1.5t5.5 -1.5q2 -1 4.5 -2t4.5 -3q5 -3 8 -6t4 -8v-93q0 -3 -1 -5t-3 -4q-1 -1 -3.5 -1.5t-5.5 -0.5h-40h-4.5t-4.5 1q-3 0 -5.5 1t-4.5 2q-6 2 -10.5 4.5t-9.5 6.5 q-4 4 -7 7.5t-4 7.5zM417 723v96v0v0l3 4q2 1 4.5 1.5t5.5 0.5h40h2h2q1 -1 2.5 -1h2.5q2 -1 4.5 -1.5t5.5 -0.5q2 -1 4.5 -2t5.5 -2q2 -1 4.5 -2t4.5 -2q5 -2 7.5 -4.5t3.5 -4.5l1 -2v-1v-93q0 -4 -1 -6t-3 -4q-2 -1 -5 -2t-6 -1h-40h-4t-4 1q-2 0 -4.5 0.5t-4.5 1.5 q-5 2 -9.5 4t-9.5 5q-4 3 -7 7t-5 8z" />
<glyph unicode="&#xd0;" horiz-adv-x="820" />
<glyph unicode="&#xd1;" horiz-adv-x="930" d="M-29 -68q1 2 1 3v1q1 1 1 2v2l5 6q3 2 6 3t7 1l39 -1q0 1 0.5 1h0.5l0.5 0.5l0.5 0.5v-1l10 10.5t11 13.5q14 20 29 46.5t31 60.5q9 19 17.5 39t16.5 42l16.5 44t15.5 44l21 68.5t18 66.5t12.5 60.5t5.5 49.5q0 14 -4.5 26.5t-12.5 22.5t-17 18t-18 15l-15.5 10t-15.5 9 q-4 2 -7 4t-5 5l-4 4t-3 4q-2 3 -1.5 5.5t4.5 3.5q3 2 8 2.5t12 0.5h40q5 0 12 -0.5t14 -1.5q4 -1 7.5 -1.5t7.5 -0.5q4 -1 8 -1.5t8 -1.5l19.5 -6l19.5 -6l16.5 -7.5t13.5 -8.5q11 -10 30 -35l47 -64l58 -82.5l62 -87.5q2 -2 3 -4t3 -4q1 -2 2.5 -4t2.5 -4q2 -4 5 -7.5 t6 -7.5q33 -48 65 -90l63 -80q19 -23 34.5 -39t27.5 -25q2 5 4.5 10t3.5 11q3 14 5 29.5t3 31.5v3.5t1 3.5v3v4v7.5v7.5v7.5v7.5v7.5v6.5q0 2 -0.5 3.5t-0.5 3.5v3v3v5.5v4.5q0 46 -2 85t-7 72q-4 32 -8.5 59.5t-9.5 49.5l-10.5 40.5t-9.5 30.5q-4 13 -6 23.5t-2 17.5l3 5 q2 1 4 1.5t5 1.5h40q3 0 7.5 -0.5t8.5 -2.5q5 -1 9.5 -2.5t9.5 -3.5q3 -1 5.5 -2.5t5.5 -2.5q2 -2 4.5 -3t5.5 -3q5 -3 9 -6l8 -6q2 -2 3.5 -4t2.5 -4l3 -7v-10.5v-10.5v-12v-12v-47.5v-54.5q0 -28 -0.5 -57.5t-1.5 -59.5q-2 -54 -6.5 -104t-10.5 -97q-7 -46 -18 -72.5 t-26 -35.5l-4 -3l-4 -2h-5l-4 -1h-40q-6 1 -12.5 3t-13.5 6l-13.5 8t-12.5 9t-12 11t-12 13l-12 14l-12 14l-15.5 19.5t-15.5 18.5q-7 9 -13.5 16.5l-11.5 13.5l-137 168l-81 101q-12 16 -23 29t-21 23q-1 -18 -5 -39t-10 -46q-9 -39 -19.5 -79l-22.5 -82l-4 -14l-4 -14 q-3 -7 -5 -13.5l-4 -13.5l-8 -26.5l-8 -26.5q-14 -42 -27.5 -77l-25.5 -65q-13 -29 -21.5 -44t-13.5 -15h-2h-1h-2h-2h-2t-2 -1h-2h-2h-5.5h-4.5h-2t-2 -1h-3h-2l-40 -1q-2 1 -4 1h-3q-2 1 -3.5 1h-3.5q-4 1 -7.5 1.5t-6.5 1.5q-4 2 -8.5 5t-9.5 8q-5 4 -10.5 10t-9.5 14v2z M342 709q-1 2 0 5.5t4 8.5q16 25 31 42t28 26q14 9 26 13.5t24 4.5h40q9 0 18 -2t17 -6t16.5 -7.5t16.5 -8.5l6 -4t7 -3q3 -2 6 -3.5t6 -3.5q2 -1 3.5 -1.5t3.5 -1.5t3.5 -1.5t3.5 -1.5q3 1 6 2.5t6 3.5q8 5 16 15t16 24v1v0h2l2 1h40h2h2l7 -3q2 -2 2.5 -4.5t0.5 -5.5 q0 -4 -1 -8.5t-3 -9.5t-6 -10.5t-9 -10.5q-4 -5 -10.5 -10t-14.5 -10q-7 -5 -16.5 -9.5t-20.5 -7.5l-3 -1h-40h-2h-3h-2h-6l-5 1q-6 1 -12 3t-12 5t-12 6.5t-12 7.5q-7 4 -14.5 7.5l-15.5 7.5q-1 0 -2.5 0.5t-2.5 1.5l-3 1.5t-3 0.5q-3 -1 -5.5 -2t-4.5 -2t-4.5 -2t-5.5 -2 q-10 -6 -21 -16t-22 -24l-6 -7q-2 -1 -4.5 -2.5t-4.5 -1.5h-40h-2h-2q-3 0 -5 1t-4 3z" />
<glyph unicode="&#xd2;" />
<glyph unicode="&#xd3;" horiz-adv-x="930" d="M35 194q0 14 1.5 28t5.5 29q3 15 8.5 31t12.5 32v1v0q14 33 37 65t54 63q32 30 65 56t68 48q28 17 55 31.5t54 24.5q27 11 49 16t39 5h40q6 0 11.5 -0.5t9.5 -2.5q5 -1 8.5 -3.5l6.5 -4.5l1 -7q-1 -1 -3.5 -2.5t-7.5 -2.5q-13 -4 -35.5 -9.5t-54.5 -12.5t-66 -23t-70 -41 q-2 -1 -4 -2.5t-4 -3.5q-2 -1 -4 -2.5t-4 -3.5q-22 -17 -41.5 -39t-36.5 -48q-16 -27 -28 -54t-20 -55q-4 -13 -7 -26.5t-5 -26.5t-3 -25.5t-1 -24.5q0 -19 2.5 -37t8.5 -33q6 -16 15 -28t21 -20q11 -14 31 -24.5t48 -16.5q26 -6 53 -9t55 -4q32 1 62.5 4.5t59.5 9.5 q30 6 53 14t39 18q27 18 53 42t50 52q24 29 40.5 58t25.5 60q1 3 1.5 6t0.5 6q1 2 1.5 5t0.5 6q1 6 1.5 12t0.5 12v3.5v2.5q-1 2 -1 3.5v2.5v3.5v2.5q-1 2 -1 3.5v2.5q-8 55 -26.5 93t-47.5 59q-25 18 -51.5 28.5t-55.5 12.5q-28 -2 -54.5 -9.5t-52.5 -19.5 q-28 -13 -48.5 -27.5t-34.5 -29.5q-2 -3 -4 -5.5t-4 -4.5q-1 -3 -2.5 -5.5t-3.5 -4.5q-2 -5 -4.5 -9t-5.5 -7t-6 -4.5t-6 -2.5l-5 -1h-40h-4q-4 0 -8.5 1t-7.5 4q-3 2 -4.5 5t-1.5 7v3.5t1 3.5t2.5 4t2.5 4q20 27 46.5 48.5t59.5 36.5t67 24.5t69 13.5h4.5t5.5 1h4.5h4.5 h4.5t5.5 1h4.5h5.5h40q51 0 96.5 -12.5t85.5 -38.5q40 -25 60 -63.5t20 -89.5q-3 -77 -40 -143.5t-108 -122.5t-149 -89t-163 -44q-9 -2 -18 -2.5t-18 -1.5h-8.5t-8.5 -1h-9h-9l-40 -1q-14 1 -27.5 1.5t-27.5 2.5q-13 1 -26 3.5t-26 5.5q-38 9 -70.5 26t-59.5 44t-41 61.5 t-14 77.5zM498 669.5q1 4.5 9 10.5q8 5 17.5 13.5t21.5 20.5q3 4 7 8.5t8 9.5t7.5 11t6.5 12v1v0q3 2 5.5 6t4.5 8q1 2 2 4.5t2 5.5q1 2 2 4.5t2 4.5l1 3l2 3q3 8 6 14.5t7 12.5q3 6 8.5 9t12.5 3h40q5 0 8.5 -3t7.5 -9t6.5 -12t3.5 -13v-3v-2v-3l-1 -3l-1 -4v-3 q-25 -37 -46 -61.5t-39 -36.5t-31.5 -17.5t-22.5 -5.5h-40h-7l-4 2q-7 5 -6 9.5z" />
<glyph unicode="&#xd4;" horiz-adv-x="930" d="M35 202q0 14 1.5 28t5.5 29q3 15 8.5 31t12.5 32v1v0q14 33 37 65t54 63q32 30 65 56t68 48q28 17 55 31.5t54 24.5q27 11 49 16t39 5h40q6 0 11.5 -0.5t9.5 -2.5q5 -1 8.5 -3.5l6.5 -4.5l1 -8q-1 -1 -2 -1.5t-2 -0.5q-2 -1 -4 -1.5t-4 -1.5q-13 -4 -35.5 -9t-54.5 -13 q-31 -7 -65 -23t-70 -40q-2 -1 -4 -2.5t-4 -3.5q-2 -1 -4 -2.5t-4 -3.5q-22 -18 -41.5 -40t-35.5 -48t-28.5 -53t-20.5 -55q-4 -13 -7 -26.5t-5 -27.5q-2 -13 -3 -25.5t-1 -24.5q0 -19 2.5 -37t8.5 -33q6 -16 15 -28t21 -20q11 -14 31 -24.5t48 -16.5q26 -6 53 -9t55 -4 q32 1 62.5 4.5t59.5 9.5q30 6 53 14.5t39 18.5q27 18 53 42t50 52q24 29 40.5 58t25.5 60q1 3 1.5 6t0.5 6q1 2 1.5 5t0.5 6q1 6 1.5 12t0.5 12v3.5v2.5q-1 2 -1 3.5v2.5v3.5v2.5q-1 2 -1 3.5v2.5q-8 55 -26.5 93t-47.5 59q-25 18 -51.5 28.5t-55.5 12.5q-28 -2 -54.5 -9.5 t-52.5 -19.5q-28 -13 -48.5 -27.5t-34.5 -29.5q-2 -3 -4 -5.5t-4 -4.5q-1 -3 -2.5 -5.5t-3.5 -4.5q-2 -5 -4.5 -9t-5.5 -7t-6 -4.5t-6 -2.5l-5 -1h-40h-4q-4 0 -8.5 1t-7.5 4q-3 2 -4.5 5t-1.5 7v3.5t1 3.5t2.5 4t2.5 4q20 27 46.5 48.5t59.5 36.5t67 24.5t69 13.5h4.5 t5.5 1h4.5h4.5h4.5t5.5 1h4.5h5.5h40q51 0 96.5 -12.5t85.5 -38.5q40 -25 60 -63.5t20 -89.5q-3 -77 -40 -144t-108 -123t-149 -89t-163 -43q-9 -2 -18 -2.5t-18 -1.5h-8.5t-8.5 -1h-9h-9l-40 -1q-14 1 -27.5 1.5t-27.5 2.5q-13 1 -26 3.5t-26 5.5q-38 7 -70.5 25t-59.5 45 t-41 61.5t-14 77.5zM417 717q4 2 8.5 5t8.5 6q5 3 9.5 6.5t8.5 7.5l3.5 3.5l3.5 3.5l3 3t4 3q4 3 7.5 6t7.5 7l25 21.5l23 20.5q11 11 21 18.5t17 13.5q2 2 4.5 3t4.5 1h40h4t4 -1q8 -3 17 -14t20 -29t33 -39.5t55 -46.5l-32 -39h-40v0v0l-93 99l-111 -91h-40z" />
<glyph unicode="&#xd5;" horiz-adv-x="930" d="M20 202q0 14 1.5 28t4.5 29t8.5 31t12.5 32v1v0q14 33 37 65t54 63q32 30 65 56t68 48q28 17 55 31.5t54 24.5q27 11 49 16t39 5h40q6 0 11.5 -0.5t9.5 -2.5q5 -1 8.5 -3.5l6.5 -4.5l1 -8q-1 -1 -2 -1.5t-2 -0.5q-2 -1 -4 -1.5t-4 -1.5q-13 -4 -35 -9t-54 -13 q-31 -7 -64.5 -22.5t-68.5 -39.5q-3 -1 -5.5 -2.5t-4.5 -3.5l-2 -2t-2 -1q-2 -1 -3 -2l-2 -2q-22 -18 -41.5 -40t-35.5 -48t-28.5 -53t-20.5 -55q-4 -13 -7 -26.5t-5 -27.5q-2 -13 -3 -25.5t-1 -24.5q0 -19 2.5 -37t8.5 -33q6 -16 15 -28t21 -20q11 -14 31 -24.5t48 -16.5 q26 -6 53 -9t55 -4q32 1 62.5 4.5t59.5 9.5q30 6 53 14.5t39 18.5q28 18 54 42t50 52q24 29 40.5 59.5t24.5 61.5q2 5 3 11l2 12q0 3 0.5 6t0.5 6q1 2 1 5v6v5l-1 6l-1 5v6q-9 55 -27 93t-47 59q-25 18 -52 28.5t-56 12.5q-28 -2 -55 -9.5t-53 -19.5q-28 -13 -48 -27.5 t-34 -29.5q-2 -3 -4 -5.5t-4 -4.5q-1 -3 -2.5 -5.5t-3.5 -4.5q-2 -6 -5 -10t-7 -7t-7.5 -4.5t-6.5 -2.5h-40h-3h-2q-4 0 -8 1t-7 3t-5 5.5t-2 7.5v3.5t1 3.5t2.5 4t2.5 4q21 28 48 49.5t61 37.5q33 15 68 24.5t71 12.5h4h5h4h4h4t5 1h4h4h40q51 0 96.5 -12.5t85.5 -38.5 q40 -25 60 -63.5t20 -89.5q-3 -77 -39.5 -143.5t-107.5 -122.5t-149 -89t-163 -44q-10 -2 -19 -2.5t-18 -1.5h-8.5t-9.5 -1h-8.5h-9.5l-40 -1q-13 1 -26.5 1.5t-27.5 2.5q-13 1 -26 3.5t-26 5.5q-38 7 -71 25t-60 45t-40.5 61.5t-13.5 77.5zM397.5 699q0.5 4 4.5 9 q16 25 30.5 42t27.5 26q14 9 26 13.5t24 4.5h40q5 0 9 -0.5t9 -1.5q4 -1 8.5 -2.5t8.5 -3.5q8 -4 16.5 -7.5t15.5 -8.5l6 -4t7 -4q3 -2 6 -3.5t6 -3.5q4 -1 7.5 -2.5t7.5 -3.5q3 1 6 2.5t6 3.5q8 5 16 15t16 24v1v0h2l2 1h40h2h2l7 -3q2 -2 2.5 -4.5t0.5 -5.5 q0 -4 -1.5 -8.5t-3.5 -9.5t-5.5 -10t-8.5 -10t-11 -10t-14 -10q-7 -5 -16.5 -9.5t-20.5 -7.5l-3 -1h-40h-2h-3h-3h-5.5h-4.5t-4.5 1t-4.5 2t-4.5 1.5t-4.5 1.5q-3 1 -5.5 2.5t-4.5 2.5q-5 2 -10 5l-10 6q-7 4 -14.5 7.5l-15.5 7.5q-1 0 -2.5 0.5t-2.5 1.5l-3 1.5t-3 0.5 q-3 -1 -5.5 -2t-4.5 -2t-4.5 -2t-5.5 -2q-10 -6 -21 -16t-22 -24l-6 -7q-2 -1 -4 -2.5t-4 -1.5h-40h-2h-2q-3 0 -5 1t-4 3q-1 2 -0.5 6z" />
<glyph unicode="&#xd6;" horiz-adv-x="930" d="M27 202q0 14 1.5 28t5.5 29q3 15 8.5 31t12.5 32v1v0q14 33 37 65t54 63q32 30 65 56t68 48q28 17 55 31.5t54 24.5q27 11 49 16t39 5h40q6 0 11.5 -0.5t9.5 -2.5q5 -1 8.5 -3.5l6.5 -4.5l1 -8q-1 -1 -2 -1.5t-2 -0.5q-2 -1 -4 -1.5t-4 -1.5q-13 -4 -35.5 -9t-54.5 -13 q-31 -7 -65 -23t-70 -40q-2 -1 -4 -2.5t-4 -3.5q-2 -1 -4 -2.5t-4 -3.5q-22 -18 -41.5 -40t-35.5 -48t-28.5 -53t-20.5 -55q-4 -13 -7 -26.5t-5 -27.5q-2 -13 -3 -25.5t-1 -24.5q0 -19 2.5 -37t8.5 -33q6 -16 15 -28t21 -20q11 -14 31 -24.5t48 -16.5q26 -6 53 -9t55 -4 q32 1 62.5 4.5t59.5 9.5q30 6 53 14.5t39 18.5q28 18 54 42t50 52q24 29 40.5 59.5t24.5 61.5q2 5 3 11l2 12q0 3 0.5 6t0.5 6q1 2 1 5v6v5l-1 6l-1 5v6q-9 55 -27 93t-47 59q-25 18 -52 28.5t-56 12.5q-28 -2 -55 -9.5t-53 -19.5q-28 -13 -48 -27.5t-34 -29.5 q-2 -3 -4 -5.5t-4 -4.5q-1 -3 -2.5 -5.5t-3.5 -4.5q-2 -6 -5 -10t-7 -7t-7.5 -4.5t-6.5 -2.5h-40h-3h-2q-4 0 -8 1t-7 4q-4 2 -5.5 5t-1.5 7v3.5t1 3.5t2.5 4t2.5 4q20 27 46.5 48.5t59.5 36.5t67 24.5t69 13.5h4.5t5.5 1h4.5h4.5h4.5t5.5 1h4.5h5.5h40q51 0 96.5 -12.5 t85.5 -38.5q40 -25 60 -63.5t20 -89.5q-2 -77 -39 -143.5t-108 -122.5t-149 -89t-163 -44q-9 -2 -18 -2.5t-18 -1.5h-8.5t-9.5 -1h-8.5h-9.5l-40 -1q-13 1 -26.5 1.5t-27.5 2.5q-13 1 -26 3.5t-26 5.5q-38 7 -71 25t-60 45t-41 61.5t-14 77.5zM457 736v1v2v88v0v0l4 5 q2 1 5 1.5t7 0.5h40h2h2q1 -1 2 -1h2h2h2q1 -1 2 -1h2q2 -1 4.5 -1.5t5.5 -1.5q2 -1 4.5 -2t4.5 -3q5 -3 8 -6t4 -8v-93q0 -3 -1 -5t-3 -4q-1 -1 -3.5 -1.5t-5.5 -0.5h-40h-4.5t-4.5 1q-3 0 -5.5 1t-4.5 2q-6 2 -10.5 4.5t-9.5 6.5q-4 4 -7 7.5t-4 7.5zM598 731v96v0v0l3 4 q2 1 4.5 1.5t5.5 0.5h40h2h2q1 -1 2.5 -1h2.5q2 -1 4.5 -1.5t5.5 -0.5q2 -1 4.5 -2t5.5 -2q2 -1 4.5 -2t4.5 -2q5 -2 7.5 -4.5t3.5 -4.5l1 -2v-1v-93q0 -4 -1 -6t-3 -4q-2 -1 -5 -2t-6 -1h-40h-4t-4 1q-2 0 -4.5 0.5t-4.5 1.5q-5 2 -9.5 4t-9.5 5q-4 3 -7 7t-5 8z" />
<glyph unicode="&#xd7;" />
<glyph unicode="&#xd8;" horiz-adv-x="930" d="M32 197q-1 17 1.5 35t7.5 37t12.5 38t17.5 38v1v0q2 5 6.5 12.5t11.5 17.5q6 10 13.5 20.5t16.5 20.5l2 2t2 3q0 1 1 2l2 2q2 2 4 4.5t4 5.5l20.5 23l18.5 21t15 16t9 7l14.5 12t18.5 14q10 8 21.5 16l24.5 17q22 14 47.5 26.5t54.5 24.5t60.5 18t65.5 6h40q3 0 5.5 -1 t3.5 -3q2 -1 2.5 -3.5t0.5 -4.5t-0.5 -4t-2.5 -4q-1 -2 -3.5 -3t-5.5 -1h-6h-5q-38 0 -74 -10t-71 -30q-34 -21 -63 -43.5t-52 -47.5l-10 -10.5t-9 -10.5q-5 -6 -9 -11.5l-8 -10.5q-7 -10 -13 -20l-11 -18l-16.5 -36t-13.5 -32t-10 -30t-6 -30q-1 -5 -1.5 -10.5t-0.5 -10.5 q-1 -5 -1 -10.5v-10.5v-4.5v-4.5v-4t1 -4v-5v-4v-2t1 -2v-3v-2q0 -24 7 -46t20 -42q8 -13 19 -22t24 -15l425 480l-2 3l-6 4q-5 2 -12.5 4t-18.5 4q-2 0 -4.5 0.5t-4.5 0.5q-5 1 -9.5 1.5t-9.5 0.5t-10.5 -0.5t-10.5 -1.5t-10.5 -2t-10.5 -2l-11.5 -2t-10.5 -3 q-18 -5 -35 -13.5t-34 -19.5t-32 -26t-27 -35q-2 -3 -4.5 -6t-5.5 -5t-6 -3.5t-6 -3.5q-3 -1 -5 -2t-4 -1q-2 -1 -4 -1h-4h-40q-3 -1 -6 0t-5 2q-2 2 -3 4t-1 6t1.5 9.5t5.5 12.5q3 7 9 16t15 19q15 12 31.5 22.5t34.5 19.5q17 8 34.5 15t35.5 13q17 5 34.5 8.5t35.5 6.5 q17 2 33.5 3.5t32.5 1.5h40q14 0 26 -0.5t24 -2.5h1.5h1.5l0.5 -0.5t1.5 -0.5q2 3 4 5.5t4 5.5l4 4t4 3q5 4 9 6t8 2h40q2 0 4.5 -1t3.5 -3q2 -1 2.5 -3.5t0.5 -4.5t-0.5 -4.5t-2.5 -5.5q-1 -3 -3 -6t-4 -5l-4 -4l-4 -4q35 -16 59.5 -35.5t38.5 -42.5q14 -24 21 -49t7 -51 v-4.5v-4.5q-1 -3 -1 -5.5v-4.5q0 -4 -0.5 -8.5t-1.5 -9.5q-2 -14 -5.5 -28t-8.5 -28q-4 -13 -10 -26.5t-12 -25.5q-28 -55 -66.5 -98.5t-88.5 -75.5q-49 -31 -100.5 -53t-104.5 -33q-5 -1 -9.5 -2t-9.5 -2q-4 0 -8.5 -1t-9.5 -2q-4 -1 -8.5 -2t-9.5 -2q-4 0 -8.5 -1t-9.5 -2 q-12 -2 -22.5 -3t-19.5 -2h-9.5t-9.5 -1h-8h-8l-40 -1q-13 1 -23.5 1t-19.5 2q-3 0 -6.5 1t-6.5 1q-4 1 -7.5 2t-6.5 1q-1 -1 -1.5 -2t-1.5 -2q-2 -3 -4.5 -5.5l-4.5 -4.5q-7 -6 -13.5 -10.5t-12.5 -6.5l-40 -1q-6 -1 -8.5 0.5t-2.5 6.5q-1 3 0 7.5t4 10.5t7.5 13t11.5 15 q-4 2 -9.5 3.5t-10.5 2.5l-11.5 4t-10.5 5q-2 1 -4.5 2t-4.5 2q-3 2 -5.5 3.5t-4.5 2.5q-5 3 -9.5 6.5t-8.5 7.5q-15 14 -26.5 30.5t-19.5 35.5q-8 20 -12 41t-4 44zM292 47q12 -4 25.5 -7.5t27.5 -5.5l21.5 -2l20.5 -2q3 0 6 0.5t6 0.5q2 0 5 0.5t6 0.5q11 1 22.5 2.5 t23.5 3.5q43 7 83.5 21t79.5 35t67 48.5t46 61.5q2 4 4.5 8.5t5.5 10.5t6 13l6 14q5 12 10 26t9 30q5 16 7 32.5t2 33.5q0 6 -0.5 13t-1.5 14l-2 13.5t-3 13.5q-4 15 -11 30t-17 30q-6 10 -14 19t-18 18v0z" />
<glyph unicode="&#xd9;" horiz-adv-x="820" d="M101 114.5v13.5v13.5v13.5q0 32 1 60t4 52t6 44.5t6 38.5q2 12 4.5 22.5l4.5 19.5t4 17t3 15q4 17 7 32t4 28q2 14 3 25.5t1 21.5q0 11 -0.5 20t-2.5 16q-1 4 -1.5 7.5t-0.5 6.5q-1 3 -1.5 6t-1.5 6q-3 11 -4.5 17.5t-3.5 10.5q-1 4 2.5 7t10.5 6l5 1l6 2h40 q22 -4 37.5 -9.5t24.5 -13.5q9 -7 13.5 -18.5t4.5 -25.5q0 -16 -4.5 -37.5t-12.5 -48.5q-9 -27 -18.5 -62l-20.5 -77h-40v1h40v0q-1 -2 -1.5 -4.5t-0.5 -5.5q-1 -3 -1.5 -6.5t-1.5 -7.5t-1.5 -7.5t-0.5 -7.5q-1 -4 -1.5 -8t-1.5 -9q-1 -4 -1.5 -7.5t-0.5 -7.5 q-1 -4 -1.5 -7.5t-0.5 -6.5q-2 -15 -3.5 -29t-3.5 -28q-1 -13 -2 -21t-1 -11q2 -23 11 -43t25 -37q12 -13 27 -21.5t32 -11.5q1 1 1.5 1h1.5l14 4t14 6q29 14 54.5 36t47.5 51q23 29 42.5 60t37.5 63q8 14 14.5 27.5t13.5 26.5l13.5 26.5l12.5 24.5q5 8 8.5 18.5t6.5 23.5 t5.5 26.5t4.5 26.5q2 15 4.5 29.5t3.5 28.5l3.5 25t2.5 19h40h4h5q26 0 42 -9t23 -27q6 -18 9.5 -37.5t4.5 -41.5v-4.5v-4.5q-1 -2 -1 -4.5v-4.5v-8v-8v-4v-4q-1 -2 -1 -4v-4v-8v-8v-7v-6v-6t1 -5q2 -21 4.5 -40.5t3.5 -38.5q2 -19 3.5 -36t2.5 -34q3 -46 8.5 -84t12.5 -67 q8 -28 24.5 -46t42.5 -24q1 -2 0 -4t-3 -3q-3 -2 -6 -4.5t-7 -5.5l-4 -2l-4 -2q-2 0 -4 -1l-4 -2l-8 -4l-8 -4q-7 -2 -14.5 -4.5l-13.5 -4.5q-7 -2 -11.5 -3t-6.5 -1l-2 -2h-40h-2q-9 1 -16.5 14.5t-13.5 39.5q-6 27 -11 57.5t-10 64.5l-2 14t-1 15l-2 14l-2 14l-2 13.5 t-1 13.5l-2 12.5l-2 12.5v1.5v1.5q-1 1 -1 2v2v2v2q-1 0 -1 1v2q-1 2 -2 5t-1 7q-1 4 -1.5 8.5t-0.5 9.5q-1 5 -1.5 9.5t-1.5 9.5t-1.5 10.5t-0.5 11.5q0 2 -0.5 4t-0.5 4q-1 2 -1.5 4t-0.5 4q-1 -2 -1.5 -4t-1.5 -4t-1.5 -4t-1.5 -4q-7 -19 -16 -37.5l-19 -38.5 q-18 -36 -40 -70.5t-48 -67.5t-57.5 -58.5t-67.5 -42.5q-4 -2 -8 -3.5t-8 -3.5q-4 -1 -7.5 -2.5t-7.5 -3.5q-8 -1 -16 -2.5t-16 -2.5q-7 -2 -14.5 -2.5t-15.5 -0.5l-40 -1q-23 1 -43.5 7t-37.5 19q-18 13 -27.5 33.5t-11.5 48.5q-1 7 -1 13.5zM367 809v4v4.5t1 5.5 q0 2 1 4.5t2 4.5t2.5 4t3.5 5l4 4t5 4v1h40v0q5 2 8.5 2t7.5 -2q3 -2 6.5 -5.5t7.5 -8.5q3 -6 7 -13t8 -15l8.5 -16.5l9.5 -17.5q5 -10 12 -19l14 -18q8 -9 17 -16.5t20 -12.5l7 -5q1 -1 1.5 -2l0.5 -1q1 -1 1 -2v-2l-1 -3v-2q-1 -3 -3 -6t-4 -5q-1 -1 -2.5 -2t-2.5 -2 q-2 0 -3 -0.5t-3 -0.5l-4 -1h-40l-3 2l-10.5 5.5t-15.5 9.5t-18 13t-18 15q-8 6 -15.5 13.5t-15.5 14.5l-13.5 16t-11.5 16q-1 2 -2.5 4t-2.5 5q-1 2 -1.5 4t-1.5 4t-1.5 4t-0.5 5q-1 2 -1 4z" />
<glyph unicode="&#xda;" horiz-adv-x="820" d="M101 114.5v13.5v13.5v13.5q0 32 1 60t4 52t6 44.5t6 38.5q2 12 4.5 22.5l4.5 19.5t4 17t3 15q4 17 7 32t4 28q2 14 3 25.5t1 21.5q0 11 -0.5 20t-2.5 16q-1 4 -1.5 7.5t-0.5 6.5q-1 3 -1.5 6t-1.5 6q-3 11 -4.5 17.5t-3.5 10.5q-1 4 2.5 7t10.5 6l5 1l6 2h40 q22 -4 37.5 -9.5t24.5 -13.5q9 -7 13.5 -18.5t4.5 -25.5q0 -16 -4.5 -37.5t-12.5 -48.5q-9 -27 -18.5 -62l-20.5 -77h-40v1h40v0q-1 -2 -1.5 -4.5t-0.5 -5.5q-1 -3 -1.5 -6.5t-1.5 -7.5t-1.5 -7.5t-0.5 -7.5q-1 -4 -1.5 -8t-1.5 -9q-1 -4 -1.5 -7.5t-0.5 -7.5 q-1 -4 -1.5 -7.5t-0.5 -6.5q-2 -15 -3.5 -29t-3.5 -28q-1 -13 -2 -21t-1 -11q2 -23 11 -43t25 -37q12 -13 27 -21.5t32 -11.5q1 1 1.5 1h1.5l14 4t14 6q29 14 54.5 36t47.5 51q23 29 42.5 60t37.5 63q8 14 14.5 27.5t13.5 26.5l13.5 26.5l12.5 24.5q5 8 8.5 18.5t6.5 23.5 t5.5 26.5t4.5 26.5q2 15 4.5 29.5t3.5 28.5l3.5 25t2.5 19h40h4h5q26 0 42 -9t23 -27q6 -18 9.5 -37.5t4.5 -41.5v-4.5v-4.5q-1 -2 -1 -4.5v-4.5v-8v-8v-4v-4q-1 -2 -1 -4v-4v-8v-8v-7v-6v-6t1 -5q2 -21 4.5 -40.5t3.5 -38.5q2 -19 3.5 -36t2.5 -34q3 -46 8.5 -84t12.5 -67 q8 -28 24.5 -46t42.5 -24q1 -2 0 -4t-3 -3q-3 -2 -6 -4.5t-7 -5.5l-4 -2l-4 -2q-2 0 -4 -1l-4 -2l-8 -4l-8 -4q-7 -2 -14.5 -4.5l-13.5 -4.5q-7 -2 -11.5 -3t-6.5 -1l-2 -2h-40h-2q-9 1 -16.5 14.5t-13.5 39.5q-6 27 -11 57.5t-10 64.5l-2 14t-1 15l-2 14l-2 14l-2 13.5 t-1 13.5l-2 12.5l-2 12.5v1.5v1.5q-1 1 -1 2v2v2v2q-1 0 -1 1v2q-1 2 -2 5t-1 7q-1 4 -1.5 8.5t-0.5 9.5q-1 5 -1.5 9.5t-1.5 9.5t-1.5 10.5t-0.5 11.5q0 2 -0.5 4t-0.5 4q-1 2 -1.5 4t-0.5 4q-1 -2 -1.5 -4t-1.5 -4t-1.5 -4t-1.5 -4q-7 -19 -16 -37.5l-19 -38.5 q-18 -36 -40 -70.5t-48 -67.5t-57.5 -58.5t-67.5 -42.5q-4 -2 -8 -3.5t-8 -3.5q-4 -1 -7.5 -2.5t-7.5 -3.5q-8 -1 -16 -2.5t-16 -2.5q-7 -2 -14.5 -2.5t-15.5 -0.5l-40 -1q-23 1 -43.5 7t-37.5 19q-18 13 -27.5 33.5t-11.5 48.5q-1 7 -1 13.5zM372 677.5q1 4.5 9 10.5 q8 5 17.5 13.5t21.5 20.5q3 4 7 8.5t8 9.5t7.5 11t6.5 12v1v0q3 2 5.5 6t4.5 8q2 5 4.5 10t4.5 10v2l2 3q3 8 6 14.5t7 12.5q3 6 8.5 9t12.5 3h40q2 0 4 -1t5 -2q2 -2 4 -4.5t4 -5.5q4 -6 6 -12.5t3 -14.5v-2v-1v-3l-1 -3l-1 -4v-3q-25 -37 -46 -61t-39 -36t-31 -17.5 t-22 -5.5h-40h-7l-5 2q-7 5 -6 9.5z" />
<glyph unicode="&#xdb;" horiz-adv-x="820" d="M93 114v6v6v6v7v6v6q0 32 1 60.5t4 52.5t6 44.5t6 38.5q2 12 4.5 23t4.5 21l4 17.5t3 15.5q4 17 7 33t4 29q2 14 3 25.5t1 21.5q0 11 -0.5 19.5t-2.5 15.5q-1 8 -2 14l-2 12q-1 5 -2.5 9t-3.5 7q-1 3 -1.5 6t-0.5 5v2v2l0.5 1t1.5 2t2 1.5t2 1.5q1 0 2.5 0.5t2.5 1.5l5 2 q2 0 4 0.5t4 1.5h40q22 -4 37.5 -9.5t24.5 -13.5q9 -7 13.5 -18t4.5 -25q0 -16 -4.5 -37.5t-13.5 -48.5t-18.5 -62l-20.5 -78h-40v1h40v0q-1 -2 -1.5 -4.5t-0.5 -5.5q-1 -3 -1.5 -6t-1.5 -6q-1 -7 -2 -15l-2 -16q-1 -4 -1.5 -8t-0.5 -8q-1 -4 -1.5 -8t-0.5 -8 q-2 -15 -3.5 -29t-3.5 -28q-1 -13 -2 -21t-1 -11q2 -23 10.5 -43t24.5 -37q12 -13 27 -21.5t32 -11.5q1 1 1.5 1h1.5l14 4t14 6q29 14 54.5 36t47.5 51q23 29 42.5 60t37.5 63q8 14 14.5 27.5t13.5 26.5l13.5 26.5l12.5 24.5q5 8 8.5 18.5t6.5 23.5t5.5 26.5t4.5 26.5 q2 15 4.5 29.5t3.5 28.5q1 7 2 13l2 12q0 5 1 10t2 9h40h4h5q26 0 41.5 -9t22.5 -26q6 -18 9.5 -37.5t4.5 -41.5v-4.5v-4.5q-1 -2 -1 -4.5v-4.5v-8.5v-8.5v-4v-4q-1 -2 -1 -4v-4v-8v-8v-7v-6v-6t1 -5q2 -21 4.5 -40.5t3.5 -37.5q1 -9 1.5 -18.5t1.5 -18.5q0 -9 0.5 -17.5 t1.5 -16.5q4 -46 10 -83.5t13 -66.5q8 -29 24.5 -47t42.5 -24v-1v0v-1v0q0 -1 -0.5 -2t-0.5 -2q-1 -1 -2 -1.5t-2 -1.5q-2 -2 -5 -4t-8 -4q-3 -2 -6.5 -4t-7.5 -4l-4 -2l-4 -2q-3 0 -5 -1l-4 -2q-7 -2 -14.5 -4.5l-13.5 -4.5q-7 -2 -11.5 -3t-6.5 -1l-2 -2h-40h-2 q-9 1 -16.5 14.5t-13.5 39.5q-6 27 -11 57.5t-10 64.5l-2 14t-1 15l-2 14l-2 14l-2 13.5t-1 13.5l-2 12.5l-2 12.5v1.5v1.5q-1 1 -1 2v2v2v2q-1 0 -1 1v2q-1 2 -2 5t-1 7q-1 4 -1.5 8.5t-0.5 9.5q-1 5 -1.5 9.5t-1.5 9.5t-1.5 10.5t-0.5 11.5q0 2 -0.5 4t-0.5 4q-1 2 -1.5 4 t-0.5 4q-1 -2 -1.5 -4t-1.5 -4t-1.5 -4t-1.5 -4q-7 -19 -16 -37.5l-19 -38.5q-18 -36 -40 -70.5t-48 -67.5t-57.5 -58.5t-67.5 -42.5q-3 -1 -6 -2.5t-5 -3.5l-6 -2l-6 -2l-6 -2t-5 -2q-3 0 -6 -0.5t-6 -0.5q-6 -2 -12 -2.5t-12 -1.5t-11.5 -1.5t-10.5 -0.5l-40 -1 q-24 1 -44.5 7t-37.5 19q-18 13 -27.5 33.5t-11.5 48.5q0 3 -0.5 6t-0.5 7zM283 717q4 2 7.5 4.5l7.5 5.5l8 6l8 6t8 6.5t8 7.5q5 3 9.5 7t8.5 8l25 21.5l23 20.5q11 11 20.5 18.5l16.5 13.5q2 2 4.5 3t4.5 1h40h4.5t4.5 -1q8 -4 17 -14.5t20 -28.5t33 -39.5t54 -46.5 l-32 -39h-40v0v0l-93 99l-111 -91h-40z" />
<glyph unicode="&#xdc;" horiz-adv-x="820" d="M101 114.5v13.5v13.5v13.5q0 32 1 60t4 52t6 44.5t6 38.5q2 12 4.5 22.5l4.5 19.5t4 17t3 15q4 17 7 32t4 28q2 14 3 25.5t1 21.5q0 11 -0.5 20t-2.5 16q-1 4 -1.5 7.5t-0.5 6.5q-1 3 -1.5 6t-1.5 6q-3 11 -4.5 17.5t-3.5 10.5q-1 4 2.5 7t10.5 6l5 1l6 2h40 q22 -4 37.5 -9.5t24.5 -13.5q9 -7 13.5 -18.5t4.5 -25.5q0 -16 -4.5 -37.5t-12.5 -48.5q-9 -27 -18.5 -62l-20.5 -77h-40v1h40v0q-1 -2 -1.5 -4.5t-0.5 -5.5q-1 -3 -1.5 -6.5t-1.5 -7.5t-1.5 -7.5t-0.5 -7.5q-1 -4 -1.5 -8t-1.5 -9q-1 -4 -1.5 -7.5t-0.5 -7.5 q-1 -4 -1.5 -7.5t-0.5 -6.5q-2 -15 -3.5 -29t-3.5 -28q-1 -13 -2 -21t-1 -11q2 -23 11 -43t25 -37q12 -13 27 -21.5t32 -11.5q1 1 1.5 1h1.5l14 4t14 6q29 14 54.5 36t47.5 51q23 29 42.5 60t37.5 63q8 14 14.5 27.5t13.5 26.5l13.5 26.5l12.5 24.5q5 8 8.5 18.5t6.5 23.5 t5.5 26.5t4.5 26.5q2 15 4.5 29.5t3.5 28.5l3.5 25t2.5 19h40h4h5q26 0 42 -9t23 -27q6 -18 9.5 -37.5t4.5 -41.5v-4.5v-4.5q-1 -2 -1 -4.5v-4.5v-8v-8v-4v-4q-1 -2 -1 -4v-4v-8v-8v-7v-6v-6t1 -5q2 -21 4.5 -40.5t3.5 -38.5q2 -19 3.5 -36t2.5 -34q3 -46 8.5 -84t12.5 -67 q8 -28 24.5 -46t42.5 -24q1 -2 0 -4t-3 -3q-3 -2 -6 -4.5t-7 -5.5l-4 -2l-4 -2q-2 0 -4 -1l-4 -2l-8 -4l-8 -4q-7 -2 -14.5 -4.5l-13.5 -4.5q-7 -2 -11.5 -3t-6.5 -1l-2 -2h-40h-2q-9 1 -16.5 14.5t-13.5 39.5q-6 27 -11 57.5t-10 64.5l-2 14t-1 15l-2 14l-2 14l-2 13.5 t-1 13.5l-2 12.5l-2 12.5v1.5v1.5q-1 1 -1 2v2v2v2q-1 0 -1 1v2q-1 2 -2 5t-1 7q-1 4 -1.5 8.5t-0.5 9.5q-1 5 -1.5 9.5t-1.5 9.5t-1.5 10.5t-0.5 11.5q0 2 -0.5 4t-0.5 4q-1 2 -1.5 4t-0.5 4q-1 -2 -1.5 -4t-1.5 -4t-1.5 -4t-1.5 -4q-7 -19 -16 -37.5l-19 -38.5 q-18 -36 -40 -70.5t-48 -67.5t-57.5 -58.5t-67.5 -42.5q-4 -2 -8 -3.5t-8 -3.5q-4 -1 -7.5 -2.5t-7.5 -3.5q-8 -1 -16 -2.5t-16 -2.5q-7 -2 -14.5 -2.5t-15.5 -0.5l-40 -1q-23 1 -43.5 7t-37.5 19q-18 13 -27.5 33.5t-11.5 48.5q-1 7 -1 13.5zM339 728v1v2v88v0v0l4 5 q2 1 5 1.5t7 0.5h40h2h2q1 -1 2 -1h2h2h2q1 -1 2 -1h2q2 -1 4.5 -1.5t5.5 -1.5q2 -1 4.5 -2t4.5 -3q5 -3 8 -6t4 -8v-93q0 -3 -1 -5t-3 -4q-1 -1 -3.5 -1.5t-5.5 -0.5h-40h-4.5t-4.5 1q-3 0 -5.5 1t-4.5 2q-6 2 -10.5 4.5t-9.5 6.5q-4 4 -7 7.5t-4 7.5zM480 723v96v0v0l3 4 q2 1 4.5 1.5t5.5 0.5h40h2h2q1 -1 2.5 -1h2.5q2 -1 4.5 -1.5t5.5 -0.5q2 -1 4.5 -2t5.5 -2q2 -1 4.5 -2t4.5 -2q5 -2 7.5 -4.5t3.5 -4.5l1 -2v-1v-93q0 -4 -1 -6t-3 -4q-2 -1 -5 -2t-6 -1h-40h-4t-4 1q-2 0 -4.5 0.5t-4.5 1.5q-5 2 -9.5 4t-9.5 5q-4 3 -7 7t-5 8z" />
<glyph unicode="&#xdd;" />
<glyph unicode="&#xde;" horiz-adv-x="764" />
<glyph unicode="&#xdf;" horiz-adv-x="544" d="M50 280.5v32.5q0 38 1.5 71t5.5 60q3 27 10.5 47.5t19.5 35.5q29 38 56 63.5t54 38.5q27 14 51 21t46 8h40q18 0 33.5 -3.5t28.5 -9.5q13 -7 22.5 -14t16.5 -15l4 -6l3 -5q4 -7 7 -13.5t4 -12.5q2 -7 3 -13t1 -11q0 -16 -6 -31t-18 -28t-25.5 -24l-27.5 -22l-21.5 -15.5 l-21.5 -15.5q-10 -7 -17 -14.5t-11 -14.5q-1 -1 -1.5 -2t-1.5 -1q0 -1 -0.5 -2t-0.5 -2t-0.5 -2l-0.5 -1v-2v-2v-4t1 -4v-2t1 -1q0 -1 0.5 -2t1.5 -2q4 -6 10 -11t15 -9q8 -4 18 -8l20 -8q4 -1 8.5 -2.5t8.5 -3.5q2 -1 4 -1.5t5 -1.5q2 -1 4 -1.5t4 -1.5q17 -6 32 -13.5 t30 -16.5q14 -10 24 -24t14 -32v-6l1 -4v-5v-5q0 -37 -13.5 -71t-40.5 -64t-57 -48t-62 -23q-3 -1 -6 -1h-6h-40h-2.5h-2.5h-3h-3h-3h-2h-3h-2h-12.5h-14.5h-8h-7q-4 0 -8 0.5t-8 1.5q-15 2 -28 6t-25 11q-12 6 -17.5 17t-5.5 26l6 4h2t2 1h2h2h40q5 0 11 -1.5t13 -3.5 q8 -2 16 -4.5l17 -5.5t19 -6t20 -5q7 -2 14.5 -3l14.5 -2q1 0 2.5 0.5t2.5 0.5t2.5 0.5t2.5 0.5q15 2 28.5 12t23.5 28q11 18 16.5 37.5t6.5 41.5v4v5q0 14 -3 27.5t-8 26.5t-13.5 22.5t-19.5 16.5q-4 3 -10 5.5t-12 4.5q-7 2 -13.5 4.5t-14.5 4.5l-6 2l-6 2q-14 4 -27 8.5 t-25 10.5q-12 5 -18.5 12.5t-8.5 16.5v1v2v0v2q0 9 2.5 17.5t8.5 16.5l6 8l6 8l7 7l8 8q3 3 6.5 6t7.5 6t7.5 6.5l7.5 7.5l24 23t22 25q11 13 16 28t5 32q0 20 -4.5 36t-12.5 29q-6 8 -14 14t-19 9q-1 -1 -2 -1h-3q-26 -7 -45.5 -23t-33.5 -40q-13 -24 -22 -49.5t-14 -52.5 q-4 -16 -6 -32t-3 -31q-1 -16 -1.5 -29.5t-0.5 -25.5q-1 -10 -1.5 -20t-0.5 -21q-1 -11 -1.5 -22t-1.5 -22q-1 -12 -1.5 -23.5t-0.5 -23.5q-1 -12 -1.5 -24t-1.5 -24q0 -5 -0.5 -10.5t-0.5 -10.5q-1 -6 -1 -11.5v-10.5t-0.5 -10.5t-0.5 -10.5q-1 -6 -1 -11.5v-10.5 q-2 -29 -3 -57l-2 -56q-1 -9 -1.5 -18.5t-0.5 -18.5q-1 -38 -2 -71t-1 -63v-2t1 -2v-1v-2v-7q0 -7 -1.5 -12t-3.5 -9q-1 -2 -2.5 -3t-2.5 -1q-2 -1 -3 -1t-3 1l-40 -1q-3 2 -6 5.5t-5 9.5q-3 6 -4 14t-1 19l-8 212v0v0v21.5v20.5q-1 11 -1 21.5v20.5q-1 21 -1 41.5v39.5 q-1 19 -1.5 37t-0.5 36q-1 18 -1 34.5z" />
<glyph unicode="&#xe0;" horiz-adv-x="599" d="M39 72q0 9 1.5 18t4.5 19q3 9 7 19t10 20q14 23 34 45.5t45 44.5q26 21 52 37t54 26q8 3 16.5 5.5t16.5 3.5q8 2 16.5 2.5t16.5 0.5h40q14 0 27 -3t25 -8q11 -5 22 -13.5t20 -19.5v0h1.5t1.5 1h0.5h1.5q2 0 3.5 0.5t3.5 1.5q1 1 3 1.5t3 1.5h40l1 -6v-2t1 -3v-2v-3 q1 -9 2 -21.5t2 -27.5q1 -16 2.5 -31.5t3.5 -32.5q2 -25 6 -47.5t10 -42.5q5 -21 13.5 -31t18.5 -10h1h2q3 -2 4.5 -4.5t0.5 -4.5t-3.5 -4t-5.5 -4t-6.5 -4t-8.5 -4l-4 -2l-4 -2q-3 -1 -5 -2l-4 -2q-3 -1 -5.5 -1.5t-4.5 -1.5q-3 0 -5.5 -0.5t-4.5 -1.5q-4 -2 -8 -2.5 t-7 -0.5l-40 -1l-6 1l-2 2q-3 5 -5 11t-4 13q-1 7 -2.5 15t-3.5 17l-1 2v3l-2 11.5t-3 10.5q-8 -7 -18 -13.5t-22 -12.5q-25 -12 -51 -20t-53 -13q-11 -1 -22 -2.5t-22 -2.5q-10 -1 -20.5 -1.5t-20.5 -0.5l-40 -1q-10 1 -19 1.5t-17 1.5t-15.5 2.5t-13.5 2.5 q-15 5 -25.5 12.5t-16.5 17.5q-7 9 -10 19.5t-3 22.5zM161 97.5q0 -4.5 1 -9.5q1 -4 2 -8.5t2 -9.5q5 -12 13 -21t21 -15q9 -4 19 -6.5t20 -3.5h3h3q1 0 2.5 0.5t2.5 0.5q8 2 17 4t18 5q17 5 34.5 13.5t33.5 18.5q17 11 30.5 23.5t25.5 27.5v1v0q1 2 1.5 4.5t0.5 6.5v3.5 t1 3.5v3v4q0 6 -0.5 13t-1.5 14t-1.5 14t-1.5 14q-1 4 -1.5 7.5t-1.5 7.5q-1 3 -1.5 6.5t-0.5 7.5q-10 14 -21 24.5t-24 16.5q-9 4 -18 7t-17 4q-12 -1 -23 -4.5t-22 -7.5q-16 -7 -28.5 -14t-23.5 -15l-6 -6l-6 -5q-10 -10 -18.5 -22t-15.5 -26t-11 -28.5t-6 -28.5 q-1 -2 -1 -4v-4v-2v-1v-2v-2v-9.5zM202 515v4.5v5.5q0 2 1 4.5t2 4.5q2 5 6 8.5t9 7.5v1h40v0q5 2 8.5 2t7.5 -2t7.5 -6l7.5 -9q4 -6 7.5 -13l7.5 -15l8.5 -16.5t9.5 -16.5q5 -10 12 -19.5l14 -18.5q8 -9 17 -16.5t19 -12.5l7 -4q1 -1 1.5 -2l0.5 -1q1 -1 1 -2v-2v-3l-1 -2 q-1 -3 -2.5 -6t-3.5 -5q-1 -1 -2.5 -2t-2.5 -2q-2 -1 -3 -1h-3h-40h-4l-3 1l-10.5 5.5t-15.5 9.5t-18 13l-18 14q-8 7 -15.5 14.5t-15.5 14.5l-13 15.5t-11 15.5q-3 5 -5 9.5t-4 8.5q-1 5 -2 9.5t-1 8.5z" />
<glyph unicode="&#xe1;" horiz-adv-x="599" d="M31 81q0 8 1.5 17t4.5 19q3 9 7 18.5t10 19.5q14 24 34 46.5t45 44.5q26 22 52.5 37.5t54.5 25.5q8 3 16.5 5.5t16.5 3.5q8 2 16 2.5t16 0.5h40q14 0 27 -3t26 -8q11 -5 22 -13.5t20 -19.5v0h1.5t0.5 1h1.5h0.5q2 0 3.5 0.5t3.5 1.5q1 0 3 0.5t3 1.5h40v-1.5t1 -1.5v-2 v-2q0 -3 0.5 -6t1.5 -6q1 -10 2 -22t2 -27t2.5 -30t2.5 -31q3 -24 7 -46.5t10 -42.5q5 -21 13 -31t18 -10h1h2q3 -2 4.5 -4.5t0.5 -4.5t-3.5 -4.5l-5.5 -5.5q-3 -2 -6.5 -3.5t-8.5 -2.5l-4 -2l-4 -2q-3 -1 -5 -2l-4 -2q-3 -1 -5.5 -1.5t-4.5 -1.5q-3 0 -5.5 -0.5t-4.5 -1.5 q-4 -2 -8 -2.5t-7 -0.5l-40 -1l-6 1l-2 2q-3 5 -5 10.5t-4 12.5q-1 8 -2.5 16t-3.5 17l-1 2v3q0 3 -0.5 6t-1.5 6q-1 2 -1.5 5t-1.5 6q-8 -7 -18 -14t-22 -12q-24 -12 -49.5 -20.5t-52.5 -13.5q-11 -3 -22 -4.5t-22 -2.5t-21.5 -1h-20.5h-40h-19t-17 1t-15.5 2.5t-13.5 3.5 q-15 6 -25.5 13.5t-17.5 17.5t-10 20.5t-3 22.5zM153 105.5q0 -4.5 1 -9.5q1 -4 2 -8.5t2 -9.5q5 -12 13.5 -21t21.5 -15q9 -4 19 -6.5t20 -3.5h3h3q1 0 2.5 0.5t2.5 0.5q8 2 17 4t18 5q17 5 34.5 13.5t33.5 18.5q17 11 30.5 23.5t25.5 27.5v1v0q1 2 1.5 4.5t0.5 5.5v3.5 t1 3.5v3v4q0 6 -0.5 12t-1.5 13t-1.5 14t-1.5 14q-1 4 -1.5 8t-1.5 8t-1.5 8t-1.5 8q-10 14 -21 24.5t-24 16.5q-9 4 -18 7t-17 4q-12 -1 -23 -4.5t-22 -7.5q-16 -7 -28.5 -14t-23.5 -15l-6 -6l-6 -5q-10 -10 -18.5 -22t-15.5 -26t-11 -28.5t-6 -28.5q-1 -2 -1 -4v-4v-2v-1 v-2v-2v-9.5zM207.5 386.5q1.5 4.5 8.5 10.5q8 5 17.5 13.5t19.5 19.5q4 4 8 8.5t8 9.5t7.5 10.5t6.5 12.5v1v0q3 2 5.5 6t4.5 8q1 2 2 4.5t3 5.5q1 2 2 4.5t2 4.5l1 3l2 4q3 8 6 14t7 12q3 6 8.5 9t12.5 3h40h1h2q4 -1 7.5 -4.5t7.5 -9.5q3 -6 5 -12.5t2 -14.5v-4v-4l-2 -6 q-25 -37 -46 -61t-39 -36t-31 -17.5t-22 -5.5h-40h-7l-4 2h-1v1q-6 4 -4.5 8.5z" />
<glyph unicode="&#xe2;" horiz-adv-x="599" d="M39 72q0 9 1.5 18t4.5 19q3 9 7 19t10 20q14 23 34 45.5t45 44.5q26 21 52 37t54 26q8 3 16.5 5.5t16.5 3.5q8 2 16.5 2.5t16.5 0.5h40q14 0 27 -3t25 -8q11 -5 22 -13.5t20 -19.5v0h1.5t1.5 1h0.5h1.5q2 0 3.5 0.5t3.5 1.5q1 1 3 1.5t3 1.5h40l1 -6v-2t1 -3v-2v-3 q1 -9 2 -21.5t2 -27.5q1 -16 2.5 -31.5t3.5 -32.5q2 -25 6 -47.5t10 -42.5q5 -21 13.5 -31t18.5 -10h1h2q3 -2 4.5 -4.5t0.5 -4.5t-3.5 -4t-5.5 -4t-6.5 -4t-8.5 -4l-4 -2l-4 -2q-3 -1 -5 -2l-4 -2q-3 -1 -5.5 -1.5t-4.5 -1.5q-3 0 -5.5 -0.5t-4.5 -1.5q-4 -2 -8 -2.5 t-7 -0.5l-40 -1l-6 1l-2 2q-3 5 -5 11t-4 13q-1 7 -2.5 15t-3.5 17l-1 2v3l-2 11.5t-3 10.5q-8 -7 -18 -13.5t-22 -12.5q-25 -12 -51 -20t-53 -13q-11 -1 -22 -2.5t-22 -2.5q-10 -1 -20.5 -1.5t-20.5 -0.5l-40 -1q-10 1 -19 1.5t-17 1.5t-15.5 2.5t-13.5 2.5 q-15 5 -25.5 12.5t-16.5 17.5q-7 9 -10 19.5t-3 22.5zM118 425q4 2 8.5 5t8.5 7q5 3 9.5 6.5t8.5 7.5q2 2 3.5 3t2.5 3q2 1 3.5 2.5t3.5 2.5q3 3 6.5 6t7.5 6q13 11 25 22.5t24 21.5q12 11 22 18.5t17 13.5l6 3l6 2h40h2l3 -1q7 -3 16 -14t20 -29t33 -39.5t55 -47.5l-31 -38 h-40v0v0l-93 99l-111 -91h-40zM161 97.5q0 -4.5 1 -9.5q1 -4 2 -8.5t2 -9.5q5 -12 13 -21t21 -15q9 -4 19 -6.5t20 -3.5h3h3q1 0 2.5 0.5t2.5 0.5q8 2 17 4t18 5q17 5 34.5 13.5t33.5 18.5q17 11 30.5 23.5t25.5 27.5v1v0q1 2 1.5 4.5t0.5 6.5v3.5t1 3.5v3v4q0 6 -0.5 13 t-1.5 14t-1.5 14t-1.5 14q-1 4 -1.5 7.5t-1.5 7.5q-1 3 -1.5 6.5t-0.5 7.5q-10 14 -21 24.5t-24 16.5q-9 4 -18 7t-17 4q-12 -1 -23 -4.5t-22 -7.5q-16 -7 -28.5 -14t-23.5 -15l-6 -6l-6 -5q-10 -10 -18.5 -22t-15.5 -26t-11 -28.5t-6 -28.5q-1 -2 -1 -4v-4v-2v-1v-2v-2 v-9.5z" />
<glyph unicode="&#xe3;" horiz-adv-x="599" d="M39 88q0 9 1.5 18t4.5 19t7.5 20t10.5 20q14 23 33.5 45t44.5 43t51 37t53 26q8 3 16.5 5.5t17.5 3.5q8 2 16.5 3t16.5 1h40q14 0 27 -3t26 -8q11 -6 22 -14.5t20 -19.5v0h1.5t1.5 1h0.5h1.5q2 0 3.5 0.5t3.5 1.5q1 1 3 1.5t3 1.5h40l1 -6v-2t1 -3v-2v-3q1 -9 2 -21.5 t2 -27.5q1 -16 2.5 -31.5t3.5 -32.5q2 -25 6 -47.5t10 -42.5q5 -21 13.5 -31t18.5 -10h1h2q3 -2 4.5 -4.5t0.5 -4.5t-3.5 -4.5l-5.5 -5.5q-3 -2 -6.5 -4t-8.5 -4q-2 -1 -4 -1.5t-4 -1.5q-3 0 -5 -1l-4 -2q-3 -1 -5.5 -1.5t-4.5 -1.5q-3 0 -5.5 -0.5t-4.5 -1.5q-4 -2 -8 -2.5 t-7 -0.5l-40 -1l-6 1l-2 3q-3 5 -5 10.5t-4 12.5q-1 8 -2.5 16t-3.5 17l-1 2v3l-2 11.5t-3 10.5q-8 -7 -18 -13.5t-22 -12.5q-25 -12 -51 -20t-53 -13q-11 -3 -22 -4.5t-22 -2.5q-10 -1 -20.5 -1.5t-20.5 -0.5h-40q-10 0 -19 0.5t-17 1.5t-15.5 2.5t-13.5 3.5 q-15 5 -25.5 12.5t-16.5 17.5q-7 10 -10 20.5t-3 22.5zM122 413v4q1 2 2 3.5t2 3.5q16 25 31 42t28 26q14 9 26 13.5t24 4.5h40q9 0 18 -2t17 -6t16.5 -7.5t16.5 -8.5l6 -4t7 -3q3 -2 6 -3.5t6 -3.5q2 -1 3.5 -1.5t3.5 -1.5t3.5 -1.5t3.5 -1.5l3 1.5l3 1.5q1 1 2.5 1.5 t2.5 1.5q8 5 16 15t16 24v1v0l4 1h40h4q2 0 4.5 -0.5t3.5 -2.5q2 -2 2.5 -4.5t0.5 -5.5q0 -4 -1.5 -8l-3.5 -9t-5 -10.5t-8 -10.5t-11.5 -10t-14.5 -10q-7 -5 -17 -9.5t-21 -8.5l-3 -1h-40h-2h-3h-3h-5.5t-4.5 1h-2.5t-2.5 1q-2 0 -3 0.5t-3 0.5q-4 2 -8.5 4t-9.5 5 q-2 1 -4.5 2t-4.5 3q-3 1 -5.5 2.5t-4.5 2.5q-4 2 -7.5 4t-6.5 4q-4 1 -7.5 3t-7.5 4q-3 2 -6 2.5t-6 1.5q-2 -1 -4.5 -2t-4.5 -2q-3 -1 -5.5 -2t-4.5 -2q-10 -6 -21 -16t-22 -24l-6 -7l-4 -2t-4 -1h-40h-2h-2l-7 1q-1 1 -2 2.5t-1 3.5zM161 113.5q0 -4.5 1 -9.5 q1 -4 2 -8.5t2 -9.5q5 -12 13.5 -21t20.5 -15q9 -4 19 -6.5t21 -3.5h5.5t4.5 1q8 2 16.5 3.5t17.5 4.5q18 5 35.5 13.5t33.5 18.5q17 11 30.5 23.5t25.5 28.5v1v0q1 2 1.5 4.5t0.5 5.5v3.5t1 3.5v3v4q0 6 -0.5 12t-1.5 13t-1.5 14t-1.5 14q-1 4 -1.5 8t-1.5 8t-1.5 8t-0.5 8 q-10 14 -21 24t-24 16q-4 2 -8.5 3.5t-8.5 3.5q-5 1 -9 2t-9 2q-11 -1 -22.5 -4t-22.5 -8q-15 -6 -27 -12.5t-22 -14.5q-2 -1 -4 -2.5t-4 -3.5l-7 -6q-10 -10 -18.5 -22t-15.5 -26t-11 -28.5t-6 -28.5q-1 -2 -1 -4v-4v-2v-1v-2v-2v-9.5z" />
<glyph unicode="&#xe4;" horiz-adv-x="599" d="M31 73q0 8 1.5 17t4.5 19q3 9 7 18.5t10 19.5q14 24 34 46.5t45 44.5q26 22 52.5 37.5t54.5 25.5q8 3 16.5 5.5t16.5 3.5q8 2 16 2.5t16 0.5h40q14 0 27 -3t26 -8q11 -5 22 -13.5t20 -19.5v0h1.5t0.5 1h1.5h0.5q2 0 3.5 0.5t3.5 1.5q1 1 3 1.5t3 1.5h40v-1.5t1 -1.5v-2 v-3q0 -3 0.5 -6t1.5 -6q1 -9 2 -21t2 -27t2.5 -30t2.5 -31q3 -25 7 -47.5t9 -42.5q5 -21 13.5 -31t18.5 -10h1h2q3 -2 4.5 -4.5t0.5 -4.5t-3.5 -4t-5.5 -4t-6.5 -4t-8.5 -4l-4 -2l-4 -2q-3 -1 -5 -2l-4 -2q-3 -1 -5.5 -1.5t-4.5 -1.5q-3 0 -5.5 -0.5t-4.5 -1.5 q-4 -2 -8 -2.5t-7 -0.5l-40 -1l-6 1l-2 2q-3 5 -5 11t-4 13q-1 7 -2.5 15t-3.5 17l-1 2v3q0 3 -0.5 6t-1.5 6q-1 2 -1.5 5t-1.5 6q-8 -7 -18 -14t-22 -12q-24 -12 -49.5 -20.5t-52.5 -13.5q-11 -1 -22 -2.5t-22 -2.5t-21.5 -1.5t-20.5 -0.5l-40 -1q-10 1 -19 1.5t-17 1.5 t-15.5 2.5t-13.5 2.5q-15 5 -25.5 12.5t-17.5 17.5t-10 20.5t-3 22.5zM153 97.5q0 -4.5 1 -9.5q1 -4 2 -8.5t2 -9.5q5 -12 13.5 -21t21.5 -15q9 -4 19 -6.5t20 -3.5h3h3q1 0 2.5 0.5t2.5 0.5q8 2 17 4t18 5q17 5 34.5 13.5t33.5 18.5q17 11 30.5 23.5t25.5 27.5v1v0 q1 2 1.5 4.5t0.5 5.5v3.5t1 3.5v3v4q0 6 -0.5 12t-1.5 13t-1.5 14t-1.5 14q-1 4 -1.5 8t-1.5 8t-1.5 8t-1.5 8q-10 14 -21 24.5t-24 16.5q-9 4 -18 7t-17 4q-12 -1 -23 -4.5t-22 -7.5q-16 -7 -28.5 -14t-23.5 -15l-6 -6l-6 -5q-10 -10 -18.5 -22t-15.5 -26t-11 -28.5 t-6 -28.5q-1 -2 -1 -4v-4v-2v-1v-2v-2v-9.5zM165 440v88v0v0l4 5q2 1 4.5 1.5t6.5 0.5h40h2h2q1 -1 2 -1h2h2h2q1 -1 2.5 -1h2.5q2 -1 4.5 -2t5.5 -2q2 -1 4.5 -2t4.5 -3q5 -3 8 -6t4 -7v-94l-4 -8q-1 -1 -3.5 -2t-5.5 -1h-40h-4.5t-4.5 1q-3 0 -5.5 1t-4.5 2 q-6 2 -11.5 5.5t-10.5 7.5q-4 4 -6.5 8.5t-2.5 8.5zM307 432v96v0v0l3 3q2 1 4.5 1.5t5.5 0.5h40h2h2q1 -1 2.5 -1h2.5q2 0 4.5 -0.5t5.5 -1.5q6 -1 11.5 -3.5t9.5 -4.5q2 -1 4 -2.5t3 -2.5q2 -2 2.5 -3t0.5 -3v-94q0 -4 -1 -6t-3 -4q-2 -1 -5 -1.5t-6 -0.5h-40h-4h-4 t-4.5 0.5t-4.5 1.5q-5 2 -9.5 4.5l-9.5 5.5q-4 3 -7 7t-5 8z" />
<glyph unicode="&#xe5;" horiz-adv-x="599" d="M39 72q0 9 1.5 18t4.5 19q3 9 7 19t10 20q14 23 34 45.5t45 44.5q26 21 52 37t54 26q8 3 16.5 5.5t16.5 3.5q8 2 16.5 2.5t16.5 0.5h40q14 0 27 -3t25 -8q11 -5 22 -13.5t20 -19.5v0h1.5t1.5 1h0.5h1.5q2 0 3.5 0.5t3.5 1.5q1 1 3 1.5t3 1.5h40l1 -6v-2t1 -3v-2v-3 q1 -9 2 -21.5t2 -27.5q1 -16 2.5 -31.5t3.5 -32.5q2 -25 6 -47.5t10 -42.5q5 -21 13.5 -31t18.5 -10h1h2q3 -2 4.5 -4.5t0.5 -4.5t-3.5 -4t-5.5 -4t-6.5 -4t-8.5 -4l-4 -2l-4 -2q-3 -1 -5 -2l-4 -2q-3 -1 -5.5 -1.5t-4.5 -1.5q-3 0 -5.5 -0.5t-4.5 -1.5q-4 -2 -8 -2.5 t-7 -0.5l-40 -1l-6 1l-2 2q-3 5 -5 11t-4 13q-1 7 -2.5 15t-3.5 17l-1 2v3l-2 11.5t-3 10.5q-8 -7 -18 -13.5t-22 -12.5q-25 -12 -51 -20t-53 -13q-11 -1 -22 -2.5t-22 -2.5q-10 -1 -20.5 -1.5t-20.5 -0.5l-40 -1q-10 1 -19 1.5t-17 1.5t-15.5 2.5t-13.5 2.5 q-15 5 -25.5 12.5t-16.5 17.5q-7 9 -10 19.5t-3 22.5zM161 97.5q0 -4.5 1 -9.5q1 -4 2 -8.5t2 -9.5q5 -12 13 -21t21 -15q9 -4 19 -6.5t20 -3.5h3h3q1 0 2.5 0.5t2.5 0.5q8 2 17 4t18 5q17 5 34.5 13.5t33.5 18.5q17 11 30.5 23.5t25.5 27.5v1v0q1 2 1.5 4.5t0.5 6.5v3.5 t1 3.5v3v4q0 6 -0.5 13t-1.5 14t-1.5 14t-1.5 14q-1 4 -1.5 7.5t-1.5 7.5q-1 3 -1.5 6.5t-0.5 7.5q-10 14 -21 24.5t-24 16.5q-9 4 -18 7t-17 4q-12 -1 -23 -4.5t-22 -7.5q-16 -7 -28.5 -14t-23.5 -15l-6 -6l-6 -5q-10 -10 -18.5 -22t-15.5 -26t-11 -28.5t-6 -28.5 q-1 -2 -1 -4v-4v-2v-1v-2v-2v-9.5zM189 464v1v0q0 3 1 7t2 9l4 10.5t5 11.5q5 9 12.5 17t17.5 15q10 8 23 11.5t29 3.5h40h2h2h2h2q22 0 38.5 -6t26.5 -19q11 -13 16.5 -27.5t5.5 -31.5v-4v-5q-1 -17 -8.5 -33t-19.5 -31t-29 -22.5t-38 -9.5h-40q-29 3 -48 11.5t-28 21.5 q-9 14 -13.5 31.5t-4.5 38.5zM265 453.5q0 -2.5 1 -4.5q0 -3 0.5 -5t1.5 -4q3 -8 8.5 -15t12.5 -12l8 -4l8 -4q5 2 9.5 4.5t8.5 6.5q8 7 12 19t4 29v1v0q0 11 -4 20.5t-12 17.5q-4 5 -9.5 8t-12.5 5q-5 -1 -9.5 -4t-8.5 -7q-7 -7 -10.5 -15t-5.5 -16q0 -1 -0.5 -2l-0.5 -1 q-1 -1 -1 -2v-2v-4v-4v-5.5z" />
<glyph unicode="&#xe6;" horiz-adv-x="875" d="M38 68v2l1 3v2v3q3 34 17.5 55.5t41.5 31.5q26 10 55.5 15t60.5 5h40h10h11q5 -1 10 -1h10q10 -1 19.5 -1.5t19.5 -0.5l18 -2t18 -1h4.5t3.5 -1q1 0 2 0.5t2 0.5t2 0.5t2 0.5q-2 30 -11 51.5t-26 34.5q-14 11 -29 17.5t-30 9.5q-4 -1 -8 -1.5t-8 -1.5q-8 -1 -15.5 -3.5 l-13.5 -4.5t-12 -5t-12 -7l-13.5 -7.5l-13.5 -7.5l-3 -2l-4 -2q-9 -6 -17.5 -10.5l-16.5 -8.5t-15.5 -6t-13.5 -2h-40l-7 1l-6 2l-4 6q-1 2 -1.5 3.5t-0.5 3.5l-2 6v6q0 7 1.5 13.5t5.5 12.5t10 11t14 9v1v0l6 1l6 3q6 2 13 4t15 5q7 2 15.5 4l17.5 4q17 4 35 6t37 2h40h6h6 q3 -1 6 -1h6t6 -0.5t7 -0.5q3 -1 6 -1.5t6 -0.5q20 -4 40.5 -11.5t40.5 -18.5q14 -8 27.5 -19t26.5 -25q1 1 2 2.5t3 2.5q1 1 2 2.5t2 2.5q6 7 13 13.5l14 12.5t14.5 11t14.5 9q9 5 21 9.5t25 8.5q14 4 27.5 6t28.5 3h40h4h4q11 0 22 -1.5t21 -4.5q11 -3 20 -8t16 -13l1 -2 l2 -1l4.5 -6.5l5.5 -7.5l4.5 -9t4.5 -10q5 -10 7 -21t2 -22q0 -5 1 -8.5t2 -5.5l6 -4l1 -1h2l5 -2q1 -1 1 -3.5t-2 -6.5q-1 -1 -11 -4t-27 -6q-9 -1 -18 -3t-19 -3q-10 -2 -21 -3.5t-22 -3.5q-2 0 -4.5 -0.5t-4.5 -0.5q-3 -1 -5.5 -1.5t-4.5 -0.5t-4.5 -0.5t-4.5 -0.5 q-3 -1 -5.5 -1.5t-4.5 -0.5q-25 -4 -48.5 -7l-45.5 -6t-36 -4t-21 -1q0 -35 13 -60.5t39 -42.5q23 -14 49.5 -22t55.5 -10h4.5t4.5 1q14 1 28 3.5t28 6.5t27 9t26 12l6 3h2t2 1l1 0.5t2 0.5q4 2 7.5 2.5t7.5 1.5t7 1.5t6 0.5h40q5 0 7.5 -1.5t2.5 -3.5t-5 -5.5t-15 -8.5 q-41 -20 -75 -31t-61 -15q-27 -3 -52 -5t-48 -2l-40 -1q-30 1 -55.5 5.5t-48.5 11.5q-16 6 -28 14.5t-20 18.5l-20.5 -10t-23.5 -10q-25 -9 -51 -14t-53 -9q-7 0 -13.5 -0.5t-12.5 -1.5h-6.5t-6.5 -1h-7h-6l-40 -1q-28 1 -52 5.5t-44 12.5q-21 9 -31 25t-10 38zM159 89 q0 -15 8.5 -28t24.5 -24q14 -10 31 -14.5t36 -6.5h3.5h2.5q8 1 16 2.5t17 3.5q17 4 32.5 11.5t29.5 19.5t21 30.5t7 43.5v2v3q-1 1 -1 2.5v2.5v3.5v2.5q-1 2 -1 3.5v2.5v1v0q-8 3 -18.5 6t-23.5 4q-10 2 -20 2.5t-20 1.5q-10 -1 -19 -1.5t-18 -1.5q-7 -1 -12.5 -1.5 t-10.5 -0.5q-4 -1 -8 -1.5t-7 -1.5q-16 -6 -28.5 -12.5t-20.5 -14.5q-4 -4 -7.5 -8t-5.5 -7q-3 -4 -4.5 -8t-2.5 -8l-1 -5v-4zM497 178l180 27v0v0q0 26 -6.5 43t-19.5 25q-8 5 -17 9t-20 6q-1 0 -2 -0.5t-2 -0.5t-2 -0.5t-2 -0.5q-7 -1 -13.5 -4l-12.5 -6q-16 -7 -30 -18 t-27 -25q-12 -13 -18 -26.5t-8 -28.5z" />
<glyph unicode="&#xe7;" horiz-adv-x="544" d="M40 79.5v7.5q0 30 12.5 58t37.5 55q25 26 52.5 47t57.5 37l6 2q1 0 2 0.5t2 1.5l1 0.5t2 1.5q2 2 6 3.5t8 2.5q2 1 4.5 2t5.5 2q3 0 6.5 1t6.5 2q7 2 14.5 4.5t15.5 3.5l8 2t9 2q4 0 8.5 1t8.5 2q6 1 12.5 1.5t13.5 1.5q3 0 6 0.5t7 0.5q3 1 6 1h6h40q9 0 17.5 -1 t15.5 -3t11.5 -5t7.5 -8q12 -15 18 -25t6 -15q0 -6 -3.5 -8.5t-10.5 -2.5h-40q-5 0 -11 1t-13 2q-7 2 -14.5 3.5t-15.5 3.5l-1 1h-2q-3 1 -5.5 1.5t-4.5 1.5q-3 0 -5.5 0.5t-4.5 1.5q-5 2 -9.5 2.5t-9.5 1.5h-5q-31 -3 -58.5 -12t-51.5 -25q-29 -19 -43.5 -49t-14.5 -71v0 q0 -16 4 -29.5t12 -23.5t16.5 -17t18.5 -12q3 -2 6 -3.5t7 -2.5l6 -2l6 -2q6 -1 10.5 -2t8.5 -1q4 -1 7.5 -2t7.5 -2q3 0 6.5 -1t7.5 -1q2 -1 4.5 -1h4.5q13 1 25.5 3t25.5 6q17 5 32.5 10.5t29.5 11.5q14 5 25.5 10.5l21.5 10.5t17.5 7.5t11.5 2.5h40l6 -2l2 -6 q0 -12 -10.5 -22t-30.5 -18q-20 -7 -42.5 -13.5t-46.5 -11.5q-24 -4 -45.5 -6.5t-41.5 -5.5q-20 -2 -30.5 -4.5t-12.5 -3.5l-2 -5l-1 -5q0 -2 1 -5t4 -6t6.5 -6t7.5 -6l2 -2l2 -1q8 -4 13.5 -10.5t9.5 -13.5q3 -7 -3.5 -17.5t-23.5 -24.5l-18 -12t-17 -12l-8 -6t-7 -6 q-4 -2 -7 -5l-6 -6l-40 -1l-16 15q12 7 21 13t16 12q6 6 10.5 12t7.5 12q1 2 0 4.5t-4 4.5q-3 3 -6.5 6t-8.5 6q-4 3 -7 6.5t-6 7.5t-4.5 8t-1.5 9q0 4 1 7.5t2 8.5q2 4 5 8.5t7 9.5q-22 0 -40 2t-33 6q-5 1 -9.5 2.5t-8.5 3.5q-9 2 -16 5t-13 6q-2 2 -4 3t-4 3 q-2 1 -3.5 2.5t-3.5 2.5q-3 2 -4.5 4.5t-2.5 4.5q-4 7 -6.5 14t-4.5 14q-1 4 -2 7.5t-1 7.5q-1 3 -1 6.5z" />
<glyph unicode="&#xe8;" horiz-adv-x="544" d="M27 75q0 11 2 22.5t6 24.5q5 14 11.5 28t16.5 30v1v0q17 26 33.5 44.5t32.5 29.5t27 17.5t17 9.5q2 1 4 2.5t5 2.5q2 1 3.5 1.5t3.5 1.5q3 0 5 0.5t5 1.5l17.5 4.5t21.5 4.5q11 2 23 3.5t25 2.5h2t2 1h2h2h40h4.5h5.5q18 0 34.5 -3t31.5 -9q14 -6 22.5 -17t9.5 -28 q0 -9 0.5 -16t1.5 -13l3.5 -10.5l2.5 -7.5q2 -4 3.5 -8t2.5 -6q2 -3 2 -5.5v-4.5l-3 -4l-6 -4q-7 -1 -22.5 -4t-38.5 -7l-23 -4l-24 -4q-12 -3 -24.5 -5l-25.5 -4l-49.5 -8l-47.5 -8q-22 -4 -37 -6.5t-23 -4.5q6 -26 18 -46.5t31 -34.5q16 -12 37.5 -18.5t47.5 -8.5 q12 1 25 2.5t27 3.5q20 3 42.5 9t46.5 14q11 2 20.5 4t16.5 3q8 2 13.5 2.5t9.5 0.5h40q6 0 9.5 -0.5t4.5 -2.5q0 -1 0.5 -2l0.5 -1q0 -1 -0.5 -2t-1.5 -2l-4 -5l-6 -3q-18 -7 -36.5 -13t-38.5 -11l-39.5 -8l-40.5 -8q-15 -2 -30 -4.5t-30 -3.5q-15 -2 -29.5 -2.5 t-28.5 -0.5l-40 -1q-36 1 -66.5 6.5t-55.5 15.5t-37.5 29t-12.5 46zM136 155q14 2 26.5 3.5t24.5 2.5q5 1 10.5 1.5t10.5 1.5q11 2 21.5 3t19.5 3q9 1 17 2.5t15 2.5q17 3 28.5 6t17.5 7q6 3 9 9t3 15l1 6v6q0 12 -5 22.5t-14 18.5q-7 5 -15.5 9t-19.5 6q-4 -1 -9.5 -2 t-11.5 -3q-13 -3 -26.5 -9.5t-27.5 -15.5q-11 -8 -21.5 -18t-21.5 -22q-10 -11 -18 -24.5t-14 -30.5v0zM162 502v4v4.5t1 5.5q0 2 1 4.5t2 4.5t2.5 4t3.5 5l4 4t5 4v1h40v0q5 2 8.5 2t7.5 -2q3 -2 6.5 -5.5t7.5 -8.5q3 -6 7 -13t8 -15l8.5 -16.5l9.5 -17.5q5 -10 12 -19 l14 -18q8 -9 17 -16.5t20 -12.5l7 -5q1 -1 1.5 -2l0.5 -1q1 -1 1 -2v-2l-1 -3v-2q-1 -3 -3 -6t-4 -5q-1 -1 -2.5 -2t-2.5 -2q-2 0 -3 -0.5t-3 -0.5l-4 -1h-40l-3 2l-10.5 5.5t-15.5 9.5t-18 13t-18 15q-8 6 -15.5 13.5t-15.5 14.5l-13.5 16t-11.5 16q-1 2 -2.5 4t-2.5 5 q-1 2 -1.5 4t-1.5 4t-1.5 4t-0.5 5q-1 2 -1 4z" />
<glyph unicode="&#xe9;" horiz-adv-x="544" d="M43 75q0 11 2 22.5t6 24.5q5 14 11.5 28t16.5 30v1v0q17 26 33.5 44.5t32.5 29.5t27 17.5t17 9.5q2 1 4 2.5t5 2.5q2 1 3.5 1.5t3.5 1.5q3 0 5 0.5t5 1.5q8 3 18.5 5.5t22.5 4.5t25 3.5t26 2.5h40h6h2h2h1h2q18 0 34.5 -3t30.5 -9t22.5 -17t9.5 -28q0 -9 0.5 -16t1.5 -13 l3.5 -10.5t3.5 -7.5q1 -2 1.5 -4t1.5 -4q0 -1 0.5 -2.5t1.5 -2.5q2 -2 2.5 -4t0.5 -4l-2 -5q-1 -1 -3 -2.5t-4 -3.5q-7 -1 -22.5 -4t-38.5 -7l-23 -4l-24 -4q-12 -3 -24.5 -5l-25.5 -4l-49.5 -8l-47.5 -8q-22 -4 -37 -6.5t-23 -4.5q6 -26 18 -46.5t31 -34.5 q15 -12 36.5 -18.5t48.5 -8.5q12 1 25 2.5t27 3.5q20 3 42 9t47 14q11 2 20.5 4t16.5 3q8 2 13.5 2.5t9.5 0.5h40q6 0 9.5 -0.5t4.5 -2.5q0 -1 0.5 -2l0.5 -1q0 -1 -0.5 -2t-1.5 -2l-4 -5l-6 -3q-18 -7 -36.5 -13t-38.5 -11l-39.5 -8l-40.5 -8q-15 -2 -30 -4.5t-30 -3.5 q-15 -2 -29.5 -2.5t-28.5 -0.5l-40 -1q-36 1 -66.5 6.5t-55.5 15.5t-37.5 29t-12.5 46zM152 155q14 2 26.5 3.5t24.5 2.5q5 1 10.5 1.5t10.5 1.5q11 2 21.5 3t19.5 3q9 1 17 2.5t15 2.5q17 3 28 6t17 7q6 3 9 9t3 15v2t1 2v1v2v2t1 2v1v2q0 12 -5 22t-15 18q-7 5 -15.5 8.5 t-19.5 5.5q-4 -1 -9 -2t-11 -3q-13 -3 -26.5 -9.5t-27.5 -15.5q-11 -8 -21.5 -18t-21.5 -22q-10 -11 -18 -24.5t-14 -30.5v0zM183 378.5q1 4.5 9 10.5q8 5 17.5 13.5t21.5 20.5q3 4 7 8.5t8 9.5t7.5 11t6.5 12v1v0q3 2 5.5 6t4.5 8q2 5 4.5 9.5t4.5 9.5v2l2 3q3 8 6 14.5 t7 12.5q3 6 8.5 9t12.5 3h40q5 0 9.5 -3.5t8.5 -9.5q4 -7 6 -14t2 -15v-3l-1 -3l-1 -4v-3q-25 -37 -46 -61t-39 -36t-31 -17.5t-22 -5.5h-40h-7l-5 2q-7 5 -6 9.5z" />
<glyph unicode="&#xea;" horiz-adv-x="544" d="M51 75q0 11 2 22.5t6 24.5q5 14 11.5 28t16.5 30v1v0q17 26 33.5 44.5t32.5 29.5t27 17.5t17 9.5q2 1 4 2.5t5 2.5q2 1 3.5 1.5t3.5 1.5q2 0 4.5 0.5t4.5 1.5l17.5 4.5t21.5 4.5t24 3.5t24 2.5h2t2 1h2.5h2.5h40h4.5h4.5q18 0 34.5 -3t31.5 -9q14 -6 22.5 -17t9.5 -28 q0 -9 0.5 -16t1.5 -13l3.5 -10.5t3.5 -7.5q1 -2 1.5 -4t1.5 -4q0 -1 0.5 -2.5t1.5 -2.5q2 -2 2.5 -4t0.5 -4l-2 -5q-1 -1 -3 -2.5t-4 -3.5q-7 -1 -22.5 -4t-38.5 -7l-46 -8l-50 -8t-50.5 -8.5l-47.5 -8.5q-22 -4 -37 -6.5t-23 -4.5q6 -26 18 -46.5t31 -34.5 q15 -12 36.5 -18.5t48.5 -8.5q12 1 25 2.5t27 3.5q20 3 42 9t47 14q11 2 20.5 4t16.5 3q8 2 13.5 2.5t9.5 0.5h40q6 0 9.5 -0.5t4.5 -2.5q0 -1 0.5 -2l0.5 -1q0 -1 -0.5 -2t-1.5 -2l-4 -5l-6 -3q-18 -7 -36.5 -13t-38.5 -11l-39.5 -8l-40.5 -8q-15 -2 -30 -4.5t-30 -3.5 q-15 -2 -29.5 -2.5t-28.5 -0.5l-40 -1q-36 1 -66.5 6.5t-55.5 15.5t-37.5 29t-12.5 46zM110 425q4 2 8.5 5t8.5 7q5 3 9.5 6.5t8.5 7.5q2 2 3.5 3t2.5 3q2 1 3.5 2.5t3.5 2.5q3 3 6.5 6t7.5 6q13 11 25 22.5t24 21.5q12 11 22 18.5t17 13.5l6 3l6 2h40h2l3 -1q7 -3 16 -13.5 t20 -28.5t33.5 -40t55.5 -48l-32 -38h-40v0v0l-93 99l-111 -91h-40zM160 155q14 2 26.5 3.5t24.5 2.5q5 1 10.5 1.5t10.5 1.5q11 2 21.5 3t19.5 3q9 1 17 2.5t15 2.5q17 3 28 6t17 7q6 3 9 9t3 15v2t1 2v1v2v6q0 12 -4.5 22.5t-14.5 18.5q-7 5 -15.5 8.5t-19.5 5.5 q-4 -1 -9.5 -2t-11.5 -3q-13 -3 -26 -9.5t-27 -15.5q-11 -7 -21.5 -17.5l-21.5 -22.5q-10 -11 -18 -24.5t-14 -30.5v0z" />
<glyph unicode="&#xeb;" horiz-adv-x="544" d="M43 75q0 11 2 22.5t6 24.5q5 14 11.5 28t16.5 30v1v0q17 26 33.5 44.5t32.5 29.5t27 17.5t17 9.5q2 1 4 2.5t5 2.5q2 1 3.5 1.5t3.5 1.5q3 0 5 0.5t5 1.5q8 3 18.5 5.5t22.5 4.5t25 3.5t26 2.5h40h6h2h2h1h2q18 0 34.5 -3t30.5 -9t22.5 -17t9.5 -28q0 -9 0.5 -16t1.5 -13 l3.5 -10.5t3.5 -7.5q1 -2 1.5 -4t1.5 -4q0 -1 0.5 -2.5t1.5 -2.5q2 -2 2.5 -4t0.5 -4l-2 -5q-1 -1 -3 -2.5t-4 -3.5q-7 -1 -22.5 -4t-38.5 -7l-23 -4l-24 -4q-12 -3 -24.5 -5l-25.5 -4l-49.5 -8l-47.5 -8q-22 -4 -37 -6.5t-23 -4.5q6 -26 18 -46.5t31 -34.5 q15 -12 36.5 -18.5t48.5 -8.5q12 1 25 2.5t27 3.5q20 3 42 9t47 14q11 2 20.5 4t16.5 3q8 2 13.5 2.5t9.5 0.5h40q6 0 9.5 -0.5t4.5 -2.5q0 -1 0.5 -2l0.5 -1q0 -1 -0.5 -2t-1.5 -2l-4 -5l-6 -3q-18 -7 -36.5 -13t-38.5 -11l-39.5 -8l-40.5 -8q-15 -2 -30 -4.5t-30 -3.5 q-15 -2 -29.5 -2.5t-28.5 -0.5l-40 -1q-36 1 -66.5 6.5t-55.5 15.5t-37.5 29t-12.5 46zM150 432v88v0v0l4 5q2 1 5 1.5t7 0.5h40h2h2q1 -1 2 -1h2h2h2q1 -1 2 -1h2q2 -1 4.5 -1.5t5.5 -1.5q2 -1 4.5 -2t4.5 -3q5 -3 8 -6t4 -8v-94l-4 -8q-1 -1 -3.5 -2t-5.5 -1h-40h-4.5 t-4.5 1q-3 0 -5.5 1t-4.5 2q-6 2 -11.5 5.5t-10.5 7.5q-4 4 -6.5 8.5t-2.5 8.5zM152 155q14 2 26.5 3.5t24.5 2.5q5 1 10.5 1.5t10.5 1.5q11 2 21.5 3t19.5 3q9 1 17 2.5t15 2.5q17 3 28 6t17 7q6 3 9 9t3 15v2t1 2v1v2v2t1 2v1v2q0 12 -5 22t-15 18q-7 5 -15.5 8.5 t-19.5 5.5q-4 -1 -9 -2t-11 -3q-13 -3 -26.5 -9.5t-27.5 -15.5q-11 -8 -21.5 -18t-21.5 -22q-10 -11 -18 -24.5t-14 -30.5v0zM291 424v96v0v0l3 3q2 1 4.5 1.5t5.5 0.5h40h2h2q1 -1 2.5 -1h2.5q2 0 4.5 -0.5t5.5 -1.5q6 -1 11.5 -3.5t9.5 -4.5q2 -1 4 -2.5t3 -2.5 q2 -2 2.5 -3t0.5 -3v-94q0 -4 -1 -6t-3 -4q-2 -1 -5 -1.5t-6 -0.5h-40h-4t-4 1q-2 0 -4.5 0.5t-4.5 1.5q-5 2 -9.5 4t-9.5 5q-4 3 -7 7t-5 8z" />
<glyph unicode="&#xec;" horiz-adv-x="260" d="M44 510v4v4.5t1 5.5q0 2 1 4.5t2 4.5t2.5 4t3.5 5l4 4t5 4v1h40v0q5 2 8.5 2t7.5 -2q3 -2 6.5 -5.5t7.5 -8.5q3 -6 7 -13t8 -15q4 -9 8.5 -17.5t9.5 -16.5q5 -10 12 -19.5l14 -18.5q8 -9 17 -16.5t20 -12.5l7 -4q1 -1 1.5 -2l0.5 -1q1 -1 1 -2v-2l-1 -3v-2q-1 -3 -3 -6 t-4 -5q-1 -1 -2.5 -2t-2.5 -2q-2 0 -3 -0.5t-3 -0.5l-4 -1h-40l-3 2l-10.5 5.5t-15.5 9.5t-18 13t-18 15q-8 6 -15.5 13.5t-15.5 14.5l-13.5 16t-11.5 16q-1 2 -2.5 4t-2.5 5q-1 2 -1.5 4t-1.5 4t-1.5 4t-0.5 5q-1 2 -1 4zM74 322q-1 3 0 5q2 2 4 3t6 1h40q3 0 7.5 -0.5 t8.5 -1.5q5 -1 10 -2.5t10 -3.5l8 -4l8 -4t7.5 -4.5l6.5 -4.5q2 -1 4 -4t3 -9t1.5 -13t0.5 -16q0 -10 -0.5 -21t-1.5 -24t-1.5 -27t-1.5 -29q0 -4 -0.5 -8.5t-0.5 -8.5q-1 -5 -1 -9v-9q-1 -9 -1.5 -18t-0.5 -18v-6.5v-6.5q-1 -4 -1 -7v-6v-13.5v-12.5v-13v-12v-6v-5 q0 -3 0.5 -5.5t0.5 -5.5l-4 -6q-1 0 -3.5 -0.5t-4.5 -0.5l-40 -1q-1 1 -2 1h-1q-1 1 -2 1h-2h-2h-2q-1 1 -2 1h-2q-4 1 -7.5 1.5t-6.5 2.5l-6 2t-5 2l-3 2l-1 2q-1 5 -2.5 11t-1.5 14q-1 8 -1 18v21v12v13v13.5t1 14.5v14v14v15.5v14.5v6v2v2v1v2q0 17 -0.5 33.5t-2.5 32.5 q-1 17 -3 32t-5 28v1v0q-4 4 -5 7z" />
<glyph unicode="&#xed;" horiz-adv-x="260" d="M49.5 387.5q1.5 4.5 9.5 9.5t17.5 13.5t20.5 19.5q3 5 7 9.5t8 9.5t7.5 10.5t6.5 11.5v1v0q3 2 5.5 6t4.5 8q1 2 2 4.5t3 5.5q1 2 2 4.5t2 4.5l2 4l1 4q3 8 6 14t7 12q3 5 8 8t12 3h40q5 0 9.5 -3.5t8.5 -9.5t6 -13t2 -15v-4v-4l-2 -6q-25 -37 -46 -61t-39 -36t-31 -17.5 t-22 -5.5h-40h-7l-5 2h-1v1q-6 5 -4.5 9.5zM74 322q-1 3 0 5q2 2 4 3t6 1h40q3 0 7.5 -0.5t8.5 -1.5q5 -1 10 -2.5t10 -3.5l8 -4l8 -4t7.5 -4.5l6.5 -4.5q2 -1 4 -4t3 -9t1.5 -13t0.5 -16q0 -10 -0.5 -21t-1.5 -24t-1.5 -27t-1.5 -29q0 -4 -0.5 -8.5t-0.5 -8.5q-1 -5 -1 -9 v-9q-1 -9 -1.5 -18t-0.5 -18v-6.5v-6.5q-1 -4 -1 -7v-6v-13.5v-12.5v-13v-12v-6v-5q0 -3 0.5 -5.5t0.5 -5.5l-4 -6q-1 0 -3.5 -0.5t-4.5 -0.5l-40 -1q-1 1 -2 1h-1q-1 1 -2 1h-2h-2h-2q-1 1 -2 1h-2q-4 1 -7.5 1.5t-6.5 2.5l-6 2t-5 2l-3 2l-1 2q-1 5 -2.5 11t-1.5 14 q-1 8 -1 18v21v12v13v13.5t1 14.5v14v14v15.5v14.5v6v2v2v1v2q0 17 -0.5 33.5t-2.5 32.5q-1 17 -3 32t-5 28v1v0q-4 4 -5 7z" />
<glyph unicode="&#xee;" horiz-adv-x="260" d="M-39 425q5 2 9.5 5t9.5 6q2 2 4 3.5t4 3.5q3 1 5 3l4 4q3 3 5.5 6t6.5 6l3.5 3.5t3.5 2.5q1 2 3 3.5t3 2.5q14 11 26 22.5t24 21.5q11 11 21 18.5t17 13.5l4 3l4 1l2 1h40h2l3 -1h3q8 -4 17 -14.5t20 -28.5t33 -39.5t54 -47.5l-32 -38h-40v0v0l-93 99l-111 -91h-40z M74 322q-1 3 0 5q2 2 4 3t6 1h40q3 0 7.5 -0.5t8.5 -1.5q5 -1 10 -2.5t10 -3.5l8 -4l8 -4t7.5 -4.5l6.5 -4.5q2 -1 4 -4t3 -9t1.5 -13t0.5 -16q0 -10 -0.5 -21t-1.5 -24t-1.5 -27t-1.5 -29q0 -4 -0.5 -8.5t-0.5 -8.5q-1 -5 -1 -9v-9q-1 -9 -1.5 -18t-0.5 -18v-6.5v-6.5 q-1 -4 -1 -7v-6v-13.5v-12.5v-13v-12v-6v-5q0 -3 0.5 -5.5t0.5 -5.5l-4 -6q-1 0 -3.5 -0.5t-4.5 -0.5l-40 -1q-1 1 -2 1h-1q-1 1 -2 1h-2h-2h-2q-1 1 -2 1h-2q-4 1 -7.5 1.5t-6.5 2.5l-6 2t-5 2l-3 2l-1 2q-1 5 -2.5 11t-1.5 14q-1 8 -1 18v21v12v13v13.5t1 14.5v14v14v15.5 v14.5v6v2v2v1v2q0 17 -0.5 33.5t-2.5 32.5q-1 17 -3 32t-5 28v1v0q-4 4 -5 7z" />
<glyph unicode="&#xef;" horiz-adv-x="260" d="M16 440v88v0v0l4 5q2 1 4.5 1.5t6.5 0.5h40h2h2q1 -1 2 -1h2h2h2q1 -1 2.5 -1h2.5q2 -1 4.5 -2t5.5 -2q2 -1 4.5 -2t4.5 -3q5 -3 8 -6t4 -7v-94l-4 -8q-1 -1 -3.5 -2t-5.5 -1h-40h-4.5t-4.5 1q-3 0 -5.5 1t-4.5 2q-6 2 -11.5 5.5t-10.5 7.5q-4 4 -6.5 8.5t-2.5 8.5z M74 322q-1 3 0 5q2 2 4 3t6 1h40q3 0 7.5 -0.5t8.5 -1.5q5 -1 10 -2.5t10 -3.5l8 -4l8 -4t7.5 -4.5l6.5 -4.5q2 -1 4 -4t3 -9t1.5 -13t0.5 -16q0 -10 -0.5 -21t-1.5 -24t-1.5 -27t-1.5 -29q0 -4 -0.5 -8.5t-0.5 -8.5q-1 -5 -1 -9v-9q-1 -9 -1.5 -18t-0.5 -18v-6.5v-6.5 q-1 -4 -1 -7v-6v-13.5v-12.5v-13v-12v-6v-5q0 -3 0.5 -5.5t0.5 -5.5l-4 -6q-1 0 -3.5 -0.5t-4.5 -0.5l-40 -1q-1 1 -2 1h-1q-1 1 -2 1h-2h-2h-2q-1 1 -2 1h-2q-4 1 -7.5 1.5t-6.5 2.5l-6 2t-5 2l-3 2l-1 2q-1 5 -2.5 11t-1.5 14q-1 8 -1 18v21v12v13v13.5t1 14.5v14v14v15.5 v14.5v6v2v2v1v2q0 17 -0.5 33.5t-2.5 32.5q-1 17 -3 32t-5 28v1v0q-4 4 -5 7zM157 432v96v0v0l3 3q2 1 4.5 1.5t5.5 0.5h40h2h2q1 -1 2.5 -1h2.5q2 0 4.5 -0.5t5.5 -1.5q6 -1 11.5 -3.5t9.5 -4.5q2 -1 4 -2.5t3 -2.5q2 -2 2.5 -3t0.5 -3v-94q0 -4 -1 -6t-3 -4q-2 -1 -5 -1.5 t-6 -0.5h-40h-4h-4t-4.5 0.5t-4.5 1.5q-5 2 -9.5 4.5l-9.5 5.5q-4 3 -7 7t-5 8z" />
<glyph unicode="&#xf0;" horiz-adv-x="544" />
<glyph unicode="&#xf1;" horiz-adv-x="544" d="M75 320l3 8q2 2 4.5 2.5t5.5 0.5h40h2h3q1 -1 2.5 -1h2.5q2 -1 5 -1.5t6 -1.5q2 -1 3.5 -1.5t3.5 -1.5q1 -1 3 -1.5t3 -1.5q2 -1 3.5 -2t2.5 -1q2 -1 3.5 -2t2.5 -2l5 -4l3 -4q2 -1 3 -3t2 -5t1.5 -7t0.5 -9q0 -8 -1 -18.5t-3 -22.5l-2 -12.5t-1 -13.5l-2 -12.5l-2 -13.5 l-1 -2q22 34 42.5 55.5t40.5 31.5q31 16 53.5 24t36.5 8h40h2h2h1h2h5h1h2q15 0 26 -10.5t18 -31.5t13 -44t10 -49q0 -4 0.5 -7.5t1.5 -6.5v-3t1 -3q0 -2 0.5 -3.5t0.5 -3.5q3 -19 6.5 -36.5t7.5 -32.5t9.5 -24.5t12.5 -12.5q2 -1 3.5 -2t3.5 -1l2 -2l2 -2t1.5 -2l0.5 -1 q1 -1 1 -2v-2l-1 -4l-1 -3q-3 -4 -7 -7t-9 -6q-3 -1 -6 -2.5t-5 -1.5q-1 0 -2 -0.5t-2 -0.5q-2 -1 -4 -1.5t-4 -1.5q-4 -2 -7.5 -2.5t-6.5 -1.5h-2.5t-3.5 -1h-2.5h-2.5l-40 -1q-4 1 -7.5 1.5t-5.5 1.5q-3 1 -4 3t-1 4q-1 8 -3.5 18.5t-5.5 25.5l-6.5 29.5t-7.5 31.5 q-1 2 -1.5 4t-0.5 5q-1 2 -1.5 4t-0.5 4q-1 4 -1.5 8t-1.5 8l-5.5 19t-4.5 18l-4 15.5t-4 13.5q-4 15 -10 25.5t-13 17.5q-1 1 -2.5 2t-2.5 2q-2 1 -3 2t-3 2q-2 -1 -4.5 -2t-4.5 -3q-9 -5 -17.5 -12t-16.5 -16q-15 -16 -28.5 -35.5t-27.5 -42.5l-25 -48t-21 -50 q-1 -3 -2.5 -6t-2.5 -6q-1 -1 -1.5 -2.5t-0.5 -2.5l-1.5 -3t-0.5 -3q-1 -2 -3 -3.5t-5 -3.5q-1 -1 -2.5 -1.5t-2.5 -0.5h-3h-3h-40h-2h-3q-4 0 -8 1.5t-8 3.5t-5.5 5t-1.5 6v15.5v15.5v8v8q0 3 0.5 7t0.5 8v9.5v9.5v9v9v9t1 9v8.5v8.5v10.5t1 10.5v10.5v10.5v9.5t1 9.5v9v9 v11v10q-1 5 -1 9.5v8.5q-1 8 -1.5 14t-1.5 10v1v0q-1 1 -1.5 2t-0.5 2q-1 0 -1 1v2zM106 413v4q1 2 2 3.5t2 3.5q16 25 31 42t28 26q14 9 26 13.5t24 4.5h40q9 0 18 -2t17 -6t16.5 -7.5t16.5 -8.5l6 -4t7 -3q3 -2 6 -3.5t6 -3.5q2 -1 3.5 -1.5t3.5 -1.5t3.5 -1.5t3.5 -1.5 l3 1.5l3 1.5q1 1 2.5 1.5t2.5 1.5q8 5 16 15t16 24v1v0l4 1h40h4q2 0 4.5 -0.5t3.5 -2.5q2 -2 2.5 -4.5t0.5 -5.5q0 -4 -1.5 -8l-3.5 -9t-5 -10.5t-8 -10.5t-11.5 -10t-14.5 -10q-7 -5 -17 -9.5t-21 -8.5l-3 -1h-40h-2h-3h-3h-5.5t-4.5 1h-2.5t-2.5 1q-2 0 -3 0.5t-3 0.5 q-4 2 -8.5 4t-9.5 5q-2 1 -4.5 2t-4.5 3q-3 1 -5.5 2.5t-4.5 2.5q-4 2 -7.5 4t-6.5 4q-4 1 -7.5 3t-7.5 4q-3 2 -6 2.5t-6 1.5q-2 -1 -4.5 -2t-4.5 -2q-3 -1 -5.5 -2t-4.5 -2q-10 -6 -21 -16t-22 -24l-6 -7l-4 -2t-4 -1h-40h-2h-2l-7 1q-1 1 -2 2.5t-1 3.5z" />
<glyph unicode="&#xf2;" horiz-adv-x="544" d="M39 101q0 8 1.5 18t4.5 23t8.5 26.5t14.5 27.5q11 19 29.5 36.5t43.5 33.5q26 17 61 26.5t81 13.5v1h40v0q8 -1 17 -1.5t20 -2.5q11 -1 23 -3.5t24 -5.5q20 -6 37.5 -15t33.5 -21t24 -29t8 -39q0 -10 -2 -20t-5 -21t-8.5 -23t-13.5 -25q-10 -16 -22.5 -30t-29.5 -27 q-16 -13 -33.5 -22.5t-35.5 -15.5q-4 -1 -8.5 -2.5t-8.5 -2.5q-5 -1 -9 -2t-9 -2q-9 -2 -17 -3t-16 -1h-6t-5 -1h-6h-6h-6t-5 -1h-6h-6l-40 -1h-6h-6q-28 2 -54 7.5t-49 15.5q-24 11 -37 33t-15 55zM152 152q0 -25 10.5 -47.5t31.5 -41.5q17 -16 38.5 -25.5t45.5 -11.5v0v0 q5 1 10.5 2t10.5 2q22 5 40 15t32 26q14 15 21.5 33.5t7.5 39.5v3.5v2.5q-1 2 -1 3.5v2.5q0 3 -0.5 6t-1.5 6l-1 6l-2 6v1v0q-10 24 -23.5 40.5t-30.5 25.5q-13 7 -27 11.5t-28 5.5q-10 -1 -20 -3t-20 -5q-15 -4 -27.5 -9.5t-21.5 -10.5q-4 -3 -7.5 -5t-6.5 -4t-4.5 -4 t-3.5 -4q-1 -2 -2.5 -4t-3.5 -4q-1 -3 -2 -5l-2 -4q-2 -4 -3.5 -8t-3.5 -8q-1 -4 -2 -8.5t-2 -9.5q-1 -4 -1 -8v-8zM170 510v4v4.5t1 5.5q0 2 1 4.5t2 4.5t2.5 4t3.5 5l4 4t5 4v1h40v0q5 2 8.5 2t7.5 -2q3 -2 6.5 -5.5t7.5 -8.5q3 -6 7 -13t8 -15q4 -9 8.5 -17.5t9.5 -16.5 q5 -10 12 -19.5l14 -18.5q8 -9 17 -16.5t20 -12.5l7 -4q1 -1 1.5 -2l0.5 -1q1 -1 1 -2v-2l-1 -3v-2q-1 -3 -3 -6t-4 -5q-1 -1 -2.5 -2t-2.5 -2q-2 0 -3 -0.5t-3 -0.5l-4 -1h-40l-3 2l-10.5 5.5t-15.5 9.5t-18 13t-18 15q-8 6 -15.5 13.5t-15.5 14.5l-13.5 16t-11.5 16 q-1 2 -2.5 4t-2.5 5q-1 2 -1.5 4t-1.5 4t-1.5 4t-0.5 5q-1 2 -1 4z" />
<glyph unicode="&#xf3;" horiz-adv-x="544" d="M39 101q0 8 1.5 18t4.5 23t8.5 26.5t14.5 27.5q11 19 29.5 36.5t43.5 33.5q26 17 61 26.5t81 13.5v1h40v0q8 -1 17 -1.5t20 -2.5q11 -1 23 -3.5t24 -5.5q20 -6 37.5 -15t33.5 -21t24 -29t8 -39q0 -10 -2 -20t-5 -21t-8.5 -23t-13.5 -25q-10 -16 -22.5 -30t-29.5 -27 q-16 -13 -33.5 -22.5t-35.5 -15.5q-4 -1 -8.5 -2.5t-8.5 -2.5q-5 -1 -9 -2t-9 -2q-9 -2 -17 -3t-16 -1h-6t-5 -1h-6h-6h-6t-5 -1h-6h-6l-40 -1h-6h-6q-28 2 -54 7.5t-49 15.5q-24 11 -37 33t-15 55zM152 152q0 -25 10.5 -47.5t31.5 -41.5q17 -16 38.5 -25.5t45.5 -11.5v0v0 q5 1 10.5 2t10.5 2q22 5 40 15t32 26q14 15 21.5 33.5t7.5 39.5v3.5v2.5q-1 2 -1 3.5v2.5q0 3 -0.5 6t-1.5 6l-1 6l-2 6v1v0q-10 24 -23.5 40.5t-30.5 25.5q-13 7 -27 11.5t-28 5.5q-10 -1 -20 -3t-20 -5q-15 -4 -27.5 -9.5t-21.5 -10.5q-4 -3 -7.5 -5t-6.5 -4t-4.5 -4 t-3.5 -4q-1 -2 -2.5 -4t-3.5 -4q-1 -3 -2 -5l-2 -4q-2 -4 -3.5 -8t-3.5 -8q-1 -4 -2 -8.5t-2 -9.5q-1 -4 -1 -8v-8zM183 378.5q1 4.5 9 10.5q8 5 17.5 13.5t21.5 20.5q3 4 7 8.5t8 9.5t7.5 11t6.5 12v1v0q3 2 5.5 6t4.5 8q2 5 4.5 9.5t4.5 9.5v2l2 3q3 8 6 14.5t7 12.5 q3 6 8.5 9t12.5 3h40q5 0 9.5 -3.5t8.5 -9.5q4 -7 6 -14t2 -15v-3l-1 -3l-1 -4v-3q-25 -37 -46 -61t-39 -36t-31 -17.5t-22 -5.5h-40h-7l-5 2q-7 5 -6 9.5z" />
</font>
</defs>
</svg>
